<svg height="512pt" viewBox="-9 0 512 512.00009" width="512pt" xmlns="http://www.w3.org/2000/svg"><g fill-rule="evenodd"><path d="m419.378906 239.863281h65.203125v262.140625h-474.585937v-262.140625c47.367187 0 105.570312-20.808593 138.566406-55.816406 50.121094-53.210937 54.941406-78.753906 94.742188-129.101563 25.230468-31.921874 73.707031-58.144531 124.621093-37.789062 50.886719 20.355469 48.417969 94.375 26.5625 113.28125-21.855469 18.910156-40.710937 16.1875-41.417969 5.386719-.707031-10.800781 11.167969-9.523438 16.839844-23.980469 18.765625-47.769531-74.21875-65.515625-74.21875 38.269531 0 76.003907 109.371094 89.75 123.6875 89.75zm0 0" fill="#67e4dc"/><path d="m9.996094 297.128906h1.273437c7.371094 23.105469 39.886719 40.539063 78.894531 40.539063 38.980469 0 71.496094-17.433594 78.867188-40.539063 7.398438 23.105469 39.914062 40.539063 78.894531 40.539063 39.007813 0 71.523438-17.433594 78.894531-40.539063 7.371094 23.105469 39.886719 40.539063 78.894532 40.539063 38.980468 0 71.496094-17.433594 78.867187-40.539063v98.878906h-1.277343c-7.371094 23.105469-39.886719 40.542969-78.863282 40.542969-39.007812 0-71.527344-17.4375-78.898437-40.542969-7.367188 23.105469-39.882813 40.542969-78.894531 40.542969-38.976563 0-71.492188-17.4375-78.894532-40.542969-7.367187 23.105469-39.886718 40.542969-78.863281 40.542969-39.007813 0-71.523437-17.4375-78.894531-40.542969zm0 0" fill="#d9f9f6"/><path d="m484.582031 229.871094h-65.203125c-4.640625 0-34.292968-2.695313-63.15625-15.515625-33.53125-14.890625-50.535156-36.507813-50.535156-64.242188 0-47.167969 19.601562-60.519531 28.03125-64.070312 8.910156-3.753907 18.714844-2.542969 24.40625 3.011719 4.664062 4.550781 5.542969 11.34375 2.480469 19.140624-1.753907 4.476563-4.222657 6.421876-7.347657 8.890626-4.328124 3.414062-10.867187 8.574218-10.160156 19.394531.46875 7.113281 4.820313 13.0625 11.644532 15.914062 12.324218 5.152344 30.0625-.363281 46.285156-14.398437 14.574218-12.605469 21.480468-40.902344 16.796875-68.808594-4.902344-29.179688-21.734375-51.527344-46.191407-61.308594-54.519531-21.796875-107.675781 4.820313-136.167968 40.875-8.558594 10.832032-16.210938 21.367188-24.085938 33.160156-3.0625 4.589844-1.828125 10.796876 2.765625 13.859376 4.585938 3.0625 10.792969 1.828124 13.855469-2.761719 7.570312-11.339844 14.925781-21.464844 23.144531-31.867188 23.890625-30.226562 68.121094-52.679687 113.070313-34.707031 24.402344 9.761719 31.710937 33.046875 33.898437 46.058594 3.765625 22.433594-2.34375 43.621094-10.160156 50.386718-11.566406 10.007813-20.550781 11.824219-24.191406 11.414063.566406-.488281 1.285156-1.054687 1.878906-1.523437 3.917969-3.09375 9.839844-7.765626 13.570313-17.273438 6.007812-15.296875 3.34375-30.527344-7.128907-40.746094-11.546875-11.273437-29.652343-14.066406-46.125-7.128906-12.101562 5.101562-40.257812 23.351562-40.257812 82.488281 0 35.847657 21.582031 64.378907 62.410156 82.511719 29.039063 12.894531 61.101563 17.234375 71.269531 17.234375h55.210938v45.546875c-7.027344 18.488281-36.21875 32.269531-68.875 32.269531-33.441406 0-63.265625-14.4375-69.375-33.582031-1.320313-4.144531-5.171875-6.957031-9.519532-6.957031-4.351562 0-8.199218 2.816406-9.519531 6.957031-6.109375 19.144531-35.933593 33.582031-69.375 33.582031-33.421875 0-63.246093-14.441406-69.378906-33.59375-1.324219-4.136719-5.171875-6.945312-9.515625-6.945312-.003906 0-.003906 0-.007812 0-4.347657.003906-8.191407 2.816406-9.515626 6.957031-6.105468 19.144531-35.917968 33.582031-69.34375 33.582031-33.445312 0-63.269531-14.4375-69.375-33.582031-.207031-.648438-.480468-1.257812-.804687-1.832031v-42.6875c22.195313-1.242188 46.082031-6.523438 68.308594-15.175781 27.4375-10.683594 50.789062-25.726563 67.542969-43.5 10.144531-10.773438 18.9375-20.914063 26.882812-31 3.414062-4.335938 2.667969-10.617188-1.667969-14.035157-4.335937-3.414062-10.617187-2.667969-14.03125 1.667969-7.578125 9.621094-15.996093 19.324219-25.730469 29.664062-29.234374 31.015626-83.226562 52.679688-131.296874 52.679688-5.519532 0-9.992188 4.472656-9.992188 9.992188v262.140624c0 5.519532 4.472656 9.992188 9.992188 9.992188h474.585937c5.519531 0 9.996094-4.472656 9.996094-9.992188v-262.144531c0-5.519531-4.472657-9.992187-9.992188-9.992187zm-394.417969 117.789062c33.730469 0 63.320313-11.953125 78.875-30.542968 15.570313 18.589843 45.164063 30.542968 78.886719 30.542968 33.742188 0 63.335938-11.949218 78.894531-30.535156 15.5625 18.585938 45.152344 30.535156 78.894532 30.535156 27.496094 0 52.242187-7.941406 68.875-20.949218v64.410156c-.324219.582031-.597656 1.199218-.804688 1.851562-6.109375 19.144532-35.921875 33.582032-69.347656 33.582032-33.441406 0-63.265625-14.4375-69.371094-33.582032-1.324218-4.144531-5.171875-6.957031-9.523437-6.957031-4.347657 0-8.199219 2.8125-9.519531 6.957031-6.109376 19.144532-35.933594 33.582032-69.375 33.582032-33.417969 0-63.242188-14.441407-69.375-33.59375-1.324219-4.136719-5.171876-6.945313-9.519532-6.945313h-.003906c-4.347656.003906-8.195312 2.816406-9.515625 6.957031-6.109375 19.144532-35.921875 33.582032-69.347656 33.582032-32.652344 0-61.855469-13.761719-68.898438-32.234376v-68.632812c16.632813 13.613281 41.953125 21.972656 70.175781 21.972656zm-70.175781 144.351563v-66.441407c16.636719 13.015626 41.382813 20.972657 68.898438 20.972657 33.734375 0 63.320312-11.953125 78.875-30.546875 15.570312 18.59375 45.164062 30.546875 78.886719 30.546875 33.742187 0 63.335937-11.949219 78.894531-30.539063 15.5625 18.589844 45.152343 30.539063 78.894531 30.539063 28.214844 0 53.523438-8.363281 70.152344-21.980469v67.449219zm0 0"/><path d="m198.058594 131.117188c5.527344 0 10.007812-4.476563 10.007812-10.007813 0-5.496094-4.476562-10.003906-10.007812-10.003906-5.496094 0-9.976563 4.507812-9.976563 10.003906 0 5.53125 4.480469 10.007813 9.976563 10.007813zm0 0"/></g></svg>