<svg id="Layer_1" enable-background="new 0 0 512 512" height="512" viewBox="0 0 512 512" width="512" xmlns="http://www.w3.org/2000/svg"><g clip-rule="evenodd" fill-rule="evenodd"><path d="m277.227 82.105h-130.18c0 17.906 21.165 46.374 21.165 88.003 0 22.001-4.995 30.53-9.708 40.528 0 0 40.581-26.124 79.13 0 0 0 20.742 13.359 46.648 11.438l49.527-139.969z" fill="#99ebfa"/><path d="m407.408 82.105h-73.599l-49.527 139.969c10.357-.763 21.504-3.982 32.51-11.438 0 0 40.609-26.124 79.158 0-4.713-9.998-9.736-18.527-9.736-40.528.001-41.629 21.194-70.097 21.194-88.003z" fill="#99ebfa"/><path d="m395.951 210.636c-38.549-26.124-79.158 0-79.158 0-11.006 7.456-22.153 10.676-32.51 11.438-25.906 1.92-46.648-11.438-46.648-11.438-38.549-26.124-79.13 0-79.13 0-4.233 8.953-8.24 19.035-8.24 40.952 0 68.657 55.51 123.617 123.464 124.549h3.499 3.499c67.955-.932 123.436-55.892 123.436-124.549 0-21.916-3.979-31.999-8.212-40.952z" fill="#ffda8f"/><path d="m297.941 376.137h-17.214c-1.157 0-2.342 0-3.499 0-1.185 0-2.342 0-3.499 0h-17.214v80.35h41.428v-80.35z" fill="#99ebfa"/><path d="m297.941 456.486h-41.428-72.385c-12.502 0-22.717 10.224-22.717 22.707v22.735h231.605v-22.735c0-12.483-10.216-22.707-22.689-22.707z" fill="#99ebfa"/><path d="m162.652 11.725h-31.212c-12.925 2.881-25.257 9.348-35.332 19.403-28.108 28.158-28.108 73.797 0 101.955 18.767 18.781 45.266 25.023 69.196 18.781-4.346-32.846-20.093-56.146-20.093-71.595h73.853c-.452-17.821-7.478-35.529-21.081-49.142-10.073-10.054-22.377-16.521-35.331-19.402z" fill="#ffcd69"/></g><path d="m255.328 491.857h-.169c-5.562 0-10.071 4.509-10.071 10.072 0 5.562 4.509 10.072 10.071 10.072h.169c5.562 0 10.071-4.509 10.071-10.072s-4.509-10.072-10.071-10.072z"/><path d="m446.725 16.174c-1.287-5.412-6.717-8.756-12.127-7.469l-88.019 20.927c-3.326.791-6.024 3.216-7.165 6.439l-12.725 35.962h-98.145c-2.218-18.134-10.376-34.956-23.439-48.029-32.013-32.006-84.103-32.006-116.116 0-.002.002-.005.005-.007.007-31.975 32.032-31.975 84.153.003 116.19 15.557 15.569 36.679 24.048 58.24 24.048 3.563 0 7.139-.237 10.704-.707.126 2.156.212 4.336.212 6.565 0 17.954-3.529 25.304-7.615 33.815-4.844 10.089-10.334 21.523-10.334 47.664 0 36.181 14.196 70.116 39.974 95.552 18.55 18.305 41.404 30.607 66.276 35.99v63.285h-62.314c-18.08 0-32.789 14.704-32.789 32.779v22.735c0 5.562 4.509 10.072 10.071 10.072h49.132c5.562 0 10.071-4.509 10.071-10.072 0-5.562-4.509-10.072-10.071-10.072h-39.061v-12.663c0-6.967 5.673-12.636 12.647-12.636h72.385 41.428 72.385c6.958 0 12.618 5.668 12.618 12.636v12.663h-83c-5.562 0-10.071 4.509-10.071 10.072 0 5.562 4.509 10.072 10.071 10.072h93.071c5.562 0 10.071-4.509 10.071-10.072v-22.735c0-18.074-14.696-32.779-32.76-32.779h-62.315v-63.3c19.056-4.132 36.981-12.346 52.877-24.398 4.432-3.36 5.302-9.678 1.941-14.111-3.359-4.432-9.676-5.302-14.11-1.941-20.638 15.647-45.297 23.758-71.275 23.401h-3.475c-30.077-.376-58.234-12.125-79.657-33.264-21.911-21.621-33.979-50.464-33.979-81.213 0-17.477 2.666-26.337 5.963-33.83 8.461-4.566 37.749-17.717 65.686 1.216.065.044.131.088.197.13 1.243.801 21.112 13.312 46.983 13.31 13.361 0 28.324-3.338 43.144-13.35 1.712-1.062 34.404-20.782 65.709-1.557 3.348 7.547 6.075 16.408 6.075 34.081 0 6.076-.481 12.221-1.43 18.263-.864 5.495 2.891 10.65 8.386 11.513 5.502.867 10.649-2.892 11.512-8.386 1.111-7.073 1.674-14.27 1.674-21.389 0-24.369-4.771-35.957-9.341-45.589-.332-.7-.664-1.391-.992-2.075-4.086-8.511-7.615-15.861-7.615-33.815 0-23.292 7.317-42.546 13.196-58.017 4.291-11.293 7.997-21.045 7.997-29.987 0-5.562-4.509-10.072-10.071-10.072h-59.353l8.518-24.073 82.684-19.659c5.412-1.286 8.756-6.716 7.47-12.127zm-180.141 370.034h21.286v60.206h-21.286zm-121.372-316.01c-5.562 0-10.071 4.509-10.071 10.072 0 8.944 3.704 18.701 7.993 29.999 3.77 9.932 7.945 20.929 10.575 33.499-18.461 1.957-37.171-4.489-50.473-17.801-24.142-24.185-24.142-63.538 0-87.723l-.002.002c24.161-24.151 63.47-24.149 87.626.001 8.817 8.824 14.677 19.914 17.014 31.951zm131.879 142.007c-18.371-.548-32.551-9.127-33.939-9.995-24.6-16.607-49.578-14.837-66.986-9.943 1.286-5.914 2.116-13.066 2.116-22.159 0-26.988-8.375-49.056-14.49-65.169-1.756-4.628-3.395-8.945-4.61-12.763h160.377zm118.176-120.029c-1.216 3.817-2.856 8.133-4.614 12.759-6.123 16.114-14.51 38.183-14.51 65.173 0 8.678.758 15.584 1.944 21.338-34.859-9.341-65.199 9.726-66.745 10.72-.069.044-.137.089-.205.135-3.76 2.551-7.544 4.513-11.3 6l41.088-116.124h54.342z"/><path d="m391.498 305.611c-4.979-2.483-11.025-.458-13.506 4.52l-.084.169c-2.482 4.978-.458 11.026 4.52 13.507 1.443.72 2.976 1.06 4.486 1.06 3.698 0 7.259-2.045 9.021-5.58l.084-.169c2.48-4.977.457-11.025-4.521-13.507z"/></svg>