<svg height="512pt" viewBox="0 -23 512.001 512" width="512pt" xmlns="http://www.w3.org/2000/svg"><g fill-rule="evenodd"><path d="m66.433594 163.175781c5.539062 0 10.890625.800781 15.953125 2.289063 7.589843-44.644532 46.449219-78.640625 93.257812-78.640625 52.25 0 94.605469 42.359375 94.605469 94.609375 0 2.355468-.089844 4.6875-.257812 7 .527343-.015625 1.054687-.03125 1.585937-.03125 24.199219 0 43.816406 19.621094 43.816406 43.816406 0 24.203125-19.617187 43.820312-43.816406 43.820312h-205.144531c-31.167969 0-56.433594-25.265624-56.433594-56.433593 0-31.164063 25.265625-56.429688 56.433594-56.429688zm0 0" fill="#67e4dc"/><path d="m455.054688 276.039062c25.820312 0 46.945312-21.128906 46.945312-46.949218 0-23.890625-18.085938-43.757813-41.242188-46.597656 1.992188-6.441407 3.066407-13.289063 3.066407-20.382813 0-38.042969-30.839844-68.882813-68.878907-68.882813-4.484374 0-8.867187.433594-13.113281 1.253907-7.277343-47.832031-48.582031-84.480469-98.445312-84.480469-47.378907 0-87.03125 33.089844-97.109375 77.417969 47.242187 5.28125 83.972656 45.359375 83.972656 94.011719 0 2.359374-.089844 4.691406-.257812 7.003906l1.585937-.03125c24.199219 0 43.816406 19.617187 43.816406 43.816406s-19.617187 43.820312-43.816406 43.820312zm0 0" fill="#d9f9f6"/><path d="m472.777344 174.972656c.699218-4.234375 1.046875-8.539062 1.046875-12.863281 0-43.496094-35.382813-78.882813-78.878907-78.882813-1.710937 0-3.425781.058594-5.136718.167969-8.164063-33-31.730469-61.046875-63.289063-74.570312-5.074219-2.175781-10.953125.175781-13.128906 5.253906-2.175781 5.074219.175781 10.953125 5.25 13.128906 28.265625 12.113281 48.691406 38.46875 53.304687 68.777344.410157 2.691406 1.898438 5.097656 4.121094 6.667969 2.222656 1.566406 4.984375 2.164062 7.660156 1.648437 3.6875-.714843 7.460938-1.074219 11.21875-1.074219 32.464844 0 58.878907 26.414063 58.878907 58.882813 0 5.941406-.882813 11.808594-2.621094 17.429687-.875 2.828126-.449219 5.902344 1.15625 8.386719 1.609375 2.488281 4.242187 4.132813 7.179687 4.492188 18.507813 2.269531 32.460938 18.035156 32.460938 36.671875 0 20.375-16.574219 36.949218-36.945312 36.949218h-141.652344c7.492187-9.25 11.992187-21.015624 11.992187-33.820312 0-26.730469-19.589843-48.976562-45.171875-53.121094-1.070312-48.625-35.480468-89.175781-81.226562-99.644531 8.320312-23.269531 26.113281-42.382813 49.132812-52.246094 5.074219-2.175781 7.425782-8.054687 5.253906-13.132812-2.179687-5.074219-8.058593-7.425781-13.132812-5.25-29.503906 12.644531-51.976562 37.71875-61.46875 68.050781-1.042969-.03125-2.089844-.050781-3.136719-.050781-24.851562 0-48.9375 8.867187-67.824219 24.96875-16.023437 13.660156-27.527343 31.816406-33.054687 51.902343-2.753906-.347656-5.539063-.523437-8.335937-.523437-18.992188 0-37.117188 8.164063-49.730469 22.390625-3.660157 4.132812-3.28125 10.453125.851562 14.117188 4.136719 3.664062 10.457031 3.28125 14.117188-.851563 8.816406-9.949219 21.488281-15.65625 34.761719-15.65625 4.464843 0 8.882812.636719 13.132812 1.886719 2.738281.804687 5.695312.402344 8.117188-1.113282 2.421874-1.511718 4.085937-3.988281 4.5625-6.804687 6.925781-40.742187 42-70.316406 83.398437-70.316406 46.652344 0 84.605469 37.953125 84.605469 84.605469 0 2.066406-.074219 4.175781-.230469 6.277343-.207031 2.832031.800781 5.621094 2.773437 7.667969 1.972657 2.042969 4.726563 3.152344 7.5625 3.050781.40625-.011719.8125-.023437 1.226563-.023437 18.644531 0 33.816406 15.171875 33.816406 33.816406 0 18.648438-15.171875 33.820312-33.816406 33.820312h-205.144531c-13.277344 0-25.945313-5.707031-34.761719-15.65625-3.664063-4.132812-9.984375-4.515624-14.117187-.851562-4.132813 3.660156-4.515626 9.980469-.851563 14.117188 12.609375 14.226562 30.734375 22.390624 49.730469 22.390624h388.621094c31.398437 0 56.945312-25.546874 56.945312-56.949218 0-24.96875-16.246094-46.589844-39.222656-54.117188zm0 0"/><path d="m172.230469 315.933594c-4.785157-2.757813-10.898438-1.121094-13.660157 3.660156l-37.503906 64.960938c-2.761718 4.785156-1.125 10.898437 3.660156 13.660156 1.574219.910156 3.292969 1.34375 4.992188 1.34375 3.453125 0 6.816406-1.796875 8.667969-5.003906l37.503906-64.960938c2.761719-4.78125 1.125-10.894531-3.660156-13.660156zm0 0"/><path d="m197.234375 381.921875c-4.785156-2.761719-10.898437-1.125-13.660156 3.660156l-37.503907 64.960938c-2.761718 4.78125-1.125 10.898437 3.660157 13.660156 1.574219.910156 3.292969 1.339844 4.988281 1.339844 3.457031 0 6.816406-1.792969 8.671875-5l37.503906-64.960938c2.761719-4.785156 1.121094-10.898437-3.660156-13.660156zm0 0"/><path d="m400.246094 315.933594c-4.78125-2.757813-10.898438-1.121094-13.660156 3.660156l-37.507813 64.960938c-2.757813 4.785156-1.121094 10.898437 3.660156 13.660156 1.578125.910156 3.296875 1.34375 4.992188 1.34375 3.457031 0 6.816406-1.796875 8.667969-5.003906l37.507812-64.960938c2.761719-4.78125 1.121094-10.894531-3.660156-13.660156zm0 0"/><path d="m309.242188 381.921875c-4.785157-2.761719-10.898438-1.125-13.660157 3.660156l-37.507812 64.960938c-2.757813 4.78125-1.121094 10.898437 3.660156 13.660156 1.578125.910156 3.296875 1.339844 4.992187 1.339844 3.457032 0 6.816407-1.792969 8.667969-5l37.507813-64.960938c2.761718-4.785156 1.121094-10.898437-3.660156-13.660156zm0 0"/><path d="m286.238281 315.933594c-4.785156-2.757813-10.898437-1.121094-13.660156 3.660156l-37.503906 64.960938c-2.761719 4.785156-1.125 10.898437 3.660156 13.660156 1.574219.910156 3.292969 1.34375 4.988281 1.34375 3.457032 0 6.816406-1.796875 8.671875-5.003906l37.503907-64.960938c2.761718-4.78125 1.121093-10.894531-3.660157-13.660156zm0 0"/><path d="m283.386719 20c5.507812 0 10-4.492188 10-10s-4.492188-10-10-10c-5.507813 0-10 4.492188-10 10s4.492187 10 10 10zm0 0"/><path d="m20 219.605469c0-5.507813-4.492188-10-10-10s-10 4.492187-10 10c0 5.507812 4.492188 10 10 10s10-4.492188 10-10zm0 0"/></g></svg>