<svg height="512pt" viewBox="0 -13 512 512" width="512pt" xmlns="http://www.w3.org/2000/svg"><g fill-rule="evenodd"><path d="m77.6875 154.402344c4.230469 0 8.371094.390625 12.386719 1.132812-7.554688-13.945312-11.839844-29.921875-11.839844-46.894531 0-54.476563 44.164063-98.640625 98.640625-98.640625 54.050781 0 97.941406 43.476562 98.625 97.363281 8.105469-3.433593 17.019531-5.332031 26.375-5.332031 34.296875 0 62.632812 25.511719 67.074219 58.589844 5.128906-1.75 10.625-2.699219 16.347656-2.699219 27.925781 0 50.566406 22.640625 50.566406 50.5625 0 .273437-.007812.546875-.011719.816406 6.609376-4.0625 14.386719-6.40625 22.710938-6.40625 23.992188 0 43.441406 19.449219 43.441406 43.441407 0 23.988281-19.449218 43.4375-43.441406 43.4375h-380.875c-37.382812 0-67.6875-30.304688-67.6875-67.6875 0-37.382813 30.304688-67.683594 67.6875-67.683594zm0 0" fill="#75bdd9"/><path d="m150.746094 329.226562c16.363281 0 29.625 13.265626 29.625 29.625 0 16.363282-13.261719 29.625-29.625 29.625-16.359375 0-29.625-13.261718-29.625-29.625 0-16.359374 13.265625-29.625 29.625-29.625zm210.507812 0c16.359375 0 29.625 13.265626 29.625 29.625 0 16.363282-13.265625 29.625-29.625 29.625-16.363281 0-29.625-13.261718-29.625-29.625 0-16.359374 13.261719-29.625 29.625-29.625zm-51.75 87.628907c16.359375 0 29.625 13.265625 29.625 29.625 0 16.363281-13.265625 29.625-29.625 29.625-16.363281 0-29.625-13.261719-29.625-29.625 0-16.359375 13.261719-29.625 29.625-29.625zm-53.503906-87.628907c16.359375 0 29.625 13.265626 29.625 29.625 0 16.363282-13.265625 29.625-29.625 29.625s-29.625-13.261718-29.625-29.625c0-16.359374 13.265625-29.625 29.625-29.625zm-51.75 87.628907c16.359375 0 29.625 13.265625 29.625 29.625 0 16.363281-13.265625 29.625-29.625 29.625s-29.625-13.261719-29.625-29.625c0-16.359375 13.265625-29.625 29.625-29.625zm0 0" fill="#d9f9f6"/><path d="m458.5625 192.894531c-4.847656 0-9.640625.65625-14.253906 1.933594-6.210938-26.839844-30.316406-46.90625-59.011719-46.90625-2.917969 0-5.8125.207031-8.671875.617187-9.316406-32.871093-39.726562-56.507812-74.753906-56.507812-5.894532 0-11.691406.652344-17.34375 1.941406-3.179688-23.6875-14.039063-45.550781-31.300782-62.613281-20.464843-20.222656-47.578124-31.359375-76.351562-31.359375-59.90625 0-108.644531 48.734375-108.644531 108.640625 0 12.222656 2.074219 24.367187 6.070312 35.835937-41.273437 1.777344-74.300781 35.910157-74.300781 77.609376 0 42.835937 34.851562 77.6875 77.6875 77.6875h138.3125c5.523438 0 10-4.476563 10-10 0-5.519532-4.476562-10-10-10h-138.3125c-31.808594 0-57.6875-25.878907-57.6875-57.6875 0-31.808594 25.878906-57.683594 57.6875-57.683594 3.542969 0 7.097656.324218 10.566406.964844 3.785156.699218 7.640625-.835938 9.90625-3.949219 2.269532-3.117188 2.542969-7.257813.707032-10.644531-6.957032-12.847657-10.636719-27.417969-10.636719-42.132813 0-48.878906 39.765625-88.644531 88.644531-88.644531 48.253906 0 88.011719 39.25 88.625 87.492187.042969 3.332031 1.742188 6.421875 4.527344 8.246094 2.789062 1.820313 6.300781 2.132813 9.371094.835937 7.113281-3.011718 14.671874-4.539062 22.472656-4.539062 28.769531 0 53.34375 21.460938 57.167968 49.921875.398438 2.964844 2.101563 5.597656 4.648438 7.171875 2.542969 1.574219 5.660156 1.925781 8.492188.960938 4.210937-1.4375 8.621093-2.167969 13.117187-2.167969 22.367187 0 40.5625 18.199219 40.5625 40.566406l-.007813.636719c-.066406 3.652344 1.867188 7.050781 5.039063 8.863281 3.175781 1.8125 7.082031 1.746094 10.195313-.164063 5.242187-3.222656 11.285156-4.925781 17.476562-4.925781 18.4375 0 33.441406 15 33.441406 33.4375 0 18.441407-15 33.441407-33.441406 33.441407h-162.5625c-5.523438 0-10 4.480468-10 10 0 5.523437 4.476562 10 10 10h162.5625c29.464844 0 53.4375-23.972657 53.4375-53.4375 0-29.46875-23.972656-53.441407-53.4375-53.441407zm0 0"/><path d="m190.371094 358.851562c0-21.847656-17.773438-39.625-39.625-39.625-21.847656 0-39.625 17.777344-39.625 39.625 0 21.851563 17.777344 39.625 39.625 39.625 21.851562 0 39.625-17.773437 39.625-39.625zm-39.625 19.625c-10.820313 0-19.625-8.800781-19.625-19.625 0-10.820312 8.804687-19.625 19.625-19.625 10.824218 0 19.625 8.804688 19.625 19.625 0 10.824219-8.800782 19.625-19.625 19.625zm0 0"/><path d="m204.25 406.855469c-21.847656 0-39.625 17.777343-39.625 39.625 0 21.851562 17.777344 39.625 39.625 39.625s39.625-17.773438 39.625-39.625c0-21.847657-17.777344-39.625-39.625-39.625zm0 59.25c-10.820312 0-19.625-8.800781-19.625-19.625 0-10.820313 8.804688-19.625 19.625-19.625s19.625 8.804687 19.625 19.625c0 10.824219-8.804688 19.625-19.625 19.625zm0 0"/><path d="m295.625 358.851562c0-21.847656-17.777344-39.625-39.625-39.625s-39.625 17.777344-39.625 39.625c0 21.851563 17.777344 39.625 39.625 39.625s39.625-17.773437 39.625-39.625zm-39.625 19.625c-10.820312 0-19.625-8.800781-19.625-19.625 0-10.820312 8.804688-19.625 19.625-19.625s19.625 8.804688 19.625 19.625c0 10.824219-8.804688 19.625-19.625 19.625zm0 0"/><path d="m361.253906 319.226562c-21.851562 0-39.625 17.777344-39.625 39.625 0 21.851563 17.773438 39.625 39.625 39.625 21.847656 0 39.625-17.773437 39.625-39.625 0-21.847656-17.777344-39.625-39.625-39.625zm0 59.25c-10.824218 0-19.625-8.800781-19.625-19.625 0-10.820312 8.800782-19.625 19.625-19.625 10.820313 0 19.625 8.804688 19.625 19.625 0 10.824219-8.804687 19.625-19.625 19.625zm0 0"/><path d="m309.503906 406.855469c-21.851562 0-39.625 17.777343-39.625 39.625 0 21.851562 17.773438 39.625 39.625 39.625 21.847656 0 39.625-17.773438 39.625-39.625 0-21.847657-17.777344-39.625-39.625-39.625zm0 59.25c-10.824218 0-19.625-8.800781-19.625-19.625 0-10.820313 8.800782-19.625 19.625-19.625 10.820313 0 19.625 8.804687 19.625 19.625 0 10.824219-8.804687 19.625-19.625 19.625zm0 0"/><path d="m266 289.773438c0-5.507813-4.492188-10-10-10s-10 4.492187-10 10c0 5.507812 4.492188 10 10 10s10-4.492188 10-10zm0 0"/></g></svg>