<svg height="512pt" viewBox="0 -1 512.00042 512" width="512pt" xmlns="http://www.w3.org/2000/svg">
<style type="text/css">
	.st0{fill-rule:evenodd;clip-rule:evenodd;fill:#75BDD9;}
	.st1{fill-rule:evenodd;clip-rule:evenodd;}
</style>
<g>
	<path class="st0" d="M256,488.1c127.8,0,232.1-104.3,232.1-232.1S383.8,23.9,256,23.9S23.9,128.2,23.9,256S128.2,488.1,256,488.1z"
		/>
	<path class="st1" d="M256,0C154.7,0,62.8,59.9,21.8,152.5c-5.3,12.1,0.1,26.2,12.2,31.6s26.2-0.1,31.6-12.2
		c33.3-75.3,108-124,190.4-124c114.8,0,208.1,93.4,208.1,208.1S370.8,464.1,256,464.1c-82.4,0-157.1-48.7-190.4-124
		C60.3,328,46.1,322.5,34,327.9c-12.1,5.3-17.6,19.5-12.2,31.6C62.7,452.1,154.7,512,256,512c141.2,0,256-114.8,256-256
		C512,114.8,397.2,0,256,0z"/>
	<path class="st1" d="M47.9,256c0-13.2-10.8-23.9-24-23.9S0,242.8,0,256c0,13.2,10.8,24,24,24S47.9,269.2,47.9,256z"/>
</g>
</svg>
