<svg id="Layer_1" enable-background="new 0 0 512 512" height="512" viewBox="0 0 512 512" width="512" xmlns="http://www.w3.org/2000/svg"><g clip-rule="evenodd" fill-rule="evenodd"><path d="m283.585 267.573 138.069-138.167 22.157-22.102-3.287-3.287c-.028-.028-.028-.057-.057-.057l-16.207-16.208-16.207-16.208-3.343-3.344-107.752 107.734-81.261 81.296c9.577 1.218 18.87 5.497 26.209 12.865 7.367 7.367 11.673 16.662 12.892 26.239l28.192-28.194z" fill="#ffe6b4"/><path d="m180.337 175.027c-31.705 23.746-23.942 62.906-88.854 69.933-18.757 2.012-35.105 13.035-48.592 26.523-46.75 46.755-44.682 124.65 14.167 183.504 58.821 58.854 136.738 60.923 183.488 14.14 13.487-13.488 24.509-29.81 26.52-48.568 7.027-64.918 46.184-57.154 69.927-88.862 32.329-43.212 23.12-85.972-.907-116.66l-81.289 81.296c1.728 13.431-2.578 27.486-12.892 37.8-17.652 17.653-46.325 17.653-64.006 0-17.68-17.682-17.68-46.358 0-64.039 10.313-10.314 24.367-14.593 37.797-12.865l81.261-81.296c-30.656-24.056-73.411-33.237-116.62-.906zm-82.876 157.804c4.703-4.704 12.41-4.704 17.085 0l64.657 64.635c4.703 4.704 4.703 12.411 0 17.115l-15.272 15.273c-4.703 4.704-12.41 4.704-17.113 0l-64.628-64.663c-4.703-4.675-4.703-12.383 0-17.087z" fill="#e8d0c1"/><path d="m497.9 46.523-32.414-32.416c-5.383-5.384-14.167-5.356-19.55 0l-37.882 37.914c-5.383 5.356-5.383 14.14 0 19.524l16.207 16.208 16.207 16.208c.028 0 .028.028.057.057 5.355 5.299 14.11 5.299 19.465-.057l37.91-37.914c5.355-5.356 5.355-14.14 0-19.524z" fill="#e8d0c1"/><path d="m179.204 397.465-64.657-64.635c-4.675-4.704-12.382-4.704-17.085 0l-15.272 15.274c-4.703 4.704-4.703 12.411 0 17.087l64.629 64.663c4.703 4.704 12.41 4.704 17.113 0l15.272-15.273c4.703-4.704 4.703-12.412 0-17.116z" fill="#d1a184"/><path d="m241.141 270.86c-7.338-7.367-16.348-11.929-25.444-13.658-13.43-1.7-27.484 2.579-37.797 12.893-17.68 17.682-17.68 46.358 0 64.039 17.68 17.653 46.354 17.653 64.006 0 10.313-10.314 14.62-24.369 12.892-37.8-1.7-9.124-6.29-18.107-13.657-25.474z" fill="#d1a184"/><path d="m392.386 470.006c0-14.65-13.968-25.786-31.195-24.879-17.198.907-31.167 13.545-31.167 28.223 0 14.65 13.968 25.814 31.167 24.879 17.226-.907 31.195-13.545 31.195-28.223z" fill="#ffcd69"/><path d="m484.215 330.649-82.167 20.6c-5.242 1.303-9.662 6.574-9.662 12.27v24.822c0 5.696 4.42 9.748 9.662 8.416l82.167-20.572c5.242-1.332 9.662-6.602 9.662-12.27v-24.851c-.001-5.666-4.421-9.718-9.662-8.415z" fill="#ffe6b4"/></g><path d="m496.866 324.001c-4.249-3.322-9.747-4.468-15.103-3.134l-82.167 20.6c-9.86 2.461-17.294 11.937-17.294 22.051v24.822 50.977c-6.473-3.147-13.948-4.665-21.641-4.262h-.001c-22.453 1.184-40.72 18.363-40.72 38.294 0 9.094 3.758 17.662 10.58 24.123 7.382 6.994 17.728 10.895 28.684 10.895.836 0 1.676-.022 2.517-.068 22.469-1.183 40.749-18.361 40.749-38.293v-63.077c.677-.092 1.354-.219 2.027-.39l82.201-20.581c9.842-2.5 17.263-11.976 17.263-22.043v-24.851c-.001-6.047-2.587-11.538-7.095-15.063zm-136.223 164.158c-6.382.347-12.313-1.595-16.255-5.329-1.953-1.85-4.28-4.996-4.28-9.48 0-9.221 9.897-17.534 21.613-18.153 6.437-.342 12.377 1.617 16.323 5.36 1.943 1.844 4.259 4.98 4.259 9.449-.001 9.221-9.912 17.534-21.66 18.153zm123.15-124.243c0 .884-1.136 2.26-2.026 2.486l-79.297 19.853v-22.737c0-.957 1.18-2.276 2.011-2.483.006-.001.013-.003.019-.005l79.293-19.88z"/><path d="m505.03 39.393-32.413-32.418c-9.298-9.297-24.456-9.304-33.813.003l-37.861 37.893c-4.512 4.489-7.001 10.48-7.01 16.869-.001.948.059 1.885.165 2.812l-98.163 98.172c-16.247-10.971-34.043-17.32-51.943-18.454-24.098-1.522-47.544 6.106-69.699 22.685-12.497 9.36-19.625 20.848-25.913 30.984-11.415 18.398-20.43 32.93-57.972 36.995-18.753 2.011-37.139 11.909-54.647 29.417-41.101 41.105-47.314 103.431-15.83 158.785 1.858 3.267 5.266 5.1 8.774 5.1 1.69 0 3.403-.426 4.977-1.321 4.841-2.754 6.532-8.911 3.779-13.752-26.867-47.235-21.937-100.049 12.561-134.55 14.168-14.169 28.48-22.118 42.548-23.627 47.331-5.124 60.94-27.06 72.948-46.413 5.868-9.459 11.412-18.394 20.862-25.471 39.493-29.551 73.878-18.935 94.985-5.804l-69.533 69.539c-14.801-.507-29.774 4.86-41.058 16.126-10.456 10.457-16.214 24.361-16.214 39.151s5.758 28.694 16.22 39.157c10.796 10.779 24.966 16.167 39.137 16.167s28.342-5.393 39.122-16.173c11.275-11.277 16.648-26.247 16.144-41.052l69.546-69.552c13.117 21.137 23.71 55.541-5.804 94.992-7.08 9.454-16.013 14.998-25.471 20.867-19.352 12.007-41.286 25.619-46.411 72.964-1.505 14.038-9.454 28.341-23.627 42.515-34.079 34.108-86.368 39.341-133.21 13.329-4.869-2.704-11.007-.948-13.711 3.921-2.703 4.869-.948 11.009 3.921 13.713 22.987 12.766 47.162 19.038 70.488 19.038 32.402 0 63.161-12.11 86.772-35.741 17.51-17.512 27.407-35.89 29.415-54.613 4.065-37.556 18.596-46.572 36.992-57.988 10.135-6.289 21.622-13.416 30.983-25.918 16.572-22.151 24.199-45.604 22.67-69.708-1.307-20.593-9.506-41.068-23.711-59.211-.017-.022-.037-.041-.055-.063-.109-.136-.228-.266-.345-.397-.117-.132-.232-.267-.354-.392-.02-.02-.036-.042-.056-.062-.08-.08-.166-.148-.248-.224-.15-.14-.298-.281-.455-.411-.106-.088-.217-.167-.326-.25-.156-.119-.311-.239-.473-.348-.126-.085-.256-.16-.385-.239-.151-.092-.3-.185-.454-.268-.147-.079-.298-.149-.448-.22-.143-.068-.284-.138-.43-.199-.163-.068-.328-.126-.493-.186-.139-.05-.278-.103-.419-.147-.169-.053-.34-.095-.511-.138-.144-.037-.287-.075-.432-.105-.166-.034-.333-.059-.501-.085-.154-.024-.308-.05-.463-.067-.158-.017-.317-.025-.476-.035-.166-.01-.332-.022-.499-.024-.149-.002-.297.005-.445.01-.177.006-.353.01-.529.025-.141.012-.282.032-.423.05-.181.023-.361.045-.541.078-.141.026-.281.06-.421.092-.175.04-.35.079-.524.128-.15.043-.297.095-.444.144-.159.053-.318.104-.474.166-.165.065-.326.14-.488.213-.135.062-.272.12-.405.188-.177.09-.349.193-.522.294-.114.067-.23.13-.342.202-.176.113-.346.239-.516.364-.086.063-.176.118-.261.184-.021.016-.039.035-.059.052-.141.113-.276.237-.412.358-.127.113-.257.223-.377.341-.021.02-.043.037-.064.058l-69.523 69.529c-2.596-5.224-6.052-10.125-10.398-14.472-4.335-4.336-9.225-7.784-14.436-10.376l170.11-170.125 24.835 24.837-37.143 37.101c-3.941 3.935-3.944 10.321-.009 14.262 3.936 3.941 10.321 3.945 14.261.009l40.832-40.783c.916.105 1.835.176 2.756.176 6.117 0 12.233-2.325 16.88-6.973l37.91-37.913c9.289-9.292 9.298-24.439 0-33.787zm-270.254 287.61c-13.704 13.705-36.022 13.702-49.745 0-13.722-13.724-13.722-36.054-.006-49.771 6.866-6.856 15.878-10.282 24.889-10.282 9.007 0 18.012 3.426 24.862 10.277 13.722 13.723 13.722 36.053 0 49.776zm255.994-268.087-37.91 37.913c-1.422 1.422-3.838 1.413-5.278-.017l-32.398-32.4c-.944-.945-1.084-2.063-1.083-2.646.001-.574.14-1.675 1.087-2.617l37.861-37.893c1.447-1.441 3.878-1.45 5.309-.019l32.394 32.398c1.431 1.44 1.44 3.858.018 5.281z"/><path d="m155.375 443.467c5.937 0 11.508-2.303 15.687-6.482l15.271-15.273c4.18-4.179 6.481-9.751 6.481-15.689s-2.302-11.51-6.481-15.689c0 0 0-.001-.001-.001l-64.634-64.611c-4.159-4.185-9.717-6.495-15.651-6.505-.011 0-.023 0-.035 0-5.934 0-11.503 2.302-15.682 6.482l-15.272 15.273c-4.188 4.189-6.49 9.771-6.481 15.719.009 5.933 2.318 11.492 6.479 15.628l64.63 64.664c4.181 4.181 9.753 6.484 15.689 6.484zm-66.629-86.805c0-.318.073-.926.573-1.426l15.272-15.274c.499-.499 1.104-.574 1.423-.574h.003c.378.001.924.097 1.4.576l64.657 64.634c.473.474.572 1.037.572 1.425 0 .389-.1.952-.574 1.426l-15.272 15.274c-.474.474-1.038.574-1.426.574s-.952-.1-1.425-.573l-64.652-64.686c-.454-.452-.551-.999-.551-1.376z"/><path d="m360.662 176.17-.028.028c-3.938 3.939-3.924 10.31.014 14.248 1.965 1.966 4.543 2.947 7.123 2.947 2.589 0 5.179-.989 7.151-2.961 3.938-3.939 3.938-10.323 0-14.262-3.937-3.938-10.322-3.938-14.26 0z"/><path d="m57.114 444.904h-.057c-5.569 0-10.055 4.515-10.055 10.084s4.543 10.084 10.112 10.084 10.084-4.515 10.084-10.084-4.514-10.084-10.084-10.084z"/></svg>