<svg height="511pt" viewBox="-26 0 511 511.997" width="511pt" xmlns="http://www.w3.org/2000/svg"><g fill-rule="evenodd"><path d="m229.722656 502.007812c63.214844 0 114.75-51.5625 114.75-114.773437 0-63.214844-51.535156-114.777344-114.75-114.777344-63.210937 0-114.773437 51.5625-114.773437 114.777344 0 63.210937 51.5625 114.773437 114.773437 114.773437zm0 0" fill="#67e4dc"/><path d="m310.511719 251.933594c0-44.617188-36.171875-80.789063-80.789063-80.789063-44.617187 0-80.789062 36.171875-80.789062 80.789063 0 15.84375 4.539062 30.613281 12.417968 43.085937 19.105469-14.171875 42.746094-22.5625 68.371094-22.5625 25.597656 0 49.238282 8.390625 68.34375 22.5625 7.882813-12.472656 12.445313-27.242187 12.445313-43.085937zm0 0" fill="#d9f9f6"/><path d="m229.722656 171.144531c15.761719 0 30.5 4.535157 42.945313 12.359375 6.972656-9.128906 11.140625-20.523437 11.140625-32.882812 0-29.851563-24.234375-54.085938-54.085938-54.085938-29.875 0-54.085937 24.234375-54.085937 54.085938 0 12.359375 4.140625 23.753906 11.113281 32.882812 12.441406-7.824218 27.183594-12.359375 42.972656-12.359375zm0 0" fill="#67e4dc"/><path d="m197.976562 9.992188h63.46875v86.542968h-63.46875zm0 0" fill="#fec96b"/><path d="m455.15625 99.722656c-4.316406-3.441406-10.601562-2.730468-14.042969 1.582032l-15.84375 19.855468-15.875-19.863281c-3.445312-4.3125-9.730469-5.011719-14.042969-1.566406-4.3125 3.445312-5.015624 9.734375-1.566406 14.042969l21.417969 26.808593c-1.710937 53.058594-43.042969 96.269531-95.300781 100.933594-2.808594-24.460937-15.375-45.996094-33.703125-60.601563 4.996093-9.269531 7.601562-19.574218 7.601562-30.292968 0-17.070313-6.726562-32.59375-17.648437-44.09375h20.894531c5.519531 0 9.992187-4.472656 9.992187-9.988282 0-5.519531-4.472656-9.992187-9.992187-9.992187h-25.609375v-76.554687c0-5.519532-4.472656-9.992188-9.992188-9.992188h-63.46875c-5.519531 0-9.992187 4.472656-9.992187 9.992188v76.550781h-25.582031c-5.519532 0-9.992188 4.472656-9.992188 9.992187 0 5.519532 4.472656 9.992188 9.992188 9.992188h20.894531c-6.316406 6.644531-11.21875 14.636718-14.234375 23.5h-31.464844c-5.519531 0-9.992187 4.472656-9.992187 9.992187s4.476562 9.992188 9.992187 9.992188h28.066406c-.003906.203125-.015624.402343-.015624.609375 0 10.730468 2.601562 21.042968 7.582031 30.304687-18.511719 14.757813-31.148438 36.59375-33.773438 61.371094-63.214843 4.773437-113.425781 56.855469-115.234375 120.839844l-21.542968 26.964843c-3.441407 4.316407-2.7343755 10.601563 1.582031 14.042969 1.839843 1.46875 4.039062 2.179688 6.222656 2.179688 2.9375 0 5.847656-1.289063 7.820313-3.761719l15.847656-19.855469 15.871094 19.863281c3.445312 4.308594 9.734374 5.011719 14.046874 1.566407 4.308594-3.445313 5.011719-9.734375 1.566407-14.046875l-21.421875-26.804688c1.710937-53.058594 43.058594-96.273437 95.332031-100.9375 1.207031 10.558594 4.246094 20.789063 8.992187 30.253906-15.9375 13.636719-28.542968 31.304688-36.03125 51.796876-1.894531 5.183593.773438 10.921874 5.957032 12.816406 5.183594 1.890625 10.921875-.773438 12.816406-5.957032 15.035156-41.160156 54.597656-68.8125 98.445312-68.8125 1.242188 0 2.480469.03125 3.714844.074219.324219.011719.648438.019531.972656.035157 1.15625.050781 2.3125.117187 3.460938.207031.386719.027343.769531.066406 1.15625.101562.761719.066407 1.527344.144531 2.285156.226563.554688.058594 1.109375.121094 1.660156.191406.707032.085938 1.40625.1875 2.109376.292969.988281.144531 1.976562.304687 2.957031.476562.148437.027344.296875.054688.449219.082031 48.835937 8.871094 85.988281 51.722657 85.988281 103.097657 0 57.777343-46.992188 104.78125-104.757813 104.78125-43.835937 0-83.398437-27.652344-98.445312-68.8125-1.894532-5.179688-7.632813-7.851563-12.8125-5.953125-5.183594 1.894531-7.851563 7.632812-5.957032 12.816406 17.917969 49.007812 65.023438 81.933594 117.21875 81.933594 68.78125 0 124.738282-55.96875 124.738282-124.765625 0-37.820313-16.910156-71.757813-43.566406-94.65625 4.867187-9.703125 7.949218-20.195313 9.097656-31.011719 63.199218-4.773438 113.394531-56.855469 115.203125-120.839844l21.542969-26.960937c3.4375-4.3125 2.730468-10.597657-1.585938-14.039063zm-247.1875-79.738281h43.480469v66.558594h-43.480469zm-17.789062 150.210937c-2.992188-6.035156-4.550782-12.679687-4.550782-19.574218 0-.203125.015625-.40625.015625-.609375h16.496094c5.519531 0 9.992187-4.472657 9.992187-9.992188s-4.472656-9.992187-9.992187-9.992187h-11.390625c7.410156-13.964844 22.09375-23.5 38.972656-23.5 24.3125 0 44.09375 19.78125 44.09375 44.09375 0 6.886718-1.5625 13.53125-4.574218 19.578125-2.015626-.976563-4.0625-1.867188-6.140626-2.6875-.0625-.023438-.125-.050781-.1875-.074219-.554687-.21875-1.109374-.429688-1.671874-.636719-.21875-.082031-.433594-.160156-.652344-.242187-.46875-.167969-.9375-.332032-1.40625-.496094-.332032-.113281-.664063-.222656-.996094-.332031-.386719-.128907-.777344-.257813-1.164062-.378907-.460938-.148437-.925782-.285156-1.390626-.425781-.277343-.082031-.558593-.167969-.835937-.246093-2.355469-.679688-4.753906-1.265626-7.183594-1.75-.089843-.019532-.183593-.035157-.277343-.054688-.707032-.140625-1.417969-.273438-2.128907-.394531-.164062-.027344-.324219-.054688-.484375-.082031-.644531-.105469-1.289062-.207032-1.941406-.300782-.195312-.03125-.394531-.058594-.59375-.085937-.609375-.082031-1.226562-.160157-1.839844-.234375-.222656-.027344-.445312-.050782-.667968-.078125-.59375-.0625-1.183594-.121094-1.777344-.175781-.242188-.019532-.484375-.042969-.726563-.0625-.578125-.046876-1.160156-.085938-1.742187-.121094-.25-.019532-.5-.035156-.75-.050782-.597656-.03125-1.195313-.054687-1.792969-.074218-.234375-.007813-.464844-.019532-.691406-.027344-.824219-.019531-1.648438-.035156-2.476563-.035156s-1.652344.015625-2.472656.035156c-.242188.007812-.480469.019531-.722656.027344-.585938.023437-1.171875.042968-1.753906.074218-.273438.015626-.542969.035157-.816407.054688-.554687.03125-1.105469.070312-1.65625.113281-.28125.023438-.558593.050781-.839843.074219-.542969.050781-1.089844.105469-1.628907.164062-.28125.027344-.558593.0625-.835937.09375-.542969.066407-1.082032.132813-1.621094.207032-.277344.039062-.554688.078125-.832031.117187-.535157.078125-1.070313.160157-1.601563.25-.28125.046875-.5625.089844-.839844.140625-.527343.089844-1.046874.1875-1.570312.289063-.285156.054687-.570312.105469-.855469.164062-.5.101563-.996093.210938-1.492187.320313-.308594.066406-.613282.128906-.917969.199218-.238281.054688-.472656.117188-.710937.171876-1.1875.285156-2.371094.59375-3.542969.925781-.042969.007812-.085938.019531-.125.03125-.699219.199219-1.390625.40625-2.082031.621093-.019532.007813-.042969.011719-.0625.019532-4.296876 1.332031-8.496094 2.984375-12.5625 4.949218zm58.363281 93.6875c-.925781-.140624-1.855469-.273437-2.789063-.390624-.3125-.042969-.628906-.074219-.945312-.113282-1.203125-.144531-2.40625-.273437-3.617188-.382812-.753906-.070313-1.507812-.136719-2.265625-.191406-.515625-.039063-1.03125-.066407-1.546875-.097657-.839844-.050781-1.679687-.09375-2.523437-.128906-.429688-.019531-.859375-.035156-1.292969-.050781-1.273438-.039063-2.554688-.0625-3.839844-.0625-1.578125 0-3.148437.035156-4.71875.09375-.253906.007812-.503906.027344-.757812.035156-1.390625.0625-2.777344.144531-4.164063.246094-.078125.007812-.160156.015625-.242187.023437-19.542969 1.519531-38.210938 7.53125-54.902344 17.703125-3.953125-8.953125-6.011719-18.6875-6.011719-28.632812 0-31.695313 20.9375-58.59375 49.707031-67.589844.050782-.011719.097657-.027344.148438-.042969 1.035156-.324219 2.085938-.621093 3.144531-.894531.058594-.015625.117188-.035156.175781-.050781 1.058594-.269531 2.125-.515625 3.203126-.738281.183593-.039063.371093-.070313.558593-.109376.863281-.171874 1.734375-.328124 2.613281-.46875.261719-.039062.523438-.085937.789063-.125 1.03125-.152343 2.070313-.289062 3.117187-.398437.164063-.015625.332032-.027344.496094-.042969.90625-.085937 1.820313-.15625 2.738282-.207031.292968-.015625.582031-.035156.878906-.046875 1.070312-.046875 2.144531-.082031 3.226562-.082031 1.078125 0 2.148438.035156 3.21875.082031.300782.011719.597656.03125.898438.046875.890625.050781 1.777344.121094 2.660156.203125.191406.019531.386719.03125.582031.050781 1.019531.105469 2.027344.238281 3.03125.386719.320313.046875.640625.101562.957031.152344.777344.125 1.550782.265625 2.316407.414062.28125.054688.5625.105469.839843.164063 1 .210937 1.992188.4375 2.976563.6875.214844.054687.429687.117187.644531.175781.84375.222656 1.683594.460938 2.515625.714844.21875.066406.4375.132812.652344.199218 2.101563.664063 4.164063 1.421876 6.175781 2.269532.042969.019531.089844.039062.132813.058594 25.363281 10.777343 43.195312 35.941406 43.195312 65.191406 0 9.929687-2.066406 19.667968-6.039062 28.632812-14.027344-8.550781-29.453125-14.15625-45.617188-16.632812-.105469-.015625-.214843-.035156-.320312-.050782zm0 0"/><path d="m124.953125 387.234375c0-5.527344-4.507813-10.007813-10.007813-10.007813s-10.003906 4.480469-10.003906 10.007813c0 5.496094 4.503906 10.003906 10.003906 10.003906s10.007813-4.507812 10.007813-10.003906zm0 0"/></g></svg>