<svg height="512pt" viewBox="0 -29 512 512" width="512pt" xmlns="http://www.w3.org/2000/svg"><g fill-rule="evenodd"><path d="m55.511719 189.988281h2.316406c-3.070313-7.101562-4.777344-14.933593-4.777344-23.164062 0-32.269531 26.15625-58.425781 58.425781-58.425781 12.765626 0 24.574219 4.097656 34.1875 11.046874 6.683594-61.597656 56.371094-109.445312 116.691407-109.445312 61.550781 0 112.039062 49.824219 117.046875 113.238281 7.574218-4.476562 16.402344-7.050781 25.835937-7.050781 28.078125 0 50.839844 22.761719 50.839844 50.839844 0 8.261718-1.972656 16.066406-5.46875 22.960937h5.882813c25.027343 0 45.507812 20.480469 45.507812 45.511719 0 25.027344-20.476562 45.507812-45.507812 45.507812h-400.980469c-25.03125 0-45.511719-20.476562-45.511719-45.507812s20.480469-45.511719 45.511719-45.511719zm0 0" fill="#67e4dc"/><path d="m464.550781 180.570312c1.007813-4.433593 1.527344-8.984374 1.527344-13.542968 0-33.546875-27.292969-60.839844-60.839844-60.839844-6 0-11.9375.886719-17.625 2.605469-5.007812-27.941407-18.421875-53.523438-38.558593-73.121094-23.632813-23.003906-54.425782-35.671875-86.703126-35.671875-60.097656 0-111.246093 43.675781-124.265624 103.761719-8.351563-3.535157-17.351563-5.363281-26.613282-5.363281-37.730468 0-68.425781 30.695312-68.425781 68.425781 0 4.835937.5 9.601562 1.488281 14.253906-25.367187 5.109375-44.535156 27.570313-44.535156 54.417969 0 30.609375 24.902344 55.511718 55.511719 55.511718h400.976562c30.609375 0 55.511719-24.902343 55.511719-55.511718 0-27.871094-20.648438-51.007813-47.449219-54.925782zm-8.0625 90.4375h-400.976562c-19.582031 0-35.511719-15.929687-35.511719-35.511718 0-19.578125 15.929688-35.507813 35.511719-35.507813h2.316406c3.367187 0 6.507813-1.695312 8.355469-4.511719 1.847656-2.8125 2.160156-6.367187.820312-9.457031-2.625-6.070312-3.953125-12.53125-3.953125-19.199219 0-26.699218 21.722657-48.421874 48.425781-48.421874 10.25 0 20.046876 3.164062 28.328126 9.148437 2.886718 2.085937 6.664062 2.480469 9.921874 1.03125 3.253907-1.445313 5.492188-4.515625 5.878907-8.058594 6.214843-57.304687 52.109375-100.519531 106.75-100.519531 55.433593 0 102.46875 45.691406 107.078125 104.023438.269531 3.4375 2.296875 6.496093 5.359375 8.085937s6.730469 1.488281 9.699219-.265625c6.257812-3.703125 13.433593-5.65625 20.746093-5.65625 22.519531 0 40.839844 18.320312 40.839844 40.839844 0 6.488281-1.476563 12.691406-4.390625 18.4375-1.570312 3.097656-1.421875 6.792968.398438 9.753906 1.820312 2.964844 5.046874 4.769531 8.519531 4.769531h5.882812c19.582031 0 35.511719 15.929688 35.511719 35.507813 0 19.582031-15.929688 35.511718-35.511719 35.511718zm0 0"/><path d="m55.511719 341.011719h130.25c5.523437 0 10-4.480469 10-10 0-5.523438-4.476563-10-10-10h-130.25c-5.523438 0-10 4.476562-10 10 0 5.523437 4.476562 10 10 10zm0 0"/><path d="m396.011719 321.011719h-130.25c-5.523438 0-10 4.476562-10 10 0 5.519531 4.476562 10 10 10h130.25c25.292969 0 45.875 20.578125 45.875 45.875s-20.582031 45.875-45.875 45.875c-5.523438 0-10 4.476562-10 10 0 5.519531 4.476562 10 10 10 36.324219 0 65.875-29.550781 65.875-65.875s-29.550781-65.875-65.875-65.875zm0 0"/><path d="m266.949219 365.015625h-211.4375c-5.523438 0-10 4.476563-10 10 0 5.519531 4.476562 10 10 10h211.4375c13.621093 0 24.699219 11.078125 24.699219 24.695313 0 13.617187-11.082032 24.695312-24.699219 24.695312-5.519531 0-10 4.480469-10 10 0 5.523438 4.480469 10 10 10 24.648437 0 44.699219-20.050781 44.699219-44.695312 0-24.644532-20.050782-44.695313-44.699219-44.695313zm0 0"/><path d="m235.761719 331.011719c0-5.507813-4.492188-10-10-10-5.507813 0-10 4.492187-10 10 0 5.507812 4.492187 10 10 10 5.507812 0 10-4.492188 10-10zm0 0"/></g></svg>