<svg height="512pt" viewBox="0 -1 512.00081 512" width="512pt" xmlns="http://www.w3.org/2000/svg"><g fill-rule="evenodd"><path d="m256 343.929688c48.90625 0 88.796875-39.890626 88.796875-88.796876 0-48.902343-39.890625-88.792968-88.796875-88.792968s-88.792969 39.890625-88.792969 88.792968c0 48.910157 39.886719 88.796876 88.792969 88.796876zm0 0" fill="#67e4dc"/><path d="m9.992188 200.949219c.660156 0 1.332031-.066407 2.003906-.203125l95.953125-19.539063 31.496093 18.183594c4.785157 2.761719 10.898438 1.121094 13.660157-3.660156 2.761719-4.785157 1.121093-10.898438-3.660157-13.660157l-31.492187-18.183593-31.054687-92.871094c-1.75-5.238281-7.414063-8.0625-12.65625-6.3125-5.238282 1.75-8.0625 7.417969-6.3125 12.65625l23.886718 71.4375-43.109375-24.890625c-4.78125-2.757812-10.898437-1.121094-13.660156 3.660156-2.761719 4.785156-1.121094 10.898438 3.660156 13.660156l43.109375 24.890626-73.808594 15.03125c-5.414062 1.101562-8.90625 6.382812-7.804687 11.792968.964844 4.742188 5.132813 8.007813 9.789063 8.007813zm0 0"/><path d="m266 420.316406v-66.898437c16.183594-1.628907 31.652344-7.191407 45.214844-16.347657 4.578125-3.089843 5.785156-9.308593 2.695312-13.882812-3.09375-4.578125-9.308594-5.785156-13.886718-2.691406-13.015626 8.789062-28.242188 13.433594-44.023438 13.433594-43.445312 0-78.792969-35.347657-78.792969-78.792969 0-1.761719.0625-3.597657.191407-5.453125.375-5.511719-3.785157-10.285156-9.296876-10.660156-5.515624-.386719-10.28125 3.785156-10.65625 9.292968-.160156 2.3125-.238281 4.605469-.238281 6.816406 0 14.417969 3.105469 28.121094 8.679688 40.480469l-57.9375 33.449219-95.953125-19.539062c-5.398438-1.101563-10.691406 2.390624-11.792969 7.804687-1.101563 5.410156 2.390625 10.691406 7.804687 11.792969l73.808594 15.03125-43.109375 24.886718c-4.78125 2.761719-6.421875 8.878907-3.660156 13.660157 2.761719 4.785156 8.878906 6.425781 13.660156 3.660156l43.109375-24.886719-23.886718 71.4375c-1.753907 5.238282 1.074218 10.90625 6.3125 12.65625 1.050781.351563 2.121093.519532 3.171874.519532 4.183594 0 8.082032-2.648438 9.484376-6.832032l31.054687-92.871094 57.964844-33.464843c16.121093 22.28125 41.292969 37.601562 70.082031 40.507812v66.886719l-64.902344 73.328125c-3.660156 4.136719-3.273437 10.457031.859375 14.117187 4.136719 3.660157 10.457031 3.273438 14.117188-.859374l49.925781-56.410157v49.78125c0 5.523438 4.476562 10 10 10s10-4.476562 10-10v-49.777343l49.921875 56.40625c1.976563 2.230468 4.730469 3.371093 7.492187 3.371093 2.355469 0 4.722657-.828125 6.625-2.511719 4.136719-3.660156 4.519532-9.980468.859376-14.117187zm0 0"/><path d="m404.046875 181.207031 95.957031 19.539063c5.402344 1.105468 10.691406-2.390625 11.792969-7.804688 1.101563-5.410156-2.390625-10.691406-7.804687-11.792968l-73.8125-15.03125 43.113281-24.890626c4.78125-2.761718 6.421875-8.875 3.660156-13.660156-2.761719-4.78125-8.878906-6.421875-13.660156-3.660156l-43.113281 24.890625 23.890624-71.4375c1.75-5.238281-1.074218-10.90625-6.316406-12.65625-5.234375-1.75-10.902344 1.078125-12.652344 6.3125l-31.054687 92.871094-57.964844 33.464843c-16.121093-22.28125-41.296875-37.601562-70.082031-40.507812v-66.886719l64.898438-73.328125c3.660156-4.136718 3.277343-10.457031-.859376-14.117187-4.140624-3.660157-10.457031-3.273438-14.117187.863281l-49.921875 56.40625v-49.78125c0-5.523438-4.480469-10-10-10-5.523438 0-10 4.476562-10 10v49.78125l-49.925781-56.40625c-3.660157-4.136719-9.976563-4.523438-14.113281-.863281-4.136719 3.660156-4.523438 9.980469-.859376 14.117187l64.898438 73.328125v66.898438c-16.183594 1.625-31.652344 7.1875-45.214844 16.34375-4.578125 3.09375-5.785156 9.308593-2.691406 13.886719 3.089844 4.574218 9.304688 5.78125 13.882812 2.691406 13.019532-8.792969 28.242188-13.4375 44.023438-13.4375 43.445312 0 78.792969 35.347656 78.792969 78.792968 0 1.757813-.0625 3.59375-.1875 5.457032-.375 5.511718 3.789062 10.28125 9.296875 10.65625.230468.015625.460937.023437.6875.023437 5.214844 0 9.609375-4.042969 9.96875-9.324219.15625-2.3125.238281-4.605468.238281-6.8125 0-14.414062-3.105469-28.117187-8.683594-40.480468zm0 0"/><path d="m500.003906 309.523438-95.957031 19.539062-31.492187-18.183594c-4.785157-2.757812-10.898438-1.121094-13.660157 3.660156-2.761719 4.785157-1.121093 10.898438 3.660157 13.660157l31.492187 18.183593 31.054687 92.871094c1.402344 4.1875 5.300782 6.832032 9.484376 6.832032 1.050781 0 2.121093-.167969 3.171874-.519532 5.238282-1.75 8.066407-7.417968 6.3125-12.65625l-23.886718-71.4375 43.109375 24.890625c4.785156 2.761719 10.898437 1.121094 13.660156-3.660156 2.761719-4.785156 1.125-10.898437-3.660156-13.660156l-43.109375-24.890625 73.808594-15.03125c5.414062-1.101563 8.90625-6.382813 7.804687-11.792969-1.101563-5.414063-6.390625-8.90625-11.792969-7.804687zm0 0"/><path d="m179.089844 220.730469c5.507812 0 10.003906-4.492188 10.003906-10 0-5.507813-4.496094-10-10.003906-10-5.507813 0-10 4.492187-10 10 0 5.507812 4.492187 10 10 10zm0 0"/><path d="m332.90625 289.539062c-5.507812 0-10 4.492188-10 10 0 5.507813 4.492188 10 10 10 5.511719 0 10-4.492187 10-10 0-5.507812-4.488281-10-10-10zm0 0"/></g></svg>