<svg height="512pt" viewBox="0 -39 512.00074 512" width="512pt" xmlns="http://www.w3.org/2000/svg"><g fill-rule="evenodd"><path d="m256 178.074219c80.523438 0 145.800781 65.277343 145.800781 145.796875h-291.597656c0-80.519532 65.273437-145.796875 145.796875-145.796875zm0 0" fill="#fec96b"/><path d="m235.75 131.875h40.5v-70.5h25.539062v-14.25l-22.894531-18.5625-22.894531-18.558594-22.894531 18.558594-22.894531 18.5625v14.25h25.539062zm0 0" fill="#ff8f8e"/><path d="m256 188.074219c5.507812 0 10-4.492188 10-10 0-5.507813-4.492188-10-10-10s-10 4.492187-10 10c0 5.507812 4.492188 10 10 10zm0 0"/><path d="m501.996094 313.875h-90.511719c-1.9375-30.9375-12.851563-60.085938-31.867187-84.835938-20.382813-26.527343-49.246094-46.109374-81.277344-55.136718-5.316406-1.496094-10.839844 1.597656-12.335938 6.914062-1.5 5.316406 1.597656 10.839844 6.910156 12.335938 54.996094 15.5 94.324219 64.320312 98.515626 120.722656h-270.859376c4.191407-56.402344 43.519532-105.222656 98.515626-120.722656 5.316406-1.496094 8.410156-7.019532 6.910156-12.335938-1.496094-5.316406-7.019532-8.410156-12.335938-6.914062-32.03125 9.027344-60.894531 28.609375-81.277344 55.136718-19.015624 24.75-29.929687 53.898438-31.867187 84.835938h-90.511719c-5.523437 0-9.99999975 4.476562-9.99999975 9.996094 0 5.523437 4.47656275 10 9.99999975 10h491.992188c5.523437 0 10-4.476563 10-10 0-5.519532-4.476563-9.996094-10-9.996094zm0 0"/><path d="m467.976562 363.507812h-171.976562c-5.523438 0-10 4.480469-10 10 0 5.523438 4.476562 10 10 10h171.976562c5.519532 0 10-4.476562 10-10 0-5.519531-4.476562-10-10-10zm0 0"/><path d="m226 373.507812c0-5.519531-4.476562-10-10-10h-171.976562c-5.519532 0-10 4.480469-10 10 0 5.523438 4.480468 10 10 10h171.976562c5.523438 0 10-4.476562 10-10zm0 0"/><path d="m433.953125 413.144531h-355.90625c-5.523437 0-10 4.476563-10 10 0 5.523438 4.476563 10 10 10h355.90625c5.523437 0 10-4.476562 10-10 0-5.523437-4.476563-10-10-10zm0 0"/><path d="m440.542969 263.914062c1.371093 4.222657 5.292969 6.910157 9.507812 6.910157 1.023438 0 2.066407-.160157 3.089844-.492188l51.949219-16.878906c5.25-1.707031 8.125-7.347656 6.417968-12.601563-1.707031-5.25-7.34375-8.128906-12.601562-6.417968l-51.945312 16.878906c-5.25 1.707031-8.125 7.347656-6.417969 12.601562zm0 0"/><path d="m407.597656 197.375c2.382813 0 4.777344-.847656 6.6875-2.566406l40.625-36.578125c4.105469-3.695313 4.4375-10.019531.742188-14.125-3.695313-4.101563-10.019532-4.433594-14.125-.738281l-40.625 36.578124c-4.101563 3.695313-4.433594 10.019532-.738282 14.121094 1.972657 2.195313 4.699219 3.308594 7.433594 3.308594zm0 0"/><path d="m334.921875 146.609375c1.324219.589844 2.703125.867187 4.0625.867187 3.828125 0 7.484375-2.210937 9.140625-5.933593l22.214844-49.898438c2.246094-5.042969-.023438-10.957031-5.066406-13.203125-5.050782-2.242187-10.957032.027344-13.203126 5.070313l-22.214843 49.894531c-2.246094 5.046875.023437 10.957031 5.066406 13.203125zm0 0"/><path d="m57.089844 158.230469 40.625 36.578125c1.910156 1.71875 4.304687 2.566406 6.6875 2.566406 2.734375 0 5.460937-1.113281 7.433594-3.308594 3.695312-4.101562 3.363281-10.425781-.738282-14.121094l-40.625-36.578124c-4.105468-3.695313-10.425781-3.367188-14.125.738281-3.695312 4.105469-3.363281 10.429687.742188 14.125zm0 0"/><path d="m6.914062 253.453125 51.945313 16.878906c1.023437.335938 2.066406.492188 3.089844.492188 4.214843 0 8.136719-2.6875 9.511719-6.910157 1.703124-5.253906-1.167969-10.894531-6.421876-12.601562l-51.945312-16.878906c-5.25-1.707032-10.894531 1.167968-12.601562 6.417968-1.707032 5.253907 1.167968 10.894532 6.421874 12.601563zm0 0"/><path d="m163.875 141.542969c1.65625 3.722656 5.3125 5.933593 9.140625 5.933593 1.359375 0 2.738281-.277343 4.0625-.867187 5.042969-2.246094 7.3125-8.15625 5.066406-13.203125l-22.214843-49.894531c-2.246094-5.042969-8.15625-7.316407-13.203126-5.070313-5.042968 2.246094-7.3125 8.160156-5.066406 13.203125zm0 0"/><path d="m210.210938 71.375h15.539062v60.5c0 5.523438 4.480469 10 10 10h40.5c5.519531 0 10-4.476562 10-10v-60.5h15.539062c5.523438 0 10-4.476562 10-10v-14.25c0-3.015625-1.359374-5.867188-3.699218-7.765625l-45.792969-37.125c-3.671875-2.976563-8.921875-2.976563-12.59375 0l-45.792969 37.125c-2.339844 1.894531-3.699218 4.75-3.699218 7.765625v14.25c0 5.523438 4.476562 10 10 10zm45.789062-48.5 35.152344 28.5h-14.902344c-5.523438 0-10 4.476562-10 10v60.5h-20.5v-60.5c0-5.523438-4.476562-10-10-10h-14.902344zm0 0"/><path d="m266 373.507812c0-5.507812-4.492188-10-10-10s-10 4.492188-10 10c0 5.507813 4.492188 10 10 10s10-4.492187 10-10zm0 0"/></g></svg>