<svg height="512pt" viewBox="0 -13 512 511" width="512pt" xmlns="http://www.w3.org/2000/svg"><g fill-rule="evenodd"><path d="m45.875 312.023438h.59375c2.410156-34.839844 31.433594-62.355469 66.886719-62.355469 29.164062 0 53.972656 18.621093 63.199219 44.621093 1.40625-.132812 2.835937-.203124 4.277343-.203124 24.769531 0 44.84375 20.074218 44.84375 44.84375 0 24.765624-20.074219 44.84375-44.84375 44.84375h-134.957031c-19.730469 0-35.875-16.144532-35.875-35.875 0-19.734376 16.144531-35.875 35.875-35.875zm0 0" fill="#67e4dc"/><path d="m410.601562 242.835938c0-77.839844-63.097656-140.9375-140.9375-140.9375-77.835937 0-140.9375 63.097656-140.9375 140.9375 0 2.910156.089844 5.800781.261719 8.664062 22.160157 5.296875 40.042969 21.589844 47.566407 42.789062 1.40625-.132812 2.835937-.203124 4.277343-.203124 24.769531 0 44.84375 20.074218 44.84375 44.84375 0 12.761718-5.332031 24.28125-13.890625 32.449218 17.660156 7.960938 37.25 12.394532 57.878906 12.394532 77.839844 0 140.9375-63.101563 140.9375-140.9375zm0 0" fill="#fec96b"/><path d="m166.605469 84.332031c1.855469 3.207031 5.214843 5 8.667969 5 1.699218 0 3.417968-.433593 4.992187-1.339843 4.785156-2.761719 6.421875-8.878907 3.660156-13.660157l-21.769531-37.707031c-2.761719-4.78125-8.878906-6.421875-13.660156-3.660156-4.78125 2.761718-6.421875 8.878906-3.660156 13.660156zm0 0"/><path d="m433.179688 158.4375c1.695312 0 3.414062-.433594 4.988281-1.339844l37.707031-21.769531c4.78125-2.761719 6.421875-8.878906 3.660156-13.660156-2.765625-4.78125-8.878906-6.421875-13.660156-3.660157l-37.707031 21.769532c-4.78125 2.757812-6.421875 8.875-3.660157 13.660156 1.851563 3.207031 5.214844 5 8.671876 5zm0 0"/><path d="m63.457031 135.328125 37.703125 21.769531c1.574219.910156 3.292969 1.339844 4.992188 1.339844 3.457031 0 6.816406-1.792969 8.667968-5 2.761719-4.785156 1.125-10.898438-3.660156-13.660156l-37.703125-21.769532c-4.785156-2.761718-10.898437-1.125-13.660156 3.660157-2.761719 4.78125-1.125 10.898437 3.660156 13.660156zm0 0"/><path d="m359.0625 87.992188c1.574219.90625 3.292969 1.339843 4.992188 1.339843 3.453124 0 6.816406-1.792969 8.667968-5l21.769532-37.707031c2.761718-4.78125 1.125-10.898438-3.660157-13.660156-4.78125-2.761719-10.898437-1.121094-13.660156 3.660156l-21.769531 37.707031c-2.761719 4.78125-1.121094 10.898438 3.660156 13.660157zm0 0"/><path d="m269.664062 64.0625c5.523438 0 10-4.476562 10-10v-43.5625c0-5.523438-4.476562-10-10-10-5.519531 0-10 4.476562-10 10v43.5625c0 5.523438 4.480469 10 10 10zm0 0"/><path d="m269.664062 421.605469c-5.519531 0-10 4.476562-10 10v43.566406c0 5.519531 4.480469 10 10 10 5.523438 0 10-4.480469 10-10v-43.566406c0-5.519531-4.476562-10-10-10zm0 0"/><path d="m502 232.835938h-43.5625c-5.523438 0-10 4.476562-10 10 0 5.523437 4.476562 10 10 10h43.5625c5.523438 0 10-4.476563 10-10 0-5.523438-4.476562-10-10-10zm0 0"/><path d="m372.722656 401.339844c-2.761718-4.785156-8.878906-6.421875-13.660156-3.660156-4.78125 2.761718-6.421875 8.878906-3.660156 13.660156l21.773437 37.703125c1.851563 3.210937 5.210938 5.003906 8.667969 5.003906 1.695312 0 3.417969-.433594 4.992188-1.34375 4.78125-2.761719 6.421874-8.875 3.65625-13.660156zm0 0"/><path d="m475.875 350.34375-37.707031-21.769531c-4.785157-2.761719-10.898438-1.125-13.660157 3.660156-2.761718 4.78125-1.121093 10.898437 3.660157 13.660156l37.707031 21.769531c1.574219.90625 3.292969 1.339844 4.988281 1.339844 3.457031 0 6.816407-1.792968 8.671875-5 2.761719-4.785156 1.121094-10.898437-3.660156-13.660156zm0 0"/><path d="m404.058594 199.121094c-5.363282 1.328125-8.632813 6.75-7.300782 12.113281 2.550782 10.296875 3.84375 20.929687 3.84375 31.601563 0 72.199218-58.738281 130.9375-130.9375 130.9375-14.367187 0-28.351562-2.285157-41.730468-6.789063 4.914062-8.214844 7.742187-17.808594 7.742187-28.054687 0-29.453126-23.332031-53.558594-52.488281-54.792969-8.871094-19.003907-25.078125-33.355469-44.441406-40.140625-.003906-.386719-.019532-.773438-.019532-1.160156 0-72.199219 58.738282-130.9375 130.9375-130.9375 33.617188 0 65.570313 12.71875 89.976563 35.816406 4.011719 3.796875 10.339844 3.621094 14.136719-.390625s3.621094-10.339844-.390625-14.136719c-28.132813-26.625-64.972657-41.289062-103.722657-41.289062-82.230468 0-149.308593 66.105468-150.898437 147.964843-1.792969-.128906-3.59375-.195312-5.410156-.195312-37.410157 0-69.175781 27.097656-75.785157 63.109375-21.34375 3.917968-37.570312 22.660156-37.570312 45.121094 0 25.292968 20.578125 45.875 45.875 45.875h134.957031c12.226563 0 23.53125-4.023438 32.660157-10.816407 17.84375 7.171875 36.707031 10.816407 56.171874 10.816407 83.230469 0 150.9375-67.710938 150.9375-150.9375 0-12.289063-1.492187-24.539063-4.433593-36.414063-1.328125-5.359375-6.75-8.628906-12.109375-7.300781zm-358.183594 174.652344c-14.265625 0-25.875-11.609376-25.875-25.875 0-14.265626 11.609375-25.875 25.875-25.875h.59375c5.253906 0 9.613281-4.066407 9.976562-9.308594 2.058594-29.746094 27.058594-53.046875 56.910157-53.046875 24.105469 0 45.714843 15.257812 53.773437 37.964843 1.535156 4.320313 5.800782 7.042969 10.371094 6.609376 1.113281-.101563 2.234375-.15625 3.335938-.15625 19.210937 0 34.84375 15.628906 34.84375 34.84375 0 19.210937-15.632813 34.84375-34.84375 34.84375zm0 0"/><path d="m381.398438 171.765625c0 5.507813 4.492187 10 10 10 5.507812 0 10-4.492187 10-10s-4.492188-10-10-10c-5.507813 0-10 4.492187-10 10zm0 0"/></g></svg>