<svg height="511pt" viewBox="1 -45 511.99985 511" width="511pt" xmlns="http://www.w3.org/2000/svg"><g fill-rule="evenodd"><path d="m50.921875 329.945312h.679687c2.75-39.738281 35.855469-71.128906 76.296876-71.128906 33.265624 0 61.566406 21.242188 72.089843 50.902344 1.609375-.152344 3.234375-.234375 4.882813-.234375 28.25 0 51.152344 22.902344 51.152344 51.152344 0 28.253906-22.902344 51.15625-51.152344 51.15625h-153.949219c-22.507813 0-40.921875-18.414063-40.921875-40.925781 0-22.507813 18.414062-40.921876 40.921875-40.921876zm0 0" fill="#b0dced"/><path d="m435.242188 336.417969c-113.867188 0-206.175782-92.308594-206.175782-206.175781 0-44.652344 14.199219-85.984376 38.324219-119.742188-81.101563 27.742188-139.414063 104.617188-139.414063 195.117188 0 18.515624 2.4375 36.457031 7.015626 53.527343 30.152343 2.773438 55.230468 23.046875 64.996093 50.574219 1.609375-.152344 3.234375-.234375 4.882813-.234375 28.25 0 51.152344 22.902344 51.152344 51.152344 0 11.722656-3.941407 22.523437-10.574219 31.152343 26.867187 12.820313 56.945312 20.003907 88.699219 20.003907 69.214843 0 130.460937-34.109375 167.851562-86.433594-20.9375 7.164063-43.394531 11.058594-66.757812 11.058594zm0 0" fill="#fec96b"/><path d="m296.628906 97.484375c31.742188 0 70.605469-38.859375 70.605469-70.605469 0 31.746094 38.859375 70.605469 70.605469 70.605469-31.746094 0-70.605469 38.859375-70.605469 70.605469 0-31.746094-38.863281-70.605469-70.605469-70.605469zm0 0" fill="#ffdda0"/><path d="m510.023438 319.390625c-2.597657-3.488281-7.148438-4.898437-11.257813-3.492187-20.40625 6.980468-41.777344 10.519531-63.523437 10.519531-108.171876 0-196.175782-88.003907-196.175782-196.175781 0-41.15625 12.609375-80.554688 36.460938-113.925782 2.527344-3.539062 2.480468-8.300781-.117188-11.789062-2.59375-3.484375-7.144531-4.894532-11.257812-3.488282-87.429688 29.90625-146.175782 112.121094-146.175782 204.578126 0 14.632812 1.46875 29.179687 4.367188 43.402343-39.871094 2.566407-72.964844 32.503907-79.683594 71.597657-24.164062 3.957031-42.660156 24.984374-42.660156 50.25 0 28.082031 22.84375 50.925781 50.921875 50.925781h36.976563c5.523437 0 10-4.476563 10-10 0-5.523438-4.476563-10-10-10h-36.976563c-17.050781 0-30.921875-13.871094-30.921875-30.925781 0-17.050782 13.871094-30.921876 30.921875-30.921876h.679687c5.253907 0 9.613282-4.066406 9.972657-9.308593 2.402343-34.664063 31.535156-61.820313 66.324219-61.820313 28.089843 0 53.273437 17.78125 62.667968 44.246094 1.53125 4.320312 5.808594 7.050781 10.367188 6.609375 1.3125-.125 2.640625-.1875 3.9375-.1875 22.691406 0 41.152344 18.460937 41.152344 41.152344 0 22.691406-18.460938 41.152343-41.152344 41.152343h-36.972656c-5.523438 0-10 4.476563-10 10 0 5.523438 4.476562 10 10 10h36.972656c16.820312 0 32.078125-6.828124 43.144531-17.855468 27.1875 11.84375 56.125 17.855468 86.132813 17.855468 34.992187 0 69.746093-8.554687 100.515624-24.742187 29.773438-15.667969 55.867188-38.445313 75.472657-65.875 2.527343-3.535156 2.480469-8.296875-.113281-11.78125zm-175.875 82.402344c-25.796876 0-50.71875-4.882813-74.234376-14.527344 3.910157-8.054687 6.109376-17.085937 6.109376-26.625 0-33.128906-26.480469-60.1875-59.382813-61.128906-11.816406-25.980469-35.777344-44.375-63.582031-49.34375-3.375-14.535157-5.082032-29.488281-5.082032-44.550781 0-73.585938 41.003907-140.023438 104.609376-173.558594-15.457032 30.222656-23.519532 63.640625-23.519532 98.183594 0 57.742187 22.488282 112.027343 63.316406 152.859374 40.828126 40.828126 95.113282 63.316407 152.855469 63.316407 13.164063 0 26.203125-1.179688 39.015625-3.515625-36.632812 37.300781-87.140625 58.890625-140.105468 58.890625zm0 0"/><path d="m296.628906 107.484375c26.054688 0 60.605469 34.550781 60.605469 60.605469 0 5.523437 4.476563 10 10 10s10-4.476563 10-10c0-26.054688 34.550781-60.605469 60.605469-60.605469 5.523437 0 10-4.476563 10-10s-4.476563-10-10-10c-12.132813 0-27.511719-7.84375-40.136719-20.46875-12.628906-12.625-20.472656-28.007813-20.472656-40.136719 0-5.523437-4.476563-10-10-10-5.519531 0-10 4.476563-10 10 0 12.128906-7.84375 27.511719-20.46875 40.136719s-28.003907 20.46875-40.136719 20.46875c-5.523438 0-10 4.476563-10 10 .003906 5.523437 4.480469 10 10.003906 10zm54.277344-26.328125c6.5625-6.5625 12.070312-13.726562 16.328125-21.082031 4.253906 7.355469 9.765625 14.519531 16.328125 21.082031s13.726562 12.074219 21.078125 16.328125c-7.351563 4.253906-14.519531 9.765625-21.078125 16.328125-6.5625 6.5625-12.074219 13.730469-16.328125 21.082031-4.257813-7.351562-9.765625-14.519531-16.328125-21.082031s-13.730469-12.070312-21.082031-16.328125c7.355469-4.253906 14.519531-9.765625 21.082031-16.328125zm0 0"/><path d="m127.898438 401.792969c-5.511719 0-10 4.488281-10 10 0 5.507812 4.488281 10 10 10 5.507812 0 10-4.492188 10-10 0-5.511719-4.492188-10-10-10zm0 0"/></g></svg>