<svg height="512pt" viewBox="0 -21 512 512" width="512pt" xmlns="http://www.w3.org/2000/svg"><g fill-rule="evenodd"><path d="m422.1875 114.109375c44.078125 0 79.8125 35.730469 79.8125 79.808594s-35.734375 79.8125-79.8125 79.8125h-348.746094c-35.039062 0-63.441406-28.40625-63.441406-63.441407 0-35.039062 28.402344-63.441406 63.441406-63.441406 4.109375 0 8.132813.394532 12.027344 1.144532 1.871094-37.109376 32.550781-66.625 70.125-66.625 7.144531 0 14.035156 1.070312 20.53125 3.054687 19.152344-43.804687 62.859375-74.421875 113.726562-74.421875 61.933594 0 113.257813 45.382812 122.558594 104.707031 3.203125-.394531 6.46875-.597656 9.777344-.597656zm0 0" fill="#67e4dc"/><path d="m190.65625 203.890625h145.769531l-76.597656 128.53125h76.832031l-153.429687 128.535156 30.640625-128.535156h-38.535156zm0 0" fill="#fec96b"/><path d="m422.1875 104.109375c-.542969 0-1.089844.003906-1.636719.015625-6.335937-27.691406-21.4375-52.847656-43.148437-71.589844-24.308594-20.980468-55.402344-32.535156-87.550782-32.535156-50.460937 0-96.386718 28.296875-119.257812 72.773438-4.929688-.933594-9.945312-1.40625-15-1.40625-39.171875 0-71.980469 28.042968-78.882812 65.554687-1.089844-.050781-2.179688-.074219-3.269532-.074219-40.496094 0-73.441406 32.945313-73.441406 73.441406 0 40.496094 32.945312 73.441407 73.441406 73.441407h97.628906l-5.664062 47.511719c-.335938 2.835937.554688 5.683593 2.453125 7.820312 1.894531 2.140625 4.617187 3.363281 7.476563 3.363281h25.871093l-27.703125 116.210938c-1 4.195312.804688 8.558593 4.46875 10.824219 1.621094 1 3.441406 1.496093 5.257813 1.496093 2.296875 0 4.578125-.789062 6.425781-2.335937l46.050781-38.578125c4.234375-3.546875 4.792969-9.855469 1.246094-14.089844-3.550781-4.234375-9.855469-4.789063-14.089844-1.242187l-22.898437 19.183593 23.636718-99.152343c.707032-2.976563.015626-6.113282-1.882812-8.515626-1.894531-2.402343-4.785156-3.804687-7.847656-3.804687h-27.269532l5.679688-47.65625c0-.007813 0-.015625 0-.023437l7.253906-60.851563h119.292969l-67.589844 113.414063c-1.839843 3.089843-1.878906 6.929687-.105469 10.058593 1.777344 3.128907 5.097657 5.058594 8.695313 5.058594h49.324219l-24.96875 20.914063c-4.230469 3.546874-4.789063 9.855468-1.242188 14.089843 3.546875 4.230469 9.851563 4.789063 14.089844 1.242188l46.050781-38.582031c3.222657-2.699219 4.414063-7.128907 2.976563-11.082032-1.433594-3.949218-5.191406-6.582031-9.398438-6.582031h-59.230468l23.058593-38.695313h121.699219c49.523438 0 89.8125-40.285156 89.8125-89.808593 0-49.519531-40.289062-89.808594-89.8125-89.808594zm0 159.621094h-109.78125l32.609375-54.722657c1.839844-3.089843 1.882813-6.929687.105469-10.058593-1.777344-3.125-5.097656-5.058594-8.695313-5.058594h-145.769531c-5.066406 0-9.328125 3.785156-9.929688 8.816406l-7.273437 61.019531h-100.011719c-29.46875.003907-53.441406-23.972656-53.441406-53.4375 0-29.46875 23.972656-53.441406 53.441406-53.441406 3.398438 0 6.808594.324219 10.140625.964844 2.839844.546875 5.78125-.164062 8.0625-1.953125 2.273438-1.785156 3.667969-4.472656 3.8125-7.363281 1.617188-32.035156 28.03125-57.128906 60.136719-57.128906 5.996094 0 11.921875.878906 17.613281 2.617187 4.851563 1.480469 10.046875-.90625 12.082031-5.558594 18.171876-41.566406 59.214844-68.425781 104.5625-68.425781 56.550782 0 103.9375 40.480469 112.679688 96.253906.835938 5.332032 5.761719 9.035156 11.101562 8.378906 2.824219-.347656 5.703126-.523437 8.554688-.523437 38.496094 0 69.816406 31.316406 69.816406 69.808594-.003906 38.496093-31.320312 69.8125-69.816406 69.8125zm0 0"/><path d="m259.945312 386.691406c-5.503906 0-10 4.492188-10 10 0 5.507813 4.496094 10 10 10 5.507813 0 10.003907-4.492187 10.003907-10 0-5.507812-4.496094-10-10.003907-10zm0 0"/></g></svg>