<?xml version="1.0" encoding="iso-8859-1"?>
<!-- Generator: Adobe Illustrator 19.0.0, SVG Export Plug-In . SVG Version: 6.00 Build 0)  -->
<svg version="1.1" id="Capa_1" xmlns="http://www.w3.org/2000/svg" xmlns:xlink="http://www.w3.org/1999/xlink" x="0px" y="0px"
	 viewBox="0 0 512 512" style="enable-background:new 0 0 512 512;" xml:space="preserve">
<g>
	<path style="fill:#00AC65;" d="M303.06,335.185l70.813,70.813l128.128,0.001L379.969,283.965c-7.064-7.064-18.625-7.065-25.69,0
		L303.06,335.185z"/>
	<path style="fill:#24D883;" d="M10,405.998h357.124h6.749l-70.813-70.813l-50.725-50.726
		c-48.229,0.988-58.565,36.465-124.438,3.642l-83.255,83.254L10,405.998z"/>
	<path style="fill:#F0F0F0;" d="M127.897,288.101c65.873,32.823,76.209-2.654,124.438-3.642l-43.072-43.072
		c-9.529-9.529-25.123-9.53-34.652,0L127.897,288.101z"/>
	<circle style="fill:#FFBA4C;" cx="311.371" cy="135.999" r="30"/>
</g>
<path d="M311.374,175.999c22.056,0,40-17.944,40-40s-17.944-40-40-40s-40,17.944-40,40S289.318,175.999,311.374,175.999z
	 M311.374,115.999c11.028,0,20,8.972,20,20s-8.972,20-20,20s-20-8.972-20-20S300.346,115.999,311.374,115.999z"/>
<path d="M503.954,415.805c0.169-0.033,0.333-0.08,0.499-0.122c0.15-0.038,0.302-0.071,0.45-0.116
	c0.162-0.049,0.318-0.11,0.477-0.167c0.15-0.054,0.301-0.103,0.447-0.164c0.147-0.061,0.287-0.132,0.43-0.2
	c0.153-0.072,0.309-0.14,0.459-0.221c0.133-0.071,0.26-0.153,0.391-0.23c0.15-0.09,0.303-0.175,0.449-0.273
	c0.137-0.092,0.266-0.194,0.398-0.293c0.129-0.096,0.262-0.187,0.389-0.29c0.218-0.179,0.425-0.37,0.627-0.566
	c0.033-0.033,0.069-0.061,0.103-0.093c0.034-0.034,0.061-0.071,0.095-0.105c0.195-0.201,0.387-0.408,0.565-0.625
	c0.105-0.128,0.197-0.264,0.296-0.396c0.096-0.13,0.196-0.255,0.286-0.39c0.102-0.152,0.19-0.31,0.282-0.466
	c0.074-0.124,0.152-0.245,0.221-0.373c0.084-0.156,0.155-0.317,0.23-0.477c0.064-0.136,0.132-0.271,0.19-0.41
	c0.064-0.154,0.115-0.311,0.171-0.469c0.055-0.151,0.113-0.3,0.16-0.455c0.047-0.158,0.083-0.318,0.123-0.478
	c0.039-0.156,0.083-0.311,0.114-0.47c0.037-0.186,0.059-0.375,0.086-0.562c0.019-0.136,0.045-0.268,0.059-0.406
	c0.065-0.658,0.065-1.321,0-1.978c-0.014-0.138-0.04-0.271-0.059-0.406c-0.026-0.188-0.049-0.376-0.086-0.562
	c-0.031-0.16-0.075-0.314-0.114-0.47c-0.04-0.16-0.076-0.32-0.123-0.479c-0.047-0.154-0.105-0.304-0.159-0.454
	c-0.057-0.157-0.108-0.315-0.172-0.47c-0.059-0.139-0.126-0.273-0.19-0.409c-0.074-0.161-0.146-0.322-0.23-0.479
	c-0.068-0.128-0.146-0.249-0.221-0.373c-0.092-0.156-0.181-0.314-0.282-0.466c-0.09-0.134-0.19-0.26-0.286-0.39
	c-0.099-0.132-0.19-0.267-0.296-0.396c-0.179-0.217-0.37-0.424-0.565-0.625c-0.033-0.034-0.06-0.071-0.095-0.105L387.039,276.894
	c-10.982-10.98-28.85-10.98-39.832,0.001l-44.147,44.149l-43.663-43.664c-0.062-0.063-0.123-0.126-0.186-0.186l-42.876-42.876
	c-6.498-6.498-15.162-10.076-24.398-10.076c-9.235,0-17.9,3.579-24.397,10.076l-46.86,46.86c-0.001,0.002-0.003,0.003-0.005,0.005
	L2.929,398.927c-0.022,0.022-0.041,0.047-0.063,0.07c-0.208,0.212-0.409,0.431-0.598,0.661c-0.102,0.124-0.192,0.256-0.288,0.385
	c-0.099,0.133-0.202,0.262-0.294,0.4c-0.1,0.149-0.187,0.305-0.278,0.458c-0.076,0.127-0.156,0.251-0.226,0.381
	c-0.083,0.155-0.153,0.314-0.227,0.472c-0.065,0.138-0.134,0.273-0.192,0.415c-0.063,0.153-0.115,0.311-0.171,0.467
	c-0.054,0.152-0.113,0.302-0.16,0.457c-0.048,0.158-0.083,0.318-0.123,0.478c-0.039,0.157-0.083,0.311-0.115,0.471
	c-0.037,0.186-0.06,0.374-0.086,0.562c-0.019,0.135-0.045,0.269-0.059,0.406c-0.065,0.658-0.065,1.321,0,1.979
	c0.014,0.137,0.04,0.271,0.059,0.406c0.026,0.188,0.049,0.375,0.086,0.562c0.032,0.159,0.076,0.314,0.115,0.471
	c0.04,0.16,0.075,0.32,0.123,0.478c0.047,0.155,0.105,0.305,0.16,0.457c0.056,0.156,0.107,0.313,0.171,0.466
	c0.059,0.142,0.128,0.277,0.193,0.416c0.074,0.157,0.144,0.316,0.227,0.471c0.07,0.13,0.15,0.254,0.226,0.381
	c0.091,0.153,0.178,0.309,0.278,0.458c0.092,0.138,0.195,0.267,0.294,0.399c0.096,0.129,0.186,0.261,0.288,0.385
	c0.189,0.23,0.389,0.449,0.598,0.661c0.022,0.022,0.041,0.047,0.063,0.07c0.023,0.022,0.047,0.041,0.07,0.064
	c0.212,0.208,0.431,0.408,0.661,0.597c0.125,0.102,0.256,0.192,0.385,0.288c0.133,0.099,0.262,0.202,0.4,0.294
	c0.149,0.1,0.304,0.187,0.458,0.278c0.127,0.076,0.251,0.155,0.381,0.226c0.155,0.083,0.314,0.153,0.472,0.228
	c0.138,0.064,0.274,0.134,0.416,0.192c0.153,0.064,0.311,0.115,0.466,0.171c0.152,0.054,0.302,0.112,0.457,0.16
	c0.158,0.048,0.318,0.083,0.478,0.123c0.157,0.039,0.311,0.083,0.471,0.115c0.186,0.037,0.374,0.06,0.562,0.086
	c0.136,0.019,0.269,0.045,0.406,0.059c0.33,0.032,0.663,0.05,0.994,0.05l491.994-0.002c0.004,0-0.003,0,0,0l0,0
	c0.329,0,0.658-0.018,0.986-0.05c0.15-0.014,0.296-0.043,0.443-0.064C503.605,415.859,503.78,415.839,503.954,415.805z
	 M361.349,291.037c3.185-3.184,8.365-3.183,11.548,0l104.961,104.962h-99.842l-60.814-60.814L361.349,291.037z M129.978,300.162
	c19.167,8.737,34.114,11.824,46.675,11.824c9.634,0,17.872-1.808,25.556-4.242l14.304,21.481c1.926,2.893,5.099,4.459,8.332,4.459
	c1.904,0,3.83-0.543,5.533-1.678c4.597-3.061,5.842-9.269,2.781-13.866l-11.591-17.406c8.146-2.932,16.484-5.378,26.814-6.082
	l101.343,101.344c0.002,0.002,0,0,0.002,0.001s0,0,0.002,0.001l0,0H34.142L129.978,300.162z M181.682,248.459
	c2.72-2.72,6.362-4.218,10.255-4.218s7.535,1.498,10.255,4.218l28.644,28.644c-8.688,1.994-16.166,4.814-23.102,7.439
	c-18.077,6.838-32.813,12.398-62.549,0.415L181.682,248.459z"/>
<path d="M233.166,354.231c1.926,2.895,5.1,4.461,8.334,4.461c1.903,0,3.828-0.543,5.531-1.676c4.598-3.06,5.845-9.268,2.785-13.865
	l-0.18-0.27c-3.06-4.598-9.268-5.845-13.865-2.785c-4.598,3.06-5.845,9.268-2.785,13.865L233.166,354.231z"/>
<g>
</g>
<g>
</g>
<g>
</g>
<g>
</g>
<g>
</g>
<g>
</g>
<g>
</g>
<g>
</g>
<g>
</g>
<g>
</g>
<g>
</g>
<g>
</g>
<g>
</g>
<g>
</g>
<g>
</g>
</svg>
