<svg id="Layer_1" enable-background="new 0 0 512 512" height="512" viewBox="0 0 512 512" width="512" xmlns="http://www.w3.org/2000/svg"><g clip-rule="evenodd" fill-rule="evenodd"><path d="m74.637 25.577c-31.483 8.445-50.185 40.808-41.741 72.293l2.834 10.599c.907 3.372 4.392 5.384 7.736 4.478l50.922-13.659 50.922-13.631c3.344-.907 5.356-4.393 4.449-7.737l-2.834-10.599c-8.416-31.485-40.806-50.189-72.288-41.744z" fill="#ff7d97"/><path d="m74.013 150.297c-8.586 0-45.481 77.564-51.489 93.235 0 0 64.071 26.582 88.186 0 24.115-26.554 88.186 0 88.186 0s64.042 26.582 88.157 0c24.115-26.554 88.185 0 88.185 0-6.008-15.671-42.874-93.235-51.489-93.235h-52.112-72.742-90.849z" fill="#fff3da"/><path d="m22.525 243.532c-8.048 20.971-12.44 43.755-12.44 67.56 0 104.288 84.53 188.823 188.811 188.823 44.178 0 84.813-15.161 116.976-40.61l.85-.68c27.771-22.218 49.137-52.087 60.868-86.434 4.251-12.441 7.226-25.448 8.785-38.909h.028c.85-7.255 1.275-14.68 1.275-22.189 0-23.805-4.392-46.589-12.44-67.56 0 0-64.07-26.554-88.185 0-24.115 26.582-88.157 0-88.157 0s-64.07-26.554-88.186 0c-24.115 26.581-88.185-.001-88.185-.001z" fill="#b8ecbc"/><path d="m457.473 318.46c-22.925 1.304-47.862 5.98-71.07 14.821-1.587 13.461-4.562 26.469-8.813 38.909 6.716.935 13.8 2.579 21.253 5.016 17.569 5.781 34.09 15.388 49.023 27.177 11.788-22.501 19.439-47.411 23.322-70.592 1.048-6.15.34-9.834-1.955-12.044-1.927-2.521-5.526-3.627-11.76-3.287z" fill="#89df8f"/><path d="m377.59 372.191c-11.732 34.347-33.098 64.245-60.868 86.434 2.409 2.947 5.157 5.781 8.246 8.53 9.323 8.247 21.763 15.388 37.632 20.602 41.401 13.574 90.538 6.49 129.331-7.992 5.866-2.182 8.7-4.619 9.465-7.708 1.219-2.947.368-6.603-3.06-11.817-13.035-19.922-30.293-39.901-50.469-55.856-14.934-11.789-31.454-21.396-49.023-27.177-7.453-2.437-14.538-4.081-21.254-5.016z" fill="#89df8f"/></g><path d="m351.97 311.092v-.17c0-5.57-4.515-10.085-10.085-10.085-5.569 0-10.085 4.515-10.085 10.085v.17c0 5.57 4.515 10.085 10.085 10.085s10.085-4.515 10.085-10.085z"/><path d="m325.166 352.742c-17.983 54.605-68.727 91.293-126.27 91.293-5.569 0-10.085 4.515-10.085 10.085s4.515 10.085 10.085 10.085c66.271 0 124.714-42.258 145.427-105.153 1.743-5.29-1.134-10.991-6.425-12.733-5.29-1.745-10.991 1.132-12.732 6.423z"/><path d="m506.775 454.721c-13.415-20.509-29.21-38.485-46.293-53.044 9.656-20.256 16.759-42.968 20.648-66.19.575-3.371 2.295-13.456-4.363-20.462-6.183-7.38-16.418-6.82-19.844-6.634-.007 0-.015.001-.022.001-20.31 1.153-40.524 4.728-59.302 10.424.098-2.564.164-5.137.164-7.724 0-24.56-4.411-48.506-13.108-71.17-3.328-8.681-14.506-32.796-25.226-53.518-6.306-12.189-11.798-21.993-16.326-29.14-7.005-11.06-12.165-17.053-19.354-17.053h-42.027v-71.66l56.761-32.768c4.824-2.785 6.476-8.952 3.691-13.776-2.783-4.823-8.949-6.476-13.776-3.692l-61.804 35.679c-3.12 1.802-5.042 5.131-5.042 8.734v77.483h-145.766l-9.045-33.781 41.209-11.042c8.73-2.368 13.908-11.389 11.552-20.074l-2.834-10.599v.001c-4.767-17.832-16.2-32.739-32.194-41.974-13.044-7.532-27.839-10.549-42.526-8.812l-1.199-4.46c-1.446-5.377-6.974-8.568-12.357-7.121-5.379 1.446-8.566 6.978-7.121 12.357l1.2 4.463c-30.943 13.371-48.298 47.823-39.318 81.305l2.837 10.613c1.141 4.242 3.87 7.785 7.683 9.977 2.527 1.452 5.324 2.192 8.146 2.192 1.423 0 2.854-.188 4.257-.569l41.182-11.035 7.647 28.56h-20.891c-7.181 0-12.339 5.993-19.342 17.054-4.527 7.147-10.019 16.95-16.326 29.138-10.734 20.742-21.916 44.852-25.237 53.516-8.698 22.666-13.109 46.612-13.109 71.172 0 28.073 5.716 55.192 16.989 80.605 2.26 5.091 8.218 7.388 13.308 5.129 5.091-2.258 7.387-8.217 5.129-13.308-10.124-22.821-15.258-47.189-15.258-72.426 0-18.729 2.861-37.048 8.493-54.601 6.823 2.263 16.523 5.083 27.178 6.943 28.891 5.044 49.863.627 62.336-13.123 15.738-17.329 61.925-3.627 76.854 2.534.695.289 17.27 7.114 37.165 10.589 7.713 1.347 14.86 2.019 21.433 2.019 18.039 0 31.747-5.065 40.889-15.142 14.517-15.985 54.931-5.567 72.834.982 6.796 19.119 10.242 39.212 10.242 59.798 0 98.557-80.164 178.738-178.698 178.738-40.597 0-78.847-13.253-110.616-38.328-4.372-3.45-10.713-2.704-14.164 1.668s-2.704 10.714 1.668 14.164c35.366 27.913 77.937 42.667 123.114 42.667 43.36 0 83.517-13.961 116.232-37.613 1.113.893 2.245 1.76 3.414 2.567 10.769 9.486 24.473 16.993 40.916 22.386 15.821 5.188 33.468 7.755 52.078 7.755 26.848 0 55.692-5.344 83.91-15.877 3.211-1.194 12.817-4.767 15.542-14.01 3.293-9.075-2.343-17.644-4.213-20.487zm-414.722-365.235c-.091.022-.183.034-.274.059-.092.025-.177.06-.268.086l-47.011 12.597-1.863-6.971c-6.989-26.057 8.538-52.946 34.613-59.94 4.215-1.131 8.494-1.69 12.746-1.69 8.479 0 16.849 2.225 24.392 6.581 11.324 6.54 19.42 17.094 22.794 29.717l1.864 6.969zm249.868 134.154c-28.885-5.037-49.858-.626-62.338 13.116-15.735 17.345-61.897 3.631-76.826-2.54-.696-.288-17.277-7.105-37.178-10.576-28.886-5.037-49.858-.626-62.338 13.116-13.161 14.507-47.611 7.288-67.275.926 4.17-9.348 10.733-23.272 18.045-37.631 12.545-24.632 19.895-35.912 23.063-39.669h30.907c.02 0 .039.002.059.002.012 0 .025-.002.037-.002h212.674c7.261 8.232 24.871 42.504 36.161 66.568-4.601-1.217-9.675-2.383-14.991-3.31zm53.619 117.185c.008-.052.024-.108.031-.159 19.381-6.729 40.845-10.908 62.465-12.136 1.797-.096 2.907-.018 3.54.073.018.633-.029 1.742-.333 3.524-3.336 19.913-9.203 39.368-17.125 56.926-13.651-9.463-27.86-16.747-42.139-21.429-3.86-1.262-7.691-2.326-11.478-3.224 2.138-7.685 3.831-15.551 5.039-23.575zm92.875 129.489c-.004.001-.008.003-.012.004-43.572 16.266-88.282 19.13-122.661 7.858-13.843-4.541-25.522-10.953-34.316-18.784 23.337-20.857 41.361-46.758 52.717-75.776 3.783.835 7.648 1.896 11.557 3.174 15.56 5.102 31.1 13.791 45.813 25.366.034.048.07.095.103.144.496.719 1.197 1.202 1.999 1.529 17.034 13.796 32.893 31.468 46.293 51.954.977 1.485 1.465 2.475 1.707 3.066-.544.333-1.527.843-3.2 1.465z"/><path d="m57.406 420.217c-3.48-4.349-9.827-5.054-14.175-1.575-4.349 3.479-5.055 9.825-1.576 14.175l.113.142c1.993 2.49 4.923 3.785 7.882 3.785 2.209 0 4.434-.723 6.293-2.21 4.349-3.479 5.055-9.825 1.576-14.175z"/></svg>