<svg height="511pt" viewBox="1 -68 511.999 511" width="511pt" xmlns="http://www.w3.org/2000/svg"><g fill-rule="evenodd"><path d="m57.265625 271.148438h.78125c3.179687-45.898438 41.414063-82.152344 88.121094-82.152344 38.425781 0 71.109375 24.535156 83.265625 58.789062 1.855468-.175781 3.738281-.269531 5.640625-.269531 32.628906 0 59.082031 26.453125 59.082031 59.082031s-26.453125 59.082032-59.082031 59.082032h-177.808594c-25.996094 0-47.265625-21.269532-47.265625-47.265626 0-25.996093 21.269531-47.265624 47.265625-47.265624zm0 0" fill="#67e4dc"/><path d="m350.226562 183.878906h.5c2.035157-29.410156 26.535157-52.636718 56.460938-52.636718 24.617188 0 45.558594 15.71875 53.347656 37.667968 1.1875-.113281 2.394532-.171875 3.613282-.171875 20.90625 0 37.851562 16.945313 37.851562 37.851563s-16.945312 37.855468-37.851562 37.855468l-.023438-.003906h-113.898438c-16.65625 0-30.285156-13.625-30.285156-30.28125s13.628906-30.28125 30.285156-30.28125zm0 0" fill="#d9f9f6"/><path d="m363.128906 152.3125c-23.640625-26.09375-57.792968-42.480469-95.773437-42.480469-53.625 0-99.621094 32.667969-119.167969 79.1875 17.632812.394531 33.988281 5.957031 47.617188 15.234375 12.902343-26.496094 40.09375-44.757812 71.550781-44.757812 25.882812 0 48.878906 12.367187 63.40625 31.511718 5.273437-4.441406 12.070312-7.128906 19.464843-7.128906h.5c.824219-11.914062 5.335938-22.816406 12.402344-31.566406zm0 0" fill="#ff8f8e"/><path d="m410.167969 131.320312c-32.652344-43.222656-84.472657-71.15625-142.816407-71.15625-88.285156 0-161.632812 63.964844-176.230468 148.078126 15.101562-12.046876 34.230468-19.246094 55.046875-19.246094.675781 0 1.347656.007812 2.019531.023437 19.546875-46.519531 65.542969-79.1875 119.167969-79.1875 37.980469 0 72.132812 16.386719 95.773437 42.476563 10.375-12.847656 26.257813-21.066406 44.058594-21.066406 1 0 1.992188.027343 2.980469.078124zm0 0" fill="#fec96b"/><path d="m487.261719 176.609375c-27.164063-95.871094-115.335938-166.109375-219.910157-166.109375-126.214843 0-228.535156 102.320312-228.535156 228.535156 0 11.847656.902344 23.488282 2.640625 34.847656 4.949219-1.769531 10.269531-2.734374 15.808594-2.734374h.78125c1.761719-25.445313 14.296875-47.921876 33.074219-62.90625 14.597656-84.113282 87.945312-148.074219 176.230468-148.074219 58.34375 0 110.164063 27.929687 142.816407 71.152343 23.316406 1.210938 42.894531 16.535157 50.367187 37.589844 1.1875-.113281 2.390625-.171875 3.609375-.171875 8.703125 0 16.71875 2.933594 23.117188 7.871094zm0 0" fill="#c2ed91"/><path d="m496.007812 170.925781c-14.226562-47.777343-43.816406-90.746093-83.585937-121.257812-41.929687-32.167969-92.09375-49.167969-145.070313-49.167969-63.714843 0-123.617187 24.8125-168.667968 69.867188-45.054688 45.050781-69.867188 104.953124-69.867188 168.667968 0 9.632813.589844 19.300782 1.738282 28.835938-4.878907 2.566406-9.40625 5.832031-13.429688 9.753906-11.042969 10.761719-17.125 25.25-17.125 40.789062 0 31.578126 25.691406 57.265626 57.265625 57.265626h48.902344c5.523437 0 10-4.476563 10-10 0-5.519532-4.476563-10-10-10h-48.902344c-20.546875 0-37.265625-16.714844-37.265625-37.265626 0-20.898437 16.710938-37.265624 38.046875-37.265624 5.253906 0 9.613281-4.066407 9.976563-9.308594.089843-1.332032.21875-2.652344.378906-3.972656.035156-.277344.082031-.550782.121094-.828126.136718-1.046874.285156-2.09375.464843-3.132812.050781-.277344.109375-.550781.160157-.828125.195312-1.035156.398437-2.070313.632812-3.097656.058594-.261719.125-.519531.1875-.78125.246094-1.03125.507812-2.058594.796875-3.074219.074219-.265625.15625-.527344.230469-.792969.292968-.992187.601562-1.980469.933594-2.960937.097656-.296875.203124-.59375.308593-.886719.320313-.917969.660157-1.832031 1.015625-2.734375.140625-.359375.285156-.714844.429688-1.070312.328125-.800782.671875-1.589844 1.027344-2.378907.203124-.453125.410156-.910156.621093-1.359375.296875-.625.609375-1.242187.921875-1.859375.300782-.597656.597656-1.195312.917969-1.78125.191406-.363281.402344-.71875.601563-1.078125 13.480468-24.039062 39.246093-40.226562 68.394531-40.226562.855469 0 1.710937.023437 2.5625.050781.371093.011719.738281.027344 1.105469.046875.675781.03125 1.347656.070312 2.019531.117188.277343.023437.558593.042968.835937.066406.808594.066406 1.613282.144531 2.417969.238281.132813.015625.269531.027344.40625.042969 29.234375 3.523437 54.480469 23.355468 64.496094 51.570312 1.53125 4.320313 5.800781 7.050782 10.367187 6.609375 1.574219-.148437 3.15625-.222656 4.695313-.222656 27.0625 0 49.078125 22.015625 49.078125 49.082031 0 27.0625-22.015625 49.082032-49.078125 49.082032h-48.90625c-5.523438 0-10 4.476562-10 10 0 5.519531 4.476562 10 10 10h48.90625c38.089843 0 69.078125-30.992188 69.078125-69.082032 0-37.75-30.429688-68.523437-68.046875-69.074218-6.285157-14.1875-15.742188-26.417969-27.335938-35.980469 12.707031-19.949219 34.488281-32.046875 58.582031-32.046875 19.207032 0 37.078126 7.6875 50.148438 21.34375-4.753906 6.585937-7.558594 14.636718-7.558594 23.320312 0 22.210938 18.074219 40.28125 40.285156 40.28125h16.957032c5.523437 0 10-4.476562 10-10 0-5.523437-4.476563-10-10-10h-16.957032c-11.1875 0-20.285156-9.097656-20.285156-20.28125 0-6.292968 2.800782-11.820312 7.273438-15.511718.25-.214844.515625-.402344.777344-.601563.316406-.238281.625-.476563.957031-.695313.070312-.046874.140625-.085937.207031-.132812 3.289062-2.117188 7.253906-3.34375 11.570312-3.34375.65625 0 1.300782-.0625 1.921876-.183594 4.359374-.851562 7.734374-4.539062 8.054687-9.125.046875-.699218.113281-1.394531.195313-2.082031.019531-.179687.042968-.359375.066406-.539063.066406-.542968.144531-1.078124.230468-1.609374.023438-.15625.050782-.3125.078126-.46875 3.804687-22.003907 23.125-38.625 45.910156-38.625 1.117187 0 2.222656.046874 3.324218.125.160157.011718.320313.019531.480469.03125.558594.046874 1.117188.101562 1.671875.167968 16.765625 1.984375 31.335938 13 37.730469 28.800782.023437.058593.050781.117187.074219.179687.226562.5625.4375 1.128906.644531 1.703125.09375.273438.203125.535156.320313.792969 1.746093 3.855469 5.769531 6.222656 10.042968 5.820312.5-.046875 1-.082031 1.496094-.101562.078125-.003907.152344-.003907.230469-.003907.4375-.015624.875-.023437 1.308593-.019531.039063 0 .074219.003907.109376.003907 15.15625.257812 27.382812 12.648437 27.382812 27.847656 0 15.359375-12.496094 27.855468-27.851562 27.855468l-16.960938-.003906h-.003906c-5.519532 0-9.996094 4.476563-10 10 0 5.523438 4.476562 10 10 10l16.960937.003906c26.386719 0 47.855469-21.46875 47.855469-47.855468 0-14.160156-6.183594-26.894532-15.992188-35.664063zm-228.65625-150.425781c90.164063 0 171.023438 56.074219 203.496094 138.695312-.421875-.058593-.851562-.101562-1.277344-.148437-.050781-.007813-.101562-.015625-.152343-.019531-.753907-.082032-1.507813-.152344-2.269531-.199219-9.808594-20.351563-29.222657-34.320313-51.75-37.082031-16.859376-21.238282-38.375-38.855469-62.46875-51.121094-26.664063-13.578125-55.457032-20.460938-85.578126-20.460938-44.753906 0-88.160156 15.9375-122.222656 44.875-32.714844 27.796876-55.054687 65.96875-63.183594 107.828126-9.664062 8.347656-17.523437 18.449218-23.261718 29.632812-.167969.332031-.332032.671875-.5 1.007812-.421875.839844-.835938 1.683594-1.230469 2.539063-.269531.578125-.527344 1.164063-.789063 1.753906-.273437.625-.546874 1.253907-.8125 1.882813-.308593.746094-.609374 1.496094-.898437 2.25-.191406.496094-.382813.992187-.566406 1.492187-.3125.847657-.613281 1.703125-.90625 2.5625-.144531.429688-.285157.859375-.425781 1.296875-.289063.902344-.570313 1.808594-.835938 2.726563-.125.417969-.238281.839843-.355469 1.265625-.25.917968-.5 1.835937-.726562 2.765625-.109375.457031-.210938.921875-.316407 1.382812-.203124.890625-.40625 1.78125-.585937 2.683594-.019531.105469-.046875.203125-.066406.308594-.566407-6.4375-.851563-12.914063-.851563-19.378907 0-120.503906 98.035156-218.539062 218.535156-218.539062zm0 128.996094c-17.109374 0-33.746093 4.847656-48.109374 14.011718-10.894532 6.953126-20.113282 16.132813-27.082032 26.890626-9.003906-4.773438-18.675781-8.101563-28.699218-9.882813 20.953124-37.265625 60.386718-60.683594 103.890624-60.683594 30.945313 0 60.714844 12.125 82.859376 33.507813-4.019532 6.609375-6.832032 13.835937-8.339844 21.421875-3.144532.671875-6.199219 1.722656-9.097656 3.121093-16.894532-18.144531-40.269532-28.386718-65.421876-28.386718zm95.761719-11.484375c-25.75-24.378907-60.085937-38.179688-95.757812-38.179688-53.992188 0-102.601563 30.902344-125.660157 79.265625-12.441406.566406-24.328124 3.496094-35.210937 8.332032 22-69.148438 86.367187-117.265626 160.871094-117.265626 47.308593 0 91.246093 19.207032 123.082031 53.238282-10.25 2.679687-19.578125 7.757812-27.324219 14.609375zm0 0"/><path d="m146.167969 355.679688c-5.507813 0-10 4.492187-10 10 0 5.507812 4.492187 10 10 10 5.511719 0 10-4.492188 10-10 0-5.507813-4.488281-10-10-10zm0 0"/><path d="m407.183594 234.441406c-5.507813 0-10 4.492188-10 10 0 5.507813 4.492187 10 10 10 5.511718 0 10.003906-4.492187 10.003906-10 0-5.507812-4.492188-10-10.003906-10zm0 0"/></g></svg>