<?xml version="1.0" encoding="iso-8859-1"?>
<!-- Generator: Adobe Illustrator 19.0.0, SVG Export Plug-In . SVG Version: 6.00 Build 0)  -->
<svg version="1.1" id="Capa_1" xmlns="http://www.w3.org/2000/svg" xmlns:xlink="http://www.w3.org/1999/xlink" x="0px" y="0px"
	 viewBox="0 0 512 512" style="enable-background:new 0 0 512 512;" xml:space="preserve">
<g>
	<path style="fill:#EFEFEF;" d="M298.586,137.186v-84.56h2.008c54.311,0,105.383,21.155,143.806,59.569
		c6.812,6.811,13.17,14.139,18.9,21.779l2.407,3.213H298.586z"/>
	<path style="fill:#EFEFEF;" d="M135.555,137.186l2.403-3.211c18.501-24.723,42.778-45.199,70.208-59.214
		c28.744-14.688,59.842-22.135,92.428-22.135h2.008v84.56H135.555z"/>
	<path style="fill:#EFEFEF;" d="M101.052,217.731l0.484-2.404c5.895-29.281,18.489-57.412,36.422-81.352l0.602-0.804h63.358v84.559
		H101.052V217.731z"/>
	<rect x="197.903" y="133.171" style="fill:#EFEFEF;" width="205.382" height="84.56"/>
	<path style="fill:#EFEFEF;" d="M399.27,217.731v-84.56h63.427l0.603,0.802c18.273,24.333,30.582,51.704,36.583,81.352l0.487,2.405
		h-101.1V217.731z"/>
	<path style="fill:#EFEFEF;" d="M499.943,459.375V298.276H298.586v-84.56h200.969l0.327,1.607
		c2.712,13.318,4.086,27.005,4.086,40.678v203.374L499.943,459.375L499.943,459.375z"/>
	<path style="fill:#EFEFEF;" d="M298.586,356.674c0-54.405-44.266-98.665-98.675-98.665H98.72l0.025-2.033
		c0.015-1.201,0.402-29.532,2.796-40.674l0.341-1.586h200.72v142.958H298.586z"/>
</g>
<path style="fill:#CCF1FF;" d="M51.682,459.365V349.024c0-25.176,20.482-45.658,45.658-45.658c12.2,0,23.664,4.752,32.281,13.379
	c8.626,8.616,13.377,20.079,13.377,32.279v110.341L51.682,459.365L51.682,459.365z"/>
<g>
	<path style="fill:#EFEFEF;" d="M138.983,459.365V349.024c0-11.126-4.333-21.581-12.201-29.44
		c-7.86-7.87-18.316-12.203-29.442-12.203c-22.962,0-41.643,18.681-41.643,41.643v110.341H8.031V343.292
		c0-49.239,40.064-89.299,89.309-89.299c49.239,0,89.299,40.059,89.299,89.299v116.073H138.983z"/>
	<path style="fill:#EFEFEF;" d="M182.623,459.365V343.292c0-47.026-38.257-85.283-85.283-85.283v-4.016h102.571
		c56.624,0,102.691,46.063,102.691,102.681v102.691H182.623z"/>
	<rect x="298.586" y="294.26" style="fill:#EFEFEF;" width="104.699" height="84.56"/>
	<rect x="399.27" y="294.26" style="fill:#EFEFEF;" width="104.689" height="84.56"/>
	<rect x="298.586" y="374.805" style="fill:#EFEFEF;" width="205.372" height="84.56"/>
</g>
<path d="M507.749,213.71c-6.24-30.812-19.03-59.257-38.017-84.543c-0.003-0.003-0.005-0.007-0.007-0.011
	c-5.957-7.944-12.567-15.562-19.647-22.642c-39.94-39.929-93.028-61.92-149.484-61.92c-33.868,0-66.197,7.743-96.083,23.015
	c-28.51,14.568-53.745,35.849-72.975,61.543c-0.002,0.003-0.005,0.005-0.007,0.008c-18.613,24.849-31.693,54.042-37.835,84.433
	c-0.002,0.007-0.004,0.014-0.006,0.021c-0.005,0.023-0.009,0.048-0.014,0.071c-0.004,0.019-0.008,0.037-0.012,0.056
	c-0.001,0.005-0.001,0.01-0.002,0.015c-1.659,7.855-2.397,22.56-2.717,32.421C40.241,249.482,0,291.772,0,343.292v114.066
	c0,5.544,4.495,10.039,10.039,10.039H53.69h87.301H300.4c0.065,0.001,0.128,0.01,0.194,0.01h201.367
	c5.544,0,10.039-4.496,10.039-10.039V256.001c0-14.211-1.43-28.436-4.248-42.28C507.751,213.717,507.75,213.714,507.749,213.71z
	 M194.67,433.193h40.749c5.545,0,10.039-4.496,10.039-10.039c0-5.544-4.495-10.039-10.039-10.039H194.67v-69.823
	c0-31.444-14.992-59.446-38.198-77.252h43.439c49.981,0,90.644,40.659,90.644,90.634v90.644H194.67V433.193z M112.23,225.762h87.68
	h90.644v67.406c-20.048-28.526-53.203-47.207-90.643-47.207h-88.865C111.268,239.55,111.644,231.899,112.23,225.762z
	 M391.238,145.218v60.465H209.95v-60.465H391.238z M489.521,225.762c1.586,9.969,2.4,20.106,2.4,30.238v30.228H310.633v-60.466
	h90.644L489.521,225.762L489.521,225.762z M491.912,306.307v60.465h-80.595v-60.465H491.912z M391.238,366.773h-80.605v-10.099
	v-50.367h80.605V366.773z M310.633,447.318v-60.466h90.644h90.634v60.466H310.633z M411.317,205.684v-60.466h45.282
	c13.172,18.493,22.772,38.768,28.637,60.465h-73.919V205.684z M440.154,125.139h-38.877h-90.644V64.936
	c47.323,2.431,91.478,22.016,125.248,55.778C437.33,122.163,438.751,123.643,440.154,125.139z M290.555,64.928v60.212h-90.644
	h-38.896C194.74,88.897,240.634,67.466,290.555,64.928z M144.668,145.218h45.204v60.465h-73.705
	C122.006,183.952,131.559,163.678,144.668,145.218z M20.078,343.292c0-42.596,34.659-77.252,77.262-77.252
	c42.597,0,77.252,34.655,77.252,77.252v104.026H151.03v-98.294c0-14.347-5.588-27.83-15.725-37.955
	c-10.135-10.147-23.617-15.736-37.964-15.736c-29.605,0-53.69,24.085-53.69,53.69v98.294H20.078V343.292z M63.729,396.429h37.025
	c5.545,0,10.039-4.496,10.039-10.039c0-5.544-4.495-10.039-10.039-10.039H63.729v-13.432h37.025c5.545,0,10.039-4.496,10.039-10.039
	c0-5.544-4.495-10.039-10.039-10.039H64.309c2.912-15.588,16.611-27.427,33.031-27.427c8.979,0,17.417,3.496,23.766,9.853
	c6.349,6.341,9.845,14.779,9.845,23.758v98.294H63.729V396.429z"/>
<path d="M265.035,413.114c-12.919,0-12.941,20.078,0,20.078C277.955,433.193,277.976,413.114,265.035,413.114z"/>
<g>
</g>
<g>
</g>
<g>
</g>
<g>
</g>
<g>
</g>
<g>
</g>
<g>
</g>
<g>
</g>
<g>
</g>
<g>
</g>
<g>
</g>
<g>
</g>
<g>
</g>
<g>
</g>
<g>
</g>
</svg>
