<svg height="512pt" viewBox="0 -39 512.00165 512" width="512pt" xmlns="http://www.w3.org/2000/svg"><g fill-rule="evenodd"><path d="m256 178.074219c80.523438 0 145.800781 65.277343 145.800781 145.800781h-291.597656c0-80.523438 65.277344-145.800781 145.796875-145.800781zm0 0" fill="#fec96b"/><path d="m235.753906 10h40.496094v70.5h25.542969v14.25l-22.898438 18.5625-22.894531 18.5625-45.789062-37.125v-14.25h25.542968zm0 0" fill="#ff8f8e"/><path d="m502 313.871094h-90.515625c-1.9375-30.933594-12.851563-60.082032-31.867187-84.832032-20.382813-26.527343-49.246094-46.109374-81.273438-55.136718-5.320312-1.5-10.839844 1.597656-12.339844 6.914062-1.496094 5.316406 1.597656 10.839844 6.914063 12.335938 54.992187 15.5 94.320312 64.320312 98.511719 120.71875h-270.855469c4.1875-56.398438 43.515625-105.21875 98.511719-120.71875 5.316406-1.496094 8.410156-7.019532 6.914062-12.335938-1.5-5.316406-7.023438-8.414062-12.339844-6.914062-32.027344 9.027344-60.894531 28.609375-81.273437 55.136718-19.019531 24.75-29.933594 53.898438-31.867188 84.832032h-90.515625c-5.523437 0-9.99999975 4.480468-9.99999975 10 0 5.523437 4.47656275 10 9.99999975 10h491.996094c5.519531 0 10-4.476563 10-10 0-5.519532-4.480469-10-10-10zm0 0"/><path d="m226 373.507812c0-5.523437-4.476562-10-10-10h-171.976562c-5.519532 0-9.996094 4.476563-9.996094 10 0 5.523438 4.476562 10 9.996094 10h171.976562c5.523438 0 10-4.476562 10-10zm0 0"/><path d="m467.976562 363.507812h-171.976562c-5.519531 0-10 4.476563-10 10 0 5.523438 4.480469 10 10 10h171.976562c5.523438 0 10-4.476562 10-10 0-5.523437-4.476562-10-10-10zm0 0"/><path d="m433.953125 413.144531h-355.90625c-5.523437 0-10 4.476563-10 10 0 5.523438 4.476563 10 10 10h355.90625c5.523437 0 10-4.476562 10-10 0-5.523437-4.476563-10-10-10zm0 0"/><path d="m440.542969 263.914062c1.371093 4.222657 5.292969 6.910157 9.507812 6.910157 1.023438 0 2.066407-.160157 3.09375-.492188l51.945313-16.878906c5.25-1.707031 8.125-7.347656 6.421875-12.601563-1.707031-5.25-7.351563-8.128906-12.601563-6.417968l-51.945312 16.878906c-5.253906 1.707031-8.128906 7.347656-6.421875 12.601562zm0 0"/><path d="m334.921875 146.609375c1.324219.589844 2.703125.867187 4.0625.867187 3.828125 0 7.484375-2.210937 9.144531-5.933593l22.214844-49.898438c2.246094-5.042969-.023438-10.957031-5.070312-13.203125-5.042969-2.246094-10.953126.023438-13.199219 5.070313l-22.21875 49.894531c-2.246094 5.046875.023437 10.957031 5.066406 13.203125zm0 0"/><path d="m407.597656 197.375c2.386719 0 4.777344-.847656 6.691406-2.566406l40.625-36.578125c4.101563-3.695313 4.433594-10.019531.738282-14.125-3.695313-4.101563-10.019532-4.433594-14.121094-.738281l-40.625 36.578124c-4.105469 3.695313-4.4375 10.019532-.742188 14.121094 1.976563 2.195313 4.699219 3.308594 7.433594 3.308594zm0 0"/><path d="m6.914062 253.453125 51.945313 16.878906c1.027344.335938 2.066406.492188 3.089844.492188 4.214843 0 8.136719-2.6875 9.507812-6.910157 1.707031-5.253906-1.164062-10.894531-6.417969-12.601562l-51.945312-16.878906c-5.253906-1.707032-10.894531 1.167968-12.601562 6.417968-1.707032 5.253907 1.167968 10.894532 6.421874 12.601563zm0 0"/><path d="m57.089844 158.230469 40.625 36.578125c1.910156 1.71875 4.304687 2.566406 6.6875 2.566406 2.734375 0 5.460937-1.113281 7.433594-3.308594 3.695312-4.101562 3.363281-10.425781-.738282-14.121094l-40.625-36.578124c-4.105468-3.695313-10.425781-3.363282-14.121094.738281-3.699218 4.105469-3.367187 10.429687.738282 14.125zm0 0"/><path d="m163.875 141.542969c1.65625 3.722656 5.3125 5.933593 9.140625 5.933593 1.359375 0 2.742187-.277343 4.0625-.867187 5.042969-2.246094 7.3125-8.15625 5.066406-13.203125l-22.214843-49.894531c-2.246094-5.046875-8.160157-7.316407-13.203126-5.070313-5.042968 2.246094-7.3125 8.160156-5.066406 13.203125zm0 0"/><path d="m203.914062 102.519531 45.789063 37.121094c1.835937 1.488281 4.066406 2.234375 6.296875 2.234375 2.234375 0 4.464844-.746094 6.300781-2.234375l45.789063-37.121094c2.34375-1.898437 3.703125-4.753906 3.703125-7.769531v-14.25c0-5.523438-4.480469-10-10-10h-15.542969v-60.5c0-5.523438-4.476562-10-10-10h-40.496094c-5.523437 0-10 4.476562-10 10v60.5h-15.542968c-5.523438 0-10 4.476562-10 10v14.25c0 3.015625 1.359374 5.871094 3.703124 7.769531zm31.839844-12.019531c5.523438 0 10-4.476562 10-10v-60.5h20.496094v60.5c0 5.523438 4.476562 10 10 10h14.90625l-35.15625 28.5-35.152344-28.5zm0 0"/><path d="m246 178.074219c0 5.511719 4.492188 10 10 10s10.003906-4.488281 10.003906-10c0-5.507813-4.496094-10-10.003906-10s-10 4.492187-10 10zm0 0"/><path d="m266.003906 373.507812c0-5.507812-4.496094-10-10.003906-10s-10 4.492188-10 10c0 5.507813 4.492188 10 10 10s10.003906-4.492187 10.003906-10zm0 0"/></g></svg>