<svg height="512pt" viewBox="0 -9 512.00097 512" width="512pt" xmlns="http://www.w3.org/2000/svg"><path d="m222.933594 393.65625 72.535156 45.125 72.535156 45.097656h-290.140625l72.535157-45.097656zm0 0" fill="#fec96b" fill-rule="evenodd"/><path d="m348.730469 371.292969 132.085937 112.585937h-112.8125l-87.304687-54.28125zm0 0" fill="#ffdda0" fill-rule="evenodd"/><path d="m95.976562 103.714844c27.351563 0 49.746094 22.394531 49.746094 49.746094v288.214843l-67.859375 42.203125h-31.632812v-330.417968c0-27.351563 22.390625-49.746094 49.746093-49.746094zm0 0" fill="#9de754" fill-rule="evenodd"/><path d="m194.84375 182.089844c0-13.039063 10.601562-23.609375 23.640625-23.609375s23.609375 10.570312 23.609375 23.609375v75.484375c0 19.839843-8.105469 37.867187-21.144531 50.933593-13.066407 13.039063-31.09375 21.144532-50.933594 21.144532h-24.292969v-47.222656h24.292969c6.800781 0 13.007813-2.804688 17.515625-7.3125 4.535156-4.535157 7.3125-10.742188 7.3125-17.542969zm0 0" fill="#c2ed91"/><g fill-rule="evenodd"><path d="m404.058594 156.636719c24.039062 0 43.652344-19.617188 43.652344-43.652344 0-24.0625-19.613282-43.652344-43.652344-43.652344-24.0625 0-43.679688 19.589844-43.679688 43.652344 0 24.035156 19.617188 43.652344 43.679688 43.652344zm0 0" fill="#fec96b"/><path d="m501.992188 473.875h-17.488282l-42.519531-36.21875c-4.207031-3.582031-10.523437-3.078125-14.105469 1.128906-3.585937 4.207032-3.078125 10.519532 1.128906 14.105469l24.632813 20.984375h-82.777344l-25.496093-15.851562-47.789063-29.714844 51.167969-43.855469 19.398437 16.535156c4.203125 3.585938 10.519531 3.078125 14.105469-1.125 3.585938-4.207031 3.082031-10.519531-1.125-14.105469l-25.90625-22.082031c-3.75-3.195312-9.265625-3.1875-13 .019531l-62.457031 53.53125-51.542969-32.066406c-3.234375-2.011718-7.335938-2.011718-10.570312 0l-61.921876 38.523438v-84.023438h14.285157c21.851562 0 42.449219-8.550781 58.019531-24.085937 15.519531-15.554688 24.070312-36.152344 24.070312-58.003907v-75.480468c0-18.535156-15.082031-33.617188-33.617187-33.617188-18.554687 0-33.648437 15.082032-33.648437 33.617188v75.480468c0 3.929688-1.554688 7.648438-4.378907 10.472657-2.828125 2.824219-6.539062 4.382812-10.445312 4.382812h-14.285157v-118.964843c0-32.945313-26.804687-59.75-59.753906-59.75-32.945312 0-59.75 26.804687-59.75 59.75v108.988281c0 5.523437 4.480469 10.003906 10.007813 10.003906 5.523437 0 10.003906-4.476563 10.003906-10.003906v-108.988281c0-21.914063 17.828125-39.738282 39.738281-39.738282 21.914063 0 39.742188 17.824219 39.742188 39.738282v282.652343l-60.472656 37.613281-.238282.148438h-18.769531v-131.4375c0-5.527344-4.480469-10.003906-10.003906-10.003906-5.527344 0-10.007813 4.476562-10.007813 10.003906v131.4375h-26.21875c-5.523437 0-10.003906 4.480469-10.003906 10.003906 0 5.527344 4.480469 10.007813 10.003906 10.007813h491.988282c5.523437 0 10.003906-4.480469 10.003906-10.007813 0-5.523437-4.476563-10.003906-10.003906-10.003906zm-331.976563-181.4375c9.25 0 17.984375-3.636719 24.59375-10.246094 6.601563-6.605468 10.242187-15.347656 10.242187-24.617187v-75.484375c0-7.5 6.117188-13.605469 13.632813-13.605469 7.503906 0 13.605469 6.105469 13.605469 13.605469v75.484375c0 16.511719-6.472656 32.089843-18.207032 43.851562-11.777343 11.75-27.355468 18.222657-43.867187 18.222657h-14.289063v-27.210938zm-57.109375 181.4375 42.777344-26.597656 67.25-41.835938 52.433594 32.621094c.019531.007812.03125.023438.050781.035156l11.324219 7.039063 3.441406 2.144531 42.777344 26.59375zm0 0"/><path d="m457.714844 112.984375c0-29.585937-24.070313-53.65625-53.65625-53.65625-29.601563 0-53.683594 24.070313-53.683594 53.65625s24.082031 53.65625 53.683594 53.65625c29.589844 0 53.65625-24.070313 53.65625-53.65625zm-53.65625 33.644531c-18.566406 0-33.671875-15.09375-33.671875-33.644531s15.105469-33.644531 33.671875-33.644531c18.554687 0 33.648437 15.09375 33.648437 33.644531s-15.09375 33.644531-33.648437 33.644531zm0 0"/><path d="m362.773438 169.769531c-4.472657-3.246093-10.730469-2.253906-13.976563 2.21875l-13.378906 18.421875c-3.246094 4.472656-2.253907 10.730469 2.21875 13.976563 1.773437 1.289062 3.832031 1.910156 5.871093 1.910156 3.09375 0 6.144532-1.433594 8.101563-4.128906l13.378906-18.421875c3.246094-4.472656 2.253907-10.730469-2.214843-13.976563zm0 0"/><path d="m414.066406 215.960938v-22.789063c0-5.523437-4.480468-10.003906-10.007812-10.003906-5.523438 0-10.003906 4.480469-10.003906 10.003906v22.789063c0 5.527343 4.480468 10.007812 10.003906 10.007812 5.527344 0 10.007812-4.480469 10.007812-10.007812zm0 0"/><path d="m445.316406 56.199219c1.777344 1.289062 3.832032 1.910156 5.871094 1.910156 3.097656 0 6.148438-1.433594 8.105469-4.128906l13.378906-18.421875c3.246094-4.472656 2.257813-10.730469-2.214844-13.976563-4.472656-3.246093-10.730469-2.253906-13.976562 2.214844l-13.378907 18.425781c-3.246093 4.46875-2.253906 10.726563 2.214844 13.976563zm0 0"/><path d="m456.480469 202.171875c1.957031 2.695313 5.007812 4.125 8.105469 4.125 2.035156 0 4.09375-.621094 5.871093-1.910156 4.472657-3.246094 5.460938-9.503907 2.214844-13.976563l-13.378906-18.421875c-3.246094-4.472656-9.503907-5.464843-13.976563-2.21875-4.472656 3.246094-5.464844 9.503907-2.214844 13.976563zm0 0"/><path d="m470.820312 91.269531c1.371094 4.230469 5.292969 6.921875 9.515626 6.921875 1.023437 0 2.0625-.160156 3.089843-.492187l21.65625-7.03125c5.253907-1.707031 8.132813-7.347657 6.425781-12.605469-1.707031-5.253906-7.347656-8.132812-12.605468-6.425781l-21.65625 7.027343c-5.253906 1.707032-8.132813 7.351563-6.425782 12.605469zm0 0"/><path d="m306.097656 154.796875c1.023438 0 2.0625-.160156 3.089844-.492187l21.65625-7.027344c5.253906-1.707032 8.132812-7.351563 6.425781-12.609375-1.703125-5.253907-7.34375-8.132813-12.605469-6.425781l-21.65625 7.027343c-5.253906 1.707031-8.132812 7.351563-6.425781 12.609375 1.371094 4.226563 5.296875 6.917969 9.515625 6.917969zm0 0"/><path d="m505.082031 135.269531-21.65625-7.027343c-5.257812-1.707032-10.898437 1.171874-12.605469 6.425781-1.707031 5.257812 1.171876 10.902343 6.425782 12.605469l21.65625 7.03125c1.027344.332031 2.066406.492187 3.09375.492187 4.21875 0 8.140625-2.691406 9.515625-6.921875 1.703125-5.253906-1.175781-10.898438-6.429688-12.605469zm0 0"/><path d="m303.007812 90.667969 21.65625 7.03125c1.027344.332031 2.066407.492187 3.089844.492187 4.21875 0 8.144532-2.691406 9.515625-6.921875 1.707031-5.253906-1.171875-10.898437-6.425781-12.605469l-21.65625-7.027343c-5.253906-1.707031-10.898438 1.171875-12.605469 6.425781-1.707031 5.257812 1.171875 10.902344 6.425781 12.605469zm0 0"/><path d="m348.796875 53.980469c1.957031 2.695312 5.007813 4.128906 8.105469 4.128906 2.035156 0 4.09375-.621094 5.871094-1.910156 4.46875-3.25 5.460937-9.503907 2.214843-13.976563l-13.378906-18.425781c-3.246094-4.472656-9.503906-5.460937-13.972656-2.214844-4.472657 3.246094-5.464844 9.503907-2.21875 13.976563zm0 0"/><path d="m404.058594 42.773438c5.527344 0 10.007812-4.480469 10.007812-10.007813v-22.757813c0-5.527343-4.480468-10.007812-10.007812-10.007812-5.523438 0-10.003906 4.480469-10.003906 10.007812v22.761719c0 5.523438 4.480468 10.003907 10.003906 10.003907zm0 0"/><path d="m46.230469 312.449219c5.527343 0 10.007812-4.507813 10.007812-10.007813 0-5.496094-4.480469-10.003906-10.007812-10.003906-5.5 0-9.976563 4.507812-9.976563 10.003906 0 5.5 4.476563 10.007813 9.976563 10.007813zm0 0"/><path d="m405.078125 429.316406c5.5 0 9.980469-4.480468 9.980469-9.980468 0-5.523438-4.480469-10.003907-9.980469-10.003907-5.523437 0-10.003906 4.480469-10.003906 10.003907 0 5.5 4.480469 9.980468 10.003906 9.980468zm0 0"/></g></svg>