<svg height="512pt" viewBox="0 -99 512.0006 512" width="512pt" xmlns="http://www.w3.org/2000/svg"><g fill-rule="evenodd"><path d="m343.242188 175.613281c35.636718 0 64.523437 28.890625 64.523437 64.523438 0 35.632812-28.890625 64.523437-64.523437 64.523437h-281.953126c-28.324218 0-51.289062-22.964844-51.289062-51.289062 0-28.328125 22.964844-51.289063 51.289062-51.289063 3.324219 0 6.578126.316407 9.726563.925781 1.511719-30.003906 26.316406-53.867187 56.691406-53.867187 5.777344 0 11.347657.867187 16.601563 2.472656 15.480468-35.417969 50.820312-60.167969 91.941406-60.167969 50.070312 0 91.570312 36.6875 99.085938 84.648438 2.589843-.316406 5.226562-.480469 7.90625-.480469zm0 0" fill="#67e4dc"/><path d="m439.40625 145.058594c0-40.015625-32.4375-72.453125-72.453125-72.453125-29.332031 0-54.597656 17.433593-65.992187 42.503906 17.996093 15.214844 30.558593 36.648437 34.375 60.984375 2.589843-.316406 5.226562-.480469 7.90625-.480469 24.554687 0 45.90625 13.71875 56.8125 33.910157 23.367187-12.023438 39.351562-36.378907 39.351562-64.464844zm0 0" fill="#fec96b"/><path d="m449.40625 145.058594c0-8.578125-1.320312-17.046875-3.917969-25.167969-1.683593-5.257813-7.3125-8.15625-12.574219-6.476563-5.261718 1.683594-8.15625 7.3125-6.472656 12.574219 1.96875 6.148438 2.964844 12.566407 2.964844 19.066407 0 20.46875-9.851562 39.253906-26.210938 50.878906-13.546874-18.332032-35.285156-30.261719-59.765624-30.320313-4.859376-19.957031-15.289063-38.230469-30.039063-52.679687 11.199219-18.625 31.519531-30.328125 53.566406-30.328125 2.933594 0 5.90625.210937 8.839844.625 5.460937.773437 10.527344-3.03125 11.300781-8.5.773438-5.46875-3.03125-10.527344-8.5-11.304688-3.855468-.542969-7.773437-.820312-11.644531-.820312-28.128906 0-54.136719 14.433593-69.191406 37.605469-18.09375-12.160157-39.496094-18.765626-61.511719-18.765626-41.039062 0-78.433594 22.746094-97.460938 58.617188-3.648437-.613281-7.351562-.921875-11.082031-.921875-32.035156 0-58.964843 22.542969-65.335937 52.949219-.359375-.007813-.722656-.011719-1.082032-.011719-33.792968.003906-61.289062 27.496094-61.289062 61.292969s27.496094 61.289062 61.289062 61.289062h100.976563c5.523437 0 10-4.476562 10-10 0-5.523437-4.476563-10-10-10h-100.976563c-22.765624 0-41.289062-18.519531-41.289062-41.289062 0-22.769532 18.523438-41.289063 41.289062-41.289063 2.625 0 5.265626.25 7.835938.746094 2.847656.546875 5.785156-.167969 8.0625-1.953125 2.277344-1.789062 3.667969-4.472656 3.8125-7.363281 1.257812-24.878907 21.773438-44.371094 46.707031-44.371094 4.660157 0 9.261719.6875 13.679688 2.035156 4.855469 1.480469 10.050781-.90625 12.082031-5.558593 14.390625-32.910157 46.882812-54.171876 82.78125-54.171876 21.621094 0 41.539062 7.488282 57.144531 20.191407.691407.796875 1.507813 1.5 2.449219 2.0625 15.410156 13.484375 26.210938 32.246093 29.613281 53.945312.832031 5.324219 5.742188 9.027344 11.09375 8.375 2.210938-.269531 4.460938-.40625 6.691407-.40625 30.0625 0 54.523437 24.457031 54.523437 54.523438 0 30.066406-24.460937 54.523437-54.523437 54.523437h-100.976563c-5.523437 0-10 4.476563-10 10 0 5.523438 4.476563 10 10 10h100.976563c41.09375 0 74.523437-33.429687 74.523437-74.523437 0-9.359375-1.75-18.3125-4.914063-26.574219 22.757813-15.210938 36.554688-40.675781 36.554688-68.503906zm0 0"/><path d="m431.507812 69.578125c1.886719 1.621094 4.203126 2.410156 6.507813 2.410156 2.816406 0 5.617187-1.183593 7.59375-3.488281l17.078125-19.90625c3.597656-4.191406 3.113281-10.507812-1.078125-14.101562-4.191406-3.597657-10.503906-3.113282-14.097656 1.078124l-17.082031 19.90625c-3.59375 4.195313-3.113282 10.507813 1.078124 14.101563zm0 0"/><path d="m292.167969 71.296875c1.972656 2.132813 4.660156 3.214844 7.351562 3.214844 2.425781 0 4.859375-.875 6.78125-2.648438 4.054688-3.746093 4.308594-10.074219.5625-14.132812l-20.707031-22.429688c-3.746094-4.058593-10.074219-4.3125-14.128906-.566406-4.058594 3.746094-4.3125 10.074219-.566406 14.132813zm0 0"/><path d="m367.613281 46.910156c.082031 0 .164063-.003906.25-.003906 5.519531-.136719 9.886719-4.722656 9.75-10.242188l-.664062-26.910156c-.136719-5.523437-4.746094-9.871094-10.242188-9.74999975-5.523437.13671875-9.886719 4.72265575-9.75 10.24218775l.664063 26.910156c.132812 5.4375 4.582031 9.753906 9.992187 9.753906zm0 0"/><path d="m491.136719 207.292969-28.003907-18.089844c-4.640624-2.996094-10.828124-1.664063-13.828124 2.972656-2.996094 4.640625-1.664063 10.828125 2.976562 13.828125l28.003906 18.089844c1.679688 1.082031 3.558594 1.597656 5.417969 1.597656 3.28125 0 6.496094-1.613281 8.40625-4.574218 2.996094-4.640626 1.667969-10.828126-2.972656-13.824219zm0 0"/><path d="m511.910156 121.984375c-.738281-5.476563-5.769531-9.308594-11.246094-8.578125l-28.554687 3.84375c-5.472656.738281-9.3125 5.769531-8.574219 11.246094.675782 5.019531 4.96875 8.664062 9.898438 8.664062.445312 0 .894531-.027344 1.347656-.089844l28.554688-3.84375c5.472656-.738281 9.3125-5.769531 8.574218-11.242187zm0 0"/><path d="m202.265625 294.660156c-5.507813 0-10 4.492188-10 10 0 5.507813 4.492187 10 10 10s10-4.492187 10-10c0-5.507812-4.492187-10-10-10zm0 0"/><path d="m413.703125 99.703125c5.507813 0 10-4.492187 10-10s-4.492187-10-10-10-10 4.492187-10 10 4.492187 10 10 10zm0 0"/></g></svg>