<svg height="511pt" viewBox="-52 1 511 511.999" width="511pt" xmlns="http://www.w3.org/2000/svg"><g fill-rule="evenodd"><path d="m151.269531 501.996094c77.75 0 140.761719-63.039063 140.761719-140.765625 0-23.949219-5.980469-46.484375-16.523438-66.242188l-124.238281-232.601562-124.238281 232.601562c-10.542969 19.757813-16.523438 42.292969-16.523438 66.242188 0 77.726562 63.011719 140.765625 140.761719 140.765625zm0 0" fill="#67e4dc"/><path d="m385.457031 191.386719-96.882812-181.382813-82.628907 154.738282 69.5625 130.246093c9.269532 17.402344 15.019532 36.964844 16.269532 57.738281 59.15625-1.671874 106.578125-50.171874 106.578125-109.695312 0-18.679688-4.675781-36.253906-12.898438-51.644531zm0 0" fill="#d9f9f6"/><path d="m394.285156 186.671875-96.886718-181.382813c-1.738282-3.257812-5.132813-5.289062-8.828126-5.289062-3.691406 0-7.082031 2.035156-8.824218 5.292969l-73.804688 138.214843-45.847656-85.835937c-1.738281-3.257813-5.132812-5.289063-8.824219-5.289063-3.695312 0-7.085937 2.03125-8.828125 5.289063l-124.246094 232.617187c-4.824218 9.070313-8.742187 18.664063-11.644531 28.515626-1.566406 5.300781 1.464844 10.863281 6.765625 12.425781 5.300782 1.5625 10.863282-1.464844 12.429688-6.765625 2.523437-8.558594 5.929687-16.894532 10.109375-24.761719l115.414062-216.078125 115.410157 216.074219c10.039062 18.8125 15.347656 40.089843 15.347656 61.53125 0 72.101562-58.65625 130.757812-130.757813 130.757812-57.699219 0-109.3125-38.644531-125.519531-93.972656-1.554688-5.300781-7.109375-8.347656-12.414062-6.789063-5.304688 1.554688-8.34375 7.113282-6.792969 12.414063 8.976562 30.644531 27.984375 58.222656 53.523437 77.652344 26.40625 20.089843 57.945313 30.707031 91.203125 30.707031 82.867188 0 150.328125-67.203125 150.757813-149.972656 27.472656-3.050782 52.882812-15.433594 72.394531-35.472656 21.886719-22.484376 33.941406-52.148438 33.941406-83.523438-.003906-19.625-4.871093-39.113281-14.078125-56.359375zm-93.488281 155.363281c-2.320313-18.085937-7.894531-35.699218-16.464844-51.761718l-67.046875-125.523438 71.289063-133.503906 88.058593 164.855468c7.664063 14.351563 11.714844 30.578126 11.714844 46.929688.003906 51.222656-37.761718 93.050781-87.550781 99.003906zm0 0"/><path d="m20.511719 361.230469c0-5.523438-4.507813-10.003907-10.003907-10.003907-5.5 0-10.007812 4.480469-10.007812 10.003907 0 5.5 4.507812 9.980469 10.007812 9.980469 5.496094 0 10.003907-4.480469 10.003907-9.980469zm0 0"/></g></svg>