<svg height="512pt" viewBox="0 -16 512 512" width="512pt" xmlns="http://www.w3.org/2000/svg"><g fill-rule="evenodd"><path d="m126.542969 124.085938 76.648437 227.4375c3.960938 11.746093-1.453125 24.816406-12.09375 29.1875-2.363281.972656-4.789062 1.433593-7.175781 1.433593l-153.285156.078125c-11.398438 0-20.636719-10.199218-20.636719-22.777344 0-3.515624.71875-6.839843 2.007812-9.8125l76.007813-225.546874c3.960937-11.742188 15.800781-17.71875 26.4375-13.34375 5.824219 2.390624 10.078125 7.386718 12.089844 13.34375zm0 0" fill="#c2ed91"/><path d="m270.691406 316.820312h231.308594v65.402344h-231.308594zm0 0" fill="#fec96b"/><path d="m244.5 128.316406c20.925781 0 37.886719-16.960937 37.886719-37.886718 0-6.445313-1.609375-12.511719-4.449219-17.824219h.003906l-33.4375-62.605469-33.441406 62.605469h.003906c-2.839844 5.3125-4.449218 11.378906-4.449218 17.824219-.003907 20.925781 16.960937 37.886718 37.882812 37.886718zm88.9375 126.6875c20.925781 0 37.886719-16.960937 37.886719-37.886718 0-6.445313-1.609375-12.511719-4.449219-17.824219h.003906l-33.441406-62.605469-33.4375 62.605469c-2.835938 5.3125-4.449219 11.378906-4.449219 17.824219 0 20.925781 16.964844 37.886718 37.886719 37.886718zm88.9375-126.6875c20.925781 0 37.886719-16.960937 37.886719-37.886718 0-6.445313-1.609375-12.511719-4.445313-17.824219l-33.441406-62.605469-33.4375 62.605469c-2.835938 5.3125-4.449219 11.378906-4.449219 17.824219 0 20.925781 16.964844 37.886718 37.886719 37.886718zm0 0" fill="#67e4dc"/><path d="m136.019531 120.886719c-3.015625-8.925781-9.492187-15.996094-17.761719-19.394531-7.460937-3.066407-15.617187-2.914063-22.96875.4375-7.773437 3.546874-13.882812 10.457031-16.75 18.964843l-25.226562 74.855469c-1.765625 5.234375 1.050781 10.90625 6.28125 12.671875 5.234375 1.761719 10.90625-1.050781 12.671875-6.285156l25.226563-74.851563c1.109374-3.289062 3.328124-5.894531 6.09375-7.15625 1.601562-.730468 4.128906-1.347656 7.066406-.140625 2.917968 1.199219 5.257812 3.859375 6.417968 7.292969l76.644532 227.441406c2.265625 6.710938-.675782 14.378906-6.417969 16.738282-1.101563.453124-2.234375.683593-3.378906.683593l-66.636719.035157v-55.359376c0-5.523437-4.476562-10-10-10s-10 4.476563-10 10v55.367188l-66.644531.035156c-5.867188 0-10.636719-5.730468-10.636719-12.777344 0-2.0625.398438-4.023437 1.183594-5.835937.109375-.257813.210937-.519531.300781-.78125l25.226563-74.859375c1.765624-5.230469-1.050782-10.902344-6.28125-12.667969-5.234376-1.761719-10.90625 1.050781-12.671876 6.28125l-25.105468 74.496094c-1.757813 4.214844-2.652344 8.710937-2.652344 13.367187 0 18.074219 13.742188 32.777344 30.640625 32.777344l66.640625-.035156v76.976562c0 5.523438 4.476562 10 10 10s10-4.476562 10-10v-76.984374l66.644531-.035157c3.761719 0 7.453125-.734375 10.976563-2.183593 15.402344-6.332032 23.371094-25.007813 17.765625-41.628907zm0 0"/><path d="m502 392.222656c5.523438 0 10-4.476562 10-10v-65.402344c0-5.523437-4.476562-10-10-10h-75.65625c-5.523438 0-10 4.476563-10 10 0 5.523438 4.476562 10 10 10h65.65625v45.402344h-211.3125v-45.402344h65.65625c5.523438 0 10-4.476562 10-10 0-5.523437-4.476562-10-10-10h-75.652344c-5.523437 0-10 4.476563-10 10v65.402344c0 5.523438 4.476563 10 10 10h21.90625v24.671875h-21.90625c-5.523437 0-10 4.476563-10 10 0 5.519531 4.476563 10 10 10h21.902344v32.269531c0 5.523438 4.480469 10 10 10 5.523438 0 10-4.476562 10-10v-32.269531h147.5v32.269531c0 5.523438 4.476562 10 10 10 5.519531 0 10-4.476562 10-10v-32.269531h21.90625c5.519531 0 10-4.480469 10-10 0-5.523437-4.476562-10-10-10h-21.90625v-24.671875zm-41.90625 24.671875h-147.496094v-24.671875h147.496094zm0 0"/><path d="m292.386719 90.429688c0-7.589844-1.816407-15.125-5.261719-21.839844-.191406-.429688-.40625-.839844-.648438-1.230469l-33.152343-62.070313c-1.742188-3.253906-5.132813-5.289062-8.820313-5.289062-3.691406 0-7.082031 2.035156-8.820312 5.289062l-33.445313 62.605469c-.039062.074219-.078125.148438-.117187.222657-3.601563 6.839843-5.507813 14.546874-5.507813 22.3125 0 26.40625 21.480469 47.886718 47.886719 47.886718s47.886719-21.480468 47.886719-47.886718zm-47.886719 27.886718c-15.375 0-27.886719-12.511718-27.886719-27.886718 0-4.640626 1.101563-9.050782 3.269531-13.113282.035157-.066406.070313-.132812.105469-.203125l24.511719-45.886719 24.496094 45.855469c.039062.078125.082031.15625.121094.234375 2.171874 4.058594 3.269531 8.46875 3.269531 13.113282 0 15.375-12.507813 27.886718-27.886719 27.886718zm0 0"/><path d="m285.550781 217.117188c0 26.40625 21.480469 47.886718 47.886719 47.886718s47.886719-21.480468 47.886719-47.886718c0-7.589844-1.816407-15.125-5.265625-21.839844-.1875-.425782-.402344-.839844-.644532-1.230469l-33.15625-62.070313c-1.738281-3.253906-5.128906-5.285156-8.820312-5.285156s-7.082031 2.03125-8.820312 5.289063l-33.4375 62.601562c-3.683594 6.890625-5.628907 14.6875-5.628907 22.535157zm23.269531-13.113282 24.617188-46.089844 24.496094 45.859376c.039062.074218.082031.152343.121094.230468 2.167968 4.058594 3.269531 8.46875 3.269531 13.113282 0 15.375-12.511719 27.886718-27.886719 27.886718-15.378906 0-27.886719-12.511718-27.886719-27.886718 0-4.636719 1.101563-9.050782 3.269531-13.113282zm0 0"/><path d="m422.375 138.316406c26.402344 0 47.886719-21.480468 47.886719-47.886718 0-7.605469-1.824219-15.15625-5.285157-21.890626-.183593-.40625-.390624-.804687-.625-1.183593l-33.15625-62.066407c-1.738281-3.257812-5.128906-5.289062-8.820312-5.289062s-7.082031 2.03125-8.820312 5.289062l-33.4375 62.605469c-3.683594 6.898438-5.628907 14.6875-5.628907 22.535157 0 26.40625 21.484375 47.886718 47.886719 47.886718zm-24.617188-61 24.617188-46.089844 24.617188 46.089844c2.171874 4.058594 3.269531 8.472656 3.269531 13.113282 0 15.375-12.507813 27.886718-27.886719 27.886718-15.375 0-27.886719-12.511718-27.886719-27.886718 0-4.636719 1.101563-9.050782 3.269531-13.113282zm0 0"/><path d="m50.011719 246.859375c5.507812 0 10-4.492187 10-10s-4.492188-10-10-10c-5.507813 0-10 4.492187-10 10s4.492187 10 10 10zm0 0"/><path d="m376.34375 316.820312c0 5.507813 4.492188 10 10 10s10-4.492187 10-10c0-5.511718-4.492188-10-10-10s-10 4.488282-10 10zm0 0"/></g></svg>