<svg height="512pt" viewBox="0 -55 512.00102 512" width="512pt" xmlns="http://www.w3.org/2000/svg"><g fill-rule="evenodd"><path d="m89.808594 232.960938c-44.074219 0-79.808594 35.734374-79.808594 79.8125 0 44.078124 35.734375 79.808593 79.808594 79.808593h348.75c35.035156 0 63.441406-28.402343 63.441406-63.4375 0-35.039062-28.40625-63.441406-63.441406-63.441406-4.113282 0-8.132813.394531-12.03125 1.144531-1.871094-37.109375-32.546875-66.625-70.121094-66.625-7.144531 0-14.039062 1.070313-20.535156 3.054688-19.148438-43.804688-62.859375-74.421875-113.722656-74.421875-61.933594 0-113.261719 45.382812-122.558594 104.707031-3.203125-.394531-6.46875-.601562-9.78125-.601562zm0 0" fill="#67e4dc"/><path d="m462.207031 179.082031c-63.953125 0-115.796875-51.847656-115.796875-115.800781 0-19.210938 4.683594-37.328125 12.964844-53.28125-44.351562 16.230469-76.003906 58.808594-76.003906 108.78125 0 9.746094 1.203125 19.214844 3.472656 28.261719 21.578125 13.214843 38.804688 32.84375 49.027344 56.230469 6.496094-1.980469 13.390625-3.054688 20.535156-3.054688 25.164062 0 47.238281 13.242188 59.632812 33.136719 37.492188-5.472657 69.148438-28.910157 85.960938-61.292969-12.410156 4.539062-25.8125 7.019531-39.792969 7.019531zm0 0" fill="#fec96b"/><path d="m438.558594 255.703125c-1.089844 0-2.179688.023437-3.273438.070313-.972656-5.289063-2.476562-10.382813-4.425781-15.246094 34.199219-8.90625 63.507813-32.0625 80.015625-63.859375 1.902344-3.660157 1.359375-8.113281-1.363281-11.210938-2.726563-3.097656-7.074219-4.203125-10.945313-2.789062-11.628906 4.253906-23.859375 6.410156-36.359375 6.410156-58.335937 0-105.796875-47.460937-105.796875-105.796875 0-17.164062 3.984375-33.539062 11.839844-48.671875 1.902344-3.660156 1.359375-8.113281-1.363281-11.210937-2.726563-3.101563-7.070313-4.207032-10.945313-2.789063-49.386718 18.070313-82.570312 65.558594-82.570312 118.167969 0 3.492187.15625 6.976562.445312 10.449218-16.074218-6.71875-33.574218-10.375-51.667968-10.375-32.148438 0-63.242188 11.554688-87.550782 32.539063-21.710937 18.738281-36.8125 43.894531-43.148437 71.585937-.546875-.011718-1.089844-.015624-1.636719-.015624-49.523438 0-89.8125 40.289062-89.8125 89.8125 0 49.523437 40.289062 89.808593 89.808594 89.808593h134.375c5.523437 0 10-4.476562 10-10 0-5.519531-4.476563-10-10-10h-134.375c-38.492188 0-69.808594-31.316406-69.808594-69.808593 0-38.492188 31.316406-69.8125 69.808594-69.8125 2.855468 0 5.734375.179687 8.5625.523437 5.34375.660156 10.261718-3.046875 11.097656-8.375 8.742188-55.773437 56.128906-96.253906 112.679688-96.253906 45.347656 0 86.390624 26.859375 104.5625 68.425781 2.03125 4.652344 7.226562 7.039062 12.082031 5.558594 5.691406-1.738282 11.617187-2.617188 17.613281-2.617188 21.371094 0 40.207031 11.121094 50.898438 28.003906.148437.269532.3125.527344.484374.78125 5.085938 8.308594 8.230469 17.957032 8.753907 28.34375.144531 2.890626 1.535156 5.578126 3.8125 7.363282 2.277343 1.785156 5.21875 2.5 8.0625 1.953125 3.328125-.640625 6.738281-.964844 10.140625-.964844 29.46875 0 53.441406 23.972656 53.441406 53.441406 0 29.464844-23.972656 53.4375-53.441406 53.4375h-134.375c-5.523438 0-10 4.480469-10 10 0 5.523438 4.476562 10 10 10h134.375c40.496094 0 73.441406-32.945312 73.441406-73.4375 0-40.496093-32.945312-73.441406-73.441406-73.441406zm-82.152344-65.480469c-5.054688 0-10.074219.46875-15.003906 1.402344-10.769532-20.945312-26.660156-38.300781-45.726563-50.804688-1.527343-7.210937-2.304687-14.605468-2.304687-22.039062 0-35.851562 18.320312-68.875 47.359375-88.203125-2.851563 10.632813-4.324219 21.652344-4.324219 32.703125 0 69.367188 56.433594 125.800781 125.800781 125.800781 5.726563 0 11.402344-.382812 17.015625-1.140625-15.128906 17.484375-35.71875 29.703125-58.574218 34.429688-14.65625-19.566406-38.015626-32.148438-64.242188-32.148438zm0 0"/><path d="m264.183594 382.582031c-5.507813 0-10 4.492188-10 10 0 5.507813 4.492187 10 10 10 5.507812 0 10-4.492187 10-10 0-5.507812-4.492188-10-10-10zm0 0"/></g></svg>