<svg height="512pt" viewBox="0 -1 512.00042 512" width="512pt" xmlns="http://www.w3.org/2000/svg"><g fill-rule="evenodd"><path d="m322.914062 10.289062c32.9375 9.46875 63.015626 78.039063 68.3125 110.664063 4.421876 27.273437-2.40625 76.765625-.847656 83.652344 4.847656 21.203125 40.847656-15.621094 46.882813-23.980469 6.746093-9.355469 28.71875-56.128906 29.90625-56.636719 13.636719-5.527343-1.359375 66.898438-2.578125 70.726563-24.09375 75.371094-78.605469 96.832031-87.222656 113.839844-9.554688 18.851562 49.125 11.109374 58.109374 8.644531 11.734376-3.203125 62.929688-27.75 64.035157-27.496094 15.109375 3.402344-43.597657 50.855469-49.210938 54.425781-69.421875 44.304688-128.777343 26.703125-145.816406 34.328125-15.363281 6.859375 25.484375 32.171875 31.722656 35.179688 32.117188 15.53125 50.65625 13.207031 81.753907 19.046875 29.195312 5.5-46.519532 15.195312-47.738282 15.222656-72.3125 1.929688-103.691406-23.273438-158.144531-59.015625-29.992187-19.730469-1.84375 44.078125 4.960937 54.59375 6.007813 9.269531 45.691407 53.148437 45.636719 54.257813-.820312 14.910156-67.152343-35.125-70.273437-38.015626-46.914063-43.652343-55.445313-79.425781-71.375-136.316406-9.863282-35.292968-29.992188 23.355469-32.257813 36.167969-1.730469 9.722656-2.863281 65.171875-3.800781 65.851563-10.941406 7.90625-24.066406-67.75-24.546875-75.601563-3.914063-62.050781 14.144531-94.652344 41.867187-145.277344 19.699219-35.914062-40.054687-9.355469-53.859374.054688-13.691407 9.328125-56.210938 51.707031-30.132813 1.5625 31.210937-60.011719 91.789063-91.730469 156.558594-101.371094 20.496093-3.0625 38.582031-8.046875 14.34375-29.167969-16.46875-14.371094-71.121094-28.941406-71.347657-30.925781-1.585937-13.207031 65.140626-10.316406 74.464844-8.816406 73.25 11.625 122.234375 74.441406 131.304688 74.1875 25.910156-.710938 6.09375-66.476563.625-79.910157-1.757813-4.371093-11.253906-22.710937-1.332032-19.875zm0 0" fill="#b0dced"/><path d="m250.003906 340.105469c53.351563 0 96.863282-43.515625 96.863282-96.863281 0-53.347657-43.515626-96.859376-96.863282-96.859376s-96.859375 43.511719-96.859375 96.859376c0 53.347656 43.511719 96.863281 96.859375 96.863281zm0 0" fill="#75bdd9"/><path d="m511.789062 290.148438c-.886718-5.089844-4.75-8.996094-10.03125-10.183594-.734374-.167969-1.507812-.257813-2.265624-.257813-2.761719 0-2.761719 0-21.664063 8.59375-14.363281 6.53125-38.40625 17.460938-44.992187 19.261719-3.617188.992188-19.007813 3.316406-32.414063 3.316406-5.660156 0-9.402344-.414062-11.808594-.871094 2.910157-3.117187 7.816407-7.160156 12.929688-11.371093 20.472656-16.867188 54.734375-45.09375 72.570312-100.894531.816407-2.566407 4.171875-18.605469 6.410157-34.316407 4.414062-30.976562 1.808593-39.636719-1.660157-44.382812-2.484375-3.402344-6.242187-5.351563-10.304687-5.351563-1.722656 0-3.453125.347656-5.144532 1.03125-.058593.027344-.121093.050782-.179687.078125-3.628906 1.554688-4.875 3.980469-7.894531 9.84375-1.648438 3.210938-3.792969 7.5-6.273438 12.46875-6.507812 13.03125-16.34375 32.722657-19.902344 37.660157-5.542968 7.671874-21.195312 21.972656-29.03125 25.519531.058594-3.6875.496094-10.265625.894532-16.230469 1.292968-19.496094 3.066406-46.203125.0625-64.714844-3.0625-18.867187-12.835938-45.253906-24.894532-67.222656-10.980468-19.996094-28.65625-45.15625-50.535156-51.445312-1.605468-.457032-3.101562-.679688-4.578125-.679688-4.378906 0-8.203125 2.023438-10.492187 5.554688-4.523438 6.976562-1.082032 16.058593 3.515625 26.347656.367187.820312.679687 1.503906.886719 2.023437 7.070312 17.371094 15.808593 56.074219 9.644531 65.515625-.03125.046875-.0625.09375-.089844.132813-2.609375-1.875-7.214844-5.859375-11.371094-9.453125-22.363281-19.335938-63.992187-55.332032-119.265625-64.101563-4.523437-.726562-17.171875-1.480469-30.511718-1.480469-42.703126 0-49.191407 7.316407-51.964844 10.4375-2.730469 3.082032-3.976563 6.957032-3.507813 10.863282.75 6.515625 6.273438 8.574218 10.308594 10.078125 2.550781.949219 6.078125 2.152343 10.160156 3.546875 15.550781 5.308594 44.492188 15.1875 54.246094 23.699218 4.40625 3.839844 6.464844 6.394532 7.417969 7.859376-2.085938.96875-6.660156 2.394531-16.667969 3.890624-75.832031 11.28125-134.058594 49.15625-163.957031 106.640626-9.511719 18.289062-11.417969 26.605468-7.5625 32.957031 2.164062 3.5625 6.023437 5.6875 10.320312 5.6875h.007813c7.371093 0 15.589843-6.089844 31.316406-19.015625 4.164063-3.421875 8.097656-6.652344 10.542969-8.320313 7.613281-5.191406 29.574218-15.246093 41.117187-16.449219-.390625.90625-.921875 2.011719-1.648437 3.335938l-.445313.8125c-28.125 51.355469-46.707031 85.285156-42.632812 149.875.277343 4.558594 3.496093 24.199219 7.917969 42.609375 7.613281 31.707031 14.144531 42.949219 24.957031 42.949219h.011719c2.664062 0 5.253906-.855469 7.507812-2.488282 4.144531-3.007812 4.316406-6.34375 4.773438-15.253906.238281-4.640625.492187-10.941406.765624-17.613281.589844-14.625 1.394532-34.652344 2.226563-39.324219 1.453125-8.210937 7.84375-25.628906 12.984375-34.542968l1.6875 6.042968c15.183594 54.4375 25.21875 90.398438 72.332031 134.238282 2 1.855468 16.007813 12.480468 30.617188 22.300781 27.875 18.738281 37.691406 21.144531 43.121093 21.144531h.007813c7.429687-.003906 12.898437-5.023438 13.296875-12.25.21875-4.285156-1.542969-6.347656-6.78125-12.472656-2.757812-3.226563-6.457031-7.472656-10.742188-12.390625-10.578124-12.140625-26.5625-30.488281-29.703124-35.332031-4.257813-6.585938-12.84375-26.765626-15.878907-38.871094 3.339844 2.203125 6.59375 4.363281 9.78125 6.476562 45.796875 30.386719 78.886719 52.34375 143.253907 52.339844 2.582031 0 5.242187-.035156 7.871093-.105469 1.574219-.035156 16.285157-1.996093 28.9375-4.230469 8.070313-1.429687 14.589844-2.824218 19.378907-4.152343 5.652343-1.566407 15.117187-4.191407 15.835937-13.015625.148437-1.820313.066406-8.03125-7.25-11.433594-1.914063-.890625-4.3125-1.589844-7.554687-2.199219-9.292969-1.746093-17.3125-2.761719-25.066407-3.742187-18.339843-2.320313-32.828125-4.15625-54.191406-14.488282-5.351563-2.578124-18.90625-11.648437-25.761719-18.167968 4.136719-.324219 9.523438-.371094 14.808594-.414063 27.886719-.230469 74.558594-.613281 126.074219-33.492187 3.234375-2.058594 16.984375-12.96875 29.75-24.617188 23.679687-21.613281 27.644531-30.484375 26.371093-37.792968zm-42.308593 25.261718c-11.558594 10.355469-22.769531 19.136719-24.554688 20.292969-46.683593 29.796875-88.097656 30.136719-115.5 30.363281-12.84375.105469-22.125.183594-29.011719 3.265625-5.855468 2.613281-9.265624 7.472657-9.347656 13.328125-.117187 7.855469 5.898438 15.953125 19.503906 26.25 8.222657 6.222656 17.652344 11.96875 21.285157 13.71875 17.828125 8.625 32.007812 12.113282 45.625 14.289063-3.421875.484375-6.199219.835937-7.847657 1.007812-2.375.058594-4.746093.089844-7.046874.089844-58.339844 0-87.726563-19.496094-132.207032-49.007813-4.144531-2.75-8.40625-5.578124-12.8125-8.46875-5.605468-3.6875-10.222656-5.402343-14.53125-5.402343-5.261718 0-9.882812 2.71875-12.359375 7.277343-2.582031 4.738282-4.417969 13.21875 4.328125 36.917969 4.570313 12.375 10.523438 24.757813 13.648438 29.585938 2.726562 4.207031 10.300781 13.230469 20.507812 25.042969-.632812-.421876-1.28125-.851563-1.941406-1.296876-13.921875-9.367187-26.4375-18.921874-28.085938-20.324218-42.90625-39.957032-51.832031-71.9375-66.601562-124.894532l-1.882812-6.730468c-3.421876-12.242188-9.324219-18.449219-17.546876-18.449219-9.128906 0-16.671874 8.003906-24.46875 25.953125-4.714843 10.855469-8.636718 23.582031-9.703124 29.609375-.742188 4.167969-1.308594 13.828125-1.902344 27.273437-.128906-.558593-.257813-1.125-.390625-1.703124-3.695313-16.382813-6.082031-31.582032-6.242188-34.203126-3.710937-58.828124 12.824219-89.015624 40.210938-139.03125l.445312-.808593c2.101563-3.839844 8.511719-15.515625 2.945313-24.914063-2.195313-3.710937-6.878906-8.132812-16.714844-8.132812-17.621094 0-46.113281 14.335937-54.476562 20.039062-3.1875 2.171875-7.261719 5.515625-11.980469 9.394532-.535157.4375-1.113281.914062-1.722657 1.414062 27.425782-49.625 79.53125-82.402344 147.230469-92.476562 15.132813-2.261719 30.207031-5.5 33.808594-17.832032 3.386719-11.59375-6.582031-21.960937-14.371094-28.746094-9.691406-8.457031-28.300781-16.0625-48.238281-23.144531 4.472656-.269531 9.734375-.433593 15.863281-.433593 13.125 0 24.597657.789062 27.355469 1.230468 49.667969 7.878906 88.492188 41.449219 109.351562 59.484375 12.121094 10.480469 17.140626 14.820313 23.453126 14.824219.070312-.003906.242187-.003906.335937-.003906 7.320313-.199219 13.523437-3.640625 17.472656-9.691406 13.566407-20.777344-3.007812-70.496094-7.019531-81.683594 8.035156 7.339844 16.429688 18.671875 24.328125 33.0625 12.570313 22.894531 20.453125 47.039062 22.691406 60.808594 2.636719 16.257812.878907 42.695312-.28125 60.1875-.953125 14.335937-1.304687 20.304687-.449219 24.089843 2.011719 8.792969 8.421876 14.257813 16.730469 14.257813 7.847657 0 17.421875-4.980469 29.265625-15.21875 8.171875-7.0625 15.75-15.265625 18.738282-19.402344 3.304687-4.582031 8.832031-15.09375 15.785156-28.871094-.191406 1.417969-.398438 2.90625-.628906 4.472656-2.125 14.5-4.957032 27.757813-5.484376 29.703126-16.054687 50.125-46.230468 74.984374-66.207031 91.441406-9.796875 8.070312-16.875 13.90625-20.378906 20.820312-3.882813 7.660156-1.605469 13.457032.101563 16.230469 4.5 7.332031 14.328124 10.601563 31.863281 10.601563 15.324219 0 32.429687-2.585938 37.691406-4.027344 5.894531-1.613282 18.664063-7.117188 34.4375-14.210938-.972656.890625-1.996094 1.820313-3.066406 2.78125zm0 0"/><path d="m250.003906 136.386719c-42.285156 0-80.652344 24.992187-97.75 63.667969-2.230468 5.046874.054688 10.949218 5.101563 13.179687s10.945312-.054687 13.175781-5.101563c13.902344-31.441406 45.097656-51.761718 79.476562-51.761718 47.898438 0 86.867188 38.972656 86.867188 86.871094 0 47.898437-38.96875 86.867187-86.867188 86.867187-34.390624 0-65.585937-20.316406-79.472656-51.757813-2.230468-5.046874-8.128906-7.335937-13.179687-5.105468-5.046875 2.230468-7.332031 8.132812-5.101563 13.179687 17.082032 38.675781 55.453125 63.667969 97.75 63.667969 58.921875 0 106.855469-47.933594 106.855469-106.851562 0-58.921876-47.933594-106.855469-106.855469-106.855469zm0 0"/><path d="m163.152344 243.242188c0-5.5-4.507813-9.980469-10.007813-9.980469s-10.007812 4.480469-10.007812 9.980469c0 5.527343 4.507812 10.003906 10.007812 10.003906s10.007813-4.476563 10.007813-10.003906zm0 0"/></g></svg>