<svg id="Layer_1" enable-background="new 0 0 512 512" height="512" viewBox="0 0 512 512" width="512" xmlns="http://www.w3.org/2000/svg"><g clip-rule="evenodd" fill-rule="evenodd"><path d="m393.732 242.101-110.273 85.265c-.794 10.053-2.04 19.426-4.506 28.601l-8.389 31.319c-12.838 47.829 12.442 96.507 56.114 108.202 43.701 11.695 85.022-19.511 102.763-65.669l19.923-51.907z" fill="#a0e5a5"/><path d="m408.356 85.786c-67.252-18.01-94.261 67.311-109.99 125.929-6.207 23.221-9.381 42.986-11.195 60.374l98.144-75.863 4.534-16.991c3.117-11.639 14.369-18.831 25.025-15.971 10.628 2.832 16.778 14.697 13.66 26.336l-4.563 16.962 47.102 114.914 22.106-57.598c29.021-75.496-17.571-160.11-84.823-178.092z" fill="#a0e5a5"/><path d="m112.536 168.871-88.961 116.811 5.838 55.276c5.158 49.188 37.013 89.994 82.245 89.994s82.216-40.494 82.216-89.994v-32.452c0-9.458 1.247-18.86 3.061-28.771z" fill="#a0e5a5"/><path d="m138.893 14.086c-65.552 0-128.723 61.761-128.808 136.095v.368c0 4.503.227 9.062.709 13.649l6.462 61.336 75.244-98.801v-17.585c0-12.063 9.012-21.918 20.037-21.918 10.996 0 20.008 9.855 20.008 21.918v17.585l75.131 98.659c2.749-17.246 4.818-37.181 4.818-61.195 0-60.712-3.996-150.111-73.601-150.111z" fill="#a0e5a5"/><path d="m385.315 196.226-98.144 75.863c-1.304 12.432-1.899 23.617-2.437 33.953-.397 7.504-.737 14.555-1.275 21.323l110.273-85.265 55.633 135.812 21.709-56.437-47.102-114.914 4.563-16.962c3.117-11.639-3.032-23.504-13.66-26.336-10.656-2.86-21.907 4.333-25.025 15.971z" fill="#ffda8f"/><path d="m92.499 109.149v17.585l-75.244 98.801 6.32 60.147 88.961-116.811 84.398 110.864c1.247-6.655 2.721-13.564 4.308-20.927 2.154-10.109 4.478-21.097 6.433-33.415l-75.131-98.659v-17.585c0-12.063-9.012-21.918-20.008-21.918-11.024 0-20.037 9.854-20.037 21.918z" fill="#ffda8f"/></g><path d="m80.196 293.328v-.198c0-5.57-4.516-10.086-10.086-10.086s-10.086 4.515-10.086 10.086v.198c0 5.57 4.516 10.086 10.086 10.086s10.086-4.516 10.086-10.086z"/><path d="m105.457 366.144c-10.993-3.472-17.617-16.724-20.15-27.969-1.224-5.433-6.613-8.852-12.057-7.622-5.433 1.224-8.847 6.622-7.622 12.055 4.878 21.646 17.495 37.634 33.753 42.769 1.012.319 2.035.471 3.041.471 4.282 0 8.256-2.75 9.615-7.05 1.677-5.31-1.269-10.976-6.58-12.654z"/><path d="m222.579 164.199c0-32.832-1.329-70.498-11.189-100.932-5.787-17.864-14.135-31.891-24.811-41.692-12.702-11.662-28.745-17.575-47.686-17.575-36.479 0-72.968 17.287-100.113 47.429-28.44 31.579-42.296 73.065-38.017 113.826l12.765 121.183c.019.246.041.491.077.734l5.776 54.838c2.791 26.622 12.922 51.133 28.525 69.02 16.879 19.351 39.52 30.008 63.751 30.008 50.896 0 92.302-44.896 92.302-100.08v-32.452c0-14.162 3.106-28.689 6.702-45.51l.445-2.082c2.08-9.743 4.488-21.038 6.561-34.153.001-.007.002-.013.003-.02 2.752-17.413 4.909-38.039 4.909-62.542zm-168.809-99.272c23.325-25.901 54.352-40.756 85.123-40.756 26.353 0 43.292 14.398 53.306 45.312 8.995 27.764 10.208 63.46 10.208 94.716 0 12.998-.621 24.756-1.624 35.496l-58.153-76.363v-14.183c0-17.647-13.5-32.004-30.094-32.004-16.61 0-30.123 14.357-30.123 32.004v14.183l-57.79 75.881-3.799-36.066c-3.682-35.083 8.326-70.883 32.946-98.22zm137.761 191.059-70.97-93.224c-1.908-2.506-4.876-3.976-8.025-3.977h-.001c-3.149 0-6.117 1.47-8.025 3.975l-73.554 96.58-3.253-30.88 72.819-95.616c1.337-1.756 2.061-3.903 2.061-6.11v-17.586c0-6.414 4.558-11.832 9.951-11.832 5.379 0 9.923 5.418 9.923 11.832v17.586c0 2.207.723 4.354 2.061 6.11l72.511 95.219c-1.744 10.281-3.695 19.48-5.498 27.923zm-7.743 84.972c0 44.062-32.358 79.908-72.131 79.908-37.52 0-67.215-33.292-72.214-80.965l-5.405-51.313 78.496-103.07 73.709 96.823c-1.488 8.827-2.455 17.38-2.455 26.164z"/><path d="m502.595 267.496c14.704-38.254 12.071-81.91-7.224-119.774-18.414-36.133-49.18-62.259-84.406-71.678-31.902-8.547-59.127 2.218-80.92 31.989-3.29 4.494-2.313 10.805 2.181 14.095 4.493 3.288 10.805 2.313 14.097-2.182 16.843-23.008 35.726-30.767 59.427-24.418 29.712 7.944 55.826 30.306 71.646 61.35 16.703 32.776 19.023 70.456 6.368 103.381l-13.004 33.856-36.164-88.227 3.681-13.681c2.272-8.482 1.122-17.589-3.157-24.985-3.969-6.863-10.237-11.73-17.631-13.7-7.919-2.126-16.225-.781-23.383 3.789-6.866 4.385-11.838 11.244-14.002 19.322l-3.655 13.697-75.968 58.722c1.811-10.622 4.254-22.135 7.617-34.691 1.424-5.237 2.836-10.33 4.196-15.139 1.515-5.36-1.601-10.934-6.961-12.449-5.368-1.518-10.934 1.602-12.451 6.961-1.378 4.872-2.807 10.031-4.26 15.37-11.143 41.607-12.772 73.287-13.961 96.417l-.091 1.77c-.889 17.308-1.657 32.256-5.361 46.064l-8.387 31.314c-6.863 25.566-4.145 52.17 7.654 74.911 11.953 23.038 31.696 39.249 55.594 45.649 6.924 1.853 13.956 2.769 20.977 2.769 16.711 0 33.365-5.189 48.376-15.282 19.694-13.242 35.83-34.294 45.433-59.282l41.454-107.923c.111-.255.209-.515.299-.779zm-111.111-63.291c1.75-1.352 3.006-3.242 3.576-5.379l4.532-16.982c.854-3.191 2.762-5.866 5.371-7.532 2.322-1.484 4.913-1.948 7.314-1.303 2.821.751 4.482 2.76 5.381 4.313 1.617 2.795 2.03 6.319 1.135 9.658l-4.563 16.962c-.574 2.135-.431 4.399.407 6.445l45.575 111.188-11.144 29.012-46.004-112.309c-1.193-2.914-3.68-5.104-6.721-5.919-3.043-.816-6.291-.163-8.781 1.763l-92.717 71.69c.443-8.617.938-18.003 1.912-28.386zm-46.31 283.645c-5.273 0-10.594-.687-15.887-2.103-18.356-4.916-33.594-17.507-42.904-35.453-9.473-18.257-11.63-39.705-6.076-60.398l8.388-31.316c2.279-8.498 3.568-17.02 4.424-25.934l96.303-74.462 49.1 119.866-18.495 48.152c-14.689 38.214-44.036 61.65-74.853 61.648z"/><path d="m312.83 161.928c1.46.738 3.013 1.088 4.544 1.088 3.683 0 7.233-2.025 9.008-5.536l.086-.17c2.514-4.97.522-11.038-4.448-13.552-4.971-2.513-11.038-.522-13.552 4.449l-.086.17c-2.514 4.97-.523 11.037 4.448 13.551z"/></svg>