<svg height="512pt" viewBox="0 -13 512.001 512" width="512pt" xmlns="http://www.w3.org/2000/svg"><g fill-rule="evenodd"><path d="m445.566406 163.171875c-5.539062 0-10.890625.804687-15.953125 2.292969-7.589843-44.644532-46.449219-78.640625-93.257812-78.640625-52.25 0-94.605469 42.355469-94.605469 94.605469 0 2.355468.089844 4.691406.257812 7.003906-.527343-.019532-1.054687-.03125-1.585937-.03125-24.199219 0-43.816406 19.617187-43.816406 43.816406s19.617187 43.816406 43.816406 43.816406h205.148437c31.164063 0 56.429688-25.265625 56.429688-56.429687 0-31.167969-25.265625-56.433594-56.433594-56.433594zm0 0" fill="#67e4dc"/><path d="m56.945312 276.039062c-25.820312 0-46.945312-21.128906-46.945312-46.949218 0-23.890625 18.085938-43.757813 41.242188-46.597656-1.992188-6.441407-3.066407-13.289063-3.066407-20.382813 0-38.042969 30.835938-68.882813 68.878907-68.882813 4.484374 0 8.867187.433594 13.113281 1.253907 7.277343-47.832031 48.582031-84.480469 98.445312-84.480469 47.378907 0 87.03125 33.085938 97.109375 77.417969-47.242187 5.28125-83.972656 45.359375-83.972656 94.015625 0 2.355468.089844 4.6875.257812 7.003906l-1.585937-.035156c-24.199219 0-43.820313 19.617187-43.820313 43.820312 0 24.199219 19.621094 43.816406 43.820313 43.816406zm0 0" fill="#d9f9f6"/><path d="m299.355469 192.039062v127l59.996093-10-90 167v-126.996093l-59.996093 10zm0 0" fill="#fec96b"/><path d="m445.566406 153.171875c-2.792968 0-5.578125.175781-8.335937.523437-5.523438-20.085937-17.027344-38.242187-33.050781-51.902343-18.886719-16.101563-42.972657-24.96875-67.824219-24.96875-1.050781 0-2.097657.019531-3.140625.050781-6.429688-20.511719-18.917969-38.949219-35.773438-52.570312-19.398437-15.671876-43.84375-24.304688-68.828125-24.304688-26.363281 0-51.84375 9.5-71.742187 26.746094-17.210938 14.917968-29.308594 34.765625-34.6875 56.648437-1.707032-.113281-3.417969-.167969-5.128906-.167969-43.496094 0-78.878907 35.386719-78.878907 78.878907 0 4.332031.347657 8.628906 1.046875 12.867187-22.980468 7.527344-39.222656 29.148438-39.222656 54.117188 0 31.402344 25.546875 56.949218 56.945312 56.949218h180.394532l-36.789063 68.261719c-1.808593 3.359375-1.550781 7.457031.667969 10.558594 2.21875 3.105469 6.015625 4.675781 9.78125 4.046875l48.351562-8.058594v115.195313c0 4.578125 3.113282 8.574219 7.554688 9.695312.816406.207031 1.636719.304688 2.449219.304688 3.609375 0 7.023437-1.964844 8.800781-5.257813l35.609375-66.074218c2.621094-4.863282.804687-10.929688-4.058594-13.546876-4.863281-2.621093-10.929687-.804687-13.546875 4.058594l-16.808594 31.1875v-87.367187c0-2.941407-1.292968-5.730469-3.535156-7.628907-2.242187-1.902343-5.207031-2.71875-8.109375-2.234374l-39.871093 6.644531 35.027343-64.992188c.011719-.019531.019531-.039062.03125-.058593l26.460938-49.097657v87.363281c0 2.941407 1.292969 5.730469 3.535156 7.632813 2.242187 1.898437 5.207031 2.714844 8.105469 2.230469l39.871094-6.644532-6.75 12.527344c-2.617188 4.859375-.800782 10.925782 4.058593 13.546875 4.863281 2.621094 10.929688.800781 13.550781-4.058593l16.429688-30.488282c1.808594-3.359375 1.550781-7.457031-.667969-10.5625-2.222656-3.105468-6.023437-4.675781-9.777343-4.046875l-48.355469 8.058594v-21.195313h136.214843c36.628907 0 66.429688-29.800781 66.429688-66.433593 0-36.628907-29.800781-66.433594-66.433594-66.433594zm-425.566406 75.917969c0-18.636719 13.953125-34.402344 32.460938-36.671875 2.9375-.359375 5.566406-2.003907 7.175781-4.492188 1.609375-2.484375 2.035156-5.558593 1.160156-8.390625-1.742187-5.617187-2.621094-11.480468-2.621094-17.425781 0-32.46875 26.414063-58.882813 58.878907-58.882813 3.757812 0 7.53125.359376 11.21875 1.074219 2.667968.511719 5.4375-.082031 7.660156-1.652343 2.222656-1.566407 3.710937-3.976563 4.121094-6.664063 6.589843-43.316406 44.664062-75.980469 88.558593-75.980469 38.53125 0 71.863281 23.972656 84.398438 59.449219-45.75 10.46875-80.164063 51.019531-81.234375 99.644531-25.582032 4.148438-45.171875 26.390625-45.171875 53.125 0 12.800782 4.5 24.566406 11.992187 33.816406h-141.652344c-20.371093 0-36.945312-16.574218-36.945312-36.949218zm425.566406 36.949218h-136.210937v-74c0-4.578124-3.113281-8.574218-7.554688-9.695312-4.441406-1.121094-9.078125.921875-11.25 4.953125l-42.433593 78.738281h-7.695313c-18.648437 0-33.820313-15.167968-33.820313-33.816406 0-18.644531 15.171876-33.816406 33.820313-33.816406.40625 0 .8125.011718 1.214844.027344 2.867187.105468 5.59375-1.003907 7.566406-3.050782s2.984375-4.835937 2.777344-7.667968c-.152344-2.117188-.230469-4.230469-.230469-6.28125 0-46.652344 37.953125-84.605469 84.605469-84.605469 41.398437 0 76.472656 29.574219 83.398437 70.316406.476563 2.816406 2.140625 5.292969 4.5625 6.804687 2.421875 1.515626 5.382813 1.917969 8.117188 1.113282 4.253906-1.25 8.671875-1.886719 13.132812-1.886719 25.601563 0 46.429688 20.828125 46.429688 46.433594.003906 25.601562-20.824219 46.433593-46.429688 46.433593zm0 0"/><path d="m323.941406 364.746094c-5.507812 0-10 4.492187-10 10 0 5.507812 4.492188 10 10 10 5.507813 0 10-4.492188 10-10 0-5.507813-4.492187-10-10-10zm0 0"/></g></svg>