<?xml version="1.0" encoding="utf-8"?>
<!-- Generator: Adobe Illustrator 24.0.1, SVG Export Plug-In . SVG Version: 6.00 Build 0)  -->
<svg version="1.1" id="Layer_1" xmlns="http://www.w3.org/2000/svg" xmlns:xlink="http://www.w3.org/1999/xlink" x="0px" y="0px"
	 viewBox="0 0 40 40" style="enable-background:new 0 0 40 40;" xml:space="preserve">
<style type="text/css">
	.st0{fill:#FEC753;}
	.st1{fill:#FFFFFF;}
	.st2{fill:#0089EF;}
	.st3{fill:#D4FBFF;}
	.st4{fill:#FE5D6D;}
	.st5{fill:#3A2C60;}
</style>
<g>
	<circle class="st0" cx="20" cy="20" r="19.6"/>
	<circle class="st1" cx="20" cy="20" r="16.9"/>
	<ellipse class="st2" cx="20" cy="20" rx="16.9" ry="16.9"/>
	<path class="st3" d="M27.1,11.8c0-1.2-0.6-2.1-1.7-2.5c-0.3-2.2-1.8-3.8-3.8-3.8c-1.3,0-2.5,0.8-3.1,1.9c-0.4-0.4-0.9-0.6-1.4-0.6
		c-1.2,0-2.1,1-2.2,2.2l0,0c-1.2,0-2.2,1.2-2.2,2.5c0,0.3,0,0.4,0.1,0.6c0.3,1.2,1.2,1.9,2.2,1.9h1h9c0.6,0,1.3-0.4,1.7-0.9
		C27,12.9,27.1,12.3,27.1,11.8L27.1,11.8z"/>
	<path class="st1" d="M10.1,23.5H13c0.3,0,0.5,0,0.6,0.1c0.1,0.1,0.3,0.3,0.3,0.5c0,0.1,0,0.4-0.1,0.4c-0.1,0.1-0.3,0.1-0.5,0.1h-4
		c-0.3,0-0.5-0.1-0.6-0.3c-0.3-0.1-0.3-0.3-0.3-0.4s0-0.3,0.1-0.5c0.1-0.3,0.3-0.4,0.3-0.5c0.5-0.5,0.9-0.9,1.3-1.3
		c0.4-0.4,0.6-0.6,0.8-0.6c0.3-0.3,0.5-0.4,0.8-0.6c0.3-0.3,0.4-0.4,0.4-0.6c0.3-0.3,0.3-0.5,0.3-0.6c0-0.3,0-0.4-0.1-0.6
		c-0.1-0.1-0.3-0.3-0.4-0.4c-0.3-0.1-0.5-0.1-0.6-0.1c-0.5,0-0.8,0.3-1.2,0.6c0,0-0.1,0.3-0.1,0.4c-0.1,0.3-0.1,0.4-0.3,0.5
		c-0.1,0.1-0.3,0.1-0.5,0.1c-0.1,0-0.4,0-0.4-0.1c-0.1-0.1-0.3-0.3-0.3-0.5s0-0.5,0.1-0.8c0.1-0.3,0.3-0.5,0.5-0.8
		c0.3-0.3,0.5-0.4,0.8-0.5c0.4-0.1,0.8-0.3,1.2-0.3c0.5,0,1,0.1,1.4,0.3c0.3,0.1,0.5,0.3,0.6,0.5c0.1,0.3,0.4,0.4,0.4,0.6
		c0.1,0.3,0.1,0.5,0.1,0.8c0,0.4-0.1,0.9-0.4,1.2c-0.3,0.4-0.4,0.6-0.6,0.9s-0.6,0.5-1.2,0.9c-0.5,0.4-0.9,0.8-1.2,1
		C10.4,23.2,10.3,23.4,10.1,23.5L10.1,23.5z"/>
	<path class="st1" d="M15.8,20.4c0.3-0.3,0.5-0.5,0.8-0.6c0.3-0.1,0.6-0.3,0.9-0.3c0.4,0,0.6,0,0.9,0.1c0.3,0.1,0.5,0.3,0.8,0.5
		c0.3,0.3,0.4,0.5,0.5,0.8c0.1,0.3,0.1,0.6,0.1,1c0,0.5-0.1,0.9-0.4,1.4c-0.3,0.4-0.5,0.8-0.9,0.9c-0.4,0.3-0.9,0.4-1.4,0.4
		c-0.6,0-1.2-0.1-1.6-0.4c-0.4-0.3-0.8-0.8-1-1.3s-0.4-1.3-0.4-2.1c0-0.6,0.1-1.3,0.3-1.8c0.1-0.5,0.4-1,0.6-1.3
		c0.3-0.4,0.5-0.6,0.9-0.8c0.4-0.1,0.8-0.3,1.3-0.3s0.9,0.1,1.2,0.3c0.4,0.1,0.6,0.4,0.8,0.6c0.1,0.3,0.3,0.5,0.3,0.8
		c0,0.1,0,0.3-0.1,0.4C19.2,19,19.1,19,19,19s-0.3,0-0.4-0.1c-0.1-0.1-0.3-0.3-0.3-0.4c-0.1-0.3-0.3-0.4-0.4-0.5
		c-0.1-0.1-0.4-0.3-0.6-0.3c-0.1,0-0.4,0-0.5,0.1c-0.1,0.1-0.4,0.3-0.5,0.4C16,18.8,15.8,19.5,15.8,20.4L15.8,20.4z M17.3,23.8
		c0.4,0,0.6-0.1,0.9-0.4c0.3-0.3,0.4-0.6,0.4-1.2c0-0.4,0-0.6-0.1-0.8c-0.1-0.3-0.3-0.4-0.5-0.5c-0.1-0.1-0.4-0.1-0.6-0.1
		s-0.4,0-0.6,0.1c-0.3,0.1-0.4,0.3-0.5,0.5C16,21.7,16,21.9,16,22.2c0,0.5,0.1,0.9,0.4,1.2C16.6,23.6,16.9,23.8,17.3,23.8L17.3,23.8
		z"/>
	<path class="st1" d="M31.2,22.2c0,0.3,0,0.5-0.1,0.8s-0.3,0.5-0.5,0.9c-0.3,0.3-0.6,0.5-1,0.6c-0.4,0.1-0.9,0.3-1.4,0.3
		c-0.4,0-0.8,0-1.2-0.1c-0.4-0.1-0.6-0.3-0.9-0.4c-0.3-0.1-0.5-0.4-0.8-0.6s-0.4-0.5-0.5-0.8c-0.1-0.3-0.3-0.6-0.4-1
		c-0.1-0.4-0.1-0.8-0.1-1.2c0-0.6,0.1-1.2,0.3-1.7c0.1-0.5,0.4-0.9,0.8-1.3c0.4-0.4,0.8-0.6,1.2-0.8c0.5-0.1,0.9-0.3,1.4-0.3
		c0.6,0,1.2,0.1,1.7,0.4c0.5,0.3,0.9,0.5,1.2,0.9c0.3,0.4,0.4,0.8,0.4,1c0,0.1,0,0.4-0.1,0.5c-0.1,0.1-0.3,0.3-0.5,0.3
		c-0.3,0-0.4,0-0.5-0.1c-0.1-0.1-0.3-0.3-0.4-0.5c-0.3-0.4-0.4-0.6-0.8-0.9c-0.3-0.1-0.6-0.3-1-0.3c-0.6,0-1.2,0.3-1.6,0.8
		c-0.4,0.5-0.5,1.2-0.5,2.1c0,0.6,0.1,1.2,0.3,1.6c0.1,0.4,0.4,0.6,0.8,0.9c0.3,0.3,0.6,0.3,1.2,0.3c0.5,0,0.9-0.1,1.2-0.4
		c0.3-0.3,0.5-0.5,0.8-1c0.1-0.3,0.1-0.4,0.3-0.5c0.1-0.1,0.3-0.3,0.5-0.3c0.1,0,0.4,0.1,0.5,0.3C31,21.8,31.2,22.1,31.2,22.2
		L31.2,22.2z"/>
	<path class="st0" d="M14.7,33.5h10.8v-7.4L14.7,33.5z"/>
	<path class="st4" d="M23.2,27.5l-8.6,6h8.6V27.5z"/>
	<path class="st1" d="M21.9,19.1c-0.6,0-1.2-0.5-1.2-1.2c0-0.6,0.5-1.2,1.2-1.2c0.6,0,1.2,0.5,1.2,1.2
		C23.1,18.6,22.6,19.1,21.9,19.1z M21.9,17.5c-0.1,0-0.4,0.1-0.4,0.4c0,0.1,0.1,0.4,0.4,0.4c0.1,0,0.4-0.1,0.4-0.4
		C22.2,17.7,22.1,17.5,21.9,17.5z"/>
	<g>
		<path class="st5" d="M35.5,31.3c-0.6,0.9-1.4,1.8-2.2,2.6c-0.1,0.1-0.1,0.4,0,0.6c0.1,0.1,0.3,0.1,0.3,0.1c0.1,0,0.3,0,0.3-0.1
			c0.9-0.8,1.7-1.7,2.3-2.7c0.1-0.1,0.1-0.5-0.1-0.6C35.8,31,35.6,31,35.5,31.3L35.5,31.3z"/>
		<path class="st5" d="M20,0C9,0,0,9,0,20s9,20,20,20c4.5,0,8.8-1.4,12.3-4.3c0.1-0.1,0.3-0.4,0.1-0.6c-0.1-0.1-0.4-0.3-0.6-0.1
			c-3.4,2.7-7.5,4-11.8,4C9.5,39,0.9,30.4,0.9,19.9s8.6-19,19.1-19S39.1,9.5,39.1,20c0,3.5-0.9,6.9-2.7,9.9c-0.1,0.3,0,0.5,0.1,0.6
			c0.3,0.1,0.5,0,0.6-0.1C39,27.3,40,23.8,40,20.1C40,9,31,0,20,0L20,0z"/>
		<path class="st5" d="M20,2.6C10.4,2.6,2.6,10.4,2.6,20S10.4,37.4,20,37.4S37.4,29.6,37.4,20S29.6,2.6,20,2.6z M20,36.5
			c-9.1,0-16.5-7.4-16.5-16.5S10.9,3.5,20,3.5S36.5,10.9,36.5,20S29.1,36.5,20,36.5z"/>
		<path class="st5" d="M26,9.1c-0.4-2.2-2.1-3.9-4.2-3.9c-1.3,0-2.5,0.6-3.2,1.7c-0.4-0.3-0.9-0.4-1.3-0.4c-1.3,0-2.3,0.9-2.6,2.3
			c-1.3,0.1-2.3,1.4-2.3,2.9c0,0.3,0,0.5,0.1,0.6c0.3,1.3,1.4,2.3,2.7,2.3h2.2c0.3,0,0.4-0.1,0.4-0.4c0-0.3-0.1-0.4-0.4-0.4h-2.2
			c-0.9,0-1.7-0.6-1.8-1.7c0-0.1,0-0.4,0-0.5c0-1.2,0.8-2.1,1.8-2.1l0,0c0.3,0,0.4-0.1,0.4-0.4c0.1-1,0.9-1.8,1.8-1.8
			c0.4,0,0.8,0.1,1.2,0.5c0.1,0.1,0.3,0.1,0.4,0.1c0.1,0,0.3-0.1,0.3-0.3c0.6-1,1.7-1.7,2.7-1.7c1.7,0,3.1,1.4,3.4,3.4
			c0,0.1,0.1,0.3,0.3,0.4c0.8,0.3,1.3,1,1.3,2.1c0,0.4-0.1,0.9-0.4,1.2c-0.3,0.5-0.8,0.8-1.4,0.8h-1.6c-0.3,0-0.4,0.1-0.4,0.4
			s0.1,0.4,0.4,0.4h1.6c0.8,0,1.6-0.4,2.1-1.2c0.3-0.5,0.5-1,0.5-1.7C27.5,10.5,26.9,9.5,26,9.1L26,9.1z"/>
		<path class="st5" d="M21.9,14.5c0.3,0,0.4-0.1,0.4-0.4c0-0.3-0.1-0.4-0.4-0.4h-3.1c-0.3,0-0.4,0.1-0.4,0.4c0,0.3,0.1,0.4,0.4,0.4
			H21.9z"/>
		<path class="st5" d="M25.6,25.7c-0.1-0.1-0.3,0-0.4,0l-10.8,7.4c-0.1,0.1-0.3,0.3-0.1,0.5c0,0.1,0.3,0.3,0.4,0.3h10.8
			c0.3,0,0.4-0.1,0.4-0.4v-7.4C25.8,26,25.7,25.8,25.6,25.7L25.6,25.7z M24.9,33h-8.8l8.8-6.1V33z"/>
	</g>
</g>
</svg>
