<?xml version="1.0" encoding="utf-8"?>
<!-- Generator: Adobe Illustrator 24.0.1, SVG Export Plug-In . SVG Version: 6.00 Build 0)  -->
<svg version="1.1" id="Layer_1" xmlns="http://www.w3.org/2000/svg" xmlns:xlink="http://www.w3.org/1999/xlink" x="0px" y="0px"
	 viewBox="0 0 40 40" style="enable-background:new 0 0 40 40;" xml:space="preserve">
<style type="text/css">
	.st0{fill:#E0E0E0;}
	.st1{fill:#FFFFFF;}
	.st2{fill:#EFEFEF;}
</style>
<g>
	<g>
		<g>
			<g>
				<path class="st0" d="M26,26.5c-0.7,0.9-1.4,1.9-1.4,3.3c0,0.4-0.3,0.7-0.7,0.7h-8.1c-0.4,0-0.7-0.3-0.7-0.7
					c0-1.5-0.7-2.4-1.4-3.3c-0.6-0.8-1.1-1.5-1.3-2.7h14.7C27.1,25,26.5,25.7,26,26.5z"/>
			</g>
		</g>
		<g>
			<g>
				<path class="st1" d="M28.4,15.2c-0.2,0.3-0.5,0.5-0.9,0.6l-14.6,2.6c-0.7,0.1-1.4-0.4-1.6-1.1c-0.1-0.7,0.4-1.4,1.1-1.6
					l14.6-2.6c0.1,0,0.2,0,0.2,0c0.3,0,0.5,0.1,0.8,0.2c0.3,0.2,0.5,0.5,0.6,0.9C28.7,14.6,28.6,14.9,28.4,15.2z"/>
			</g>
		</g>
		<g>
			<g>
				<path class="st1" d="M28.4,11.1c-0.2,0.3-0.5,0.5-0.9,0.6l-14.6,2.6c-0.7,0.1-1.4-0.4-1.6-1.1c-0.1-0.7,0.4-1.4,1.1-1.6L27.1,9
					c0.1,0,0.2,0,0.2,0c0.3,0,0.5,0.1,0.8,0.2c0.3,0.2,0.5,0.5,0.6,0.9C28.7,10.5,28.6,10.8,28.4,11.1z"/>
			</g>
		</g>
		<g>
			<g>
				<path class="st1" d="M27.6,7.6l-14.6,2.6c-0.7,0.1-1.4-0.4-1.6-1.1c-0.1-0.7,0.4-1.4,1.1-1.6l14.6-2.6c0.1,0,0.2,0,0.2,0
					c0.6,0,1.2,0.5,1.3,1.1C28.8,6.7,28.3,7.4,27.6,7.6z"/>
			</g>
		</g>
		<g>
			<g>
				<path class="st1" d="M24.2,4l-8,1.4c-0.4,0.1-0.7,0-1-0.2c-0.3-0.2-0.5-0.5-0.6-0.9c-0.1-0.4,0-0.7,0.2-1
					c0.2-0.3,0.5-0.5,0.9-0.6l8-1.4c0.1,0,0.2,0,0.2,0c0.6,0,1.2,0.5,1.3,1.1C25.4,3.2,24.9,3.9,24.2,4z"/>
			</g>
		</g>
		<g>
			<g>
				<path class="st1" d="M25.8,16.2l-0.2,0.2c-1.6,1.6-4.4,4.3-4.4,6.7c0,0.4,0.3,0.7,0.7,0.7l-4.1,0c0.4,0,0.7-0.3,0.7-0.7
					c0-1.3-0.7-2.8-2.2-4.5c-0.1-0.2-0.3-0.3-0.4-0.5c-0.3-0.3-0.7-0.3-1,0L25.8,16.2z"/>
			</g>
		</g>
		<g>
			<g>
				<path class="st2" d="M23.9,35.9h-7.9c-0.4,0-0.7-0.3-0.7-0.6c0-0.4,0.3-0.7,0.7-0.7h7.9c0.4,0,0.7,0.3,0.7,0.6
					C24.6,35.6,24.3,35.9,23.9,35.9z"/>
			</g>
		</g>
		<g>
			<g>
				<path class="st2" d="M23.9,33.2h-7.9c-0.4,0-0.7-0.3-0.7-0.6c0-0.4,0.3-0.7,0.7-0.7h7.9c0.4,0,0.7,0.3,0.7,0.6
					C24.6,32.9,24.3,33.2,23.9,33.2z"/>
			</g>
		</g>
		<g>
			<g>
				<path class="st2" d="M23.2,38.5c0,0.1-0.1,0.2-0.2,0.2h-6.3c-0.1,0-0.2-0.1-0.2-0.2v-1.1h6.7L23.2,38.5L23.2,38.5z"/>
			</g>
		</g>
	</g>
	<g>
		<g>
			<g>
				<path d="M28,22.4H11.8c-0.4,0-0.7,0.3-0.7,0.7c0,2,0.8,3.2,1.6,4.2c0.6,0.8,1.1,1.5,1.1,2.6c0,1.1,0.9,2,2,2h8.1
					c1.1,0,2-0.9,2-2c0-1,0.5-1.7,1.1-2.6c0.7-1,1.6-2.2,1.6-4.2C28.7,22.7,28.4,22.4,28,22.4z M26,26.5c-0.7,0.9-1.4,1.9-1.4,3.3
					c0,0.4-0.3,0.7-0.7,0.7h-8.1c-0.4,0-0.7-0.3-0.7-0.7c0-1.5-0.7-2.4-1.4-3.3c-0.6-0.8-1.1-1.5-1.3-2.7h14.7
					C27.1,25,26.5,25.7,26,26.5z"/>
			</g>
		</g>
		<g>
			<g>
				<path d="M26.8,16.2c-0.3-0.3-0.7-0.3-1,0l-0.2,0.2c-1.6,1.6-4.4,4.3-4.4,6.7c0,0.4,0.3,0.7,0.7,0.7c0.4,0,0.7-0.3,0.7-0.7
					c0-1.9,2.6-4.4,4-5.7l0.2-0.2C27,16.9,27,16.5,26.8,16.2z"/>
			</g>
		</g>
		<g>
			<g>
				<path d="M30,14c-0.1-0.7-0.5-1.3-1.1-1.7c-0.6-0.4-1.3-0.6-2-0.4l-14.6,2.6c-1.5,0.3-2.5,1.7-2.2,3.1c0.2,1.3,1.4,2.2,2.7,2.2
					c0.2,0,0.3,0,0.5,0l14.6-2.6c0.7-0.1,1.3-0.5,1.7-1.1C29.9,15.4,30.1,14.7,30,14z M28.4,15.2c-0.2,0.3-0.5,0.5-0.9,0.6
					l-14.6,2.6c-0.7,0.1-1.4-0.4-1.6-1.1c-0.1-0.7,0.4-1.4,1.1-1.6l14.6-2.6c0.1,0,0.2,0,0.2,0c0.3,0,0.5,0.1,0.8,0.2
					c0.3,0.2,0.5,0.5,0.6,0.9C28.7,14.6,28.6,14.9,28.4,15.2z"/>
			</g>
		</g>
		<g>
			<g>
				<path d="M30,9.9c-0.1-0.7-0.5-1.3-1.1-1.7c-0.6-0.4-1.3-0.6-2-0.4l-14.6,2.6c-1.5,0.3-2.5,1.7-2.2,3.1c0.2,1.3,1.4,2.2,2.7,2.2
					c0.2,0,0.3,0,0.5,0L27.8,13c0.7-0.1,1.3-0.5,1.7-1.1C29.9,11.3,30.1,10.6,30,9.9z M28.4,11.1c-0.2,0.3-0.5,0.5-0.9,0.6
					l-14.6,2.6c-0.7,0.1-1.4-0.4-1.6-1.1c-0.1-0.7,0.4-1.4,1.1-1.6L27.1,9c0.1,0,0.2,0,0.2,0c0.3,0,0.5,0.1,0.8,0.2
					c0.3,0.2,0.5,0.5,0.6,0.9C28.7,10.5,28.6,10.8,28.4,11.1z"/>
			</g>
		</g>
		<g>
			<g>
				<path d="M30,5.8c-0.3-1.5-1.7-2.4-3.1-2.2L12.2,6.1C10.7,6.4,9.8,7.8,10,9.3c0.2,1.3,1.4,2.2,2.7,2.2c0.2,0,0.3,0,0.5,0
					l14.6-2.6C29.3,8.6,30.2,7.2,30,5.8z M27.6,7.6l-14.6,2.6c-0.7,0.1-1.4-0.4-1.6-1.1c-0.1-0.7,0.4-1.4,1.1-1.6l14.6-2.6
					c0.1,0,0.2,0,0.2,0c0.6,0,1.2,0.5,1.3,1.1C28.8,6.7,28.3,7.4,27.6,7.6z"/>
			</g>
		</g>
		<g>
			<g>
				<path d="M26.6,2.2C26.4,0.8,25-0.2,23.5,0l-8,1.4c-0.7,0.1-1.3,0.5-1.7,1.1c-0.4,0.6-0.6,1.3-0.4,2c0.1,0.7,0.5,1.3,1.1,1.7
					c0.5,0.3,1,0.5,1.5,0.5c0.2,0,0.3,0,0.5,0l8-1.4C25.9,5.1,26.9,3.7,26.6,2.2z M24.2,4l-8,1.4c-0.4,0.1-0.7,0-1-0.2
					c-0.3-0.2-0.5-0.5-0.6-0.9c-0.1-0.4,0-0.7,0.2-1c0.2-0.3,0.5-0.5,0.9-0.6l8-1.4c0.1,0,0.2,0,0.2,0c0.6,0,1.2,0.5,1.3,1.1
					C25.4,3.2,24.9,3.9,24.2,4z"/>
			</g>
		</g>
		<g>
			<g>
				<path d="M16.3,18.6c-0.1-0.2-0.3-0.3-0.4-0.5c-0.3-0.3-0.7-0.3-1,0c-0.3,0.3-0.3,0.7,0,1c0.1,0.1,0.3,0.3,0.4,0.4
					c1.3,1.5,1.9,2.7,1.9,3.6c0,0.4,0.3,0.7,0.7,0.7c0.4,0,0.7-0.3,0.7-0.7C18.5,21.8,17.8,20.4,16.3,18.6z"/>
			</g>
		</g>
		<g>
			<g>
				<path d="M24,33.2h-8.1c-1,0-1.9,0.8-2.1,1.8c-0.2,1.2,0.8,2.3,2,2.3h8.1c1,0,1.9-0.8,2.1-1.8C26.1,34.3,25.2,33.2,24,33.2z
					 M23.9,35.9h-7.9c-0.4,0-0.7-0.3-0.7-0.6c0-0.4,0.3-0.7,0.7-0.7h7.9c0.4,0,0.7,0.3,0.7,0.6C24.6,35.6,24.3,35.9,23.9,35.9z"/>
			</g>
		</g>
		<g>
			<g>
				<path d="M24,30.5h-8.1c-1,0-1.9,0.8-2.1,1.8c-0.2,1.2,0.8,2.3,2,2.3h8.1c1,0,1.9-0.8,2.1-1.8C26.1,31.6,25.2,30.5,24,30.5z
					 M23.9,33.2h-7.9c-0.4,0-0.7-0.3-0.7-0.6c0-0.4,0.3-0.7,0.7-0.7h7.9c0.4,0,0.7,0.3,0.7,0.6C24.6,32.9,24.3,33.2,23.9,33.2z"/>
			</g>
		</g>
		<g>
			<g>
				<path d="M24,35.9h-8.1c-0.4,0-0.7,0.3-0.7,0.7v1.8c0,0.9,0.7,1.5,1.5,1.5h6.4c0.9,0,1.5-0.7,1.5-1.5v-1.8
					C24.6,36.2,24.3,35.9,24,35.9z M23.2,38.5c0,0.1-0.1,0.2-0.2,0.2h-6.3c-0.1,0-0.2-0.1-0.2-0.2v-1.1h6.7L23.2,38.5L23.2,38.5z"/>
			</g>
		</g>
	</g>
</g>
</svg>
