<?xml version="1.0" encoding="utf-8"?>
<!-- Generator: Adobe Illustrator 24.0.1, SVG Export Plug-In . SVG Version: 6.00 Build 0)  -->
<svg version="1.1" id="Layer_1" xmlns="http://www.w3.org/2000/svg" xmlns:xlink="http://www.w3.org/1999/xlink" x="0px" y="0px"
	 viewBox="0 0 40 40" style="enable-background:new 0 0 40 40;" xml:space="preserve">
<style type="text/css">
	.st0{fill:#FFFFFF;}
	.st1{fill:#FFD517;}
</style>
<g>
	<g>
		<path class="st0" d="M22.3,35.4c0,1.4-1.2,2.4-2.5,2.3c-1.2-0.1-2.2-1.2-2.2-2.4V34h4.7V35.4z M23.5,31.7h-7.1v-2.4h7.1V31.7z
			 M23.9,27h-7.7c-0.3-0.8-3.6-10.1-3.6-10.1h14.9C26.9,18.4,23.9,27,23.9,27z"/>
	</g>
	<g>
		<path d="M21.2,1.9V1.2c0-0.7-0.4-1.2-1-1.3c-0.7-0.1-1.3,0.5-1.3,1.2V2c0,0.7,0.6,1.2,1.3,1.2C20.7,3.1,21.2,2.5,21.2,1.9z"/>
		<path d="M26.3,4.8C26.5,4.9,26.7,5,26.9,5c0.4,0,0.8-0.2,1-0.6l0.4-0.7c0.3-0.6,0.1-1.3-0.4-1.6c-0.6-0.3-1.3-0.1-1.6,0.4
			l-0.4,0.7C25.6,3.8,25.8,4.5,26.3,4.8z"/>
		<path d="M33.7,7.8c-0.3-0.6-1-0.8-1.6-0.4l-0.7,0.4c-0.6,0.3-0.8,1-0.4,1.6c0.2,0.4,0.6,0.6,1,0.6c0.2,0,0.4-0.1,0.6-0.2l0.7-0.4
			C33.9,9.1,34.1,8.4,33.7,7.8z"/>
		<path d="M8.6,7.9L7.9,7.4C7.3,7.1,6.6,7.3,6.3,7.9C5.9,8.4,6.1,9.2,6.7,9.5l0.7,0.4C7.6,10,7.8,10.1,8,10.1c0.4,0,0.8-0.2,1-0.6
			C9.4,8.9,9.2,8.2,8.6,7.9z"/>
		<path d="M12.1,4.4c0.2,0.4,0.6,0.6,1,0.6c0.2,0,0.4-0.1,0.6-0.2c0.6-0.3,0.8-1,0.4-1.6l-0.4-0.7c-0.3-0.6-1-0.8-1.6-0.4
			c-0.6,0.3-0.8,1-0.4,1.6L12.1,4.4z"/>
		<path d="M27.2,8.5c-1.9-1.9-4.5-3-7.2-3s-5.3,1.1-7.2,3c-0.9,0.9-1.7,2-2.2,3.2c-0.5,1.2-0.8,2.5-0.8,3.8c0,0.3,0,0.5,0.1,0.8
			c0,0.1,4.2,12,4.3,12.1v4.5c0,0.6,0.4,1.1,1.2,1.2v1.3c0,2.5,2,4.6,4.5,4.8c2.7,0.1,4.9-2,4.9-4.7V34c0.6,0,1.2-0.5,1.2-1.2v-4.5
			c0.5-1.5,4-11.3,4.1-11.7c0.1-0.3,0.3-0.8,0.3-1C30.1,12.9,29.1,10.4,27.2,8.5z M22.3,35.4c0,1.4-1.2,2.4-2.5,2.3
			c-1.2-0.1-2.2-1.2-2.2-2.4V34h4.7V35.4z M23.5,31.7h-7.1v-2.4h7.1V31.7z M23.9,27h-7.7c-0.3-0.8-3.6-10.1-3.6-10.1h14.9
			C26.9,18.4,23.9,27,23.9,27z M12.2,14.5c0.6-3.7,3.9-6.6,7.8-6.6c3.9,0,7.2,2.9,7.8,6.6H12.2z"/>
	</g>
	<path class="st1" d="M12.2,14.5c0.6-3.7,3.9-6.6,7.8-6.6c3.9,0,7.2,2.9,7.8,6.6H12.2z"/>
</g>
</svg>
