<?xml version="1.0" encoding="utf-8"?>
<!-- Generator: Adobe Illustrator 24.0.1, SVG Export Plug-In . SVG Version: 6.00 Build 0)  -->
<svg version="1.1" id="Layer_1" xmlns="http://www.w3.org/2000/svg" xmlns:xlink="http://www.w3.org/1999/xlink" x="0px" y="0px"
	 viewBox="0 0 40 40" style="enable-background:new 0 0 40 40;" xml:space="preserve">
<style type="text/css">
	.st0{fill-rule:evenodd;clip-rule:evenodd;fill:#67E5DD;}
	.st1{fill-rule:evenodd;clip-rule:evenodd;fill:#FEC96B;}
	.st2{fill-rule:evenodd;clip-rule:evenodd;}
</style>
<g>
	<g>
		<path class="st0" d="M15.3,28.6h9.5v6.6c-0.5,2.3-2.4,3.9-4.7,3.9c-2.3,0-4.3-1.7-4.7-3.9V28.6z"/>
		<path class="st1" d="M20,5.8c5.4,0,9.8,4.4,9.8,9.8c0,6.8-5,9-5,11.9c0,0.4,0,0.7,0,1.1h-9.5c0-0.3,0-0.7,0-1.1
			c0-2.9-5-5.1-5-11.9C10.2,10.2,14.6,5.8,20,5.8z"/>
		<path class="st2" d="M20,5.1c-4.6,0-8.6,2.9-10,7.2c-0.1,0.4,0.1,0.8,0.5,1c0.4,0.1,0.8-0.1,1-0.5c1.2-3.7,4.6-6.2,8.5-6.2
			c5,0,9,4,9,9c0,3.8-1.7,6.1-3.1,8c-1,1.3-1.9,2.5-1.9,3.9c0,0.1,0,0.2,0,0.3h-3.2V26c0-0.4-0.3-0.7-0.7-0.8
			c-0.5-0.1-0.9,0.3-0.9,0.8v1.8H16c0-0.1,0-0.2,0-0.3c0-1.4-0.9-2.6-1.9-3.9c-1-1.4-2.2-2.9-2.7-5.1c-0.1-0.4-0.5-0.7-0.9-0.6
			c-0.4,0.1-0.7,0.5-0.6,0.9c0.6,2.5,1.9,4.2,3,5.6c0.9,1.2,1.6,2.1,1.6,3c0,0.4,0,0.7,0,1.1v6.6c0,0,0,0,0,0.1c0,0,0,0,0,0
			c0,0,0,0.1,0,0.1c0,0,0,0,0,0c0.3,1.3,1,2.4,1.9,3.2c1,0.8,2.3,1.3,3.6,1.3c1.3,0,2.6-0.5,3.6-1.3c1-0.8,1.7-2,1.9-3.2
			c0,0,0,0,0,0c0,0,0-0.1,0-0.1c0,0,0,0,0,0c0,0,0,0,0-0.1v-6.6c0-0.3,0-0.7,0-1.1c0-0.9,0.7-1.8,1.6-3c1.4-1.9,3.4-4.6,3.4-8.9
			C30.5,9.8,25.8,5.1,20,5.1z M16,32.7H24v1.7H16V32.7z M24,31H16v-1.7H24V31z M20,38.3c-1.6,0-3-1-3.7-2.4h7.4
			C23,37.4,21.6,38.3,20,38.3z"/>
		<path class="st2" d="M20.8,2.9v-2c0-0.4-0.3-0.7-0.7-0.8c-0.5-0.1-0.9,0.3-0.9,0.8v2.1c0,0.5,0.4,0.8,0.9,0.8
			C20.5,3.6,20.8,3.3,20.8,2.9z"/>
		<path class="st2" d="M7.3,14.9h-2c-0.4,0-0.7,0.3-0.8,0.7c-0.1,0.5,0.3,0.9,0.8,0.9h2c0.4,0,0.7-0.3,0.8-0.7
			C8.1,15.3,7.7,14.9,7.3,14.9z"/>
		<path class="st2" d="M22.8,16.4h-5.5c-0.4,0-0.7,0.3-0.8,0.7c-0.1,0.5,0.3,0.9,0.8,0.9h2v1.8c0,0.4,0.3,0.7,0.7,0.8
			c0.5,0.1,0.9-0.3,0.9-0.8V18h2c0.5,0,0.8-0.4,0.8-0.9C23.5,16.7,23.1,16.4,22.8,16.4z"/>
		<path class="st2" d="M10.4,7.2c0.2,0.2,0.4,0.2,0.6,0.2s0.4-0.1,0.6-0.2c0.3-0.3,0.3-0.8,0-1.1l-1.5-1.5C9.8,4.3,9.3,4.3,9,4.6
			C8.7,4.9,8.7,5.4,9,5.7L10.4,7.2z"/>
		<path class="st2" d="M9.9,24.6l-1.5,1.5c-0.3,0.3-0.3,0.8,0,1.1c0.2,0.2,0.4,0.2,0.6,0.2c0.2,0,0.4-0.1,0.6-0.2l1.5-1.5
			c0.3-0.3,0.3-0.8,0-1.1S10.2,24.3,9.9,24.6z"/>
		<path class="st2" d="M29,7.4c0.2,0,0.4-0.1,0.6-0.2L31,5.7c0.3-0.3,0.3-0.8,0-1.1c-0.3-0.3-0.8-0.3-1.1,0l-1.5,1.5
			c-0.3,0.3-0.3,0.8,0,1.1C28.6,7.3,28.8,7.4,29,7.4z"/>
		<path class="st2" d="M30.1,24.6c-0.3-0.3-0.8-0.3-1.1,0c-0.3,0.3-0.3,0.8,0,1.1l1.5,1.5c0.2,0.2,0.4,0.2,0.6,0.2
			c0.2,0,0.4-0.1,0.6-0.2c0.3-0.3,0.3-0.8,0-1.1L30.1,24.6z"/>
		<path class="st2" d="M34.8,14.9h-2c-0.4,0-0.7,0.3-0.8,0.7c-0.1,0.5,0.3,0.9,0.8,0.9h2c0.4,0,0.7-0.3,0.8-0.7
			C35.7,15.3,35.3,14.9,34.8,14.9z"/>
		<path class="st2" d="M20,22.1c-0.4,0-0.8,0.3-0.8,0.8s0.3,0.8,0.8,0.8s0.8-0.3,0.8-0.8S20.4,22.1,20,22.1z"/>
		<path class="st2" d="M10.2,16.4c0.4,0,0.8-0.3,0.8-0.8c0-0.4-0.3-0.8-0.8-0.8c-0.4,0-0.8,0.3-0.8,0.8C9.4,16.1,9.8,16.4,10.2,16.4
			z"/>
	</g>
</g>
</svg>
