<?xml version="1.0" encoding="utf-8"?>
<!-- Generator: Adobe Illustrator 24.0.1, SVG Export Plug-In . SVG Version: 6.00 Build 0)  -->
<svg version="1.1" id="Layer_1" xmlns="http://www.w3.org/2000/svg" xmlns:xlink="http://www.w3.org/1999/xlink" x="0px" y="0px"
	 viewBox="0 0 40 40" style="enable-background:new 0 0 40 40;" xml:space="preserve">
<style type="text/css">
	.st0{clip-path:url(#SVGID_2_);}
	.st1{fill:#E4E8ED;}
	.st2{fill:#AAE79A;}
	.st3{fill:#C8D1DA;}
	.st4{fill:#8EDF78;}
	.st5{fill:#FFFFFF;}
</style>
<g>
	<defs>
		<rect id="SVGID_1_" y="6.5" width="40" height="27"/>
	</defs>
	<clipPath id="SVGID_2_">
		<use xlink:href="#SVGID_1_"  style="overflow:visible;"/>
	</clipPath>
	<g class="st0">
		<path class="st1" d="M36.3,33H3.8c-1.7,0-3.1-1.4-3.1-3.1V10.3C0.6,8.5,2,7.1,3.8,7.1h32.6c1.7,0,3.1,1.4,3.1,3.1v19.6
			C39.5,31.6,38.1,33,36.3,33z"/>
		<path class="st2" d="M28.2,20.1c0,4.6-3.7,8.2-8.2,8.2s-8.2-3.7-8.2-8.2c0-4.6,3.7-8.2,8.2-8.2S28.2,15.5,28.2,20.1z"/>
		<path class="st3" d="M36.3,30.6H3.8c-1.7,0-3.1-1.4-3.1-3.1v2.3c0,1.7,1.4,3.1,3.1,3.1h32.6c1.7,0,3.1-1.4,3.1-3.1v-2.3
			C39.5,29.2,38.1,30.6,36.3,30.6z"/>
		<path class="st4" d="M20,25.9c-4.1,0-7.5-3-8.2-7.1c-0.1,0.4-0.1,0.8-0.1,1.2c0,4.6,3.7,8.2,8.2,8.2s8.2-3.7,8.2-8.2
			c0-0.4,0-0.8-0.1-1.2C27.6,22.9,24.1,25.9,20,25.9z"/>
		<path d="M1.2,29.8V13.7H0v16.1c0,2.1,1.6,3.7,3.7,3.7h2.4v-1.2H3.7C2.3,32.4,1.2,31.2,1.2,29.8z"/>
		<path d="M38.8,29.8c0,1.4-1.2,2.6-2.6,2.6H7.4v1.2h28.9c2.1,0,3.7-1.6,3.7-3.7V18.4h-1.2L38.8,29.8L38.8,29.8z"/>
		<path d="M19.4,6.5H3.7C1.6,6.5,0,8.1,0,10.2v2.3h1.2v-2.3c0-1.4,1.2-2.6,2.6-2.6h32.6c1.4,0,2.6,1.2,2.6,2.6v7H40v-7
			c0-2.1-1.6-3.7-3.7-3.7H20.6"/>
		<path d="M26.8,14.5c-0.2-0.3-0.5-0.6-0.9-0.9l-0.8,0.9c0.2,0.2,0.5,0.5,0.7,0.8L26.8,14.5z"/>
		<path d="M20,12.4c1.5,0,3,0.5,4.3,1.3l0.7-1c-1.5-1-3.2-1.5-5-1.5c-4.9,0-8.8,4-8.8,8.8c0,4.9,4,8.8,8.8,8.8s8.8-4,8.8-8.8
			c0-1.6-0.4-3.2-1.3-4.6l-1,0.6c0.7,1.2,1.1,2.6,1.1,4c0,4.2-3.4,7.6-7.6,7.6s-7.6-3.4-7.6-7.6C12.4,15.9,15.8,12.4,20,12.4z"/>
		<path d="M30.4,25.7v1.8h-1.8v1.2h1.8v1.8h1.2v-1.8h1.8v-1.2h-1.8v-1.8H30.4z"/>
		<path d="M6.7,27.5h4.7v1.2H6.7V27.5z"/>
		<path class="st5" d="M36.2,10.1h-3.9V8.9h3.9V10.1z M31.2,10.1H30V8.9h1.2V10.1z M28.8,10.1h-1.2V8.9h1.2V10.1z"/>
		<path class="st5" d="M17.4,24.1c-0.4-0.2-0.7-0.5-1-0.9l0.9-0.8c0.2,0.2,0.5,0.5,0.8,0.7L17.4,24.1z M15.6,22.1
			c-0.3-0.7-0.5-1.4-0.5-2.1c0-1.6,0.9-3.2,2.3-4.1l0.7,1c-1,0.7-1.7,1.8-1.7,3.1c0,0.5,0.1,1.1,0.4,1.6L15.6,22.1z"/>
		<path class="st5" d="M22.6,24.1l-0.7-1c0.3-0.2,0.5-0.4,0.8-0.7l0.9,0.8C23.4,23.6,23,23.9,22.6,24.1z M24.4,22.1l-1-0.5
			c0.2-0.5,0.4-1,0.4-1.6c0-1.3-0.6-2.4-1.7-3.1l0.7-1c1.4,0.9,2.3,2.4,2.3,4.1C24.9,20.8,24.7,21.5,24.4,22.1z"/>
		<path class="st5" d="M19.4,13.7h1.2v3.9h-1.2V13.7z"/>
	</g>
</g>
</svg>
