<?xml version="1.0" encoding="utf-8"?>
<!-- Generator: Adobe Illustrator 24.0.1, SVG Export Plug-In . SVG Version: 6.00 Build 0)  -->
<svg version="1.1" id="Layer_1" xmlns="http://www.w3.org/2000/svg" xmlns:xlink="http://www.w3.org/1999/xlink" x="0px" y="0px"
	 viewBox="0 0 40 40" style="enable-background:new 0 0 40 40;" xml:space="preserve">
<style type="text/css">
	.st0{fill:#EDEBED;}
	.st1{fill:#DBD9DC;}
	.st2{fill:#FFFFFF;}
</style>
<g>
	<path class="st0" d="M35.6,32.9H4.4c-2.1,0-3.8-1.7-3.8-3.8V10.8c0-2.1,1.7-3.8,3.8-3.8h31.2c2.1,0,3.8,1.7,3.8,3.8v18.3
		C39.4,31.2,37.7,32.9,35.6,32.9z"/>
	<g>
		<path class="st1" d="M4.4,26.7V7.1c-2.1,0-3.8,1.7-3.8,3.8v18.3c0,2.1,1.7,3.8,3.8,3.8h31.2c2.1,0,3.8-1.7,3.8-3.8H6.9
			C5.5,29.2,4.4,28,4.4,26.7z"/>
		<circle class="st1" cx="18.1" cy="22.2" r="6.2"/>
	</g>
	<circle class="st2" cx="20" cy="20.3" r="6.2"/>
	<path d="M35.7,6.5H4.3C1.9,6.5,0,8.4,0,10.8v18.4c0,2.4,1.9,4.3,4.3,4.3h31.3c2.4,0,4.3-1.9,4.3-4.3V10.8C40,8.4,38.1,6.5,35.7,6.5
		z M38.8,29.2c0,1.7-1.4,3.2-3.2,3.2H4.3c-1.7,0-3.2-1.4-3.2-3.2V10.8c0-1.8,1.4-3.2,3.2-3.2h31.3c1.7,0,3.2,1.4,3.2,3.2L38.8,29.2
		L38.8,29.2z"/>
	<path d="M13.2,20.3c0,3.8,3.1,6.8,6.8,6.8s6.8-3.1,6.8-6.8s-3.1-6.8-6.8-6.8S13.2,16.5,13.2,20.3z M25.7,20.3
		c0,3.1-2.5,5.7-5.7,5.7s-5.7-2.5-5.7-5.7s2.5-5.7,5.7-5.7S25.7,17.2,25.7,20.3z"/>
	<path d="M19.5,16.6v1.2c0,0.3,0.2,0.6,0.5,0.6c0.4,0,0.7-0.2,0.7-0.6v-1.2c0-0.3-0.2-0.6-0.5-0.6C19.8,15.9,19.5,16.2,19.5,16.6z"
		/>
</g>
</svg>
