<?xml version="1.0" encoding="utf-8"?>
<!-- Generator: Adobe Illustrator 24.0.1, SVG Export Plug-In . SVG Version: 6.00 Build 0)  -->
<svg version="1.1" id="Layer_1" xmlns="http://www.w3.org/2000/svg" xmlns:xlink="http://www.w3.org/1999/xlink" x="0px" y="0px"
	 viewBox="0 0 40 40" style="enable-background:new 0 0 40 40;" xml:space="preserve">
<style type="text/css">
	.st0{fill:#A8D8FF;}
	.st1{fill:#EFEFEF;}
	.st2{fill:#DBEFFF;}
</style>
<g>
	<circle class="st0" cx="20" cy="20" r="11.3"/>
	<path class="st1" d="M2.3,31.8L31.7,2.3c0.5-0.5,1.4-0.5,1.9,0l4.1,4.1c0.5,0.5,0.5,1.4,0,1.9L8.3,37.8c-0.5,0.5-1.4,0.5-1.9,0
		l-4.1-4.1C1.8,33.1,1.8,32.3,2.3,31.8z"/>
	<path class="st2" d="M5.3,28.7L28,6l6,6L11.3,34.7L5.3,28.7z"/>
	<path d="M38.3,6l1.5-1.5l-0.9-0.9l-1.5,1.5l-2.4-2.4l1.5-1.5l-0.9-0.9L34,1.8c-0.8-0.7-2-0.6-2.7,0.1L1.8,31.3
		C1.1,32,1,33.2,1.7,34l-1.5,1.5l0.9,0.9L2.7,35l2.4,2.4l-1.5,1.5l0.9,0.9L6,38.3C6.8,39,8,39,8.7,38.2L38.2,8.8
		C38.9,8,39,6.8,38.3,6L38.3,6z M28,7l5.1,5.1L11.3,33.8l-5.1-5.1L28,7z M7.8,37.3c-0.3,0.3-0.7,0.3-0.9,0l-4.1-4.1
		c-0.3-0.3-0.3-0.7,0-0.9l2.6-2.6l5.1,5.1L7.8,37.3z M37.3,7.8L34,11.1L28.9,6l3.3-3.3c0.3-0.3,0.7-0.3,0.9,0l4.1,4.1
		C37.5,7.2,37.5,7.6,37.3,7.8z"/>
	<path d="M19.3,0h1.3v3.3h-1.3V0z"/>
	<path d="M5.4,6.4l0.9-0.9l2.4,2.4L7.7,8.7L5.4,6.4z"/>
	<path d="M0,19.3h3.3v1.3H0V19.3z"/>
	<path d="M19.3,36.7h1.3V40h-1.3V36.7z"/>
	<path d="M31.3,32.3l0.9-0.9l2.4,2.4l-0.9,0.9L31.3,32.3z"/>
	<path d="M36.7,19.3H40v1.3h-3.3V19.3z"/>
	<path d="M31.9,18.6l-1.3,0.2c0,0.4,0.1,0.8,0.1,1.3c0,5.9-4.8,10.7-10.7,10.7c-0.4,0-0.8,0-1.3-0.1L18.6,32
		c6.6,0.8,12.6-3.9,13.3-10.5C32,21,32,20.5,32,20C32,19.6,32,19.1,31.9,18.6L31.9,18.6z"/>
	<path d="M8.1,21.4l1.3-0.2c0-0.4-0.1-0.8-0.1-1.3c0-5.9,4.8-10.7,10.7-10.7c0.4,0,0.8,0,1.3,0.1l0.2-1.3
		C14.8,7.3,8.9,12.1,8.1,18.6C8,19.1,8,19.6,8,20C8,20.5,8,21,8.1,21.4z"/>
</g>
</svg>
