<?xml version="1.0" encoding="utf-8"?>
<!-- Generator: Adobe Illustrator 24.0.1, SVG Export Plug-In . SVG Version: 6.00 Build 0)  -->
<svg version="1.1" id="Layer_1" xmlns="http://www.w3.org/2000/svg" xmlns:xlink="http://www.w3.org/1999/xlink" x="0px" y="0px"
	 viewBox="0 0 40 40" style="enable-background:new 0 0 40 40;" xml:space="preserve">
<style type="text/css">
	.st0{fill:#67E5DD;}
	.st1{fill:#FFD517;}
</style>
<g>
	<g>
		<g>
			<g>
				<g>
					<rect x="22.3" y="14.5" width="0.1" height="0.1"/>
					<path d="M39.8,23.3c-3.7-4.1-8.5-7-13.8-8.2c-0.1-3-2.3-5.5-5.2-5.8V3.3c0-0.4-0.3-0.7-0.7-0.8c-0.5-0.1-0.9,0.3-0.9,0.8v6
						c-2.9,0.4-5.2,2.8-5.2,5.8c-1.7,0.4-3.4,1-5,1.7c-3.4,1.5-6.3,3.7-8.8,6.5c-0.3,0.3-0.3,0.7,0,1.1c0.1,0.2,0.4,0.3,0.6,0.3
						l13.7,0c0,0.2,0,0.3,0,0.5c0,3,2.5,5.5,5.5,5.5c3,0,5.5-2.5,5.5-5.5c0-0.2,0-0.3,0-0.5l13.7,0c0.2,0,0.4-0.1,0.6-0.3
						C40.1,24,40.1,23.6,39.8,23.3z M20,29c-2.2,0-3.9-1.8-3.9-3.9c0-0.2,0-0.3,0-0.5h7.8c0,0.2,0,0.3,0,0.5
						C23.9,27.2,22.2,29,20,29z M2.7,23c4.6-4.5,10.9-7,17.4-7c0.4,0,0.7-0.3,0.8-0.7c0.1-0.5-0.3-0.9-0.8-0.9c-1.5,0-3,0.1-4.4,0.4
						c0.2-2.2,2.1-4,4.4-4c2.4,0,4.4,2,4.4,4.4c0,0.1,0,0.3,0,0.4c0,0,0,0,0,0c0,0.1,0,0.2,0,0.2c0,0,0,0,0,0.1c0,0,0,0,0,0
						c0,0,0,0,0,0.1c0,0,0,0,0,0c0,0,0,0,0,0.1c0,0,0,0,0,0c0,0,0,0,0,0c0,0,0,0,0,0c0,0,0,0,0,0c0,0,0,0,0,0c0,0,0,0,0,0
						c0,0,0,0,0,0c0,0,0,0,0,0c0,0,0,0,0,0c0,0,0,0,0,0c0,0,0,0,0.1,0c0,0,0,0,0,0c0,0,0,0,0.1,0c0.1,0,0.1,0.1,0.2,0.1c0,0,0,0,0,0
						c4.7,0.9,8.9,3.2,12.4,6.5L2.7,23L2.7,23z"/>
					<path d="M22.3,14.5l-0.1,0.8L22.3,14.5C22.3,14.5,22.3,14.5,22.3,14.5c-0.4,0-0.8,0.3-0.9,0.7c0,0.4,0.3,0.8,0.7,0.9
						c0,0,0,0,0.1,0c0,0,0,0,0,0c0.4,0,0.8-0.3,0.8-0.7C23.1,14.9,22.8,14.5,22.3,14.5z"/>
					<path d="M19.2,33.2v3.5c0,0.4,0.3,0.7,0.7,0.8c0.5,0.1,0.9-0.3,0.9-0.8v-3.6c0-0.5-0.4-0.8-0.9-0.8
						C19.5,32.4,19.2,32.8,19.2,33.2z"/>
					<path d="M12.5,29.9L9,33.4c-0.3,0.3-0.3,0.8,0,1.1c0.2,0.2,0.4,0.2,0.6,0.2c0.2,0,0.4-0.1,0.6-0.2l3.5-3.5
						c0.3-0.3,0.3-0.8,0-1.1C13.3,29.6,12.8,29.6,12.5,29.9z"/>
					<path d="M29.1,31.4c-0.3-0.3-0.8-0.3-1.1,0c-0.3,0.3-0.3,0.8,0,1.1l2,2c0.2,0.2,0.4,0.2,0.6,0.2c0.2,0,0.4-0.1,0.6-0.2
						c0.3-0.3,0.3-0.8,0-1.1L29.1,31.4z"/>
					<path d="M27.5,29.9L27.5,29.9c-0.3-0.3-0.8-0.3-1.1,0c-0.3,0.3-0.3,0.8,0,1.1l0,0c0.2,0.2,0.4,0.2,0.6,0.2
						c0.2,0,0.4-0.1,0.6-0.2C27.8,30.7,27.8,30.2,27.5,29.9z"/>
				</g>
			</g>
		</g>
	</g>
	<g>
		<g>
			<g>
				<g>
					<g>
						<rect x="22.3" y="14.5" width="0.1" height="0.1"/>
						<path class="st0" d="M2.7,23c4.6-4.5,10.9-7,17.4-7c0.4,0,0.7-0.3,0.8-0.7c0.1-0.5-0.3-0.9-0.8-0.9c-1.5,0-3,0.1-4.4,0.4
							c0.2-2.2,2.1-4,4.4-4c2.4,0,4.4,2,4.4,4.4c0,0.1,0,0.3,0,0.4c0,0,0,0,0,0c0,0.1,0,0.2,0,0.2c0,0,0,0,0,0.1c0,0,0,0,0,0
							c0,0,0,0,0,0.1c0,0,0,0,0,0c0,0,0,0,0,0.1c0,0,0,0,0,0c0,0,0,0,0,0c0,0,0,0,0,0c0,0,0,0,0,0c0,0,0,0,0,0c0,0,0,0,0,0
							c0,0,0,0,0,0c0,0,0,0,0,0c0,0,0,0,0,0c0,0,0,0,0,0c0,0,0,0,0.1,0c0,0,0,0,0,0c0,0,0,0,0.1,0c0.1,0,0.1,0.1,0.2,0.1
							c0,0,0,0,0,0c4.7,0.9,8.9,3.2,12.4,6.5L2.7,23L2.7,23z"/>
					</g>
				</g>
			</g>
		</g>
		<path class="st1" d="M20,29c-2.2,0-3.9-1.8-3.9-3.9c0-0.2,0-0.3,0-0.5h7.8c0,0.2,0,0.3,0,0.5C23.9,27.2,22.2,29,20,29z"/>
	</g>
</g>
</svg>
