<?xml version="1.0" encoding="utf-8"?>
<!-- Generator: Adobe Illustrator 24.0.1, SVG Export Plug-In . SVG Version: 6.00 Build 0)  -->
<svg version="1.1" id="Layer_1" xmlns="http://www.w3.org/2000/svg" xmlns:xlink="http://www.w3.org/1999/xlink" x="0px" y="0px"
	 viewBox="0 0 40 40" style="enable-background:new 0 0 40 40;" xml:space="preserve">
<style type="text/css">
	.st0{fill:#F8EC7D;}
	.st1{fill:#E48E66;}
</style>
<path d="M34.9,25.7l-4.5-23c-0.3-1.5-1.7-2.7-3.3-2.7L12.6,0c-1.6,0-3,1.1-3.3,2.6L4.5,25.6c-0.1,0.2,0,0.5,0.2,0.7
	c0.2,0.2,0.7,0.3,0.7,0.3l11.8,0.1l-0.4,4.9c-0.2,1.9-1.8,3.4-3.8,3.4c-1.9,0-3.4,1.5-3.4,3.3l0,0.8c0,0.5,0.4,0.8,0.8,0.8L28.9,40
	c0.5,0,0.9-0.4,0.9-0.8l0-0.8c0-1.8-1.5-3.3-3.4-3.4c-1.9,0-3.6-1.5-3.7-3.4l-0.4-4.9l5.9,0l0,2.7c-0.5,0.3-0.9,0.8-0.9,1.4
	c0,0.9,0.7,1.7,1.7,1.7c0.9,0,1.7-0.7,1.7-1.7c0-0.6-0.3-1.1-0.8-1.4l0-2.7l4.2,0c0.2,0,0.5-0.1,0.7-0.3
	C34.9,26.2,34.9,26,34.9,25.7z M26.4,36.6c0.9,0,1.7,0.8,1.7,1.7l-16.9-0.1c0-0.9,0.8-1.7,1.7-1.6c2.8,0,5.2-2.1,5.4-4.9l0.5-5.1
	l1.8,0l0.4,5.1C21.2,34.4,23.6,36.6,26.4,36.6z M6.4,24.9l4.6-22c0.2-0.8,0.9-1.3,1.7-1.3l14.4,0.1c0.8,0,1.5,0.6,1.6,1.3l4.3,22
	L6.4,24.9z"/>
<path class="st0" d="M33.1,25.1L6.4,24.9l4.6-22c0.2-0.8,0.9-1.3,1.7-1.3l14.4,0.1c0.8,0,1.5,0.6,1.6,1.3L33.1,25.1z"/>
<path class="st1" d="M26.4,36.6c0.9,0,1.7,0.8,1.7,1.7l-16.9-0.1c0-0.9,0.8-1.7,1.7-1.6c2.8,0,5.2-2.1,5.4-4.9l0.5-5.1l1.8,0
	l0.4,5.1C21.2,34.4,23.6,36.6,26.4,36.6z"/>
</svg>
