<?xml version="1.0" encoding="utf-8"?>
<!-- Generator: Adobe Illustrator 24.0.1, SVG Export Plug-In . SVG Version: 6.00 Build 0)  -->
<svg version="1.1" id="Layer_1" xmlns="http://www.w3.org/2000/svg" xmlns:xlink="http://www.w3.org/1999/xlink" x="0px" y="0px"
	 viewBox="0 0 40 40" style="enable-background:new 0 0 40 40;" xml:space="preserve">
<style type="text/css">
	.st0{fill:#E5ECEC;}
	.st1{fill:#88888D;}
	.st2{fill:#FF9C43;}
	.st3{fill:#FE7829;}
</style>
<g>
	<g>
		<g>
			<path class="st0" d="M14.7,39.6h10.6h-1.8c-2,0-3.5-1.6-3.5-3.5l0,0l0,0l0,0c0,2-1.6,3.5-3.5,3.5H14.7z"/>
		</g>
		<g>
			<path class="st0" d="M24.1,15.4v1.8h-0.6c-1,0-1.7,0.8-1.7,1.7l0,0h-3.5l0,0c0-1-0.8-1.7-1.7-1.7h-0.8v-1.8H24.1z"/>
		</g>
		<g>
			<rect x="15.9" y="15.4" class="st1" width="8.2" height="1.8"/>
		</g>
		<g>
			<polyline class="st2" points="30.6,12.9 28.9,0.6 11.1,0.6 9.3,12.9 			"/>
		</g>
		<g>
			<polygon class="st3" points="11.1,0.6 9.4,12.9 12.2,12.9 13.9,0.6 			"/>
		</g>
		<g>
			<rect x="7.5" y="13" class="st2" width="24.8" height="2.4"/>
		</g>
		<g>
			<rect x="7.5" y="13" class="st3" width="4" height="2.4"/>
		</g>
		<g>
			<path d="M33,12.4h-1.8L29.4,0H10.6L8.8,12.4H7v3.5h5.9v0.6h1.2v-0.6h1.2v1.8h1.2c0.7,0,1.2,0.5,1.2,1.2v0.6h1.8v0.5h1.2v-0.5h1.8
				v-0.6c0-0.7,0.5-1.2,1.2-1.2h1.2v-1.8h1.2v0.6h1.2v-0.6H33V12.4z M11.6,1.2h16.7L30,12.4H10L11.6,1.2z M23.5,16.5
				c-1.1,0-2,0.8-2.3,1.8h-2.5c-0.3-1-1.2-1.8-2.3-1.8v-0.6h3v0.6h1.2v-0.6h2.9V16.5z M31.8,14.8H8.2v-1.2h23.6V14.8z"/>
			<rect x="11.7" y="10.1" width="16.6" height="1.2"/>
			<polygon points="19.4,20 19.4,34.9 20.6,34.9 20.6,23.6 21.8,23.6 21.8,22.5 20.6,22.5 20.6,20 			"/>
			<path d="M20.5,36.1h-1.2c0,1.6-1.3,3-3,3h-1.7v1.2h10.7V39h-1.8C21.9,39,20.5,37.7,20.5,36.1z M19.3,39c0.3-0.2,0.5-0.5,0.7-0.8
				c0.2,0.3,0.4,0.6,0.7,0.8H19.3z"/>
			<polygon points="24.1,22.5 22.9,22.5 22.9,23.6 24.1,23.6 24.1,24.8 25.3,24.8 25.3,21.3 24.1,21.3 			"/>
		</g>
	</g>
</g>
</svg>
