<?xml version="1.0" encoding="utf-8"?>
<!-- Generator: Adobe Illustrator 24.0.1, SVG Export Plug-In . SVG Version: 6.00 Build 0)  -->
<svg version="1.1" id="Layer_1" xmlns="http://www.w3.org/2000/svg" xmlns:xlink="http://www.w3.org/1999/xlink" x="0px" y="0px"
	 viewBox="0 0 40 40" style="enable-background:new 0 0 40 40;" xml:space="preserve">
<style type="text/css">
	.st0{fill:#485B66;}
	.st1{fill:#42535C;}
	.st2{fill:#F2484B;}
	.st3{fill:#C73636;}
	.st4{fill:#FFCB75;}
	.st5{fill:#FFA84A;}
</style>
<g>
	<g>
		<path class="st0" d="M18.1,36.3c0.2,0,0.4,0,0.5-0.1c0.6-0.3,0.8-1,0.5-1.6c0-0.1-2.3-4.6-3.1-10.4c-0.5-3.3-0.4-6.4,0.3-9.1
			c0.8-3.3,2.6-6.1,5.1-8.3C22,6.4,22,5.7,21.6,5.2c-0.4-0.5-1.2-0.5-1.7-0.1c-3,2.5-4.9,5.8-5.9,9.6c-0.8,3-0.9,6.4-0.4,10
			c0.9,6.1,3.2,10.8,3.3,11C17.2,36.1,17.6,36.3,18.1,36.3z"/>
		<path class="st0" d="M5,39.5h24.5c0.6,0,1.2-0.5,1.2-1.2v0c0-0.6-0.5-1.2-1.2-1.2H5c-0.6,0-1.2,0.5-1.2,1.2v0
			C3.8,38.9,4.3,39.5,5,39.5z"/>
	</g>
	<path class="st1" d="M3.9,38.1c0.1-0.6,0.6-1,1.2-1h2.3c-0.6,0-1.2,0.5-1.2,1.2s0.5,1.2,1.2,1.2H5C4.3,39.5,3.8,38.9,3.9,38.1z"/>
	<path class="st2" d="M18.4,4.3c0,0.9,0.4,1.9,1.1,2.6c0.5,0.5,0.9,1,1.2,1.6l3,4.9l1.5,2.4l8.3-8.3l-2.4-1.5l-4.9-3
		c-0.6-0.3-1.1-0.7-1.6-1.2C23.9,1,23,0.6,22.1,0.6S20.2,1,19.5,1.7C18.8,2.4,18.4,3.3,18.4,4.3z"/>
	<path class="st3" d="M19.5,1.7c0.7-0.7,1.6-1.1,2.6-1.1c0.1,0,0.3,0,0.4,0c-0.2,0.1-0.4,0.3-0.6,0.5c-0.7,0.7-1.1,1.6-1.1,2.6
		c0,0.9,0.4,1.9,1.1,2.6c0.5,0.5,0.9,1,1.2,1.6l3,4.9l0.8,1.3l-1.7,1.7l-1.5-2.4l-3-4.9c-0.3-0.6-0.7-1.1-1.2-1.6
		c-0.7-0.7-1.1-1.6-1.1-2.6C18.4,3.3,18.8,2.4,19.5,1.7z"/>
	<path class="st2" d="M9.8,37.1h14.8v0c0-2.2-1.7-3.9-3.9-3.9h-7C11.6,33.2,9.8,35,9.8,37.1L9.8,37.1L9.8,37.1z"/>
	<path class="st3" d="M13.8,33.2h2.3c-2.2,0-3.9,1.7-3.9,3.9l0,0H9.9l0,0C9.9,35,11.6,33.2,13.8,33.2z"/>
	<polygon class="st4" points="23.7,13.3 25.2,15.7 26.9,14 33.5,7.4 31.1,5.9 25.4,11.6 	"/>
	<polygon class="st5" points="23.7,13.3 25.2,15.7 26.9,14 26.1,12.7 25.4,11.6 	"/>
	<path d="M4,36.7C2.5,38.2,3.6,40,5,40h25.1c0.2,0,0.3-0.1,0.4-0.2c1.5-1.5,0.4-3.3-1-3.3h-4.3c-0.1-0.7-0.3-1.3-0.7-1.9
		c-0.3-0.4-1-0.4-1.1,0.3c0,0.1,0,0.1,0,0.2c0.3,0.4,0.5,0.9,0.6,1.4H10.5c0.3-1.6,1.6-2.7,3.3-2.7l0,0c0,0,0,0,0,0c0,0,0,0,0,0h7
		c0,0,0,0,0,0c0,0,0,0,0,0h0c0.4,0,0.8,0.1,1.1,0.2c0.3,0.1,0.7-0.1,0.8-0.5c0-0.3-0.1-0.5-0.4-0.6c-0.5-0.2-1-0.3-1.5-0.3h-1.9
		c-0.7-1.7-1.8-4.9-2.3-8.5c-0.5-3.2-0.4-6.2,0.3-8.8c0.6-2.5,1.8-4.7,3.4-6.5l3,4.8c0,0,0,0,0,0l1.5,2.4c0.1,0.2,0.3,0.3,0.4,0.3
		c0,0,0,0,0.1,0c0.2,0,0.3-0.1,0.4-0.2l8.3-8.3c0.1-0.1,0.2-0.3,0.2-0.5c0-0.2-0.1-0.3-0.3-0.4L29.2,4c-0.3-0.2-0.6-0.1-0.8,0.2
		c-0.2,0.3-0.1,0.6,0.2,0.8l1.6,1l-6.3,6.3L21.2,8c-0.4-0.6-0.8-1.1-1.3-1.7c0,0,0,0,0,0c-0.2-0.2-0.4-0.4-0.5-0.7c0,0,0,0,0,0
		C19.2,5.2,19,4.7,19,4.2c0-0.9,0.4-1.8,1.2-2.4c0.4-0.3,0.9-0.5,1.5-0.6c1-0.1,1.9,0.2,2.5,0.9c0,0,0,0,0,0
		c0.5,0.5,1.1,0.9,1.6,1.3l0.5,0.3c0.3,0.2,0.7,0.1,0.9-0.3c0.1-0.3,0-0.6-0.3-0.7l-0.5-0.3c-0.5-0.3-1-0.7-1.5-1.1
		c-0.8-0.8-1.9-1.2-3-1.2c-1.1,0-2.2,0.4-3,1.2c-0.8,0.8-1.2,1.9-1.2,3c0,0.6,0.1,1.1,0.3,1.6c-1.4,1.4-2.5,3-3.3,4.8
		c-0.1,0.3,0,0.6,0.3,0.8c0.1,0,0.2,0.1,0.3,0.1c0.2,0,0.4-0.1,0.5-0.3c0.8-1.5,1.7-3,2.9-4.2C18.9,7,19,7.1,19.1,7.2
		c0.2,0.2,0.3,0.4,0.5,0.6c-1.9,2-3.2,4.5-3.9,7.2c-0.7,2.8-0.8,5.9-0.3,9.3c0.5,3.4,1.5,6.4,2.2,8.3h-1.3c-0.7-1.9-1.6-4.8-2.1-8.1
		c-0.5-3.6-0.4-6.8,0.3-9.8c0.1-0.5,0.2-0.9,0.4-1.3c0.1-0.3-0.1-0.7-0.4-0.8c-0.3-0.1-0.6,0.1-0.7,0.4c-0.2,0.5-0.3,0.9-0.4,1.4
		c-0.8,3.1-0.9,6.5-0.4,10.2c0.5,3.1,1.3,5.9,2,7.9h-1.3c-2.3,0-4.2,1.7-4.4,3.9H4.4C4.3,36.5,4.1,36.6,4,36.7z M25.3,14.8l-0.9-1.4
		l6.7-6.7l1.4,0.9L25.3,14.8z M5,37.7L5,37.7h24.5l0,0c0.3,0,0.6,0.3,0.6,0.6c0,0.3-0.3,0.6-0.6,0.6H5.1c-0.3,0-0.6-0.2-0.6-0.5
		C4.4,38,4.7,37.7,5,37.7z"/>
	<path d="M33,14.2l1.1,1.1c0.2,0.2,0.2,0.6,0,0.8c-0.1,0.1-0.3,0.2-0.4,0.2c-0.2,0-0.3-0.1-0.4-0.2L32.1,15c-0.2-0.2-0.2-0.6,0-0.8
		C32.4,13.9,32.7,13.9,33,14.2z"/>
	<path d="M29.5,18.7c-0.3,0-0.5-0.2-0.6-0.4l-0.4-1.5c-0.1-0.3,0.1-0.6,0.4-0.7c0.3-0.1,0.6,0.1,0.7,0.4L30,18
		c0.1,0.3-0.1,0.6-0.4,0.7C29.6,18.7,29.5,18.7,29.5,18.7z"/>
	<path d="M34,10.9c0.1-0.3,0.4-0.5,0.7-0.4l1.5,0.4c0.3,0.1,0.5,0.4,0.4,0.7c-0.1,0.3-0.3,0.4-0.6,0.4c-0.1,0-0.1,0-0.2,0l-1.5-0.4
		C34.1,11.6,34,11.2,34,10.9z"/>
</g>
</svg>
