<?xml version="1.0" encoding="utf-8"?>
<!-- Generator: Adobe Illustrator 24.0.1, SVG Export Plug-In . SVG Version: 6.00 Build 0)  -->
<svg version="1.1" id="Layer_1" xmlns="http://www.w3.org/2000/svg" xmlns:xlink="http://www.w3.org/1999/xlink" x="0px" y="0px"
	 viewBox="0 0 40 40" style="enable-background:new 0 0 40 40;" xml:space="preserve">
<style type="text/css">
	.st0{fill:#607D8B;}
	.st1{fill:#CFD8DC;}
	.st2{fill:#37474F;}
	.st3{fill:#0377BC;}
	.st4{fill:#02A9F4;}
</style>
<g>
	<path class="st0" d="M2,5.3h36c0.7,0,1.3,0.6,1.3,1.3v4.7c0,0.7-0.6,1.3-1.3,1.3H2c-0.7,0-1.3-0.6-1.3-1.3V6.7
		C0.7,5.9,1.3,5.3,2,5.3z"/>
	<path class="st1" d="M2,5.3h33.3c0.7,0,1.3,0.6,1.3,1.3v4.7c0,0.7-0.6,1.3-1.3,1.3H2c-0.7,0-1.3-0.6-1.3-1.3V6.7
		C0.7,5.9,1.3,5.3,2,5.3z"/>
	<path d="M38,13.3H2c-1.1,0-2-0.9-2-2V6.7c0-1.1,0.9-2,2-2h36c1.1,0,2,0.9,2,2v4.7C40,12.4,39.1,13.3,38,13.3z M2,6
		C1.6,6,1.3,6.3,1.3,6.7v4.7C1.3,11.7,1.6,12,2,12h36c0.4,0,0.7-0.3,0.7-0.7V6.7C38.7,6.3,38.4,6,38,6H2z"/>
	<path class="st0" d="M38,12.7v4c0,9.9-8.1,18-18,18l0,0c-0.4,0-0.9,0-1.3-0.1C9.3,33.9,2,26.1,2,16.7v-4H38z"/>
	<path class="st1" d="M35.3,12.7v4c0,9.4-7.3,17.2-16.7,17.9C9.3,33.9,2,26.1,2,16.7v-4H35.3z"/>
	<path d="M20,35.3C9.7,35.3,1.3,27,1.3,16.7v-4C1.3,12.3,1.6,12,2,12h36c0.4,0,0.7,0.3,0.7,0.7v4C38.7,27,30.3,35.3,20,35.3z
		 M2.7,13.3v3.3C2.7,26.2,10.4,34,20,34s17.3-7.8,17.3-17.3v-3.3L2.7,13.3L2.7,13.3z"/>
	<circle class="st2" cx="20" cy="25.3" r="6"/>
	<path d="M20,32c-3.7,0-6.7-3-6.7-6.7s3-6.7,6.7-6.7s6.7,3,6.7,6.7S23.7,32,20,32z M20,20c-2.9,0-5.3,2.4-5.3,5.3s2.4,5.3,5.3,5.3
		s5.3-2.4,5.3-5.3S22.9,20,20,20z"/>
	<path class="st3" d="M23.3,25.3c0,1.8-1.5,3.3-3.3,3.3c-0.5,0-0.9-0.1-1.3-0.3c-1.7-0.7-2.5-2.7-1.7-4.4c0.3-0.8,1-1.4,1.7-1.7
		c0.4-0.2,0.9-0.3,1.3-0.3C21.8,22,23.3,23.5,23.3,25.3z"/>
	<path class="st4" d="M20.7,25.3c0,1.3-0.8,2.5-2,3.1c-1.7-0.7-2.5-2.7-1.7-4.4c0.3-0.8,1-1.4,1.7-1.7C19.9,22.8,20.7,24,20.7,25.3z
		"/>
	<path d="M20,29.3c-2.2,0-4-1.8-4-4c0-2.2,1.8-4,4-4s4,1.8,4,4S22.2,29.3,20,29.3z M20,22.7c-1.5,0-2.7,1.2-2.7,2.7S18.5,28,20,28
		s2.7-1.2,2.7-2.7S21.5,22.7,20,22.7z"/>
	<path d="M4.7,16C4.3,16,4,15.7,4,15.3s0.3-0.7,0.7-0.7l0,0c0.4,0,0.7,0.3,0.7,0.7S5,16,4.7,16z"/>
	<path d="M12.7,16h-6C6.3,16,6,15.7,6,15.3s0.3-0.7,0.7-0.7h6c0.4,0,0.7,0.3,0.7,0.7S13,16,12.7,16z"/>
</g>
</svg>
