<svg width="40" height="40" viewBox="0 0 40 40" fill="none" xmlns="http://www.w3.org/2000/svg">
<path d="M39.3274 20C39.3274 30.6694 30.6695 39.3273 20.0001 39.3273C9.33077 39.3273 0.672852 30.6761 0.672852 20C0.672852 9.32392 9.33077 0.672729 20.0001 0.672729C30.6695 0.672729 39.3274 9.32392 39.3274 20Z" fill="#A5A5A5"/>
<path d="M20 40C8.9741 40 0 31.0326 0 20C0 8.96737 8.9741 0 20 0C31.0259 0 40 8.9741 40 20C40 31.0259 31.0326 40 20 40ZM20 1.34544C9.71409 1.34544 1.34544 9.71409 1.34544 20C1.34544 30.2859 9.71409 38.6546 20 38.6546C30.2859 38.6546 38.6546 30.2859 38.6546 20C38.6546 9.71409 30.2859 1.34544 20 1.34544Z" fill="black"/>
<path d="M19.9998 28.2812C23.8074 28.2812 26.9019 25.1934 26.9019 21.3791C26.9019 17.5647 19.9998 11.0259 19.9998 11.0259C19.9998 11.0259 13.0977 17.5715 13.0977 21.3791C13.0977 25.1934 16.1922 28.2812 19.9998 28.2812Z" fill="#C2C3C4"/>
<path d="M19.9997 4.81671C28.3751 4.81671 35.1898 11.6179 35.1898 20.0068C35.1898 28.3821 28.3751 35.1968 19.9997 35.1968C11.6243 35.1968 4.81641 28.3754 4.81641 20C4.81641 11.6179 11.6243 4.81671 19.9997 4.81671ZM33.9385 20C33.9385 12.3041 27.6889 6.06125 19.9997 6.06125C12.3105 6.06125 6.06094 12.3041 6.06094 20C6.06094 27.6825 12.3105 33.9388 19.9997 33.9388C27.6889 33.9388 33.9385 27.6825 33.9385 20Z" fill="black"/>
<path d="M33.9391 20C33.9391 12.3041 27.6895 6.06122 20.0003 6.06122C12.3111 6.06122 6.06152 12.3041 6.06152 20C6.06152 27.6825 12.3111 33.9388 20.0003 33.9388C27.6895 33.9388 33.9391 27.6825 33.9391 20Z" fill="#EDEDED"/>
<path d="M19.9998 11.0192C19.9998 11.0192 13.0977 17.5647 13.0977 21.3723C13.0977 25.1867 16.1922 28.2745 19.9998 28.2745C23.8074 28.2745 26.9019 25.1867 26.9019 21.3723C26.9019 17.5647 19.9998 11.0192 19.9998 11.0192Z" fill="#17ACE8"/>
<path d="M19.9996 28.9539C15.822 28.9539 12.4248 25.5567 12.4248 21.3791C12.4248 17.3226 19.2462 10.8106 19.5355 10.5348L19.9996 10.0908L20.4638 10.5281C20.7531 10.8039 27.5745 17.3158 27.5745 21.3724C27.5745 25.55 24.1772 28.9539 19.9996 28.9539ZM19.9996 11.961C17.9075 14.0397 13.7702 18.7084 13.7702 21.3791C13.7702 24.8167 16.562 27.6085 19.9996 27.6085C23.4372 27.6085 26.229 24.81 26.229 21.3791C26.229 18.7017 22.0918 14.0397 19.9996 11.961Z" fill="black"/>
<path d="M20.0196 37.9078C19.5083 37.9078 19.1249 37.3562 19.4411 36.818C19.5487 36.6364 19.7505 36.5287 19.9658 36.5287H20.0398C20.3022 36.5287 20.5511 36.6835 20.652 36.9324C20.8605 37.4302 20.4972 37.9078 20.0196 37.9078Z" fill="black"/>
</svg>
