<svg width="40" height="40" viewBox="0 0 40 40" fill="none" xmlns="http://www.w3.org/2000/svg">
<g clip-path="url(#clip0)">
<path d="M38.051 21.5319C39.4215 20.1614 39.4215 17.9321 38.051 16.5616C37.7282 16.2388 37.3566 15.989 36.9607 15.8185C37.7282 14.4785 37.5394 12.7303 36.3943 11.5852C36.0653 11.2563 35.6816 11.0005 35.2674 10.8299C35.9496 9.52642 35.7669 7.84529 34.6339 6.71844C33.4705 5.55505 31.7224 5.39668 30.4067 6.15197C30.2301 5.74996 29.9804 5.3845 29.6636 5.06167C28.2871 3.68509 26.0638 3.68509 24.6933 5.06167L15.776 13.9729V11.6035C15.776 9.78833 14.2959 8.14984 12.4807 8.0402C10.4707 7.91838 8.78956 9.49596 8.74693 11.4695L7.09625 24.949C7.05361 25.3084 7.17543 25.6677 7.43126 25.9175L16.4034 34.8896C16.6227 35.1089 16.9211 35.2307 17.2318 35.2307C17.2805 35.2307 17.3292 35.2246 17.378 35.2185C22.5371 34.5607 27.3978 32.173 31.0768 28.494L38.051 21.5319ZM17.646 32.8247L9.49004 24.6688L11.0798 11.6948C11.0859 11.6461 11.0859 11.5974 11.0859 11.5547C11.0859 10.8665 11.6889 10.3122 12.3955 10.3913C12.9924 10.4584 13.431 10.9883 13.431 11.5852V16.8113C13.431 17.2864 13.7172 17.7128 14.1558 17.8955C14.5943 18.0783 15.0999 17.9747 15.4349 17.6397L26.3501 6.72453C26.8069 6.2677 27.55 6.2677 28.0069 6.72453C28.4637 7.18136 28.4637 7.92447 28.0069 8.3813L21.2336 15.1485C20.7768 15.6053 20.7768 16.3484 21.2336 16.8052C21.6904 17.2621 22.4335 17.2621 22.8904 16.8052L31.3204 8.37521C31.7772 7.91838 32.5203 7.91838 32.9772 8.37521C33.434 8.83204 33.434 9.57515 32.9772 10.032C32.6909 10.3183 24.937 18.0722 24.5471 18.462C24.0903 18.9188 24.0903 19.6619 24.5471 20.1188C25.004 20.5756 25.7471 20.5756 26.2039 20.1188L33.0746 13.2481C33.5315 12.7912 34.2746 12.7912 34.7314 13.2481C35.1882 13.7049 35.1882 14.448 34.7314 14.9048C34.4695 15.1667 28.7073 20.9289 27.8607 21.7755C27.4038 22.2324 27.4038 22.9755 27.8607 23.4323C27.8911 23.4628 27.9216 23.4871 27.952 23.5115C28.415 23.8891 29.0911 23.8587 29.5174 23.4323L34.7314 18.2184C35.2187 17.7311 36.0349 17.7615 36.4795 18.3219C36.8511 18.7909 36.7902 19.4731 36.3638 19.8995L29.42 26.8494C26.2405 30.0228 22.0803 32.1303 17.646 32.8247Z" fill="black"/>
<path d="M17.6462 32.8247L9.49023 24.6688L11.08 11.6948C11.0861 11.6461 11.0861 11.5974 11.0861 11.5547C11.0861 10.8664 11.6891 10.3122 12.3957 10.3913C12.9926 10.4583 13.4312 10.9883 13.4312 11.5852V16.8113C13.4312 17.2864 13.7174 17.7128 14.156 17.8955C14.5945 18.0783 15.1001 17.9747 15.4351 17.6397L26.3503 6.72452C26.8071 6.26769 27.5502 6.26769 28.0071 6.72452C28.4639 7.18135 28.4639 7.92446 28.0071 8.38129L21.2338 15.1485C20.777 15.6053 20.777 16.3484 21.2338 16.8052C21.6906 17.2621 22.4337 17.2621 22.8906 16.8052L31.3206 8.3752C31.7774 7.91837 32.5205 7.91837 32.9774 8.3752C33.4342 8.83203 33.4342 9.57514 32.9774 10.032C32.6911 10.3182 24.9372 18.0722 24.5473 18.462C24.0905 18.9188 24.0905 19.6619 24.5473 20.1188C25.0042 20.5756 25.7473 20.5756 26.2041 20.1188L33.0748 13.248C33.5317 12.7912 34.2748 12.7912 34.7316 13.248C35.1884 13.7049 35.1884 14.448 34.7316 14.9048C34.4697 15.1667 28.7075 20.9289 27.8609 21.7755C27.404 22.2324 27.404 22.9755 27.8609 23.4323C27.8913 23.4628 27.9218 23.4871 27.9522 23.5115C28.4152 23.8891 29.0913 23.8587 29.5176 23.4323L34.7316 18.2184C35.2189 17.7311 36.0351 17.7615 36.4797 18.3219C36.8513 18.7909 36.7904 19.4731 36.364 19.8995L29.4202 26.8494C26.2407 30.0228 22.0805 32.1303 17.6462 32.8247Z" fill="#FFC200"/>
<path d="M38.8307 28.2808C38.1851 28.2808 37.6613 28.8047 37.6613 29.4503C37.6613 33.976 33.9823 37.655 29.4566 37.655C28.8109 37.655 28.2871 38.1788 28.2871 38.8245C28.2871 39.4701 28.8109 39.9939 29.4566 39.9939C35.2736 39.9939 40.0063 35.2612 40.0063 29.4442C40.0002 28.8047 39.4764 28.2808 38.8307 28.2808Z" fill="black"/>
<path d="M32.9711 29.4564C32.9711 31.3934 31.3936 32.9709 29.4566 32.9709C28.8109 32.9709 28.2871 33.4948 28.2871 34.1404C28.2871 34.7861 28.8109 35.3099 29.4566 35.3099C32.6849 35.3099 35.3162 32.6786 35.3162 29.4503C35.3162 28.8047 34.7924 28.2808 34.1467 28.2808C33.495 28.2808 32.9711 28.8047 32.9711 29.4564Z" fill="black"/>
<path d="M10.5497 2.34506C11.1954 2.34506 11.7192 1.82123 11.7192 1.17557C11.7192 0.529922 11.1954 0 10.5497 0C4.73275 0 0 4.73275 0 10.5497C0 11.1954 0.523831 11.7192 1.16948 11.7192C1.81514 11.7192 2.33897 11.1954 2.33897 10.5497C2.34506 6.02406 6.02406 2.34506 10.5497 2.34506Z" fill="black"/>
<path d="M10.55 7.02909C11.1957 7.02909 11.7195 6.50526 11.7195 5.85961C11.7195 5.21396 11.1957 4.69012 10.55 4.69012C7.32177 4.69012 4.69043 7.32146 4.69043 10.5497C4.69043 11.1954 5.21426 11.7192 5.85991 11.7192C6.50557 11.7192 7.0294 11.1954 7.0294 10.5497C7.0294 8.60668 8.60698 7.02909 10.55 7.02909Z" fill="black"/>
</g>
<defs>
<clipPath id="clip0">
<rect width="40" height="40" fill="white"/>
</clipPath>
</defs>
</svg>
