<?xml version="1.0" encoding="utf-8"?>
<!-- Generator: Adobe Illustrator 24.0.1, SVG Export Plug-In . SVG Version: 6.00 Build 0)  -->
<svg version="1.1" id="Layer_1" xmlns="http://www.w3.org/2000/svg" xmlns:xlink="http://www.w3.org/1999/xlink" x="0px" y="0px"
	 viewBox="0 0 40 40" style="enable-background:new 0 0 40 40;" xml:space="preserve">
<style type="text/css">
	.st0{fill:#FFC200;}
</style>
<g>
	<path d="M20,33.3c-0.6,0-1.2,0.5-1.2,1.2v4.4c0,0.6,0.5,1.2,1.2,1.2c0.6,0,1.2-0.5,1.2-1.2v-4.4C21.2,33.8,20.6,33.3,20,33.3z"/>
	<path d="M13.3,31.5c-0.6-0.3-1.3-0.1-1.6,0.4l-2.1,3.7c-0.3,0.6-0.1,1.3,0.4,1.6c0.2,0.1,0.4,0.2,0.6,0.2c0.4,0,0.8-0.2,1-0.6
		l2.1-3.7C14.1,32.6,13.9,31.8,13.3,31.5z"/>
	<path d="M28.3,32c-0.3-0.6-1-0.8-1.6-0.4c-0.6,0.3-0.8,1-0.4,1.6l2.1,3.7c0.2,0.4,0.6,0.6,1,0.6c0.2,0,0.4,0,0.6-0.2
		c0.6-0.3,0.8-1,0.4-1.6L28.3,32z"/>
	<path class="st0" d="M10.9,19.8c0-4.7,3.5-8.6,8-9.2v18.4C14.5,28.4,10.9,24.6,10.9,19.8z"/>
	<path d="M20,8.9c-6,0-11,4.9-11,11c0,6,4.9,11,11,11s11-4.9,11-11C31,13.8,26.1,8.9,20,8.9z M11.4,19.8c0-4.4,3.3-8,7.5-8.5v17.1
		C14.6,27.8,11.4,24.2,11.4,19.8z M21.2,28.4V11.3c4.2,0.6,7.5,4.2,7.5,8.5S25.4,27.8,21.2,28.4z"/>
	<path d="M38.8,18.8h-4.2c-0.6,0-1.1,0.4-1.2,1c-0.1,0.7,0.5,1.3,1.2,1.3h4.2c0.6,0,1.1-0.4,1.2-1C40.1,19.4,39.5,18.8,38.8,18.8z"
		/>
	<path d="M5.4,18.8H1.2c-0.6,0-1.1,0.4-1.2,1c-0.1,0.7,0.5,1.3,1.2,1.3h4.2c0.7,0,1.2-0.6,1.2-1.3C6.5,19.2,6,18.8,5.4,18.8z"/>
	<path d="M32.7,13.8c0.2,0,0.4,0,0.6-0.2l3.6-2.1c0.6-0.3,0.8-1,0.4-1.6c-0.3-0.6-1-0.8-1.6-0.4l-3.6,2.1c-0.6,0.3-0.8,1-0.4,1.6
		C31.9,13.6,32.3,13.8,32.7,13.8z"/>
	<path d="M6.8,26.3l-3.7,2.1c-0.6,0.3-0.8,1-0.4,1.6c0.2,0.4,0.6,0.6,1,0.6c0.2,0,0.4,0,0.6-0.2L8,28.3c0.6-0.3,0.8-1,0.4-1.6
		C8.1,26.1,7.4,25.9,6.8,26.3z"/>
	<path d="M3,11.6l3.7,2.1c0.2,0.1,0.4,0.2,0.6,0.2c0.4,0,0.8-0.2,1-0.6c0.3-0.6,0.1-1.3-0.4-1.6L4.2,9.5C3.7,9.2,2.9,9.4,2.6,10
		C2.3,10.5,2.5,11.2,3,11.6z"/>
	<path d="M36.9,28.4l-3.7-2.2c-0.6-0.3-1.3-0.1-1.6,0.4c-0.3,0.6-0.1,1.3,0.4,1.6l3.7,2.2c0.2,0.1,0.4,0.2,0.6,0.2
		c0.4,0,0.8-0.2,1-0.6C37.6,29.4,37.5,28.7,36.9,28.4z"/>
	<path d="M20,6.6c0.6,0,1.2-0.5,1.2-1.2V1.2C21.2,0.5,20.6,0,20,0c-0.6,0-1.2,0.5-1.2,1.2v4.2C18.8,6,19.4,6.6,20,6.6z"/>
	<path d="M26.7,8.3c0.2,0.1,0.4,0.2,0.6,0.2c0.4,0,0.8-0.2,1-0.6l2.1-3.7c0.3-0.6,0.1-1.3-0.4-1.6c-0.6-0.3-1.3-0.1-1.6,0.4
		l-2.1,3.7C25.9,7.3,26.1,8,26.7,8.3z"/>
	<path d="M11.7,7.9c0.2,0.4,0.6,0.6,1,0.6c0.2,0,0.4,0,0.6-0.2c0.6-0.3,0.8-1,0.4-1.6l-2.1-3.7c-0.3-0.6-1-0.8-1.6-0.4
		C9.5,3,9.3,3.7,9.6,4.2L11.7,7.9z"/>
</g>
</svg>
