<?xml version="1.0" encoding="utf-8"?>
<!-- Generator: Adobe Illustrator 24.0.1, SVG Export Plug-In . SVG Version: 6.00 Build 0)  -->
<svg version="1.1" id="Layer_1" xmlns="http://www.w3.org/2000/svg" xmlns:xlink="http://www.w3.org/1999/xlink" x="0px" y="0px"
	 viewBox="0 0 40 40" style="enable-background:new 0 0 40 40;" xml:space="preserve">
<style type="text/css">
	.st0{fill:#FFFFFF;}
	.st1{fill:#FFE6B9;}
	.st2{fill:#C9F3FF;}
</style>
<g>
	<rect x="1" y="7" class="st0" width="38" height="26"/>
	<path d="M7.1,6C6.6,6.5,6.9,7.1,7.4,7.1h31.1c0.2,0,0.3,0.1,0.3,0.3v25.1c0,0.2-0.1,0.3-0.3,0.3h-3.8c-0.1,0-0.1,0-0.1,0.1
		C34.2,33.4,34.5,34,35,34h4.4c0.4,0,0.6-0.3,0.6-0.6V6.6C40,6.2,39.7,6,39.4,6H7.2C7.2,6,7.2,6,7.1,6z"/>
	<path d="M0,6.6v26.8C0,33.7,0.3,34,0.6,34h28c0.1,0,0.1,0,0.1-0.1c0.5-0.5,0.2-1.1-0.3-1.1h-27c-0.2,0-0.3-0.1-0.3-0.3V7.4
		c0-0.2,0.1-0.3,0.3-0.3h3.8c0.1,0,0.1,0,0.1-0.1C5.8,6.6,5.5,6,5,6H0.6C0.3,6,0,6.2,0,6.6z"/>
	<path d="M32.5,32.8H31c-0.3,0-0.5,0.2-0.6,0.5C30.3,33.7,30.6,34,31,34h1.6c0.4,0,0.7-0.4,0.5-0.7C33,33,32.8,32.8,32.5,32.8z"/>
	<path d="M37.1,8.3H2.9c-0.3,0-0.6,0.2-0.6,0.6v22.2c0,0.3,0.2,0.6,0.6,0.6h34.2c0.3,0,0.6-0.2,0.6-0.6V8.9
		C37.6,8.6,37.4,8.3,37.1,8.3z M3.5,30.5v-21h32.9v21H3.5z"/>
	<g>
		<path d="M27.4,22.4c0,1.8,1.5,3.3,3.3,3.3c1.8,0,3.3-1.5,3.3-3.3c0-1.8-1.5-3.3-3.3-3.3C28.8,19.1,27.4,20.6,27.4,22.4z
			 M33.4,22.4c0,1.5-1.2,2.8-2.8,2.8s-2.8-1.2-2.8-2.8c0-1.5,1.2-2.8,2.8-2.8S33.4,20.9,33.4,22.4z"/>
	</g>
	<g>
		<path d="M26.8,22.4c0,2.1,1.7,3.9,3.9,3.9s3.9-1.7,3.9-3.9c0-2.1-1.7-3.9-3.9-3.9S26.8,20.3,26.8,22.4z M33.9,22.4
			c0,1.8-1.5,3.3-3.3,3.3c-1.8,0-3.3-1.5-3.3-3.3c0-1.8,1.5-3.3,3.3-3.3C32.5,19.1,33.9,20.6,33.9,22.4z"/>
	</g>
	<path class="st1" d="M33.5,22.4c0-1.6-1.3-2.9-2.9-2.9s-2.9,1.3-2.9,2.9c0,1.6,1.3,2.9,2.9,2.9S33.5,24,33.5,22.4z"/>
	<g>
		<path d="M22.8,13.3H7.5c-0.7,0-1.3,0.6-1.3,1.3v10.7c0,0.7,0.6,1.3,1.3,1.3h15.4c0.7,0,1.3-0.6,1.3-1.3V14.6
			C24.2,13.9,23.6,13.3,22.8,13.3z M22.8,25.4H7.5c0,0-0.1,0-0.1-0.1V14.6c0,0,0-0.1,0.1-0.1h15.4c0,0,0.1,0,0.1,0.1L22.8,25.4
			C22.9,25.4,22.9,25.4,22.8,25.4z"/>
		<path class="st2" d="M22.8,25.4H7.5c0,0-0.1,0-0.1-0.1V14.6c0,0,0-0.1,0.1-0.1h15.4c0,0,0.1,0,0.1,0.1L22.8,25.4
			C22.9,25.4,22.9,25.4,22.8,25.4z"/>
		<path d="M8.8,15.8v4.4c0,0.3,0.3,0.6,0.5,0.7c0.4,0.1,0.7-0.3,0.7-0.7v-4.4c0-0.4-0.4-0.7-0.8-0.6C9,15.2,8.8,15.5,8.8,15.8z"/>
		<path d="M13.5,15.2h-0.5c-0.9,0-1.7,0.7-1.8,1.6c-0.1,0.5,0.1,0.9,0.4,1.3c-0.3,0.3-0.5,0.8-0.4,1.3c0.1,0.9,0.9,1.6,1.8,1.6h0.5
			c0.9,0,1.7-0.7,1.8-1.6c0.1-0.5-0.1-0.9-0.4-1.3c0.3-0.3,0.5-0.8,0.4-1.3C15.2,15.8,14.3,15.2,13.5,15.2z M12.9,16.4h0.7
			c0.1,0,0.3,0.1,0.4,0.2c0.2,0.3-0.1,0.7-0.4,0.7h-0.7c-0.1,0-0.3-0.1-0.4-0.2C12.3,16.8,12.5,16.4,12.9,16.4z M13.5,19.6h-0.7
			c-0.1,0-0.3-0.1-0.4-0.2c-0.2-0.3,0.1-0.7,0.4-0.7h0.7c0.1,0,0.3,0.1,0.4,0.2C14.1,19.2,13.9,19.6,13.5,19.6z"/>
		<path d="M17.7,20.9h0.7c0.9,0,1.8-0.8,1.8-1.8v-2.2c0-0.9-0.8-1.8-1.8-1.8h-0.7c-0.9,0-1.8,0.8-1.8,1.8v2.2
			C15.9,20.1,16.7,20.9,17.7,20.9z M17.7,16.5h0.7c0.3,0,0.5,0.2,0.5,0.5v2.2c0,0.3-0.2,0.5-0.5,0.5h-0.7c-0.3,0-0.5-0.2-0.5-0.5
			v-2.2C17.2,16.7,17.4,16.5,17.7,16.5z"/>
		<path d="M21.3,21.5c-0.3-0.2-0.7-0.1-0.9,0.2l-0.5,0.9l-0.4-0.5c-0.3-0.3-0.7-0.3-1,0l-0.4,0.5l-0.5-0.9c-0.2-0.3-0.6-0.4-0.9-0.2
			c-0.3,0.2-0.4,0.6-0.2,0.9l1,1.8c0.2,0.4,0.7,0.4,1.1,0.1l0.5-0.6l0.5,0.6c0.3,0.3,0.8,0.3,1.1-0.1l1-1.8
			C21.7,22.1,21.6,21.7,21.3,21.5z"/>
	</g>
</g>
</svg>
