<?xml version="1.0" encoding="utf-8"?>
<!-- Generator: Adobe Illustrator 24.0.1, SVG Export Plug-In . SVG Version: 6.00 Build 0)  -->
<svg version="1.1" id="Layer_1" xmlns="http://www.w3.org/2000/svg" xmlns:xlink="http://www.w3.org/1999/xlink" x="0px" y="0px"
	 viewBox="0 0 40 40" style="enable-background:new 0 0 40 40;" xml:space="preserve">
<style type="text/css">
	.st0{fill:#B0E7F8;}
	.st1{fill:#EFF3F3;}
	.st2{fill:#F5737F;}
	.st3{fill:#F8A2AA;}
	.st4{fill:#00CCF2;}
	.st5{fill:#FFCB7C;}
</style>
<g>
	<path class="st0" d="M39.2,31.1v4.7c0,1-0.8,1.8-1.8,1.8H13.9c-1,0-1.8-0.8-1.8-1.8V4.2c0-1,0.8-1.8,1.8-1.8h23.6
		c1,0,1.8,0.8,1.8,1.8v18.7"/>
	<path d="M39.2,27.8c-0.1,0-0.1,0-0.2,0s-0.1,0-0.1,0c0,0-0.1,0-0.1-0.1c0,0-0.1-0.1-0.1-0.1s-0.1-0.1-0.1-0.1c0,0-0.1-0.1-0.1-0.1
		c0,0,0-0.1,0-0.1c0-0.1,0-0.1,0-0.2c0-0.1,0-0.1,0-0.2c0-0.1,0-0.1,0-0.1c0,0,0-0.1,0.1-0.1c0,0,0.1-0.1,0.1-0.1
		c0,0,0.1-0.1,0.1-0.1c0,0,0.1-0.1,0.1-0.1c0,0,0.1,0,0.1,0c0.1,0,0.2,0,0.3,0c0.1,0,0.1,0,0.1,0c0,0,0.1,0,0.1,0.1
		c0,0,0.1,0.1,0.1,0.1c0,0,0.1,0.1,0.1,0.1c0,0,0.1,0.1,0.1,0.1c0,0,0,0.1,0,0.1c0,0.1,0,0.1,0,0.2c0,0.1,0,0.1,0,0.2
		c0,0,0,0.1,0,0.1c0,0,0,0.1-0.1,0.1c0,0-0.1,0.1-0.1,0.1s-0.1,0.1-0.1,0.1c0,0-0.1,0.1-0.1,0.1c0,0-0.1,0-0.1,0
		S39.3,27.8,39.2,27.8z"/>
	<path class="st1" d="M15.5,17.1h20.3v17H15.5V17.1z"/>
	<path class="st2" d="M15.5,13.4h20.3v3.7H15.5V13.4z"/>
	<path class="st3" d="M15.5,17.1h20.3v3.7H15.5V17.1z"/>
	<path class="st3" d="M15.5,9.7h20.3v3.7H15.5V9.7z"/>
	<path class="st2" d="M15.5,6h20.3v3.7H15.5V6z"/>
	<path class="st4" d="M22.7,27.6l3,4l3-4h-1.5v-4h-3.1v4H22.7z"/>
	<path d="M25.7,32.4c-0.2,0-0.5-0.1-0.6-0.3l-3-4c-0.2-0.2-0.2-0.6-0.1-0.8c0.1-0.3,0.4-0.4,0.7-0.4h0.7v-3.2c0-0.4,0.3-0.8,0.8-0.8
		h3.1c0.4,0,0.8,0.3,0.8,0.8v3.2h0.7c0.3,0,0.6,0.2,0.7,0.4c0.1,0.3,0.1,0.6-0.1,0.8l-3,4C26.1,32.2,25.9,32.4,25.7,32.4z
		 M24.2,28.4l1.4,1.9l1.4-1.9c-0.4,0-0.7-0.4-0.7-0.8v-3.2h-1.5v3.2C24.9,28,24.6,28.3,24.2,28.4z"/>
	<path d="M2.9,12c-0.2,0-0.5-0.1-0.6-0.3C2,11.3,2,10.8,2.4,10.6c1.2-0.9,2.6-1.3,4-1.3s2.9,0.5,4,1.3c0.3,0.3,0.4,0.7,0.2,1.1
		c-0.3,0.3-0.7,0.4-1.1,0.2c-0.9-0.7-2-1-3.1-1s-2.2,0.4-3.1,1C3.2,11.9,3,12,2.9,12z"/>
	<path d="M8.5,14c-0.2,0-0.3,0-0.5-0.1c-0.5-0.3-1.1-0.5-1.6-0.5c-0.6,0-1.2,0.2-1.6,0.5C4.4,14.1,4,14,3.7,13.6
		c-0.3-0.4-0.2-0.8,0.2-1.1c0.7-0.5,1.6-0.8,2.6-0.8c0.9,0,1.8,0.3,2.6,0.8c0.4,0.3,0.4,0.7,0.2,1.1C9,13.8,8.8,14,8.5,14z"/>
	<path class="st1" d="M10.7,37.6H2.2c-0.8,0-1.4-0.6-1.4-1.4V19.4c0-0.8,0.6-1.4,1.4-1.4h8.4c0.8,0,1.4,0.6,1.4,1.4v16.8
		C12.1,37,11.4,37.6,10.7,37.6z"/>
	<path class="st2" d="M9.2,23.6c0,1.5-1.2,2.8-2.8,2.8s-2.8-1.2-2.8-2.8s1.2-2.8,2.8-2.8S9.2,22.1,9.2,23.6z"/>
	<path d="M6.4,27.2c-2,0-3.5-1.6-3.5-3.5s1.6-3.5,3.5-3.5s3.5,1.6,3.5,3.5S8.4,27.2,6.4,27.2z M6.4,21.7c-1.1,0-2,0.9-2,2s0.9,2,2,2
		c1.1,0,2-0.9,2-2S7.5,21.7,6.4,21.7z"/>
	<path class="st4" d="M9.2,31.9c0,1.5-1.2,2.8-2.8,2.8s-2.8-1.2-2.8-2.8c0-1.5,1.2-2.8,2.8-2.8S9.2,30.4,9.2,31.9z"/>
	<path d="M6.4,35.5c-2,0-3.5-1.6-3.5-3.5s1.6-3.5,3.5-3.5S10,30,10,31.9C10,33.9,8.4,35.5,6.4,35.5z M6.4,29.9c-1.1,0-2,0.9-2,2
		s0.9,2,2,2c1.1,0,2-0.9,2-2S7.5,29.9,6.4,29.9z"/>
	<path class="st5" d="M7.8,18H5.1v-1.1c0-0.8,0.6-1.4,1.4-1.4s1.4,0.6,1.4,1.4V18z"/>
	<path d="M39.2,23.7c0.4,0,0.8-0.3,0.8-0.8V4.2c0-1.4-1.2-2.6-2.6-2.6H13.9c-1.4,0-2.6,1.2-2.6,2.6v13.1c-0.2-0.1-0.4-0.1-0.6-0.1
		H8.6v-0.3c0-1.2-1-2.2-2.2-2.2s-2.2,1-2.2,2.2v0.3H2.2c-1.2,0-2.2,1-2.2,2.2v16.8c0,1.2,1,2.2,2.2,2.2h8.4c0.6,0,1.1-0.2,1.5-0.6
		c0.4,0.4,1,0.6,1.7,0.6h23.6c1.4,0,2.6-1.2,2.6-2.6v-4.7c0-0.4-0.3-0.8-0.8-0.8s-0.8,0.3-0.8,0.8v4.7c0,0.6-0.4,1-1,1H13.9
		c-0.6,0-1-0.4-1-1V4.2c0-0.6,0.4-1,1-1h23.6c0.6,0,1,0.4,1,1v18.7C38.4,23.3,38.8,23.7,39.2,23.7z M5.8,16.8c0-0.3,0.3-0.6,0.6-0.6
		c0.3,0,0.6,0.3,0.6,0.6v0.3H5.8V16.8z M11.3,36.2c0,0.4-0.3,0.6-0.6,0.6H2.2c-0.4,0-0.6-0.3-0.6-0.6V19.4c0-0.4,0.3-0.6,0.6-0.6
		h8.4c0.4,0,0.6,0.3,0.6,0.6V36.2z"/>
	<path d="M15.5,5.2c-0.4,0-0.8,0.3-0.8,0.8V34c0,0.4,0.3,0.8,0.8,0.8h20.3c0.4,0,0.8-0.3,0.8-0.8V6c0-0.4-0.3-0.8-0.8-0.8H15.5z
		 M35,20H16.3v-2.2H35V20z M35,12.6H16.3v-2.2H35V12.6z M35,16.3H16.3v-2.1H35V16.3z M16.3,6.7H35v2.2H16.3V6.7z M16.3,33.3V21.6H35
		v11.7H16.3z"/>
</g>
</svg>
