<?xml version="1.0" encoding="utf-8"?>
<!-- Generator: Adobe Illustrator 24.0.1, SVG Export Plug-In . SVG Version: 6.00 Build 0)  -->
<svg version="1.1" id="Layer_1" xmlns="http://www.w3.org/2000/svg" xmlns:xlink="http://www.w3.org/1999/xlink" x="0px" y="0px"
	 viewBox="0 0 40 40" style="enable-background:new 0 0 40 40;" xml:space="preserve">
<style type="text/css">
	.st0{fill:#50B4F8;}
	.st1{fill:#2D75BB;}
	.st2{fill:#FCF05A;}
	.st3{fill:#DA1C4B;}
	.st4{fill:#F4F4E6;}
</style>
<g id="flat">
	<path class="st0" d="M11.7,40H6.2V5.5L11.7,0V40z"/>
	<path class="st1" d="M11.7,0h5.5v5.5h-5.5V0z"/>
	<circle class="st2" cx="9" cy="8.3" r="1.4"/>
	<path class="st1" d="M22.8,34.5h5.5V40h-5.5V34.5z"/>
	<circle class="st3" cx="9" cy="13.8" r="1.4"/>
	<circle class="st3" cx="9" cy="24.8" r="1.4"/>
	<circle class="st2" cx="9" cy="30.3" r="1.4"/>
	<circle class="st3" cx="9" cy="35.9" r="1.4"/>
	<circle class="st2" cx="9" cy="19.3" r="1.4"/>
	<path class="st0" d="M28.3,0h5.5v34.5L28.3,40V0z"/>
	<circle class="st2" cx="31" cy="31.7" r="1.4"/>
	<circle class="st3" cx="31" cy="26.2" r="1.4"/>
	<circle class="st3" cx="31" cy="15.2" r="1.4"/>
	<circle class="st2" cx="31" cy="9.7" r="1.4"/>
	<circle class="st3" cx="31" cy="4.1" r="1.4"/>
	<circle class="st2" cx="31" cy="20.7" r="1.4"/>
	<path class="st0" d="M22.8,0h-5.5v34.5l5.5,5.5V0z"/>
	<circle class="st3" cx="20" cy="31.7" r="1.4"/>
	<circle class="st2" cx="20" cy="26.2" r="1.4"/>
	<circle class="st2" cx="20" cy="15.2" r="1.4"/>
	<circle class="st3" cx="20" cy="9.7" r="1.4"/>
	<circle class="st2" cx="20" cy="4.1" r="1.4"/>
	<circle class="st3" cx="20" cy="20.7" r="1.4"/>
	<path class="st4" d="M13.8,2.1h1.4v1.4h-1.4V2.1z"/>
	<path class="st4" d="M24.8,36.6h1.4v1.4h-1.4V36.6z"/>
	<g>
		<path class="st2" d="M0.7,19.3h3.4v1.4H0.7V19.3z"/>
		<path class="st2" d="M1,16.4l0.8-1.1l2.8,2.1l-0.8,1.1L1,16.4z"/>
		<path class="st2" d="M1,23.6l2.8-2.1l0.8,1.1l-2.8,2.1L1,23.6z"/>
		<path class="st2" d="M35.9,19.3h3.4v1.4h-3.4V19.3z"/>
		<path class="st2" d="M35.4,17.4l2.8-2.1l0.8,1.1l-2.8,2.1L35.4,17.4z"/>
		<path class="st2" d="M35.4,22.6l0.8-1.1l2.8,2.1l-0.8,1.1L35.4,22.6z"/>
	</g>
</g>
</svg>
