<?xml version="1.0" encoding="utf-8"?>
<!-- Generator: Adobe Illustrator 24.0.1, SVG Export Plug-In . SVG Version: 6.00 Build 0)  -->
<svg version="1.1" id="Layer_1" xmlns="http://www.w3.org/2000/svg" xmlns:xlink="http://www.w3.org/1999/xlink" x="0px" y="0px"
	 viewBox="0 0 40 40" style="enable-background:new 0 0 40 40;" xml:space="preserve">
<style type="text/css">
	.st0{clip-path:url(#SVGID_2_);}
	.st1{fill:#FFFFFF;}
	.st2{fill:#F75632;}
	.st3{fill:#F2F2F2;}
	.st4{fill:#E33629;}
	.st5{fill:#E6E6E6;}
	.st6{fill:#C72E24;}
</style>
<g>
	<defs>
		<rect id="SVGID_1_" x="5" width="30" height="40"/>
	</defs>
	<clipPath id="SVGID_2_">
		<use xlink:href="#SVGID_1_"  style="overflow:visible;"/>
	</clipPath>
	<g class="st0">
		<path d="M31.6,0H8.3C6.5,0,5,1.5,5,3.3v33.3C5,38.5,6.5,40,8.3,40h23.3c1.8,0,3.3-1.5,3.3-3.3V3.3C35,1.5,33.5,0,31.6,0z"/>
		<path class="st1" d="M33.3,36.7c0,0.9-0.7,1.6-1.6,1.6H8.3c-0.9,0-1.6-0.7-1.6-1.6V3.3c0-0.9,0.7-1.6,1.6-1.6h23.3
			c0.9,0,1.6,0.7,1.6,1.6L33.3,36.7L33.3,36.7z"/>
		<path d="M25,19.1v-8.2c0-0.5-0.4-0.9-0.9-0.9h-8.3c-0.5,0-0.9,0.4-0.9,0.9v16.6c0,0.5,0.4,0.9,0.9,0.9h7.5c0.3,0,0.5-0.1,0.7-0.3
			l2.5-3.3c0.1-0.2,0.2-0.5,0.1-0.8L25,19.1z"/>
		<path class="st2" d="M24.7,23.3h-5.8L17.2,20h6.4L24.7,23.3z"/>
		<path class="st3" d="M16.7,25v-2.3l0.7,1.4L16.7,25z"/>
		<path class="st4" d="M16.7,25v-2.3l0.7,1.4L16.7,25z"/>
		<path class="st4" d="M23.3,11.7h-6.7v6.7h6.7V11.7z"/>
		<path class="st5" d="M22.9,26.6h-5.4l1.2-1.6h5.4L22.9,26.6z"/>
		<path class="st6" d="M22.9,26.6h-5.4l1.2-1.6h5.4L22.9,26.6z"/>
		<path d="M20,6.6c0.9,0,1.6-0.7,1.6-1.6c0-0.9-0.7-1.6-1.6-1.6S18.4,4.1,18.4,5C18.4,5.9,19.1,6.6,20,6.6z"/>
		<path d="M20,36.7c0.9,0,1.6-0.7,1.6-1.6c0-0.9-0.7-1.6-1.6-1.6s-1.6,0.7-1.6,1.6C18.4,35.9,19.1,36.7,20,36.7z"/>
	</g>
</g>
</svg>
