<?xml version="1.0" encoding="utf-8"?>
<!-- Generator: Adobe Illustrator 24.0.1, SVG Export Plug-In . SVG Version: 6.00 Build 0)  -->
<svg version="1.1" id="Filled_expand" xmlns="http://www.w3.org/2000/svg" xmlns:xlink="http://www.w3.org/1999/xlink" x="0px"
	 y="0px" viewBox="0 0 40 40" style="enable-background:new 0 0 40 40;" xml:space="preserve">
<style type="text/css">
	.st0{fill:#FF685A;}
	.st1{fill:#FFC15C;}
	.st2{fill:#CC5348;}
</style>
<g id="_16_copy_2">
	<g>
		<g>
			<path d="M16.9,7.3h-1.3c0-0.7,0.3-1.1,0.6-1.4c0.2-0.2,0.3-0.3,0.3-0.6S16.3,5,16.2,4.8c-0.2-0.3-0.6-0.7-0.6-1.4
				s0.3-1.1,0.6-1.4c0.2-0.2,0.3-0.3,0.3-0.6h1.3c0,0.7-0.3,1.1-0.6,1.4C17,3,16.9,3.1,16.9,3.3s0.1,0.4,0.3,0.6
				c0.2,0.3,0.6,0.7,0.6,1.4s-0.3,1.1-0.6,1.4C17,7,16.9,7.1,16.9,7.3z"/>
			<path d="M30.7,7.3h-1.3c0-0.7,0.3-1.1,0.6-1.4c0.2-0.2,0.3-0.3,0.3-0.6S30.1,5,29.9,4.8c-0.2-0.3-0.6-0.7-0.6-1.4
				s0.3-1.1,0.6-1.4c0.2-0.2,0.3-0.3,0.3-0.6h1.3c0,0.7-0.3,1.1-0.6,1.4c-0.2,0.2-0.3,0.3-0.3,0.6s0.1,0.4,0.3,0.6
				c0.2,0.3,0.6,0.7,0.6,1.4s-0.3,1.1-0.6,1.4C30.7,7,30.7,7.1,30.7,7.3z"/>
			<path d="M10,6H8.7c0-0.7,0.3-1.1,0.6-1.4C9.4,4.4,9.5,4.3,9.5,4S9.4,3.6,9.2,3.4C9,3.1,8.7,2.7,8.7,2S9,0.9,9.2,0.6
				C9.4,0.4,9.5,0.3,9.5,0h1.3c0,0.7-0.3,1.1-0.6,1.4C10.1,1.6,10,1.7,10,2s0.1,0.4,0.3,0.6c0.2,0.3,0.6,0.7,0.6,1.4
				s-0.3,1.1-0.6,1.4C10.1,5.6,10,5.7,10,6z"/>
			<path d="M23.7,6h-1.3c0-0.7,0.3-1.1,0.6-1.4c0.2-0.2,0.3-0.3,0.3-0.6S23.2,3.6,23,3.4c-0.2-0.3-0.6-0.7-0.6-1.4s0.3-1.1,0.6-1.4
				c0.2-0.2,0.3-0.3,0.3-0.6h1.3c0,0.7-0.3,1.1-0.6,1.4c-0.2,0.2-0.3,0.3-0.3,0.6s0.1,0.4,0.3,0.6c0.2,0.3,0.6,0.7,0.6,1.4
				S24.3,5.1,24,5.4C23.8,5.6,23.7,5.7,23.7,6z"/>
		</g>
		<path class="st0" d="M1.5,9.3h37c0.5,0,0.8,0.4,0.8,0.8v25.7c0,0.5-0.4,0.8-0.8,0.8h-37c-0.5,0-0.8-0.4-0.8-0.8V10.2
			C0.7,9.7,1,9.3,1.5,9.3z"/>
		<path class="st1" d="M3.3,12h33.3v19.3H3.3V12z"/>
		<path class="st2" d="M5.3,39.3H2.7L2,36.7h4L5.3,39.3z"/>
		<path class="st2" d="M37.3,39.3h-2.7L34,36.7h4L37.3,39.3z"/>
		<g>
			<path d="M38.5,8.7H38V7.3h-1.3v1.3h-1.3V7.3H34v1.3H5.3V10h33.2c0.1,0,0.2,0.1,0.2,0.2v25.7c0,0.1-0.1,0.2-0.2,0.2H10.7v1.3h22.8
				l0.5,2.2c0.1,0.3,0.3,0.5,0.6,0.5h2.7c0.3,0,0.6-0.2,0.6-0.5l0.5-2.2c0.8,0,1.5-0.7,1.5-1.5V10.2C40,9.3,39.3,8.7,38.5,8.7
				L38.5,8.7z M36.8,38.7h-1.6l-0.3-1.3h2.3L36.8,38.7z"/>
			<path d="M1.5,36c-0.1,0-0.2-0.1-0.2-0.2V10.2c0-0.1,0.1-0.2,0.2-0.2H4V8.7H1.5C0.7,8.7,0,9.3,0,10.2v25.7c0,0.8,0.7,1.5,1.5,1.5
				L2,39.5C2.1,39.8,2.4,40,2.7,40h2.7C5.7,40,6,39.8,6,39.5l0.5-2.2h2.8V36H1.5z M4.8,38.7H3.2l-0.3-1.3h2.3L4.8,38.7z"/>
		</g>
		<path d="M16,33.3h8v1.3h-8V33.3z"/>
		<path d="M36.7,11.3H3.3c-0.4,0-0.7,0.3-0.7,0.7v19.3C2.7,31.7,3,32,3.3,32H32v-1.3H4V15.3h1.3C5.7,15.3,6,15.6,6,16v11.3
			c0,1.1,0.9,2,2,2s2-0.9,2-2V16c0-0.4,0.3-0.7,0.7-0.7s0.7,0.3,0.7,0.7v11.3c0,1.1,0.9,2,2,2s2-0.9,2-2V16c0-0.4,0.3-0.7,0.7-0.7
			c0.4,0,0.7,0.3,0.7,0.7v11.3c0,1.1,0.9,2,2,2s2-0.9,2-2V16c0-0.4,0.3-0.7,0.7-0.7S22,15.6,22,16v11.3c0,1.1,0.9,2,2,2s2-0.9,2-2
			V16c0-0.4,0.3-0.7,0.7-0.7c0.4,0,0.7,0.3,0.7,0.7v11.3c0,1.1,0.9,2,2,2s2-0.9,2-2V16c0-0.4,0.3-0.7,0.7-0.7s0.7,0.3,0.7,0.7v11
			c0,1.3,1,2.3,2.3,2.3h1v1.3h-2.7V32h3.3c0.4,0,0.7-0.3,0.7-0.7V12C37.3,11.6,37,11.3,36.7,11.3z M35,28c-0.6,0-1-0.4-1-1V16
			c0-1.1-0.9-2-2-2c-1.1,0-2,0.9-2,2v11.3c0,0.4-0.3,0.7-0.7,0.7s-0.7-0.3-0.7-0.7V16c0-1.1-0.9-2-2-2s-2,0.9-2,2v11.3
			c0,0.4-0.3,0.7-0.7,0.7c-0.4,0-0.7-0.3-0.7-0.7V16c0-1.1-0.9-2-2-2s-2,0.9-2,2v11.3c0,0.4-0.3,0.7-0.7,0.7c-0.4,0-0.7-0.3-0.7-0.7
			V16c0-1.1-0.9-2-2-2s-2,0.9-2,2v11.3c0,0.4-0.3,0.7-0.7,0.7s-0.7-0.3-0.7-0.7V16c0-1.1-0.9-2-2-2s-2,0.9-2,2v11.3
			C8.7,27.7,8.4,28,8,28c-0.4,0-0.7-0.3-0.7-0.7V16c0-1.1-0.9-2-2-2H4v-1.3h32V28H35z"/>
		<path d="M36,33.3h1.3v1.3H36V33.3z"/>
		<path d="M33.3,33.3h1.3v1.3h-1.3V33.3z"/>
		<path d="M2.7,33.3H4v1.3H2.7V33.3z"/>
		<path d="M5.3,33.3h1.3v1.3H5.3V33.3z"/>
	</g>
</g>
</svg>
