<?xml version="1.0" encoding="utf-8"?>
<!-- Generator: Adobe Illustrator 24.0.1, SVG Export Plug-In . SVG Version: 6.00 Build 0)  -->
<svg version="1.1" id="Capa_1" xmlns="http://www.w3.org/2000/svg" xmlns:xlink="http://www.w3.org/1999/xlink" x="0px" y="0px"
	 viewBox="0 0 40 40" style="enable-background:new 0 0 40 40;" xml:space="preserve">
<style type="text/css">
	.st0{fill:#B3D8F4;}
	.st1{fill:#D1E7F8;}
	.st2{fill:#78B9EB;}
	.st3{fill:#1E81CE;}
	.st4{fill:#3D9AE2;}
	.st5{fill:#5AAAE7;}
</style>
<g>
	<path class="st0" d="M39.4,8.7v8.1c0,1.6-1.3,2.9-2.9,2.9H3.5c-1.6,0-2.9-1.3-2.9-2.9V8.7c0-1.6,1.3-2.9,2.9-2.9h32.9
		C38.1,5.8,39.4,7.1,39.4,8.7z"/>
	<path class="st1" d="M39.4,8.7v8.1c0,1.6-1.3,2.9-2.9,2.9H5.9c-1.6,0-2.9-1.3-2.9-2.9V8.7c0-1.6,1.3-2.9,2.9-2.9h30.5
		C38.1,5.8,39.4,7.1,39.4,8.7z"/>
	<path class="st2" d="M39.4,15.8v1c0,0.1,0,0.2,0,0.3c0,0.4-0.2,0.8-0.4,1.2c-0.5,0.9-1.5,1.5-2.5,1.5H3.5c-1.1,0-2-0.6-2.5-1.5
		c-0.2-0.4-0.3-0.8-0.4-1.2c0-0.1,0-0.2,0-0.3v-1H39.4z"/>
	<g>
		<path class="st3" d="M5.1,26.8c0,0.4-0.2,0.7-0.5,1C4.5,27.9,4.2,28,3.9,28c-0.7,0-1.2-0.5-1.2-1.2c0-0.7,0.5-1.2,1.2-1.2
			c0.3,0,0.5,0.1,0.7,0.3C5,26,5.1,26.4,5.1,26.8z"/>
		<path class="st3" d="M26.3,24.1c0,0.4-0.2,0.7-0.5,1c-0.2,0.2-0.5,0.3-0.7,0.3c-0.7,0-1.2-0.5-1.2-1.2c0-0.7,0.5-1.2,1.2-1.2
			c0.3,0,0.5,0.1,0.7,0.3C26.1,23.3,26.3,23.7,26.3,24.1z"/>
	</g>
	<g>
		<path class="st4" d="M5.1,26.8c0,0.4-0.2,0.7-0.5,1c-0.3-0.2-0.5-0.6-0.5-1c0-0.4,0.2-0.7,0.5-1C5,26,5.1,26.4,5.1,26.8z"/>
		<path class="st4" d="M26.3,24.1c0,0.4-0.2,0.7-0.5,1c-0.3-0.2-0.5-0.6-0.5-1c0-0.4,0.2-0.7,0.5-1C26.1,23.3,26.3,23.7,26.3,24.1z"
			/>
	</g>
	<path class="st5" d="M5.9,19.8H3.5c-1.1,0-2-0.6-2.5-1.5c-0.2-0.4-0.3-0.8-0.4-1.2c0-0.1,0-0.2,0-0.3v-1H3v1
		C3,18.4,4.3,19.8,5.9,19.8z"/>
	<path d="M36.5,5.2H3.5C1.6,5.2,0,6.8,0,8.7v8.1c0,1.9,1.6,3.5,3.5,3.5h32.9c1.9,0,3.5-1.6,3.5-3.5V8.7C40,6.8,38.4,5.2,36.5,5.2z
		 M36.5,19.2H3.5c-0.7,0-1.4-0.3-1.8-0.9h11.5c0.3,0,0.6-0.3,0.6-0.6c0-0.3-0.3-0.6-0.6-0.6h-12c0-0.2,0-0.4,0-0.7h23.2
		c0.3,0,0.6-0.3,0.6-0.6c0-0.3-0.3-0.6-0.6-0.6H1.2V8.7c0-1.3,1.1-2.4,2.4-2.4h32.9c1.3,0,2.4,1.1,2.4,2.4v6.5H26.7
		c-0.3,0-0.6,0.3-0.6,0.6c0,0.3,0.3,0.6,0.6,0.6h12.1c0,0.4,0,0.5,0,0.7H15.5c-0.3,0-0.6,0.3-0.6,0.6c0,0.3,0.3,0.6,0.6,0.6h22.8
		C37.9,18.8,37.2,19.2,36.5,19.2z"/>
	<circle cx="34" cy="13.2" r="0.8"/>
	<circle cx="37.1" cy="13.2" r="0.8"/>
	<path d="M37.4,25.7c-0.2-0.3-0.5-0.4-0.8-0.2l-2,1.2v-2.3c0-0.3-0.3-0.6-0.6-0.6s-0.6,0.3-0.6,0.6v2.3l-2-1.2
		c-0.3-0.2-0.6-0.1-0.8,0.2c-0.2,0.3-0.1,0.6,0.2,0.8l2.1,1.3l-2.1,1.3c-0.3,0.2-0.4,0.5-0.2,0.8c0.1,0.2,0.3,0.3,0.5,0.3
		c0.3,0,0.3-0.1,2.3-1.3v2.3c0,0.3,0.3,0.6,0.6,0.6s0.6-0.3,0.6-0.6v-2.3c2,1.2,2,1.3,2.3,1.3c0.6,0,0.8-0.8,0.3-1.1l-2.1-1.3
		l2.1-1.3C37.5,26.4,37.5,26,37.4,25.7z"/>
	<path d="M15.3,24c-0.2-0.3-0.5-0.4-0.8-0.2l-2,1.2v-2.3c0-0.3-0.3-0.6-0.6-0.6s-0.6,0.3-0.6,0.6V25l-2-1.2
		c-0.3-0.2-0.6-0.1-0.8,0.2c-0.2,0.3-0.1,0.6,0.2,0.8l2.1,1.3l-2.1,1.3c-0.3,0.2-0.4,0.5-0.2,0.8c0.2,0.3,0.5,0.4,0.8,0.2l2-1.2v2.3
		c0,0.3,0.3,0.6,0.6,0.6s0.6-0.3,0.6-0.6v-2.3c2,1.2,2,1.3,2.3,1.3c0.6,0,0.8-0.8,0.3-1.1l-2.1-1.3l2.1-1.3
		C15.4,24.6,15.5,24.2,15.3,24z"/>
	<path d="M22.5,30.8c-0.2-0.3-0.5-0.4-0.8-0.2l-0.8,0.5v-1c0-0.3-0.3-0.6-0.6-0.6s-0.6,0.3-0.6,0.6v1l-0.8-0.5
		c-0.3-0.2-0.6-0.1-0.8,0.2c-0.2,0.3-0.1,0.6,0.2,0.8l0.9,0.6l-0.9,0.6c-0.3,0.2-0.4,0.5-0.2,0.8c0.2,0.3,0.5,0.4,0.8,0.2l0.8-0.5v1
		c0,0.3,0.3,0.6,0.6,0.6s0.6-0.3,0.6-0.6v-1l0.8,0.5c0.3,0.2,0.6,0.1,0.8-0.2c0.2-0.3,0.1-0.6-0.2-0.8l-0.9-0.6l0.9-0.6
		C22.6,31.4,22.7,31,22.5,30.8z"/>
	<path d="M3.9,24.9c-1,0-1.8,0.8-1.8,1.8s0.8,1.8,1.8,1.8s1.8-0.8,1.8-1.8S4.9,24.9,3.9,24.9z M3.9,27.4c-0.3,0-0.6-0.3-0.6-0.6
		c0-0.3,0.3-0.6,0.6-0.6s0.6,0.3,0.6,0.6C4.6,27.1,4.3,27.4,3.9,27.4z"/>
	<path d="M25.1,22.3c-1,0-1.8,0.8-1.8,1.8s0.8,1.8,1.8,1.8s1.8-0.8,1.8-1.8C26.9,23.1,26.1,22.3,25.1,22.3z M25.1,24.7
		c-0.3,0-0.6-0.3-0.6-0.6c0-0.3,0.3-0.6,0.6-0.6s0.6,0.3,0.6,0.6C25.7,24.4,25.4,24.7,25.1,24.7z"/>
	<path d="M21.8,8.5h-3.5c-0.3,0-0.6,0.3-0.6,0.6c0,0.3,0.3,0.6,0.6,0.6h3.5c0.3,0,0.6-0.3,0.6-0.6C22.4,8.8,22.1,8.5,21.8,8.5z"/>
</g>
</svg>
