<?xml version="1.0" encoding="utf-8"?>
<!-- Generator: Adobe Illustrator 24.0.1, SVG Export Plug-In . SVG Version: 6.00 Build 0)  -->
<svg version="1.1" id="Layer_1" xmlns="http://www.w3.org/2000/svg" xmlns:xlink="http://www.w3.org/1999/xlink" x="0px" y="0px"
	 viewBox="0 0 40 40" style="enable-background:new 0 0 40 40;" xml:space="preserve">
<style type="text/css">
	.st0{fill:#FFFFFF;}
	.st1{fill:#3F3F3F;}
</style>
<g>
	<g>
		<g id="Gradient_outline_1_">
			<path class="st0" d="M20,38.7c-2.3,0-4.6-0.4-6.8-1.3l1.1-3.9C18,35,22,35,25.6,33.5l1.1,3.9C24.6,38.2,22.3,38.7,20,38.7
				L20,38.7z M6.7,20c0-7.4,6-13.3,13.3-13.3s13.3,6,13.3,13.3s-6,13.3-13.3,13.3C12.6,33.3,6.7,27.4,6.7,20z M28,36.9L26.9,33
				c7.2-3.8,9.9-12.7,6.1-19.8c-1.3-2.5-3.4-4.6-5.9-6l2-2l-0.9-0.9l-2.4,2.4C18.4,3.3,9.8,6.7,6.6,14.1c-1.8,4.2-1.6,9,0.7,13
				l-2.4,2.4l0.9,0.9l2.1-2.1c1.3,1.9,3.1,3.5,5.2,4.6L12,36.9c-1.9-0.9-3.6-2.1-5.1-3.5l1.5-1.5l-0.9-0.9L6,32.4
				C-0.8,24.6-0.1,12.8,7.6,6c4.9-4.3,11.7-5.8,17.9-3.8l-2,2l0.9,0.9l2.5-2.5c9.6,3.8,14.2,14.7,10.4,24.3
				C35.6,31.3,32.2,34.9,28,36.9z"/>
		</g>
	</g>
	<g>
		<g id="Gradient_outline_4_">
			<path class="st1" d="M20,0C9,0,0,9,0,20s9,20,20,20s20-9,20-20C40,9,31,0,20,0z M20,38.7c-2.3,0-4.6-0.4-6.8-1.3l1.1-3.9
				C18,35,22,35,25.6,33.5l1.1,3.9C24.6,38.2,22.3,38.7,20,38.7L20,38.7z M6.7,20c0-7.4,6-13.3,13.3-13.3s13.3,6,13.3,13.3
				s-6,13.3-13.3,13.3C12.6,33.3,6.7,27.4,6.7,20z M28,36.9L26.9,33c7.2-3.8,9.9-12.7,6.1-19.8c-1.3-2.5-3.4-4.6-5.9-6l2-2l-0.9-0.9
				l-2.4,2.4C18.4,3.3,9.8,6.7,6.6,14.1c-1.8,4.2-1.6,9,0.7,13l-2.4,2.4l0.9,0.9l2.1-2.1c1.3,1.9,3.1,3.5,5.2,4.6L12,36.9
				c-1.9-0.9-3.6-2.1-5.1-3.5l1.5-1.5l-0.9-0.9L6,32.4C-0.8,24.6-0.1,12.8,7.6,6c4.9-4.3,11.7-5.8,17.9-3.8l-2,2l0.9,0.9l2.5-2.5
				c9.6,3.8,14.2,14.7,10.4,24.3C35.6,31.3,32.2,34.9,28,36.9z"/>
			<path class="st1" d="M15.5,35.4l-0.4,1.3c3.2,0.9,6.5,0.9,9.7,0l-0.4-1.3C21.6,36.2,18.5,36.2,15.5,35.4z"/>
			<path class="st1" d="M36,20h1.3c0-3.8-1.2-7.4-3.5-10.4l-1.1,0.8C34.9,13.2,36,16.6,36,20z"/>
			<path class="st1" d="M36,21.4h1.3v1.3H36V21.4z"/>
		</g>
	</g>
</g>
</svg>
