<?xml version="1.0" encoding="utf-8"?>
<!-- Generator: Adobe Illustrator 24.0.1, SVG Export Plug-In . SVG Version: 6.00 Build 0)  -->
<svg version="1.1" id="Layer_1" xmlns="http://www.w3.org/2000/svg" xmlns:xlink="http://www.w3.org/1999/xlink" x="0px" y="0px"
	 viewBox="0 0 40 40" style="enable-background:new 0 0 40 40;" xml:space="preserve">
<style type="text/css">
	.st0{fill:#DF4D60;}
	.st1{fill:#C0BFD4;}
</style>
<path class="st0" d="M37.2,21.8v3h-9.1v-0.8c0-1.2,1-2.3,2.3-2.3H37.2z"/>
<path class="st1" d="M21.9,15.5h-3.7v17.2h3.7V15.5z"/>
<path class="st0" d="M11.9,24.1v0.8H2.8v-3h6.8C10.9,21.8,11.9,22.8,11.9,24.1z"/>
<path d="M30.8,16.5c0.5,0,0.9-0.4,0.9-0.9c0-0.5-0.4-0.9-0.9-0.9h-9h-3.7h-9c-0.5,0-0.9,0.4-0.9,0.9c0,0.5,0.4,0.9,0.9,0.9h8v16.3
	c0,0.5,0.4,0.9,0.9,0.9h3.7c0.5,0,0.9-0.4,0.9-0.9V16.5H30.8z M20.9,31.8h-1.9V16.5h1.9V31.8z"/>
<path d="M39.2,6c-0.5-0.1-1,0.3-1,0.8l0,0.3c-0.1,0.5,0.3,1,0.8,1c0,0,0.1,0,0.1,0c0.5,0,0.9-0.3,0.9-0.8l0-0.3
	C40.1,6.5,39.7,6.1,39.2,6z"/>
<path d="M38.8,9.2c-0.5-0.1-1,0.3-1,0.8l-1.4,10.9h-6c-1.8,0-3.2,1.4-3.2,3.2v0.8v7.9c0,0.5,0.4,0.9,0.9,0.9c0.5,0,0.9-0.4,0.9-0.9
	v-7h7.2v7c0,0.5,0.4,0.9,0.9,0.9s0.9-0.4,0.9-0.9v-7.9v-3l1.5-11.7C39.7,9.7,39.3,9.2,38.8,9.2z M30.3,22.8h5.9v1.2H29
	C29.1,23.3,29.7,22.8,30.3,22.8z"/>
<path d="M9.7,20.9h-6L1.9,6.8C1.8,6.3,1.3,5.9,0.8,6C0.3,6.1-0.1,6.5,0,7.1l1.9,14.8v3v7.9c0,0.5,0.4,0.9,0.9,0.9
	c0.5,0,0.9-0.4,0.9-0.9v-7H11v7c0,0.5,0.4,0.9,0.9,0.9c0.5,0,0.9-0.4,0.9-0.9v-7.9v-0.8C12.9,22.3,11.4,20.9,9.7,20.9z M3.7,23.9
	v-1.2h5.9c0.7,0,1.2,0.5,1.3,1.2H3.7z"/>
</svg>
