<?xml version="1.0" encoding="utf-8"?>
<!-- Generator: Adobe Illustrator 24.0.1, SVG Export Plug-In . SVG Version: 6.00 Build 0)  -->
<svg version="1.1" id="Layer_1" xmlns="http://www.w3.org/2000/svg" xmlns:xlink="http://www.w3.org/1999/xlink" x="0px" y="0px"
	 viewBox="0 0 40 40" style="enable-background:new 0 0 40 40;" xml:space="preserve">
<style type="text/css">
	.st0{fill:#E0E0E2;}
	.st1{fill:#8B5E3C;}
</style>
<g id="Table-2">
	<g>
		<path class="st0" d="M16.1,4.5h7.7c0.7,0,1.3,0.6,1.3,1.3v1.3c0,0.7-0.6,1.3-1.3,1.3h-7.7c-0.7,0-1.3-0.6-1.3-1.3V5.8
			C14.8,5.1,15.4,4.5,16.1,4.5z"/>
		<path class="st0" d="M2.6,4.5h7.7c0.7,0,1.3,0.6,1.3,1.3v1.3c0,0.7-0.6,1.3-1.3,1.3H2.6c-0.7,0-1.3-0.6-1.3-1.3V5.8
			C1.3,5.1,1.9,4.5,2.6,4.5z"/>
		<path class="st0" d="M29.7,4.5h7.7c0.7,0,1.3,0.6,1.3,1.3v1.3c0,0.7-0.6,1.3-1.3,1.3h-7.7c-0.7,0-1.3-0.6-1.3-1.3V5.8
			C28.4,5.1,29,4.5,29.7,4.5z"/>
		<path class="st0" d="M16.1,31.6h7.7c0.7,0,1.3,0.6,1.3,1.3v1.3c0,0.7-0.6,1.3-1.3,1.3h-7.7c-0.7,0-1.3-0.6-1.3-1.3v-1.3
			C14.8,32.2,15.4,31.6,16.1,31.6z"/>
		<path class="st0" d="M2.6,31.6h7.7c0.7,0,1.3,0.6,1.3,1.3v1.3c0,0.7-0.6,1.3-1.3,1.3H2.6c-0.7,0-1.3-0.6-1.3-1.3v-1.3
			C1.3,32.2,1.9,31.6,2.6,31.6z"/>
		<path class="st0" d="M29.7,31.6h7.7c0.7,0,1.3,0.6,1.3,1.3v1.3c0,0.7-0.6,1.3-1.3,1.3h-7.7c-0.7,0-1.3-0.6-1.3-1.3v-1.3
			C28.4,32.2,29,31.6,29.7,31.6z"/>
	</g>
	<path class="st1" d="M0.6,11h38.7V29H0.6V11z"/>
	<path d="M16.1,9h7.7c1.1,0,1.9-0.9,1.9-1.9V5.8c0-1.1-0.9-1.9-1.9-1.9h-7.7c-1.1,0-1.9,0.9-1.9,1.9v1.3C14.2,8.2,15.1,9,16.1,9z
		 M15.5,5.8c0-0.4,0.3-0.6,0.6-0.6h7.7c0.4,0,0.6,0.3,0.6,0.6v1.3c0,0.4-0.3,0.6-0.6,0.6h-7.7c-0.4,0-0.6-0.3-0.6-0.6V5.8z"/>
	<path d="M2.6,9h7.7c1.1,0,1.9-0.9,1.9-1.9V5.8c0-1.1-0.9-1.9-1.9-1.9H2.6c-1.1,0-1.9,0.9-1.9,1.9v1.3C0.6,8.2,1.5,9,2.6,9z
		 M1.9,5.8c0-0.4,0.3-0.6,0.6-0.6h7.7c0.4,0,0.6,0.3,0.6,0.6v1.3c0,0.4-0.3,0.6-0.6,0.6H2.6c-0.4,0-0.6-0.3-0.6-0.6V5.8z"/>
	<path d="M29.7,9h7.7c1.1,0,1.9-0.9,1.9-1.9V5.8c0-1.1-0.9-1.9-1.9-1.9h-7.7c-1.1,0-1.9,0.9-1.9,1.9v1.3C27.7,8.2,28.6,9,29.7,9z
		 M29,5.8c0-0.4,0.3-0.6,0.6-0.6h7.7c0.4,0,0.6,0.3,0.6,0.6v1.3c0,0.4-0.3,0.6-0.6,0.6h-7.7c-0.4,0-0.6-0.3-0.6-0.6V5.8z"/>
	<path d="M23.9,31h-7.7c-1.1,0-1.9,0.9-1.9,1.9v1.3c0,1.1,0.9,1.9,1.9,1.9h7.7c1.1,0,1.9-0.9,1.9-1.9v-1.3
		C25.8,31.8,24.9,31,23.9,31z M24.5,34.2c0,0.4-0.3,0.6-0.6,0.6h-7.7c-0.4,0-0.6-0.3-0.6-0.6v-1.3c0-0.4,0.3-0.6,0.6-0.6h7.7
		c0.4,0,0.6,0.3,0.6,0.6V34.2z"/>
	<path d="M10.3,31H2.6c-1.1,0-1.9,0.9-1.9,1.9v1.3c0,1.1,0.9,1.9,1.9,1.9h7.7c1.1,0,1.9-0.9,1.9-1.9v-1.3C12.3,31.8,11.4,31,10.3,31
		z M11,34.2c0,0.4-0.3,0.6-0.6,0.6H2.6c-0.4,0-0.6-0.3-0.6-0.6v-1.3c0-0.4,0.3-0.6,0.6-0.6h7.7c0.4,0,0.6,0.3,0.6,0.6V34.2z"/>
	<path d="M37.4,31h-7.7c-1.1,0-1.9,0.9-1.9,1.9v1.3c0,1.1,0.9,1.9,1.9,1.9h7.7c1.1,0,1.9-0.9,1.9-1.9v-1.3
		C39.4,31.8,38.5,31,37.4,31z M38.1,34.2c0,0.4-0.3,0.6-0.6,0.6h-7.7c-0.4,0-0.6-0.3-0.6-0.6v-1.3c0-0.4,0.3-0.6,0.6-0.6h7.7
		c0.4,0,0.6,0.3,0.6,0.6V34.2z"/>
	<path d="M39.4,10.3H0.6C0.3,10.3,0,10.6,0,11V29c0,0.4,0.3,0.6,0.6,0.6h38.7c0.4,0,0.6-0.3,0.6-0.6V11C40,10.6,39.7,10.3,39.4,10.3
		z M38.7,28.4H1.3V11.6h37.4V28.4z"/>
	<path d="M3.2,27.1h3.9c0.4,0,0.6-0.3,0.6-0.6c0-0.4-0.3-0.6-0.6-0.6H3.2c-0.4,0-0.6,0.3-0.6,0.6C2.6,26.8,2.9,27.1,3.2,27.1z"/>
	<path d="M9,27.1h0.6c0.4,0,0.6-0.3,0.6-0.6c0-0.4-0.3-0.6-0.6-0.6H9c-0.4,0-0.6,0.3-0.6,0.6C8.4,26.8,8.7,27.1,9,27.1z"/>
</g>
</svg>
