<svg width="40" height="40" viewBox="0 0 40 40" fill="none" xmlns="http://www.w3.org/2000/svg">
<path d="M34.7439 39.0699H5.26487C2.87418 39.0699 0.929993 37.1262 0.929993 34.736V5.26381C0.929993 2.87367 2.87418 0.929932 5.26487 0.929932H34.7346C37.1253 0.929932 39.0695 2.87367 39.0695 5.26381V34.7267C39.0788 37.1262 37.1346 39.0699 34.7439 39.0699Z" fill="#0062B4"/>
<path d="M34.7349 40H5.26511C2.36279 40 0 37.6378 0 34.7361V5.26389C0 2.36224 2.36279 0 5.26511 0H34.7349C37.6372 0 40 2.36224 40 5.26389V34.7268C40.0093 37.6378 37.6465 40 34.7349 40ZM5.26511 1.86003C3.38604 1.86003 1.86046 3.38526 1.86046 5.26389V34.7268C1.86046 36.6054 3.38604 38.1307 5.26511 38.1307H34.7349C36.6139 38.1307 38.1395 36.6054 38.1395 34.7268V5.26389C38.1395 3.38526 36.6139 1.86003 34.7349 1.86003H5.26511Z" fill="black"/>
<path d="M27.6369 32.411H28.809V39.0699H6.20441C3.29278 39.0699 0.929993 36.7077 0.929993 33.7968V12.4529H7.89743V19.1118V19.1025H14.8649V25.7614V25.7521H21.8323V32.411V32.4017H23.2928" fill="#5CA4FF"/>
<path d="M28.8 40H6.20465C2.78139 40 0 37.2193 0 33.7968V12.453C0 11.9415 0.418604 11.5229 0.930232 11.5229H7.89767C8.4093 11.5229 8.8279 11.9415 8.8279 12.453V18.1726H14.8651C15.3767 18.1726 15.7953 18.5911 15.7953 19.1026V24.8222H21.8325C22.3442 24.8222 22.7628 25.2407 22.7628 25.7522V31.4718H23.293C23.8046 31.4718 24.2232 31.8903 24.2232 32.4018C24.2232 32.9133 23.8046 33.3318 23.293 33.3318H21.9349C21.4046 33.3876 20.893 32.9598 20.893 32.4111V26.6822H14.9767C14.4465 26.738 13.9349 26.3102 13.9349 25.7615V20.0326H8.0093C7.47906 20.0884 6.96744 19.6606 6.96744 19.1119V13.383H1.86046V33.8061C1.86046 36.1963 3.80465 38.1493 6.20465 38.1493H27.879V33.3504H27.6372C27.1256 33.3504 26.707 32.9319 26.707 32.4204C26.707 31.9089 27.1256 31.4904 27.6372 31.4904H28.8093C29.3209 31.4904 29.7395 31.9089 29.7395 32.4204V39.0793C29.7302 39.5815 29.3209 40 28.8 40Z" fill="black"/>
<path d="M25.4882 33.341H25.3673C24.8558 33.341 24.4373 32.9225 24.4373 32.411C24.4373 31.8995 24.8558 31.481 25.3673 31.481H25.4882C25.9997 31.481 26.4183 31.8995 26.4183 32.411C26.4183 32.9225 25.9997 33.341 25.4882 33.341Z" fill="black"/>
</svg>
