<?xml version="1.0" encoding="utf-8"?>
<!-- Generator: Adobe Illustrator 24.0.1, SVG Export Plug-In . SVG Version: 6.00 Build 0)  -->
<svg version="1.1" id="Layer_1" xmlns="http://www.w3.org/2000/svg" xmlns:xlink="http://www.w3.org/1999/xlink" x="0px" y="0px"
	 viewBox="0 0 35 35" style="enable-background:new 0 0 35 35;" xml:space="preserve">
<style type="text/css">
	.st0{fill:#A3875E;}
</style>
<path class="st0" d="M25.3,0.7c0.8,0,1.4,0.6,1.4,1.4v30.7c0,0.8-0.6,1.4-1.4,1.4h-0.4c-0.8,0-1.4-0.6-1.4-1.4v-2.6v-5.1v-5.1v-5.1
	V9.8V4.7V2.1c0-0.8,0.6-1.4,1.4-1.4C24.9,0.7,25.3,0.7,25.3,0.7z"/>
<path class="st0" d="M9.5,0.7c0.8,0,1.4,0.6,1.4,1.4v2.6v5.1v5.1v5.1v5.1v5.1v2.6c0,0.8-0.6,1.4-1.4,1.4H9.1c-0.8,0-1.4-0.6-1.4-1.4
	V2.1c0-0.8,0.6-1.4,1.4-1.4L9.5,0.7L9.5,0.7z"/>
<path d="M25.3,0h-0.4c-1.2,0-2.1,1-2.1,2.1V4H11.7V2.1c0-1.2-1-2.1-2.1-2.1H9.1C8,0,7,1,7,2.1v30.7C7,34,8,35,9.1,35h0.4
	c1.2,0,2.1-1,2.1-2.1V31h11.1v1.9c0,1.2,1,2.1,2.1,2.1h0.4c1.2,0,2.1-1,2.1-2.1V2.1C27.5,1,26.5,0,25.3,0z M22.8,19.3H11.7v-3.7
	h11.1L22.8,19.3L22.8,19.3z M11.7,20.8h11.1v3.7H11.7V20.8z M22.8,5.5v3.7h-0.6c-0.4,0-0.7,0.3-0.7,0.7c0,0.4,0.3,0.7,0.7,0.7h0.6
	v3.7H11.7v-3.7h6c0.4,0,0.7-0.3,0.7-0.7c0-0.4-0.3-0.7-0.7-0.7h-6V5.5H22.8z M10.2,32.9c0,0.4-0.3,0.7-0.7,0.7H9.1
	c-0.4,0-0.7-0.3-0.7-0.7V2.1c0-0.4,0.3-0.7,0.7-0.7h0.4c0.4,0,0.7,0.3,0.7,0.7V32.9z M11.7,29.5v-3.7h11.1v3.7H11.7z M26,32.9
	c0,0.4-0.3,0.7-0.7,0.7h-0.4c-0.4,0-0.7-0.3-0.7-0.7V2.1c0-0.4,0.3-0.7,0.7-0.7h0.4c0.4,0,0.7,0.3,0.7,0.7V32.9z"/>
<path d="M19.8,10.6h0.3c0.4,0,0.7-0.3,0.7-0.7c0-0.4-0.3-0.7-0.7-0.7h-0.3c-0.4,0-0.7,0.3-0.7,0.7C19.1,10.2,19.4,10.6,19.8,10.6z"
	/>
</svg>
