<?xml version="1.0" encoding="utf-8"?>
<!-- Generator: Adobe Illustrator 24.0.1, SVG Export Plug-In . SVG Version: 6.00 Build 0)  -->
<svg version="1.1" id="Layer_1" xmlns="http://www.w3.org/2000/svg" xmlns:xlink="http://www.w3.org/1999/xlink" x="0px" y="0px"
	 viewBox="0 0 40 40" style="enable-background:new 0 0 40 40;" xml:space="preserve">
<style type="text/css">
	.st0{fill:#E0E0E2;}
	.st1{fill:#1A6FB0;}
</style>
<g>
	<path class="st0" d="M34.2,11.5L33.5,11"/>
	<path class="st0" d="M34.2,11.5v27.8H5.8V12l1.3-1L20,0.6L33.5,11L34.2,11.5z"/>
	<path class="st1" d="M14.8,26.5h10.3v12.9H14.8V26.5z"/>
	<path d="M39.7,15L20.4,0.1c-0.2-0.2-0.6-0.2-0.8,0L0.2,15.6c-0.3,0.2-0.3,0.6-0.1,0.9s0.6,0.3,0.9,0.1l0,0l4.1-3.3v26
		c0,0.4,0.3,0.6,0.6,0.6h28.4c0.4,0,0.6-0.3,0.6-0.6V12.8L39,16c0.3,0.2,0.7,0.2,0.9-0.1C40.1,15.6,40,15.2,39.7,15L39.7,15z
		 M15.5,38.7V27.1h9v11.6H15.5z M25.8,38.7V26.5c0-0.4-0.3-0.6-0.6-0.6H14.8c-0.4,0-0.6,0.3-0.6,0.6v12.3H6.5V12.3L20,1.5l13.1,10
		l0.5,0.4v26.9H25.8z"/>
	<path d="M9.7,36.8H7.7c-0.4,0-0.6,0.3-0.6,0.6s0.3,0.6,0.6,0.6h1.9c0.4,0,0.6-0.3,0.6-0.6S10,36.8,9.7,36.8z"/>
	<path d="M12.3,36.8h-0.6c-0.4,0-0.6,0.3-0.6,0.6s0.3,0.6,0.6,0.6h0.6c0.4,0,0.6-0.3,0.6-0.6S12.6,36.8,12.3,36.8z"/>
</g>
</svg>
