<?xml version="1.0" encoding="utf-8"?>
<!-- Generator: Adobe Illustrator 24.0.1, SVG Export Plug-In . SVG Version: 6.00 Build 0)  -->
<svg version="1.1" id="Layer_1" xmlns="http://www.w3.org/2000/svg" xmlns:xlink="http://www.w3.org/1999/xlink" x="0px" y="0px"
	 viewBox="0 0 40 40" style="enable-background:new 0 0 40 40;" xml:space="preserve">
<style type="text/css">
	.st0{fill:#A3875E;}
	.st1{fill:#DBB67E;}
	.st2{fill:#FB7B76;}
	.st3{fill:#F0DF9E;}
</style>
<g>
	<rect x="1" y="24.4" class="st0" width="37.9" height="5.6"/>
	<path class="st1" d="M20,13.4c0-1-0.8-1.8-1.8-1.8H9.9c-1,0-1.8,0.8-1.8,1.8v3.3H6.4c-3,0-5.3,2.4-5.3,5.3V9.6c0-2,1.6-3.7,3.7-3.7
		h30.6c2,0,3.7,1.6,3.7,3.7V22c0-3-2.4-5.3-5.3-5.3h-1.7v-3.3c0-1-0.8-1.8-1.8-1.8h-8.4C20.8,11.7,20,12.5,20,13.4z"/>
	<path class="st2" d="M33.6,16.7c3,0,5.3,2.4,5.3,5.3v2.3H1V22c0-3,2.4-5.3,5.3-5.3H8h12h11.9H33.6z"/>
	<g>
		<path class="st3" d="M30.1,11.7c1,0,1.8,0.8,1.8,1.8v3.3H20v-3.4c0-1,0.8-1.8,1.8-1.8h8.3V11.7z"/>
		<path class="st3" d="M18.2,11.7c1,0,1.8,0.8,1.8,1.8v3.3H8.1v-3.4c0-1,0.8-1.8,1.8-1.8h8.3V11.7z"/>
	</g>
	<path d="M35.3,5H4.7C2.1,5,0,7.1,0,9.6v14.7v5.6v4c0,0.6,0.5,1,1,1s1-0.5,1-1v-3h35.8v3c0,0.6,0.5,1,1,1s1-0.5,1-1v-4v-5.6V9.6
		C40,7.1,37.9,5,35.3,5z M4.7,7h30.6c1.4,0,2.6,1.2,2.6,2.6v7.7c-1.1-1-2.6-1.7-4.3-1.7H33v-2.2c0-1.6-1.3-2.8-2.8-2.8h-8.4
		c-0.7,0-1.3,0.2-1.8,0.6c-0.5-0.4-1.1-0.6-1.8-0.6H9.9c-1.6,0-2.9,1.3-2.9,2.8v2.2H6.4c-1.7,0-3.2,0.6-4.3,1.7V9.6
		C2.1,8.2,3.3,7,4.7,7z M9.1,15.7v-2.3c0-0.4,0.3-0.7,0.7-0.7h8.4c0.4,0,0.7,0.3,0.7,0.7v2.2H9.1V15.7z M21,13.4
		c0-0.4,0.3-0.7,0.7-0.7h8.4c0.4,0,0.7,0.3,0.7,0.7v2.2H21V13.4L21,13.4z M2.1,25.4h2c0.6,0,1-0.5,1-1c0-0.6-0.5-1-1-1h-2v-1.3
		c0-2.4,1.9-4.3,4.3-4.3h1.7H20h11.9h1.7c2.4,0,4.3,1.9,4.3,4.3v1.3H11.4c-0.6,0-1,0.5-1,1c0,0.6,0.5,1,1,1H38v3.5H2.1V25.4z"/>
	<path d="M7.9,23.3H7.3c-0.6,0-1,0.5-1,1c0,0.6,0.5,1,1,1h0.6c0.6,0,1-0.5,1-1C9,23.8,8.5,23.3,7.9,23.3z"/>
</g>
</svg>
