<svg width="40" height="40" viewBox="0 0 40 40" fill="none" xmlns="http://www.w3.org/2000/svg">
<path d="M2.53857 27.5395V24.0767H34.9536L32.8775 31.5617C32.3849 33.3392 30.7674 34.5688 28.923 34.5688H26.8547H8.50412H6.64232C4.37615 34.5688 2.53857 32.7321 2.53857 30.466V27.5395Z" fill="#97C2F7"/>
<path d="M37.4613 23.1069H34.9537H3.50834V19.2281V4.51586C3.50834 3.09516 4.6642 1.93937 6.08483 1.93937C6.42538 1.93937 6.75749 2.00531 7.071 2.135C7.38491 2.26516 7.66608 2.45312 7.90678 2.69391L8.77264 3.55977L8.35483 3.97758C7.97616 4.35625 7.97616 4.97023 8.35483 5.34898C8.5442 5.53836 8.79233 5.63305 9.04053 5.63305C9.28866 5.63305 9.53694 5.53844 9.72624 5.34898L11.9333 3.14195C12.3119 2.76328 12.312 2.1493 11.9333 1.77062C11.5545 1.39195 10.9406 1.39195 10.5619 1.77062L10.1441 2.18844L9.27811 1.32273C8.85655 0.901094 8.36389 0.571719 7.81288 0.343281C7.26256 0.115391 6.681 0 6.08483 0C3.59475 0 1.56897 2.02578 1.56897 4.51586V19.2281V24.0766V30.4659C1.56897 33.1139 3.60928 35.2932 6.20045 35.518C5.47327 36.5334 5.07053 37.7598 5.07053 39.0303C5.07053 39.5659 5.50467 40 6.04022 40C6.57577 40 7.00991 39.5659 7.00991 39.0303C7.00991 37.8594 7.51249 36.7428 8.38905 35.9665L8.87202 35.5384H26.4869L26.9698 35.9663C27.8464 36.7433 28.349 37.8601 28.349 39.0303C28.349 39.5659 28.7832 40 29.3187 40C29.8543 40 30.2884 39.5659 30.2884 39.0303C30.2884 37.7661 29.889 36.5452 29.1679 35.532C31.3382 35.4266 33.2273 33.9306 33.8119 31.8209L35.691 25.0463H37.4613C37.9969 25.0463 38.431 24.6122 38.431 24.0766C38.431 23.541 37.9969 23.1069 37.4613 23.1069ZM31.943 31.3028C31.5683 32.6548 30.3265 33.5991 28.9231 33.5991H6.64241C4.91428 33.5991 3.50834 32.1937 3.50834 30.466V28.5091H10.0509C10.5865 28.5091 11.0206 28.0749 11.0206 27.5394C11.0206 27.0038 10.5865 26.5697 10.0509 26.5697H3.50834V25.0463H33.6783L31.943 31.3028Z" fill="black"/>
<path d="M13.0249 28.509H13.6552C14.1908 28.509 14.6249 28.0748 14.6249 27.5393C14.6249 27.0037 14.1908 26.5696 13.6552 26.5696H13.0249C12.4894 26.5696 12.0552 27.0037 12.0552 27.5393C12.0552 28.0748 12.4893 28.509 13.0249 28.509Z" fill="black"/>
</svg>
