<?xml version="1.0" encoding="utf-8"?>
<!-- Generator: Adobe Illustrator 24.0.1, SVG Export Plug-In . SVG Version: 6.00 Build 0)  -->
<svg version="1.1" id="Layer_1" xmlns="http://www.w3.org/2000/svg" xmlns:xlink="http://www.w3.org/1999/xlink" x="0px" y="0px"
	 viewBox="0 0 40 40" style="enable-background:new 0 0 40 40;" xml:space="preserve">
<style type="text/css">
	.st0{fill:#129B12;}
	.st1{fill:#097C09;}
	.st2{fill:#009000;}
	.st3{fill:#BF6101;}
	.st4{fill:#9A4D01;}
	.st5{fill:#28A528;}
</style>
<g>
	<path class="st0" d="M37.9,18.8c0-2.8-1.7-5.2-4.1-6.2c0.4-0.8,0.7-1.8,0.7-2.8c0-3.3-2.7-6-6-6c-0.9,0-1.8,0.2-2.6,0.6
		c-0.7-2.5-3-4.4-5.8-4.4S15,1.9,14.3,4.5c-0.8-0.4-1.7-0.6-2.6-0.6c-3.3,0-6,2.7-6,6c0,1,0.2,1.9,0.7,2.8c-2.4,1-4.1,3.4-4.1,6.2
		c0,3.6,2.9,6.6,6.4,6.7c0.5,1.8,2.4,3.2,4.7,3.2c1.3,0,2.5-0.4,3.4-1.1c0.9,0.7,2.1,1.1,3.4,1.1c1.3,0,2.5-0.4,3.4-1.1
		c0.9,0.7,2.1,1.1,3.4,1.1c2.3,0,4.2-1.3,4.7-3.2C35.1,25.4,37.9,22.5,37.9,18.8z"/>
	<g>
		<path class="st1" d="M19.7,0.1c-0.1,0-0.1,0-0.2,0c0,0,0,0-0.1,0c-0.1,0-0.2,0-0.2,0c0,0,0,0,0,0c-0.1,0-0.2,0-0.3,0c0,0,0,0,0,0
			c1.6,0.3,3.1,1.4,4,2.8c0.7,1,1.8,1.5,3,1.5c0,0,0,0,0,0c-0.7-2.5-3-4.4-5.8-4.4C20,0.1,19.9,0.1,19.7,0.1
			C19.8,0.1,19.7,0.1,19.7,0.1z"/>
		<path class="st1" d="M33.8,12.6c0.4-0.8,0.7-1.8,0.7-2.8c0-3.3-2.7-6-6-6c-0.4,0-0.8,0-1.2,0.1c2.7,0.6,4.8,3,4.8,5.9
			c0,1-0.2,1.9-0.7,2.8c2.4,1,4.1,3.4,4.1,6.2c0,3.6-2.9,6.6-6.4,6.7c-0.4,1.5-1.8,2.7-3.5,3c0.4,0.1,0.8,0.1,1.2,0.1
			c2.3,0,4.2-1.3,4.7-3.2c3.6-0.2,6.4-3.1,6.4-6.7C37.9,16,36.2,13.6,33.8,12.6z"/>
	</g>
	<path class="st2" d="M15.8,26.6c-0.5,0.9-2.8,1.9-3.6,2c0.1,0,0.2,0,0.3,0.1c0,0,0,0,0,0c0.1,0,0.2,0,0.3,0c0,0,0,0,0,0
		c0.1,0,0.2,0,0.3,0c0,0,0,0,0.1,0c0.1,0,0.2,0,0.3,0l0,0c1.2,0,2.3-0.4,3.1-1l0.1-0.1l-0.8-1.2L15.8,26.6z"/>
	<path class="st3" d="M23.1,28.1l2.6-4.1c0.2-0.3,0.1-0.7-0.1-1l0,0c-0.3-0.3-0.8-0.2-1.1,0L22.6,25c-0.3,0.3-0.7,0-0.6-0.3l0.6-4.1
		c0.1-0.4-0.3-0.8-0.7-0.9l-0.5,0c-0.4,0-0.7,0.2-0.8,0.6l-1,5.7c-0.1,0.3-0.5,0.4-0.7,0.2l-3.1-3.8c-0.2-0.3-0.6-0.4-0.9-0.2
		l-0.5,0.2c-0.4,0.2-0.6,0.7-0.4,1.1l3.2,5.3c0.5,0.8,0.7,1.7,0.5,2.6c-0.4,3.2-0.9,6.2-3,8.7h11l0,0c-2.3-2.6-2.8-5.9-3.1-9.4
		C22.4,29.8,22.6,28.9,23.1,28.1z"/>
	<path class="st4" d="M25.6,24.1c0.2-0.3,0.1-0.7-0.1-1l0,0c-0.3-0.3-0.8-0.2-1.1,0L23.6,24l0,0l-1,1.1c-0.3,0.3-0.7,0-0.6-0.3
		l0.6-4.1c0.1-0.4-0.3-0.8-0.7-0.9l-1.6,9.7c0,0.1,0,0.3-0.1,0.4l0,0l0,0c0,0.3,0,0.5,0,0.8c0.3,3.5,0.9,6.7,3.1,9.4l0,0h2.3l0,0
		c-2.3-2.6-2.8-5.9-3.1-9.4c-0.1-0.9,0.1-1.8,0.6-2.5L25.6,24.1z"/>
	<path class="st5" d="M18.9,4.8c-1.7,0-3.1,1-3.8,2.4c-0.7-0.5-1.5-0.8-2.4-0.8c-2.3,0-4.2,1.9-4.2,4.2c0,0.8,0.2,1.5,0.6,2.1
		c-2,0.3-3.5,2-3.5,4.1c0,2.3,1.9,4.2,4.2,4.2S23.1,11.3,23.1,9S21.2,4.8,18.9,4.8z"/>
	<g>
		<g>
			<path d="M34.1,12.5c0.3-0.8,0.5-1.6,0.5-2.4c0-0.2,0-0.3,0-0.5c0-0.3-0.3-0.5-0.6-0.5c-0.3,0-0.5,0.3-0.5,0.6c0,0.1,0,0.3,0,0.4
				c0,0.9-0.2,1.7-0.6,2.4c-0.1,0.1-0.1,0.3,0,0.5c0.1,0.1,0.2,0.3,0.3,0.3c2.2,0.9,3.7,3.1,3.7,5.5c0,3.2-2.5,5.8-5.7,6
				c-0.2,0-0.5,0.2-0.5,0.4c-0.4,1.5-2.1,2.6-4,2.6c-0.9,0-1.8-0.2-2.5-0.7l1.9-3c0.1-0.2,0.2-0.4,0.2-0.7c0-0.4-0.1-0.8-0.5-1
				c-0.5-0.5-1.3-0.4-1.8,0.1L22.4,24l0.5-3.4c0-0.4-0.1-0.7-0.3-1c-0.2-0.2-0.5-0.4-0.8-0.5c0,0-0.1,0-0.1,0l-0.5,0
				c-0.3,0-0.5,0-0.7,0.1c-0.3,0.2-0.6,0.5-0.7,0.9l-0.4,2.5l-0.4,2.5l-2.7-3.4c-0.1-0.1-0.2-0.2-0.3-0.3c0,0,0,0,0,0c0,0,0,0,0,0
				c-0.2-0.1-0.4-0.2-0.6-0.2c0,0,0,0,0,0c0,0-0.1,0-0.1,0c-0.2,0-0.4,0-0.5,0.1l-0.5,0.2c-0.4,0.1-0.6,0.4-0.7,0.8
				c-0.1,0.4-0.1,0.8,0.1,1.1l2.2,3.7c-0.7,0.4-1.5,0.6-2.3,0.6c-1.9,0-3.6-1.1-4-2.6c-0.1-0.2-0.3-0.4-0.5-0.4
				c-3.2-0.1-5.7-2.8-5.7-6c0-2.4,1.4-4.6,3.7-5.5C7,13.2,7.1,13.1,7.2,13c0.1-0.1,0-0.3,0-0.5c-0.4-0.8-0.6-1.6-0.6-2.4
				c0-2.9,2.4-5.3,5.3-5.3c0.8,0,1.6,0.2,2.3,0.5c0.2,0.1,0.3,0.1,0.5,0c0.2-0.1,0.3-0.2,0.3-0.4c0.6-2.3,2.7-3.8,5.1-3.8
				s4.4,1.6,5.1,3.8c0,0.2,0.2,0.3,0.3,0.4c0.2,0.1,0.3,0.1,0.5,0c0.7-0.4,1.5-0.5,2.3-0.5c1.9,0,3.7,1.1,4.6,2.8
				C33,7.9,33.3,8,33.6,7.8C33.9,7.7,34,7.3,33.8,7c-1.1-2.1-3.3-3.4-5.6-3.4c-0.8,0-1.5,0.1-2.2,0.4C25,1.6,22.6,0,20,0
				c-2.6,0-5,1.6-6,4.1c-0.7-0.3-1.5-0.4-2.2-0.4c-3.5,0-6.4,2.9-6.4,6.4c0,0.8,0.2,1.6,0.5,2.4c-2.3,1.2-3.8,3.6-3.8,6.3
				c0,3.7,2.8,6.7,6.4,7.1c0.7,1.8,2.7,3.1,5,3.1c1,0,2-0.3,2.8-0.7l0.3,0.5c0.4,0.6,0.5,1.4,0.4,2.1c-0.1,0.6-0.2,1.4-0.3,2.1
				c-0.1,0.3,0.2,0.6,0.5,0.7c0.3,0.1,0.6-0.2,0.7-0.5c0.1-0.8,0.2-1.5,0.3-2.2c0.1-1-0.1-2-0.6-2.9l-3.1-5.2c0-0.1,0-0.1,0-0.1
				c0,0,0-0.1,0.1-0.1l0.5-0.2c0.1,0,0.2,0,0.2,0.1l3,3.7c0,0,0,0,0,0c0.1,0.1,0.3,0.2,0.4,0.3c0.2,0.1,0.3,0.1,0.5,0c0,0,0,0,0,0
				c0,0,0,0,0,0h0c0.2,0,0.3-0.1,0.4-0.3c0,0,0,0,0,0c0,0,0,0,0,0c0.1-0.1,0.2-0.3,0.2-0.5l1-5.5c0-0.1,0.1-0.2,0.2-0.1l0.5,0
				c0.1,0,0.1,0,0.1,0.1c0,0,0,0.1,0,0.1l-0.5,4c0,0,0,0.1,0,0.1c0,0.3,0.2,0.7,0.5,0.8c0,0,0,0,0.1,0c0.1,0,0.2,0.1,0.4,0.1
				c0.2,0,0.5-0.1,0.6-0.3l1.8-1.9c0,0,0.1,0,0.1-0.1c0,0,0,0,0,0c0,0,0,0,0,0c0,0,0.1,0,0.1,0c0,0,0,0,0,0c0.1,0.1,0.1,0.2,0,0.2
				l-2.5,3.9c-0.5,0.8-0.8,1.8-0.7,2.8c0.2,2.7,0.7,5.8,2.4,8.5h-8.4c0.6-1,1.1-2,1.5-3.3c0.1-0.3-0.1-0.6-0.4-0.7
				c-0.3-0.1-0.6,0.1-0.7,0.4c-0.5,1.5-1.1,2.8-2,3.8c-0.1,0.2-0.2,0.4-0.1,0.6c0.1,0.2,0.3,0.3,0.5,0.3h10.7c0.2,0,0.4-0.1,0.5-0.3
				c0.1-0.2,0.1-0.4-0.1-0.6c-2.2-2.6-2.6-5.9-2.9-8.8c-0.1-0.7,0.1-1.5,0.5-2.1l0,0c0.9,0.6,2,0.9,3.1,0.9c2.3,0,4.3-1.3,5-3.1
				c3.6-0.4,6.4-3.4,6.4-7.1C37.9,16.1,36.4,13.7,34.1,12.5z"/>
		</g>
	</g>
</g>
</svg>
