<?xml version="1.0" encoding="utf-8"?>
<!-- Generator: Adobe Illustrator 24.0.1, SVG Export Plug-In . SVG Version: 6.00 Build 0)  -->
<svg version="1.1" id="Layer_1" xmlns="http://www.w3.org/2000/svg" xmlns:xlink="http://www.w3.org/1999/xlink" x="0px" y="0px"
	 viewBox="0 0 40 40" style="enable-background:new 0 0 40 40;" xml:space="preserve">
<style type="text/css">
	.st0{fill:#A3875E;}
	.st1{fill:#DBB67E;}
	.st2{fill:#6E5B3F;}
</style>
<path class="st0" d="M39.1,9.8v2.1h-1.8H23.9H6.2H2.7H0.9V9.8c0-0.8,0.6-1.4,1.4-1.4h35.4C38.5,8.4,39.1,9,39.1,9.8z"/>
<path class="st0" d="M37.3,27.7v3.2H23.9v-3.2h2.7h0.2h2.5H37.3z"/>
<path class="st1" d="M37.3,19.8v7.9h-8.1h-2.5h-0.2h-2.7v-7.9H37.3z"/>
<path class="st1" d="M37.3,11.9H23.9v7.9h13.4V11.9z"/>
<path class="st2" d="M6.2,11.9H2.7v19h3.5V11.9z"/>
<path d="M37.7,7.5H2.3C1,7.5,0,8.5,0,9.8v2.1c0,0.5,0.4,0.9,0.9,0.9h0.9v18.1c0,0.5,0.4,0.9,0.9,0.9h3.5c0.5,0,0.9-0.4,0.9-0.9V12.8
	H23v7v7.9v3.2c0,0.5,0.4,0.9,0.9,0.9h13.4c0.5,0,0.9-0.4,0.9-0.9v-3.2v-7.9v-7h0.9c0.5,0,0.9-0.4,0.9-0.9V9.8
	C40,8.5,39,7.5,37.7,7.5z M5.4,30H3.6V12.8h1.8V30z M36.4,18.9H24.8v-6.1h11.7L36.4,18.9L36.4,18.9z M24.8,30v-2.4v-7h11.7v6.1h-7.3
	c-0.5,0-0.9,0.4-0.9,0.9c0,0.5,0.4,0.9,0.9,0.9h7.3V30H24.8z M38.2,11h-0.9H23.9H6.2H2.7H1.8V9.8c0-0.3,0.2-0.5,0.5-0.5h35.4
	c0.3,0,0.5,0.2,0.5,0.5V11z"/>
<path d="M30,16.7h1.1c0.5,0,0.9-0.4,0.9-0.9c0-0.5-0.4-0.9-0.9-0.9H30c-0.5,0-0.9,0.4-0.9,0.9C29.2,16.3,29.6,16.7,30,16.7z"/>
<path d="M26.7,26.8h-0.2c-0.5,0-0.9,0.4-0.9,0.9c0,0.5,0.4,0.9,0.9,0.9h0.2c0.5,0,0.9-0.4,0.9-0.9C27.6,27.2,27.2,26.8,26.7,26.8z"
	/>
<path d="M30,24.6h1.1c0.5,0,0.9-0.4,0.9-0.9c0-0.5-0.4-0.9-0.9-0.9H30c-0.5,0-0.9,0.4-0.9,0.9C29.2,24.2,29.6,24.6,30,24.6z"/>
</svg>
