<?xml version="1.0" encoding="utf-8"?>
<!-- Generator: Adobe Illustrator 24.0.1, SVG Export Plug-In . SVG Version: 6.00 Build 0)  -->
<svg version="1.1" id="Layer_1" xmlns="http://www.w3.org/2000/svg" xmlns:xlink="http://www.w3.org/1999/xlink" x="0px" y="0px"
	 viewBox="0 0 35 35" style="enable-background:new 0 0 35 35;" xml:space="preserve">
<style type="text/css">
	.st0{fill:#999999;}
	.st1{fill:#A82304;}
	.st2{fill:#9CD4F2;}
	.st3{fill:#EA1E03;}
</style>
<path class="st0" d="M3.6,25.1c-1.5,0-2.7-1.2-2.7-2.7v5.5c0,1.3,1,2.3,2.3,2.3c1.3,0,2.3-1,2.3-2.3v-2.8H3.6z"/>
<path class="st0" d="M31.4,25.1h-1.9v2.8c0,1.3,1,2.3,2.3,2.3c1.3,0,2.3-1,2.3-2.3v-5.5C34.1,23.8,32.9,25.1,31.4,25.1z"/>
<path class="st1" d="M8.2,14.9H3.6c-1.5,0-2.7,1.2-2.7,2.7v4.7c0,1.5,1.2,2.7,2.7,2.7h27.8c1.5,0,2.7-1.2,2.7-2.7v-4.7
	c0-1.5-1.2-2.7-2.7-2.7H14.3H8.2z"/>
<path class="st2" d="M29.8,11.2H5.2c0,0,2.2-5.5,2.5-5.9c0.4-0.6,1.1-0.9,1.9-0.9h15.9c0.8,0,1.5,0.4,2,1
	C27.7,5.8,29.8,11.2,29.8,11.2z"/>
<path class="st3" d="M32.5,14.9l-2.8-3.7H5l-2.5,3.7H32.5z"/>
<path d="M5.9,22c1.1,0,2-0.9,2-2c0-1.1-0.9-2-2-2s-2,0.9-2,2C4,21.1,4.8,22,5.9,22z"/>
<path d="M10.2,21.2c0.6,0,1.2-0.5,1.2-1.2c0-0.6-0.5-1.2-1.2-1.2C9.5,18.8,9,19.3,9,20C9,20.6,9.5,21.2,10.2,21.2z"/>
<path d="M29,22c1.1,0,2-0.9,2-2c0-1.1-0.9-2-2-2s-2,0.9-2,2C27,21.1,27.9,22,29,22z"/>
<path d="M24.8,21.2c0.6,0,1.2-0.5,1.2-1.2c0-0.6-0.5-1.2-1.2-1.2c-0.6,0-1.2,0.5-1.2,1.2C23.6,20.6,24.2,21.2,24.8,21.2z"/>
<path d="M35,17.6c0-1.3-0.7-2.4-1.7-3c0-0.1,0-0.1-0.1-0.2l-1.7-2.2h0.8c0.8,0,1.5-0.7,1.5-1.5c0-0.8-0.7-1.5-1.5-1.5h-0.9
	c-0.5,0-0.9,0.2-1.2,0.6c-0.9-2.2-1.8-4.5-2-4.8c-0.6-0.9-1.6-1.4-2.7-1.4H9.5c-1,0-1.9,0.4-2.6,1.2C6.7,5,6,6.8,4.7,10
	C4.5,9.5,4,9.2,3.4,9.2H2.5C1.7,9.2,1,9.9,1,10.7c0,0.8,0.7,1.5,1.5,1.5h0.8l-1.5,2.2c0,0,0,0.1-0.1,0.2c-1,0.6-1.7,1.8-1.7,3v4.7
	v5.5c0,1.8,1.4,3.2,3.2,3.2s3.2-1.4,3.2-3.2v-2h22.3v2c0,1.8,1.4,3.2,3.2,3.2c1.8,0,3.2-1.4,3.2-3.2v-5.5L35,17.6L35,17.6z M8.3,5.8
	c0.3-0.4,0.7-0.6,1.2-0.6h15.9c0.5,0,1,0.2,1.2,0.6c0.2,0.3,1,2.3,1.9,4.5H6.4C7.3,8.2,8.2,6.1,8.3,5.8z M4.6,27.9
	c0,0.8-0.6,1.4-1.4,1.4c-0.8,0-1.4-0.6-1.4-1.4v-2.5c0.1,0.1,0.3,0.2,0.4,0.2c0,0,0,0,0.1,0c0.2,0.1,0.3,0.1,0.5,0.2
	c0,0,0.1,0,0.2,0c0.2,0,0.4,0.1,0.6,0.1h1V27.9z M6.4,24.2H3.6c-0.1,0-0.2,0-0.4,0c-0.8-0.2-1.5-0.9-1.5-1.8v-4.7
	c0-1,0.8-1.8,1.8-1.8h4.6c0.5,0,0.9-0.4,0.9-0.9C9,14.4,8.6,14,8.2,14h-4l1.3-2h23.8l1.5,2H14.3c-0.5,0-0.9,0.4-0.9,0.9
	c0,0.5,0.4,0.9,0.9,0.9h17.1c1,0,1.8,0.8,1.8,1.8v4.7c0,0.9-0.6,1.6-1.5,1.8c-0.1,0-0.2,0-0.4,0h-2.8H6.4z M33.2,27.9
	c0,0.8-0.6,1.4-1.4,1.4c-0.8,0-1.4-0.6-1.4-1.4v-2h1c0.2,0,0.4,0,0.6-0.1c0.1,0,0.1,0,0.2,0c0.2,0,0.4-0.1,0.5-0.2c0,0,0,0,0.1,0
	c0.1-0.1,0.3-0.1,0.4-0.2L33.2,27.9L33.2,27.9z"/>
<path d="M11.7,14h-0.9c-0.5,0-0.9,0.4-0.9,0.9c0,0.5,0.4,0.9,0.9,0.9h0.9c0.5,0,0.9-0.4,0.9-0.9C12.6,14.4,12.2,14,11.7,14z"/>
<path d="M5.9,18c-1.1,0-2,0.9-2,2c0,1.1,0.9,2,2,2c1.1,0,2-0.9,2-2C8,18.9,7,18,5.9,18z"/>
<path d="M10.2,18.8C9.5,18.8,9,19.3,9,20c0,0.6,0.5,1.2,1.2,1.2c0.6,0,1.2-0.5,1.2-1.2C11.4,19.3,10.8,18.8,10.2,18.8z"/>
<path d="M29,18c-1.1,0-2,0.9-2,2c0,1.1,0.9,2,2,2s2-0.9,2-2C31,18.9,30.1,18,29,18z"/>
<path d="M24.8,18.8c-0.6,0-1.2,0.5-1.2,1.2c0,0.6,0.5,1.2,1.2,1.2c0.6,0,1.2-0.5,1.2-1.2C26,19.3,25.4,18.8,24.8,18.8z"/>
</svg>
