<?xml version="1.0" encoding="utf-8"?>
<!-- Generator: Adobe Illustrator 24.0.1, SVG Export Plug-In . SVG Version: 6.00 Build 0)  -->
<svg version="1.1" id="Layer_1" xmlns="http://www.w3.org/2000/svg" xmlns:xlink="http://www.w3.org/1999/xlink" x="0px" y="0px"
	 viewBox="0 0 40 40" style="enable-background:new 0 0 40 40;" xml:space="preserve">
<style type="text/css">
	.st0{fill:#6F97C7;}
	.st1{fill:#97C2F7;}
	.st2{fill:#D2E3F7;}
	.st3{fill:#E6F6FF;}
</style>
<path class="st0" d="M31.9,29.6h-24v9.6h24V29.6z"/>
<path class="st1" d="M31.9,20h-24v9.6h24V20z"/>
<path class="st2" d="M31.9,10.4h-24V20h24V10.4z"/>
<path class="st3" d="M31.9,0.9h-24v9.6h24V0.9z"/>
<path d="M31.9,0h-24C7.4,0,7,0.4,7,0.9v9.6V20v9.6v9.6C7,39.6,7.4,40,7.9,40h24c0.5,0,0.9-0.4,0.9-0.9v-9.6V20v-9.6V0.9
	C32.8,0.4,32.4,0,31.9,0z M8.8,20.9H31v7.8H8.8V20.9z M31,1.8v7.8h-1.7c-0.5,0-0.9,0.4-0.9,0.9c0,0.5,0.4,0.9,0.9,0.9H31v7.8H8.8
	v-7.8h14.5c0.5,0,0.9-0.4,0.9-0.9c0-0.5-0.4-0.9-0.9-0.9H8.8V1.8H31z M31,38.2H8.8v-7.8H31V38.2z"/>
<path d="M26.3,11.3h0.4c0.5,0,0.9-0.4,0.9-0.9c0-0.5-0.4-0.9-0.9-0.9h-0.4c-0.5,0-0.9,0.4-0.9,0.9C25.4,10.9,25.8,11.3,26.3,11.3z"
	/>
</svg>
