<?xml version="1.0" encoding="utf-8"?>
<!-- Generator: Adobe Illustrator 24.0.1, SVG Export Plug-In . SVG Version: 6.00 Build 0)  -->
<svg version="1.1" id="Layer_1" xmlns="http://www.w3.org/2000/svg" xmlns:xlink="http://www.w3.org/1999/xlink" x="0px" y="0px"
	 viewBox="0 0 40 40" style="enable-background:new 0 0 40 40;" xml:space="preserve">
<style type="text/css">
	.st0{fill:#B3B3B3;}
	.st1{fill:#666666;}
</style>
<path class="st0" d="M14.2,15.7h3.1h16.5v3.6v5.3v1.8c0,3-2.4,5.4-5.4,5.4H11.6c-3,0-5.4-2.4-5.4-5.4v-1.8v-5.3v-3.6h4.5h3.2H14.2z"
	/>
<path class="st1" d="M6.3,15.7c0-2.7,2.2-4.8,4.8-4.8H20h8.9c2.7,0,4.8,2.2,4.8,4.8H17.2h-3.1h-0.3h-3.2H6.3z"/>
<path d="M38.9,19.4c-0.7-0.7-1.6-1.1-2.6-1.1h-1.7v-1.6h1.2c0.5,0,1-0.4,1-1s-0.4-1-1-1h-1.3C34.2,12,31.8,10,28.9,10h-8V7.5
	c0-0.5-0.4-1-1-1s-1,0.4-1,1V10h-8c-2.9,0-5.2,2.1-5.7,4.8H4.1c-0.5,0-1,0.4-1,1s0.4,1,1,1h1.2v1.6H3.6c-2,0-3.6,1.6-3.6,3.6
	c0,1,0.4,1.9,1.1,2.6c0.7,0.7,1.6,1.1,2.6,1.1h1.7v0.8c0,3.5,2.8,6.3,6.3,6.3h16.7c3.5,0,6.3-2.8,6.3-6.3v-0.8h1.7
	c2,0,3.6-1.6,3.6-3.6C40,21,39.6,20.1,38.9,19.4z M2.4,23.1c-0.3-0.3-0.5-0.7-0.5-1.2c0-0.9,0.8-1.7,1.7-1.7h1.7v3.4H3.6
	C3.2,23.6,2.7,23.5,2.4,23.1z M32.8,26.4c0,2.4-2,4.4-4.4,4.4H11.6c-2.4,0-4.4-2-4.4-4.4v-1.8v-5.3v-2.6h3.5c0.5,0,1-0.4,1-1
	s-0.4-1-1-1H7.3c0.4-1.7,1.9-2.9,3.7-2.9h17.9c1.8,0,3.3,1.2,3.7,2.9H17.2c-0.5,0-1,0.4-1,1s0.4,1,1,1h15.5v2.6v5.3V26.4z
	 M36.4,23.6h-1.7v-3.4h1.7c0.5,0,0.9,0.2,1.2,0.5c0.3,0.3,0.5,0.7,0.5,1.2C38.1,22.9,37.3,23.6,36.4,23.6z"/>
<path d="M14.2,14.8h-0.3c-0.5,0-1,0.4-1,1c0,0.5,0.4,1,1,1h0.3c0.5,0,1-0.4,1-1C15.1,15.2,14.7,14.8,14.2,14.8z"/>
</svg>
