<?xml version="1.0" encoding="utf-8"?>
<!-- Generator: Adobe Illustrator 24.0.1, SVG Export Plug-In . SVG Version: 6.00 Build 0)  -->
<svg version="1.1" id="Layer_1" xmlns="http://www.w3.org/2000/svg" xmlns:xlink="http://www.w3.org/1999/xlink" x="0px" y="0px"
	 viewBox="0 0 141 96" style="enable-background:new 0 0 141 96;" xml:space="preserve">
<style type="text/css">
	.st0{fill:#FFFFFF;}
</style>
<g>
	<g>
		<g>
			<path class="st0" d="M14.1,89.5c0,1.9-0.7,3.5-2.1,4.6c-1.4,1.1-3.3,1.7-5.8,1.7s-4.5-0.4-6.1-1.1v-3.4c1,0.5,2.1,0.8,3.2,1.1
				c1.1,0.3,2.2,0.4,3.1,0.4c1.4,0,2.5-0.3,3.1-0.8c0.7-0.5,1-1.3,1-2.2c0-0.8-0.3-1.5-0.9-2.1c-0.6-0.6-1.9-1.2-3.8-2
				c-2-0.8-3.4-1.7-4.2-2.8c-0.8-1-1.2-2.3-1.2-3.7c0-1.8,0.6-3.3,1.9-4.3c1.3-1,3-1.6,5.2-1.6c2.1,0,4.2,0.5,6.2,1.4l-1.1,2.9
				c-1.9-0.8-3.7-1.2-5.2-1.2c-1.2,0-2,0.3-2.6,0.8c-0.6,0.5-0.9,1.2-0.9,2c0,0.6,0.1,1.1,0.4,1.5C4.6,81,5,81.4,5.5,81.7
				c0.5,0.4,1.5,0.8,3,1.4c1.6,0.7,2.8,1.3,3.5,1.9c0.7,0.6,1.3,1.2,1.6,2C14,87.7,14.1,88.5,14.1,89.5z"/>
			<path class="st0" d="M31.9,95.4h-3.5V85.3c0-1.3-0.2-2.2-0.7-2.8c-0.5-0.6-1.2-0.9-2.2-0.9c-1.4,0-2.3,0.4-3,1.3
				c-0.6,0.9-0.9,2.3-0.9,4.4v8.2H18V78.9h2.7l0.5,2.2h0.2c0.5-0.8,1.1-1.4,2-1.8c0.9-0.4,1.8-0.6,2.9-0.6c2.5,0,4.2,0.9,5,2.6h0.2
				c0.5-0.8,1.2-1.5,2.1-1.9s1.9-0.7,3-0.7c2,0,3.4,0.5,4.3,1.5c0.9,1,1.3,2.5,1.3,4.5v10.8h-3.5V85.3c0-1.3-0.2-2.2-0.7-2.8
				c-0.5-0.6-1.2-0.9-2.2-0.9c-1.4,0-2.4,0.4-3,1.3c-0.6,0.8-0.9,2.2-0.9,3.9V95.4z"/>
			<path class="st0" d="M57.5,95.4l-0.7-2.3h-0.1c-0.8,1-1.6,1.7-2.4,2.1c-0.8,0.4-1.8,0.5-3.1,0.5c-1.6,0-2.9-0.4-3.8-1.3
				c-0.9-0.9-1.4-2.1-1.4-3.7c0-1.7,0.6-3,1.9-3.8c1.3-0.9,3.2-1.3,5.8-1.4l2.8-0.1v-0.9c0-1.1-0.2-1.8-0.7-2.4
				c-0.5-0.5-1.3-0.8-2.3-0.8c-0.8,0-1.7,0.1-2.4,0.4c-0.8,0.2-1.5,0.5-2.2,0.9l-1.1-2.5c0.9-0.5,1.9-0.8,2.9-1.1
				c1.1-0.2,2.1-0.4,3-0.4c2.1,0,3.7,0.5,4.7,1.4c1.1,0.9,1.6,2.4,1.6,4.3v11.1H57.5z M52.3,93c1.3,0,2.3-0.4,3.1-1.1
				c0.8-0.7,1.2-1.7,1.2-3v-1.4l-2.1,0.1c-1.7,0.1-2.9,0.3-3.6,0.8c-0.8,0.5-1.1,1.2-1.1,2.3c0,0.7,0.2,1.3,0.7,1.7
				C50.8,92.8,51.4,93,52.3,93z"/>
			<path class="st0" d="M73.3,78.6c0.7,0,1.3,0.1,1.7,0.1l-0.3,3.3c-0.5-0.1-1-0.2-1.6-0.2c-1.4,0-2.5,0.5-3.4,1.4
				c-0.9,0.9-1.3,2.1-1.3,3.6v8.6h-3.5V78.9h2.7l0.5,2.9h0.2c0.5-1,1.3-1.8,2.1-2.3C71.3,78.9,72.3,78.6,73.3,78.6z"/>
			<path class="st0" d="M84.2,92.9c0.9,0,1.7-0.1,2.6-0.4v2.6c-0.4,0.2-0.9,0.3-1.5,0.4c-0.6,0.1-1.2,0.2-1.9,0.2
				c-3.3,0-5-1.7-5-5.2v-8.9h-2.3V80l2.4-1.3l1.2-3.5h2.2v3.7h4.7v2.7h-4.7v8.8c0,0.8,0.2,1.5,0.6,1.9C83,92.7,83.5,92.9,84.2,92.9z
				"/>
			<path class="st0" d="M107.7,95.4h-3.6v-9.8H94v9.8h-3.6V73.6H94v8.9h10.1v-8.9h3.6V95.4z"/>
			<path class="st0" d="M124.7,95.4l-0.5-2.2H124c-0.5,0.8-1.2,1.4-2.1,1.8c-0.9,0.4-1.9,0.7-3.1,0.7c-2,0-3.5-0.5-4.5-1.5
				c-1-1-1.5-2.5-1.5-4.5V78.9h3.5v10.2c0,1.3,0.3,2.2,0.8,2.8c0.5,0.6,1.3,0.9,2.4,0.9c1.5,0,2.6-0.4,3.2-1.3c0.7-0.9,1-2.4,1-4.4
				v-8.2h3.5v16.5H124.7z"/>
			<path class="st0" d="M138.6,92.9c0.9,0,1.7-0.1,2.6-0.4v2.6c-0.4,0.2-0.9,0.3-1.5,0.4c-0.6,0.1-1.2,0.2-1.9,0.2
				c-3.3,0-5-1.7-5-5.2v-8.9h-2.3V80l2.4-1.3l1.2-3.5h2.2v3.7h4.7v2.7h-4.7v8.8c0,0.8,0.2,1.5,0.6,1.9
				C137.3,92.7,137.9,92.9,138.6,92.9z"/>
		</g>
		<g>
			<g>
				<g>
					<g>
						<g>
							<path class="st0" d="M54.8,59.4c-1,0-1.8-0.8-1.8-1.8V36.4c0-1,0.8-1.8,1.8-1.8c1,0,1.8,0.8,1.8,1.8v21.2
								C56.6,58.6,55.8,59.4,54.8,59.4z"/>
							<path class="st0" d="M84,59.4c-1,0-1.8-0.8-1.8-1.8V36.4c0-1,0.8-1.8,1.8-1.8s1.8,0.8,1.8,1.8v21.2
								C85.8,58.6,85,59.4,84,59.4z"/>
							<path class="st0" d="M84.1,37H54.9c-1,0-1.8-0.8-1.8-1.8c0-1,0.8-1.8,1.8-1.8h29.2c1,0,1.8,0.8,1.8,1.8
								C85.8,36.2,85,37,84.1,37z"/>
							<path class="st0" d="M84,57.6"/>
							<path class="st0" d="M99.2,57.6"/>
							<path class="st0" d="M39.6,57.6"/>
							<path class="st0" d="M54.8,57.6"/>
							<path class="st0" d="M99.5,36.2c-0.5,0-0.9-0.2-1.3-0.5L69.4,7L41.1,35.6c-0.7,0.7-1.8,0.7-2.5,0c-0.7-0.7-0.7-1.8,0-2.5
								l29.6-30c0.3-0.3,0.8-0.5,1.3-0.5c0,0,0,0,0,0c0.5,0,0.9,0.2,1.3,0.5l30.1,30c0.7,0.7,0.7,1.8,0,2.5
								C100.4,36,100,36.2,99.5,36.2z"/>
						</g>
						<g>
							<circle class="st0" cx="54.8" cy="34.8" r="4.5"/>
							<path class="st0" d="M73.8,4.7c0,2.5-2,4.5-4.5,4.5c-2.5,0-4.5-2-4.5-4.5c0-2.5,2-4.5,4.5-4.5C71.8,0.3,73.8,2.3,73.8,4.7z"
								/>
							<path class="st0" d="M73.8,22.5c0,2.5-2,4.5-4.5,4.5c-2.5,0-4.5-2-4.5-4.5s2-4.5,4.5-4.5C71.8,18,73.8,20,73.8,22.5z"/>
							<path class="st0" d="M73.8,46.8c0,2.5-2,4.5-4.5,4.5c-2.5,0-4.5-2-4.5-4.5c0-2.5,2-4.5,4.5-4.5
								C71.8,42.3,73.8,44.3,73.8,46.8z"/>
							<circle class="st0" cx="84" cy="34.8" r="4.5"/>
							<path class="st0" d="M59.2,57.6c0,2.5-2,4.5-4.5,4.5s-4.5-2-4.5-4.5c0-2.5,2-4.5,4.5-4.5S59.2,55.2,59.2,57.6z"/>
							<path class="st0" d="M44,57.6c0,2.5-2,4.5-4.5,4.5s-4.5-2-4.5-4.5c0-2.5,2-4.5,4.5-4.5S44,55.2,44,57.6z"/>
							<path class="st0" d="M88.5,57.6c0,2.5-2,4.5-4.5,4.5c-2.5,0-4.5-2-4.5-4.5c0-2.5,2-4.5,4.5-4.5
								C86.4,53.2,88.5,55.2,88.5,57.6z"/>
							<path class="st0" d="M104.4,57.6c0,2.5-2,4.5-4.5,4.5c-2.5,0-4.5-2-4.5-4.5c0-2.5,2-4.5,4.5-4.5
								C102.4,53.2,104.4,55.2,104.4,57.6z"/>
							<circle class="st0" cx="39.2" cy="34.8" r="4.5"/>
							<circle class="st0" cx="100" cy="34.8" r="4.5"/>
						</g>
					</g>
				</g>
			</g>
		</g>
	</g>
	<g>
		<g>
			<path class="st0" d="M14.1,89.5c0,1.9-0.7,3.5-2.1,4.6c-1.4,1.1-3.3,1.7-5.8,1.7s-4.5-0.4-6.1-1.1v-3.4c1,0.5,2.1,0.8,3.2,1.1
				c1.1,0.3,2.2,0.4,3.1,0.4c1.4,0,2.5-0.3,3.1-0.8c0.7-0.5,1-1.3,1-2.2c0-0.8-0.3-1.5-0.9-2.1c-0.6-0.6-1.9-1.2-3.8-2
				c-2-0.8-3.4-1.7-4.2-2.8c-0.8-1-1.2-2.3-1.2-3.7c0-1.8,0.6-3.3,1.9-4.3c1.3-1,3-1.6,5.2-1.6c2.1,0,4.2,0.5,6.2,1.4l-1.1,2.9
				c-1.9-0.8-3.7-1.2-5.2-1.2c-1.2,0-2,0.3-2.6,0.8c-0.6,0.5-0.9,1.2-0.9,2c0,0.6,0.1,1.1,0.4,1.5C4.6,81,5,81.4,5.5,81.7
				c0.5,0.4,1.5,0.8,3,1.4c1.6,0.7,2.8,1.3,3.5,1.9c0.7,0.6,1.3,1.2,1.6,2C14,87.7,14.1,88.5,14.1,89.5z"/>
			<path class="st0" d="M31.9,95.4h-3.5V85.3c0-1.3-0.2-2.2-0.7-2.8c-0.5-0.6-1.2-0.9-2.2-0.9c-1.4,0-2.3,0.4-3,1.3
				c-0.6,0.9-0.9,2.3-0.9,4.4v8.2H18V78.9h2.7l0.5,2.2h0.2c0.5-0.8,1.1-1.4,2-1.8c0.9-0.4,1.8-0.6,2.9-0.6c2.5,0,4.2,0.9,5,2.6h0.2
				c0.5-0.8,1.2-1.5,2.1-1.9s1.9-0.7,3-0.7c2,0,3.4,0.5,4.3,1.5c0.9,1,1.3,2.5,1.3,4.5v10.8h-3.5V85.3c0-1.3-0.2-2.2-0.7-2.8
				c-0.5-0.6-1.2-0.9-2.2-0.9c-1.4,0-2.4,0.4-3,1.3c-0.6,0.8-0.9,2.2-0.9,3.9V95.4z"/>
			<path class="st0" d="M57.5,95.4l-0.7-2.3h-0.1c-0.8,1-1.6,1.7-2.4,2.1c-0.8,0.4-1.8,0.5-3.1,0.5c-1.6,0-2.9-0.4-3.8-1.3
				c-0.9-0.9-1.4-2.1-1.4-3.7c0-1.7,0.6-3,1.9-3.8c1.3-0.9,3.2-1.3,5.8-1.4l2.8-0.1v-0.9c0-1.1-0.2-1.8-0.7-2.4
				c-0.5-0.5-1.3-0.8-2.3-0.8c-0.8,0-1.7,0.1-2.4,0.4c-0.8,0.2-1.5,0.5-2.2,0.9l-1.1-2.5c0.9-0.5,1.9-0.8,2.9-1.1
				c1.1-0.2,2.1-0.4,3-0.4c2.1,0,3.7,0.5,4.7,1.4c1.1,0.9,1.6,2.4,1.6,4.3v11.1H57.5z M52.3,93c1.3,0,2.3-0.4,3.1-1.1
				c0.8-0.7,1.2-1.7,1.2-3v-1.4l-2.1,0.1c-1.7,0.1-2.9,0.3-3.6,0.8c-0.8,0.5-1.1,1.2-1.1,2.3c0,0.7,0.2,1.3,0.7,1.7
				C50.8,92.8,51.4,93,52.3,93z"/>
			<path class="st0" d="M73.3,78.6c0.7,0,1.3,0.1,1.7,0.1l-0.3,3.3c-0.5-0.1-1-0.2-1.6-0.2c-1.4,0-2.5,0.5-3.4,1.4
				c-0.9,0.9-1.3,2.1-1.3,3.6v8.6h-3.5V78.9h2.7l0.5,2.9h0.2c0.5-1,1.3-1.8,2.1-2.3C71.3,78.9,72.3,78.6,73.3,78.6z"/>
			<path class="st0" d="M84.2,92.9c0.9,0,1.7-0.1,2.6-0.4v2.6c-0.4,0.2-0.9,0.3-1.5,0.4c-0.6,0.1-1.2,0.2-1.9,0.2
				c-3.3,0-5-1.7-5-5.2v-8.9h-2.3V80l2.4-1.3l1.2-3.5h2.2v3.7h4.7v2.7h-4.7v8.8c0,0.8,0.2,1.5,0.6,1.9C83,92.7,83.5,92.9,84.2,92.9z
				"/>
			<path class="st0" d="M107.7,95.4h-3.6v-9.8H94v9.8h-3.6V73.6H94v8.9h10.1v-8.9h3.6V95.4z"/>
			<path class="st0" d="M124.7,95.4l-0.5-2.2H124c-0.5,0.8-1.2,1.4-2.1,1.8c-0.9,0.4-1.9,0.7-3.1,0.7c-2,0-3.5-0.5-4.5-1.5
				c-1-1-1.5-2.5-1.5-4.5V78.9h3.5v10.2c0,1.3,0.3,2.2,0.8,2.8c0.5,0.6,1.3,0.9,2.4,0.9c1.5,0,2.6-0.4,3.2-1.3c0.7-0.9,1-2.4,1-4.4
				v-8.2h3.5v16.5H124.7z"/>
			<path class="st0" d="M138.6,92.9c0.9,0,1.7-0.1,2.6-0.4v2.6c-0.4,0.2-0.9,0.3-1.5,0.4c-0.6,0.1-1.2,0.2-1.9,0.2
				c-3.3,0-5-1.7-5-5.2v-8.9h-2.3V80l2.4-1.3l1.2-3.5h2.2v3.7h4.7v2.7h-4.7v8.8c0,0.8,0.2,1.5,0.6,1.9
				C137.3,92.7,137.9,92.9,138.6,92.9z"/>
		</g>
		<g>
			<g>
				<g>
					<g>
						<g>
							<path class="st0" d="M54.8,59.4c-1,0-1.8-0.8-1.8-1.8V36.4c0-1,0.8-1.8,1.8-1.8c1,0,1.8,0.8,1.8,1.8v21.2
								C56.6,58.6,55.8,59.4,54.8,59.4z"/>
							<path class="st0" d="M84,59.4c-1,0-1.8-0.8-1.8-1.8V36.4c0-1,0.8-1.8,1.8-1.8s1.8,0.8,1.8,1.8v21.2
								C85.8,58.6,85,59.4,84,59.4z"/>
							<path class="st0" d="M84.1,37H54.9c-1,0-1.8-0.8-1.8-1.8c0-1,0.8-1.8,1.8-1.8h29.2c1,0,1.8,0.8,1.8,1.8
								C85.8,36.2,85,37,84.1,37z"/>
							<path class="st0" d="M84,57.6"/>
							<path class="st0" d="M99.2,57.6"/>
							<path class="st0" d="M39.6,57.6"/>
							<path class="st0" d="M54.8,57.6"/>
							<path class="st0" d="M99.5,36.2c-0.5,0-0.9-0.2-1.3-0.5L69.4,7L41.1,35.6c-0.7,0.7-1.8,0.7-2.5,0c-0.7-0.7-0.7-1.8,0-2.5
								l29.6-30c0.3-0.3,0.8-0.5,1.3-0.5c0,0,0,0,0,0c0.5,0,0.9,0.2,1.3,0.5l30.1,30c0.7,0.7,0.7,1.8,0,2.5
								C100.4,36,100,36.2,99.5,36.2z"/>
						</g>
						<g>
							<circle class="st0" cx="54.8" cy="34.8" r="4.5"/>
							<path class="st0" d="M73.8,4.7c0,2.5-2,4.5-4.5,4.5c-2.5,0-4.5-2-4.5-4.5c0-2.5,2-4.5,4.5-4.5C71.8,0.3,73.8,2.3,73.8,4.7z"
								/>
							<path class="st0" d="M73.8,22.5c0,2.5-2,4.5-4.5,4.5c-2.5,0-4.5-2-4.5-4.5s2-4.5,4.5-4.5C71.8,18,73.8,20,73.8,22.5z"/>
							<path class="st0" d="M73.8,46.8c0,2.5-2,4.5-4.5,4.5c-2.5,0-4.5-2-4.5-4.5c0-2.5,2-4.5,4.5-4.5
								C71.8,42.3,73.8,44.3,73.8,46.8z"/>
							<circle class="st0" cx="84" cy="34.8" r="4.5"/>
							<path class="st0" d="M59.2,57.6c0,2.5-2,4.5-4.5,4.5s-4.5-2-4.5-4.5c0-2.5,2-4.5,4.5-4.5S59.2,55.2,59.2,57.6z"/>
							<path class="st0" d="M44,57.6c0,2.5-2,4.5-4.5,4.5s-4.5-2-4.5-4.5c0-2.5,2-4.5,4.5-4.5S44,55.2,44,57.6z"/>
							<path class="st0" d="M88.5,57.6c0,2.5-2,4.5-4.5,4.5c-2.5,0-4.5-2-4.5-4.5c0-2.5,2-4.5,4.5-4.5
								C86.4,53.2,88.5,55.2,88.5,57.6z"/>
							<path class="st0" d="M104.4,57.6c0,2.5-2,4.5-4.5,4.5c-2.5,0-4.5-2-4.5-4.5c0-2.5,2-4.5,4.5-4.5
								C102.4,53.2,104.4,55.2,104.4,57.6z"/>
							<circle class="st0" cx="39.2" cy="34.8" r="4.5"/>
							<circle class="st0" cx="100" cy="34.8" r="4.5"/>
						</g>
					</g>
				</g>
			</g>
		</g>
	</g>
</g>
</svg>
