<svg width="219" height="38" viewBox="0 0 219 38" fill="none" xmlns="http://www.w3.org/2000/svg">
<g clip-path="url(#clip0)">
<path d="M12.4647 36.3519C11.8489 36.3519 11.349 35.8591 11.349 35.2519V22.2054C11.349 21.5982 11.8489 21.1054 12.4647 21.1054C13.0805 21.1054 13.5804 21.5982 13.5804 22.2054V35.2519C13.5804 35.8591 13.0805 36.3519 12.4647 36.3519Z" fill="white"/>
<path d="M30.6719 36.3519C30.0561 36.3519 29.5562 35.8591 29.5562 35.2519V22.2054C29.5562 21.5982 30.0561 21.1054 30.6719 21.1054C31.2878 21.1054 31.7876 21.5982 31.7876 22.2054V35.2519C31.7876 35.8591 31.2878 36.3519 30.6719 36.3519Z" fill="white"/>
<path d="M30.7199 22.5524H12.5167C11.9009 22.5524 11.401 22.0596 11.401 21.4524C11.401 20.8452 11.9009 20.3524 12.5167 20.3524H30.7239C31.3398 20.3524 31.8396 20.8452 31.8396 21.4524C31.8396 22.0596 31.3358 22.5524 30.7199 22.5524Z" fill="white"/>
<path d="M40.3454 22.0674C40.0615 22.0674 39.7775 21.961 39.5576 21.7481L21.5743 4.10832L3.91497 21.7402C3.48309 22.1739 2.77527 22.1778 2.33939 21.7481C1.8995 21.3223 1.8955 20.6244 2.33139 20.1946L20.7745 1.78211C20.9825 1.57315 21.2664 1.45486 21.5623 1.45486H21.5663C21.8623 1.45486 22.1422 1.5692 22.3541 1.77423L41.1292 20.1907C41.5651 20.6205 41.5691 21.3144 41.1332 21.7441C40.9172 21.961 40.6293 22.0674 40.3454 22.0674Z" fill="white"/>
<path d="M12.4647 23.9915C14.0041 23.9915 15.252 22.7611 15.252 21.2434C15.252 19.7257 14.0041 18.4953 12.4647 18.4953C10.9253 18.4953 9.67743 19.7257 9.67743 21.2434C9.67743 22.7611 10.9253 23.9915 12.4647 23.9915Z" fill="white"/>
<path d="M24.3576 2.74808C24.3576 4.26603 23.1099 5.49616 21.5703 5.49616C20.0308 5.49616 18.7831 4.26603 18.7831 2.74808C18.7831 1.23013 20.0308 0 21.5703 0C23.1099 0 24.3576 1.23013 24.3576 2.74808Z" fill="white"/>
<path d="M24.3576 13.6694C24.3576 15.1874 23.1099 16.4175 21.5703 16.4175C20.0308 16.4175 18.7831 15.1874 18.7831 13.6694C18.7831 12.1515 20.0308 10.9214 21.5703 10.9214C23.1099 10.9214 24.3576 12.1515 24.3576 13.6694Z" fill="white"/>
<path d="M24.3576 28.6005C24.3576 30.1185 23.1099 31.3486 21.5703 31.3486C20.0308 31.3486 18.7831 30.1185 18.7831 28.6005C18.7831 27.0826 20.0308 25.8524 21.5703 25.8524C23.1099 25.8524 24.3576 27.0826 24.3576 28.6005Z" fill="white"/>
<path d="M30.6719 23.9915C32.2113 23.9915 33.4592 22.7611 33.4592 21.2434C33.4592 19.7257 32.2113 18.4953 30.6719 18.4953C29.1325 18.4953 27.8846 19.7257 27.8846 21.2434C27.8846 22.7611 29.1325 23.9915 30.6719 23.9915Z" fill="white"/>
<path d="M15.252 35.2519C15.252 36.7699 14.0043 38 12.4647 38C10.9251 38 9.67743 36.7699 9.67743 35.2519C9.67743 33.734 10.9251 32.5038 12.4647 32.5038C14.0043 32.5038 15.252 33.734 15.252 35.2519Z" fill="white"/>
<path d="M5.76246 35.2519C5.76246 36.7699 4.51479 38 2.97519 38C1.4356 38 0.187927 36.7699 0.187927 35.2519C0.187927 33.734 1.4356 32.5038 2.97519 32.5038C4.51479 32.5038 5.76246 33.734 5.76246 35.2519Z" fill="white"/>
<path d="M33.4592 35.2519C33.4592 36.7699 32.2115 38 30.6719 38C29.1323 38 27.8846 36.7699 27.8846 35.2519C27.8846 33.734 29.1323 32.5038 30.6719 32.5038C32.2115 32.5038 33.4592 33.734 33.4592 35.2519Z" fill="white"/>
<path d="M43.4286 35.2519C43.4286 36.7699 42.1809 38 40.6413 38C39.1017 38 37.8541 36.7699 37.8541 35.2519C37.8541 33.734 39.1017 32.5038 40.6413 32.5038C42.1809 32.5038 43.4286 33.734 43.4286 35.2519Z" fill="white"/>
<path d="M2.78727 23.9915C4.32663 23.9915 5.57453 22.7611 5.57453 21.2434C5.57453 19.7257 4.32663 18.4953 2.78727 18.4953C1.2479 18.4953 0 19.7257 0 21.2434C0 22.7611 1.2479 23.9915 2.78727 23.9915Z" fill="white"/>
<path d="M40.6413 23.9915C42.1807 23.9915 43.4286 22.7611 43.4286 21.2434C43.4286 19.7257 42.1807 18.4953 40.6413 18.4953C39.102 18.4953 37.8541 19.7257 37.8541 21.2434C37.8541 22.7611 39.102 23.9915 40.6413 23.9915Z" fill="white"/>
</g>
<g clip-path="url(#clip1)">
<path d="M72.997 30.8483C72.997 33.0809 72.1915 34.8284 70.5851 36.0997C68.9787 37.3711 66.7637 38.0045 63.9357 38.0045C61.1078 38.0045 58.7988 37.5597 57 36.6792V32.8024C58.141 33.3415 59.3492 33.7638 60.6334 34.0737C61.9132 34.3837 63.1079 34.5364 64.2132 34.5364C65.833 34.5364 67.0233 34.2265 67.7929 33.611C68.5626 32.9956 68.9474 32.1645 68.9474 31.1223C68.9474 30.1834 68.5939 29.3883 67.8869 28.7369C67.1799 28.0855 65.7211 27.3128 63.5107 26.4189C61.233 25.4935 59.6266 24.4333 58.6914 23.2428C57.7562 22.0524 57.2909 20.6238 57.2909 18.9527C57.2909 16.8593 58.0292 15.2106 59.5103 14.0112C60.9914 12.8162 62.9826 12.2143 65.475 12.2143C67.869 12.2143 70.2495 12.7399 72.6166 13.7911L71.319 17.1378C69.095 16.1989 67.1128 15.7317 65.3721 15.7317C64.0521 15.7317 63.0498 16.0192 62.3651 16.5987C61.6805 17.1782 61.3404 17.9419 61.3404 18.8898C61.3404 19.5412 61.4791 20.0982 61.7521 20.5609C62.0251 21.0236 62.477 21.4639 63.1035 21.8727C63.7299 22.286 64.8575 22.8295 66.4863 23.5034C68.3209 24.2716 69.6633 24.9858 70.518 25.6462C71.3727 26.3111 71.9991 27.0568 72.3974 27.8923C72.7956 28.7324 72.997 29.7162 72.997 30.8483Z" fill="white"/>
<path d="M93.3343 37.6586H89.3026V25.9562C89.3026 24.5052 89.0297 23.418 88.4838 22.7038C87.9379 21.9895 87.0832 21.6301 85.9198 21.6301C84.3716 21.6301 83.235 22.1377 82.5101 23.1485C81.7852 24.1593 81.4227 25.8439 81.4227 28.2023V37.6541H77.4045V18.6832H80.5502L81.114 21.1719H81.3198C81.8434 20.269 82.6041 19.5727 83.6019 19.0785C84.5998 18.5888 85.6961 18.3418 86.8908 18.3418C89.7949 18.3418 91.7234 19.3391 92.6676 21.3291H92.9406C93.4999 20.3902 94.283 19.658 95.2987 19.1324C96.3145 18.6068 97.4734 18.3418 98.7845 18.3418C101.04 18.3418 102.682 18.9123 103.716 20.0578C104.745 21.2034 105.264 22.9464 105.264 25.2913V37.6631H101.246V25.9562C101.246 24.5052 100.968 23.418 100.418 22.7038C99.8629 21.9895 99.0082 21.6301 97.8448 21.6301C96.2831 21.6301 95.1421 22.1198 94.4172 23.0991C93.6923 24.0784 93.3343 25.5788 93.3343 27.6049V37.6586Z" fill="white"/>
<path d="M122.693 37.6586L121.887 35.0171H121.749C120.836 36.1716 119.918 36.9578 118.997 37.3755C118.075 37.7933 116.889 38 115.444 38C113.587 38 112.137 37.4968 111.094 36.4906C110.052 35.4843 109.533 34.0602 109.533 32.2184C109.533 30.2643 110.258 28.7863 111.703 27.7935C113.148 26.8007 115.354 26.2571 118.316 26.1628L121.583 26.0595V25.0487C121.583 23.8358 121.301 22.9284 120.737 22.3309C120.173 21.7289 119.301 21.4324 118.115 21.4324C117.149 21.4324 116.218 21.5762 115.327 21.8592C114.437 22.1467 113.582 22.4836 112.763 22.87L111.466 19.9859C112.49 19.4468 113.614 19.038 114.831 18.7595C116.048 18.481 117.202 18.3372 118.281 18.3372C120.684 18.3372 122.5 18.8628 123.722 19.914C124.948 20.9652 125.561 22.6184 125.561 24.8735V37.6541H122.693V37.6586ZM116.715 34.9138C118.173 34.9138 119.346 34.505 120.227 33.6874C121.109 32.8698 121.552 31.7243 121.552 30.2463V28.5976L119.126 28.7009C117.234 28.7683 115.86 29.0873 115.001 29.6533C114.142 30.2193 113.712 31.0863 113.712 32.2543C113.712 33.1034 113.963 33.7548 114.464 34.2175C114.96 34.6802 115.712 34.9138 116.715 34.9138Z" fill="white"/>
<path d="M140.757 18.3372C141.567 18.3372 142.234 18.3956 142.757 18.508L142.363 22.2635C141.795 22.1287 141.2 22.0569 140.587 22.0569C138.98 22.0569 137.678 22.5825 136.68 23.6337C135.683 24.6848 135.186 26.055 135.186 27.7351V37.6541H131.172V18.6832H134.318L134.846 22.0299H135.052C135.678 20.8979 136.497 19.9994 137.504 19.3345C138.511 18.6697 139.598 18.3372 140.757 18.3372Z" fill="white"/>
<path d="M153.304 34.7431C154.284 34.7431 155.264 34.5903 156.244 34.2804V37.3172C155.801 37.5103 155.228 37.6721 154.526 37.8068C153.823 37.9371 153.098 38.0045 152.346 38.0045C148.543 38.0045 146.637 35.9919 146.637 31.9669V21.7379H144.055V19.9545L146.825 18.481L148.194 14.4604H150.673V18.6832H156.056V21.7379H150.673V31.895C150.673 32.8653 150.915 33.5841 151.398 34.0468C151.881 34.5095 152.516 34.7431 153.304 34.7431Z" fill="white"/>
<path d="M180.152 37.6586H176.049V26.3515H164.531V37.6586H160.446V12.5736H164.531V22.834H176.049V12.5736H180.152V37.6586Z" fill="white"/>
<path d="M199.635 37.6586L199.071 35.1699H198.865C198.306 36.0503 197.514 36.7422 196.48 37.2453C195.451 37.7484 194.274 38 192.95 38C190.659 38 188.949 37.4295 187.822 36.2839C186.694 35.1384 186.13 33.4089 186.13 31.0864V18.6832H190.18V30.3856C190.18 31.8366 190.475 32.9282 191.07 33.656C191.661 34.3837 192.592 34.7431 193.858 34.7431C195.545 34.7431 196.784 34.2355 197.576 33.2247C198.368 32.2139 198.762 30.5158 198.762 28.1394V18.6832H202.794V37.6586H199.635Z" fill="white"/>
<path d="M215.56 34.7431C216.54 34.7431 217.52 34.5903 218.5 34.2804V37.3172C218.057 37.5103 217.484 37.6721 216.782 37.8068C216.079 37.9371 215.354 38.0045 214.603 38.0045C210.799 38.0045 208.893 35.9919 208.893 31.9669V21.7379H206.311V19.9545L209.081 18.481L210.45 14.4604H212.929V18.6832H218.312V21.7379H212.929V31.895C212.929 32.8653 213.171 33.5841 213.654 34.0468C214.142 34.5095 214.777 34.7431 215.56 34.7431Z" fill="white"/>
</g>
<defs>
<clipPath id="clip0">
<rect width="43.4286" height="38" fill="white"/>
</clipPath>
<clipPath id="clip1">
<rect x="57" y="12.2143" width="161.5" height="25.7857" fill="white"/>
</clipPath>
</defs>
</svg>
