<?xml version="1.0" encoding="utf-8"?>
<!-- Generator: Adobe Illustrator 24.0.1, SVG Export Plug-In . SVG Version: 6.00 Build 0)  -->
<svg version="1.1" id="Layer_1" xmlns="http://www.w3.org/2000/svg" xmlns:xlink="http://www.w3.org/1999/xlink" x="0px" y="0px"
	 viewBox="0 0 212 212" style="enable-background:new 0 0 212 212;" xml:space="preserve">
<style type="text/css">
	.st0{clip-path:url(#SVGID_2_);}
	.st1{fill:#FFFFFF;}
</style>
<g>
	<defs>
		<rect id="SVGID_1_" x="-0.7" y="12.1" width="212.7" height="187.1"/>
	</defs>
	<clipPath id="SVGID_2_">
		<use xlink:href="#SVGID_1_"  style="overflow:visible;"/>
	</clipPath>
	<g class="st0">
		<path class="st1" d="M186.6,191.5h-75H99.7h-75v-86.8l80.1-81.3l81.9,81.6V191.5z"/>
		<path d="M210.2,114.7L109,13.8c-1.1-1.1-2.7-1.7-4.2-1.7h0c-1.6,0-3.1,0.6-4.2,1.8L1.1,114.8c-2.3,2.4-2.3,6.2,0,8.5
			c2.4,2.3,6.2,2.3,8.5,0l7.3-7.4v77.8c0,3,2.4,5.5,5.5,5.5h77.6h11.5H189c3,0,5.5-2.4,5.5-5.5V116l7.3,7.3c1.2,1.2,2.7,1.7,4.2,1.7
			c1.6,0,3.1-0.6,4.3-1.8C212.6,120.9,212.6,117.1,210.2,114.7z M183.6,188.3h-72.2H99.9H27.8v-83.5l77-78.2l78.7,78.5L183.6,188.3
			L183.6,188.3z"/>
	</g>
</g>
</svg>
