<?xml version="1.0" encoding="utf-8"?>
<!-- Generator: Adobe Illustrator 24.0.1, SVG Export Plug-In . SVG Version: 6.00 Build 0)  -->
<svg version="1.1" id="Layer_1" xmlns="http://www.w3.org/2000/svg" xmlns:xlink="http://www.w3.org/1999/xlink" x="0px" y="0px"
	 viewBox="0 0 212 212" style="enable-background:new 0 0 212 212;" xml:space="preserve">
<g id="Smart_light">
	<path d="M194,35.1c-2.1-11.5-13.1-19.2-24.6-17.1c-11.5,2.1-19.2,13.1-17.1,24.6c1,5.5,4.2,10.4,8.8,13.6c0.9,0.6,1.4,1.6,1.5,2.6
		v11.7c0,5.9,4.7,10.6,10.6,10.6s10.6-4.7,10.6-10.6V58.9c0.1-1.1,0.6-2.1,1.6-2.7C192.1,51.5,195.5,43.2,194,35.1z M173.1,74.2
		c-2,0-3.5-1.6-3.5-3.5h7.1C176.7,72.6,175.1,74.2,173.1,74.2z M181.2,50.5c-2.8,1.9-4.5,5.1-4.6,8.5v4.7h-7.1v-4.7
		c0-3.4-1.7-6.5-4.5-8.4c-6.4-4.4-8-13.2-3.6-19.7c4.4-6.4,13.2-8,19.7-3.6s8,13.2,3.6,19.7C183.8,48.3,182.6,49.5,181.2,50.5
		L181.2,50.5z"/>
	<path d="M173.1,14.1c-2,0-3.5-1.6-3.5-3.5V3.5c0-2,1.6-3.5,3.5-3.5s3.5,1.6,3.5,3.5v7.1C176.7,12.6,175.1,14.1,173.1,14.1z"/>
	<path d="M159,17.9c-1.3,0-2.4-0.7-3.1-1.8l-3.5-6.1c-1-1.7-0.4-3.8,1.3-4.8c1.7-1,3.8-0.4,4.8,1.3c0,0,0,0,0,0l3.5,6.1
		c1,1.7,0.4,3.9-1.3,4.8C160.2,17.8,159.6,17.9,159,17.9L159,17.9z"/>
	<path d="M148.7,28.3c-0.6,0-1.2-0.2-1.8-0.5l-6.1-3.5c-1.7-1-2.2-3.2-1.3-4.8c1-1.7,3.1-2.2,4.8-1.3l6.1,3.5c1.7,1,2.3,3.1,1.3,4.8
		C151.1,27.6,149.9,28.3,148.7,28.3z"/>
	<path d="M144.9,42.4h-7.1c-2,0-3.5-1.6-3.5-3.5c0-2,1.6-3.5,3.5-3.5h7.1c2,0,3.5,1.6,3.5,3.5C148.4,40.8,146.8,42.4,144.9,42.4z"/>
	<path d="M208.5,42.4h-7.1c-2,0-3.5-1.6-3.5-3.5c0-2,1.6-3.5,3.5-3.5h7.1c2,0,3.5,1.6,3.5,3.5C212,40.8,210.4,42.4,208.5,42.4z"/>
	<path d="M197.6,28.3c-2,0-3.5-1.6-3.5-3.5c0-1.3,0.7-2.4,1.8-3.1l6.1-3.5c1.7-1,3.8-0.4,4.8,1.3c1,1.7,0.4,3.8-1.3,4.8c0,0,0,0,0,0
		l-6.1,3.5C198.8,28.1,198.2,28.3,197.6,28.3z"/>
	<path d="M142.5,60.1c-2,0-3.5-1.6-3.5-3.5c0-1.3,0.7-2.4,1.8-3.1l6.1-3.5c1.7-1,3.9-0.4,4.8,1.3c1,1.7,0.4,3.8-1.3,4.8l-6.1,3.5
		C143.8,59.9,143.2,60.1,142.5,60.1L142.5,60.1z"/>
	<path d="M203.7,60.1c-0.6,0-1.2-0.2-1.8-0.5l-6.1-3.5c-1.7-1-2.3-3.1-1.3-4.8s3.1-2.3,4.8-1.3c0,0,0,0,0,0l6.1,3.5
		c1.7,1,2.3,3.1,1.3,4.8C206.2,59.4,205,60.1,203.7,60.1L203.7,60.1z"/>
	<path d="M187.3,17.9c-2,0-3.5-1.6-3.5-3.5c0-0.6,0.2-1.2,0.5-1.8l3.5-6.1c1-1.7,3.2-2.2,4.8-1.3c1.7,1,2.2,3.1,1.3,4.8l-3.5,6.1
		C189.7,17.2,188.5,17.9,187.3,17.9L187.3,17.9z"/>
	<path d="M106.1,183.7c-2.5,0-5-0.1-7.5-0.4c-34.9-4.1-59.9-35.7-55.8-70.6C45,94.5,55,78,70.2,67.6c2.6-1.7,5.7-2.3,8.7-1.5
		c2.9,0.8,5.4,2.7,6.7,5.4c2.4,4.8,0.9,10.7-3.6,13.6C62.7,98.4,57.8,124.7,71,144c1.9,2.8,4.2,5.4,6.8,7.7
		c17.4,15.6,44.2,14.1,59.8-3.3c6-6.7,9.7-15,10.6-23.9c1.6-15.6-5.5-30.8-18.5-39.5c-4.3-3-5.8-8.7-3.4-13.4
		c1.4-2.7,3.8-4.7,6.8-5.5c3-0.8,6.2-0.2,8.8,1.5c29,19.8,36.5,59.4,16.6,88.4c-2.9,4.2-6.3,8.1-10.1,11.5
		C136.8,178,121.7,183.8,106.1,183.7L106.1,183.7z M76.2,72.8c-0.7,0-1.5,0.2-2.1,0.7C48.4,91,41.7,126.2,59.3,152
		s52.8,32.5,78.6,14.9s32.5-52.8,14.9-78.6c-4-5.8-9-10.9-14.8-14.8c-0.9-0.6-2-0.8-3-0.5c-1,0.2-1.8,0.9-2.3,1.8
		c-0.8,1.5-0.4,3.4,1,4.4c22.7,15.3,28.6,46,13.4,68.7s-46,28.6-68.7,13.4s-28.6-46-13.4-68.7c3.5-5.2,7.9-9.6,13.1-13.2
		c1.5-1,2.1-2.9,1.3-4.5c-0.4-0.9-1.3-1.6-2.2-1.9C76.8,72.8,76.5,72.8,76.2,72.8L76.2,72.8z"/>
	<path d="M106,127.2c-5.9,0-10.6-4.7-10.6-10.6V60.1c0-5.9,4.7-10.6,10.6-10.6c5.9,0,10.6,4.7,10.6,10.6v56.5
		C116.6,122.5,111.9,127.2,106,127.2z M106,56.5c-2,0-3.5,1.6-3.5,3.5v56.5c0,2,1.6,3.5,3.5,3.5s3.5-1.6,3.5-3.5V60.1
		C109.5,58.1,108,56.5,106,56.5z"/>
	<path d="M31.8,49.5c-2,0-3.5-1.6-3.5-3.5c0-9.8,7.9-17.7,17.7-17.7c2,0,3.5,1.6,3.5,3.5s-1.6,3.5-3.5,3.5
		c-5.9,0-10.6,4.7-10.6,10.6C35.3,47.9,33.8,49.5,31.8,49.5z"/>
	<path d="M3.5,49.5c-2,0-3.5-1.6-3.5-3.5C0,20.6,20.6,0,45.9,0c2,0,3.5,1.6,3.5,3.5s-1.6,3.5-3.5,3.5C24.5,7.1,7.1,24.5,7.1,45.9
		C7.1,47.9,5.5,49.5,3.5,49.5z"/>
	<path d="M17.7,49.5c-2,0-3.5-1.6-3.5-3.5c0-17.6,14.2-31.8,31.8-31.8c2,0,3.5,1.6,3.5,3.5s-1.6,3.5-3.5,3.5
		c-13.7,0-24.7,11.1-24.7,24.7C21.2,47.9,19.6,49.5,17.7,49.5z"/>
	<path d="M19.4,106c-0.2,0-0.5,0-0.7-0.1c-1.9-0.4-3.1-2.3-2.8-4.2c0,0,0,0,0,0c8.8-42.7,46.4-73.4,90-73.5c2,0,3.5,1.6,3.5,3.5
		s-1.6,3.5-3.5,3.5c-40.3,0.1-75,28.4-83.1,67.8C22.6,104.8,21.1,106,19.4,106z"/>
	<path d="M17.7,123.7c-2,0-3.5-1.6-3.5-3.5c0-1.2,0-2.5,0.1-3.7c0.1-2,1.7-3.5,3.7-3.4s3.5,1.7,3.4,3.7c0,1.1-0.1,2.3-0.1,3.4
		C21.2,122.1,19.6,123.7,17.7,123.7z"/>
	<path d="M106,212c-2,0-3.5-1.6-3.5-3.5c0-2,1.6-3.5,3.5-3.5c40.3-0.1,75-28.4,83.1-67.8c0.4-1.9,2.3-3.1,4.2-2.8
		c1.9,0.4,3.1,2.3,2.8,4.2C187.2,181.2,149.6,211.9,106,212z"/>
	<path d="M194.3,127.2h-0.1c-1.9-0.1-3.5-1.7-3.4-3.7c0,0,0,0,0,0c0-1.1,0.1-2.3,0.1-3.4c0-2,1.6-3.5,3.5-3.5c2,0,3.5,1.6,3.5,3.5
		c0,1.2,0,2.5-0.1,3.7C197.7,125.7,196.2,127.2,194.3,127.2z"/>
	<path d="M31.8,173.1h-7.1v-7.1c0-2-1.6-3.5-3.5-3.5s-3.5,1.6-3.5,3.5v7.1h-7.1c-2,0-3.5,1.6-3.5,3.5c0,2,1.6,3.5,3.5,3.5h7.1v7.1
		c0,2,1.6,3.5,3.5,3.5s3.5-1.6,3.5-3.5v-7.1h7.1c2,0,3.5-1.6,3.5-3.5C35.3,174.7,33.8,173.1,31.8,173.1z"/>
	<path d="M56.5,204.9H35.3c-2,0-3.5-1.6-3.5-3.5c0-2,1.6-3.5,3.5-3.5h21.2c2,0,3.5,1.6,3.5,3.5C60.1,203.4,58.5,204.9,56.5,204.9z"
		/>
</g>
</svg>
