<?xml version="1.0" encoding="utf-8"?>
<!-- Generator: Adobe Illustrator 24.0.1, SVG Export Plug-In . SVG Version: 6.00 Build 0)  -->
<svg version="1.1" id="Layer_1" xmlns="http://www.w3.org/2000/svg" xmlns:xlink="http://www.w3.org/1999/xlink" x="0px" y="0px"
	 viewBox="0 0 212 212" style="enable-background:new 0 0 212 212;" xml:space="preserve">
<style type="text/css">
	.st0{fill:url(#SVGID_1_);}
	.st1{fill:url(#SVGID_2_);}
</style>
<linearGradient id="SVGID_1_" gradientUnits="userSpaceOnUse" x1="160.3059" y1="38.211" x2="48.6096" y2="149.9073" gradientTransform="matrix(1 0 0 -1 0 214)">
	<stop  offset="0" style="stop-color:#06DAF7"/>
	<stop  offset="1" style="stop-color:#FF6CA8"/>
</linearGradient>
<path class="st0" d="M71.8,109.1l-31,6.6V82.9l31-6.6V109.1z M35.2,122.6c0.6,0.5,1.3,0.8,2.1,0.8c0.3,0,0.5,0,0.7,0l37.8-8.1
	c1.6-0.4,2.7-1.8,2.7-3.4V72.1c0-1.1-0.5-2.1-1.3-2.7c-0.8-0.7-1.8-0.9-2.8-0.7l-37.8,8.1C35,77.2,34,78.6,34,80.2v39.7
	C34,121,34.5,122,35.2,122.6z M167.4,75.3v76c0.2,1.9-1.3,3.5-3.2,3.5s-3.4-1.5-3.4-3.4V78.1L138.2,73v71.7c0,1.9-1.5,3.4-3.4,3.4
	s-3.4-1.5-3.4-3.4V68.8c0-1.1,0.5-2,1.3-2.7s1.9-0.9,2.8-0.7l29.3,6.6C166.4,72.3,167.4,73.8,167.4,75.3z M109,46.9v1.2
	c0,1.9-1.5,3.4-3.4,3.4s-3.4-1.5-3.4-3.4v-1.2c0-1.9,1.5-3.4,3.4-3.4S109,45,109,46.9z M108.9,122.4v1.2c0,1.9-1.5,3.4-3.4,3.4
	s-3.4-1.5-3.4-3.4v-1.2c0-1.9,1.5-3.4,3.4-3.4S108.9,120.5,108.9,122.4z M109,62.1v1.2c0,1.8-1.5,3.4-3.4,3.4s-3.4-1.5-3.4-3.4v-1.2
	c0-1.9,1.5-3.4,3.4-3.4C107.5,58.7,109,60.2,109,62.1z M109,92.2v1.2c0,1.9-1.5,3.4-3.4,3.4s-3.4-1.5-3.4-3.4v-1.2
	c0-1.9,1.5-3.4,3.4-3.4C107.5,88.8,109,90.3,109,92.2z M109,107.3v1.2c0,1.9-1.5,3.4-3.4,3.4s-3.4-1.5-3.4-3.4v-1.2
	c0-1.9,1.5-3.4,3.4-3.4S109,105.4,109,107.3z M109,77.2v1.2c0,1.8-1.5,3.4-3.4,3.4s-3.4-1.5-3.4-3.4v-1.2c0-1.9,1.5-3.4,3.4-3.4
	C107.5,73.8,109,75.3,109,77.2z M108.9,137.9c0,1.9-1.5,3.4-3.4,3.4s-3.4-1.5-3.4-3.4s1.5-3.4,3.4-3.4S108.9,136,108.9,137.9z
	 M181,154.2c-0.3,1.7-1.7,2.8-3.3,2.8c-0.2,0-0.5,0-0.7-0.1l-1.1-0.2c-1.8-0.4-3-2.2-2.6-4.1c0.4-1.9,2.2-3,4-2.7l1.1,0.2
	C180.2,150.5,181.5,152.3,181,154.2z M152.5,148.1c-0.3,1.7-1.7,2.8-3.3,2.8c-0.2,0-0.5,0-0.7-0.1l-1.1-0.2c-1.8-0.4-3-2.2-2.6-4.1
	c0.4-1.9,2.2-3,4-2.7l1.1,0.2C151.7,144.4,152.8,146.2,152.5,148.1z M123.8,141.9c-0.3,1.7-1.7,2.8-3.3,2.8c-0.2,0-0.5,0-0.7-0.1
	l-1.1-0.2c-1.8-0.4-3-2.2-2.6-4.1c0.4-1.9,2.2-3,4-2.7l1.1,0.2C123,138.2,124.2,140,123.8,141.9z M95.2,140.6
	c0.4,1.9-0.8,3.7-2.6,4.1l-1.1,0.2c-0.3,0-0.5,0-0.7,0c-1.6,0-3-1.1-3.3-2.7c-0.4-1.9,0.8-3.7,2.6-4.1l1.1-0.2
	C93,137.5,94.8,138.8,95.2,140.6z M81,143.6c0.4,1.9-0.8,3.7-2.6,4.1l-1.1,0.2c-0.3,0-0.5,0-0.7,0c-1.6,0-3-1.1-3.3-2.7
	c-0.4-1.9,0.8-3.7,2.6-4.1l1.1-0.2C78.8,140.5,80.7,141.8,81,143.6z M38.4,152.8c0.4,1.9-0.8,3.7-2.6,4.1l-1.1,0.2
	c-0.2-0.1-0.5,0-0.7,0c-1.6,0-3-1.1-3.3-2.7c-0.4-1.9,0.8-3.7,2.6-4.1l1.1-0.2C36.2,149.8,38,150.9,38.4,152.8z M52.5,149.7
	c0.4,1.9-0.8,3.7-2.6,4.1l-1.1,0.2c-0.2,0-0.4,0-0.7,0c-1.6,0-3-1.1-3.3-2.7c-0.4-1.9,0.8-3.7,2.6-4.1l1.1-0.2
	C50.4,146.6,52.2,147.8,52.5,149.7z M66.8,146.6c0.4,1.9-0.8,3.7-2.6,4.1l-1.1,0.2c-0.2,0.1-0.4,0.1-0.7,0.1c-1.6,0-3-1.1-3.3-2.7
	c-0.4-1.9,0.8-3.7,2.6-4.1l1.1-0.2C64.5,143.6,66.4,144.8,66.8,146.6z"/>
<linearGradient id="SVGID_2_" gradientUnits="userSpaceOnUse" x1="186.4448" y1="26.7645" x2="25.676" y2="187.5334" gradientTransform="matrix(1 0 0 -1 0 214)">
	<stop  offset="0" style="stop-color:#06DAF7"/>
	<stop  offset="1" style="stop-color:#FF6CA8"/>
</linearGradient>
<path class="st1" d="M207,48.4L107.1,27c-0.2,0-0.3-0.1-0.5-0.1h-1.3c-0.2,0-0.4,0.1-0.5,0.1L5,48.4C2.4,49,0.5,51.3,0.5,54v105.7
	c0,2.7,2,5.1,4.6,5.6l98.6,19.5c0.6,0.2,1.3,0.4,1.9,0.4c0.4,0,0.8,0,1.1-0.1l0.4-0.1c0.4-0.1,0.9-0.2,1.3-0.4l98.6-19.3
	c2.7-0.5,4.6-2.9,4.6-5.6V53.9C211.5,51.3,209.7,48.9,207,48.4z M200.2,154.9l-4.8,0.9c-0.3-1.2-1.3-2.3-2.6-2.5l-1.1-0.2
	c-1.8-0.3-3.6,0.8-4,2.7c-0.1,0.5-0.1,1.1,0,1.5l-82.2,16.2l-81.4-16.1c0.1-0.5,0.1-1,0-1.5c-0.4-1.9-2.2-3.1-4-2.7l-1.1,0.2
	c-1.3,0.3-2.3,1.3-2.6,2.5l-4.7-0.9V58.6L106,38.4l94.3,20.2v96.3H200.2z"/>
</svg>
