<?xml version="1.0" encoding="utf-8"?>
<!-- Generator: Adobe Illustrator 24.0.1, SVG Export Plug-In . SVG Version: 6.00 Build 0)  -->
<svg version="1.1" id="Layer_2" xmlns="http://www.w3.org/2000/svg" xmlns:xlink="http://www.w3.org/1999/xlink" x="0px" y="0px"
	 viewBox="0 0 512 512" style="enable-background:new 0 0 512 512;" xml:space="preserve">
<style type="text/css">
	.st0{fill:none;stroke:#000000;stroke-width:17;stroke-miterlimit:10;}
	.st1{fill:#FFFFFF;}
</style>
<circle class="st0" cx="105.5" cy="44.5" r="29.6"/>
<circle class="st0" cx="79.3" cy="215.6" r="29.6"/>
<circle class="st0" cx="433.4" cy="172" r="29.6"/>
<circle class="st0" cx="241.4" cy="142.4" r="56.5"/>
<circle class="st0" cx="408.4" cy="39.3" r="29.6"/>
<line class="st0" x1="193.4" y1="112.5" x2="128.2" y2="63.4"/>
<line class="st0" x1="287.5" y1="109.8" x2="382.3" y2="53.2"/>
<line class="st0" x1="296.6" y1="154.7" x2="403.8" y2="166.9"/>
<line class="st0" x1="184.9" y1="164.6" x2="105.5" y2="201.9"/>
<g>
	<g>
		<g>
			<path d="M391.1,237.6c-6.6,0-12.8,2-17.9,5.5c-4.4-12.6-16.4-21.6-30.5-21.6c-6.6,0-12.8,2-17.9,5.5
				c-4.4-12.6-16.4-21.6-30.5-21.6c-5.9,0-11.4,1.6-16.1,4.3v-52.8c0-17.8-14.5-32.3-32.3-32.3s-32.3,14.5-32.3,32.3v188.7
				l-44.4-22.2c-6.7-3.3-14.2-5.1-21.6-5.1c-17,0-30.8,13.8-30.8,30.9c0,8.2,3.2,16,9,21.8l104.4,104.4c23.6,23.6,55,36.6,88.4,36.6
				c57.8,0,104.9-47.1,104.9-104.9V269.9C423.4,252.1,408.9,237.6,391.1,237.6z M407.3,407.1c0,49-39.8,88.8-88.8,88.8
				c-29.1,0-56.4-11.3-76.9-31.9L137.2,359.6c-2.8-2.8-4.3-6.5-4.3-10.5c0-8.1,6.6-14.7,14.7-14.7c5,0,10,1.2,14.4,3.4l56.1,28
				c2.5,1.2,5.5,1.1,7.8-0.4c2.4-1.5,3.8-4.1,3.8-6.9V156.9c0-8.9,7.2-16.1,16.1-16.1S262,148,262,156.9v153.3
				c0,4.5,3.6,8.1,8.1,8.1c4.5,0,8.1-3.6,8.1-8.1v-72.6c0-8.9,7.2-16.1,16.1-16.1s16.1,7.2,16.1,16.1v72.6c0,4.5,3.6,8.1,8.1,8.1
				s8.1-3.6,8.1-8.1v-56.5c0-8.9,7.2-16.1,16.1-16.1s16.1,7.2,16.1,16.1v56.5c0,4.5,3.6,8.1,8.1,8.1s8.1-3.6,8.1-8.1v-40.4
				c0-8.9,7.2-16.1,16.1-16.1s16.1,7.2,16.1,16.1V407.1z"/>
		</g>
	</g>
	<g>
		<g>
			<path class="st1" d="M407.3,407.1c0,49-39.8,88.8-88.8,88.8c-29.1,0-56.4-11.3-76.9-31.9L137.2,359.6c-2.8-2.8-4.3-6.5-4.3-10.5
				c0-8.1,6.6-14.7,14.7-14.7c5,0,10,1.2,14.4,3.4l56.1,28c2.5,1.2,5.5,1.1,7.8-0.4c2.4-1.5,3.8-4.1,3.8-6.9V156.9
				c0-8.9,7.2-16.1,16.1-16.1S262,148,262,156.9v153.3c0,4.5,3.6,8.1,8.1,8.1c4.5,0,8.1-3.6,8.1-8.1v-72.6c0-8.9,7.2-16.1,16.1-16.1
				s16.1,7.2,16.1,16.1v72.6c0,4.5,3.6,8.1,8.1,8.1s8.1-3.6,8.1-8.1v-56.5c0-8.9,7.2-16.1,16.1-16.1s16.1,7.2,16.1,16.1v56.5
				c0,4.5,3.6,8.1,8.1,8.1s8.1-3.6,8.1-8.1v-40.4c0-8.9,7.2-16.1,16.1-16.1s16.1,7.2,16.1,16.1V407.1z"/>
		</g>
	</g>
</g>
</svg>
