<?xml version="1.0" encoding="utf-8"?>
<!-- Generator: Adobe Illustrator 24.0.1, SVG Export Plug-In . SVG Version: 6.00 Build 0)  -->
<svg version="1.1" id="Layer_1" xmlns="http://www.w3.org/2000/svg" xmlns:xlink="http://www.w3.org/1999/xlink" x="0px" y="0px"
	 viewBox="0 0 212 212" style="enable-background:new 0 0 212 212;" xml:space="preserve">
<g>
	<g>
		<g>
			<path d="M183.1,137.3c-1.7-8.8-4.9-17.2-9.3-24.9c-0.9-1.8-1.8-3.6-2.7-5.5c-2-4.2-4.2-8.3-6.4-12.2c-0.2-0.4-0.6-0.9-1-1.5
				c-0.3-0.4-0.9-1.3-1.2-1.7V17.7c0-9.8-7.9-17.7-17.7-17.7H45.9c-0.2,0-0.3,0.1-0.5,0.1c-0.4,0-0.8-0.1-1.3,0
				c-8.7,1.1-15.4,8.3-15.8,17.1c0,0.2-0.1,0.3-0.1,0.5v162.5c0,5.9,4.7,10.6,10.6,10.6H110c0.5,6.4,1.8,12.7,3.7,18.8
				c0.5,1.5,1.8,2.4,3.4,2.4h49.8c1.7,0,3.1-1.1,3.5-2.8c3.4-15.3,7.2-31.9,10.5-45.7c0.7-3.1,1.5-6.4,2.1-9.6
				c0.5-2.9,0.8-5.7,0.9-8.6C183.8,142.6,183.6,139.9,183.1,137.3z M109.6,183.7H38.9c-2,0-3.5-1.6-3.5-3.5V18.3
				c-0.1-5.6,4-10.4,9.5-11.2c3-0.3,6,0.7,8.2,2.7c2.2,2,3.5,4.9,3.5,7.8v134.3c0,5.9,4.7,10.6,10.6,10.6h43.7
				C109.9,169.6,109.5,176.6,109.6,183.7z M91.3,112.4c-0.9-1.2-1.6-2.6-2-4.1c-0.3-1.4-1-2.7-2-3.8V101l0.2-0.4
				c0.5-1,0.8-2.1,0.8-3.2v-4.9c0-2.3,1.9-4.2,4.2-4.2h5.8c2.3,0,4.2,1.9,4.2,4.2v4.9c0,1.1,0.3,2.2,0.8,3.2l0.2,0.4l0,3.5
				c-1,1-1.7,2.3-2,3.7c-0.4,1.5-1,2.9-2,4.1c-0.5,0.8-0.8,1.7-0.8,2.6v3c0,1.6,0.8,3.1,2.2,3.9l10.7,6.4c0.9,0.5,1.5,1.4,1.6,2.5
				H77.7c0.1-1,0.7-1.9,1.5-2.5l10.7-6.4c1.4-0.8,2.2-2.3,2.2-3.9v-3C92.2,114,91.9,113.1,91.3,112.4z M113.1,113.1v7.9l-7.4-4.4
				v-0.7c1.3-1.9,2.2-4,2.7-6.2c1.3-1.3,2.1-3.2,2.1-5.1v-3.4c0-1.1-0.3-2.2-0.7-3.2l-0.2-0.5v-4.9c0-6.2-5-11.2-11.2-11.2h-5.8
				c-6.2,0-11.2,5-11.2,11.2v5l-0.2,0.4c-0.5,1-0.8,2.1-0.8,3.2v3.4c0,1.9,0.8,3.8,2.1,5.2c0.5,2.2,1.4,4.3,2.7,6.1v0.7l-9.5,5.7
				c-3.1,1.9-5,5.2-5,8.8v3.3c0,2,1.6,3.5,3.5,3.5h38.9v13.8c-0.3,1-0.6,2.3-0.9,3.9h-45c-2,0-3.5-1.6-3.5-3.5V17.7
				c0-3.8-1.3-7.5-3.6-10.6h84.8c5.9,0,10.6,4.7,10.6,10.6v130.7c0,2.4-1.2,4.7-3.3,6l-0.1,0.1c-1,0.6-2.1,0.9-3.2,1
				c-0.1,0-0.3,0-0.4,0c-1.4,0-2.8-0.4-4-1.2c-0.7-0.5-1.3-1-1.7-1.7c-0.7-0.9-1.1-2.1-1.3-3.2c-0.1-0.3-0.1-0.6-0.1-0.9v-10.6h3.5
				c2,0,3.5-1.6,3.5-3.5c0-2-1.6-3.5-3.5-3.5h-3.5v-17.7c0-7.8-6.3-14.1-14.1-14.1S113.1,105.3,113.1,113.1z M175.9,152.8
				c-0.5,3.1-1.3,6.2-2,9.2c-3.1,13-6.6,28.5-9.9,43h-44.4c-1.6-5.7-2.5-11.7-2.9-17.6c0,0,0,0,0-0.1c0,0,0-0.1,0-0.1
				c-0.7-11.3,0.3-22.7,3-33.7c0.3-0.5,0.4-1,0.4-1.6v-17.6v0V131V131v-17.9c0-2.9,1.7-5.4,4.4-6.5c2.6-1.1,5.7-0.5,7.7,1.5
				c1.3,1.3,2.1,3.1,2.1,5v35.3c0,0.7,0.1,1.4,0.2,2.1c0.6,3.9,2.8,7.3,6,9.6c2.3,1.6,5.1,2.5,8,2.5c0.3,0,0.6,0,0.9,0
				c2.3-0.1,4.5-0.8,6.5-2l0.2-0.1c4.1-2.6,6.6-7.1,6.6-12v-43c0.8,1.5,1.5,3,2.2,4.5c0.9,1.9,1.8,3.8,2.8,5.6
				c4.1,7.1,7,14.8,8.6,22.8c0.4,2.3,0.5,4.6,0.5,6.9C176.6,147.7,176.4,150.3,175.9,152.8z"/>
			<path d="M120.1,70.7v-2.3c0-3.7-2.1-7.1-5.4-8.9l-1-0.5c2-0.1,3.8-1.3,4.8-3.1c0.9-1.8,0.7-3.9-0.5-5.5
				c-2.7-4.1-4.6-8.6-5.6-13.4c-0.3-1.1-0.4-2.2-0.4-3.4c0-4.3-1.8-8.4-4.9-11.3c-6.6-6.1-16.8-6.1-23.4,0c-3.1,2.9-4.9,7-4.9,11.3
				c0,1.1-0.1,2.3-0.4,3.4c-1,4.8-2.9,9.3-5.6,13.4c-1.2,1.6-1.4,3.7-0.5,5.5c0.9,1.8,2.7,3,4.8,3.1l-1.1,0.6
				c-3.2,1.8-5.2,5.1-5.2,8.8v2.3c0,2,1.6,3.5,3.5,3.5h42.4C118.6,74.2,120.1,72.6,120.1,70.7z M78,67.1c0.3-0.6,0.7-1.1,1.2-1.4
				c0.3-0.1,6.6-3.3,10.4-5.5c1.8-1,2.6-3.1,2.1-5c-0.5-2-2.3-3.4-4.4-3.4h-7.1c2.3-4.2,4-8.7,5.1-13.4c0.4-1.6,0.6-3.3,0.6-4.9
				c0-2.3,1-4.6,2.7-6.2c3.9-3.4,9.8-3.4,13.7,0c1.7,1.6,2.7,3.8,2.7,6.2c0,1.7,0.2,3.3,0.6,5c1,4.7,2.8,9.2,5.1,13.4h-7.2
				c-2.1,0-3.9,1.4-4.4,3.4c-0.5,2,0.3,4,2.1,5c3.8,2.1,10.1,5.3,10.2,5.4c0.6,0.3,1.1,0.8,1.4,1.4L78,67.1L78,67.1z"/>
			<path d="M130.7,74.2h14.1c2,0,3.5-1.6,3.5-3.5s-1.6-3.5-3.5-3.5h-14.1c-2,0-3.5,1.6-3.5,3.5S128.8,74.2,130.7,74.2z"/>
		</g>
	</g>
</g>
</svg>
