<?xml version="1.0" encoding="utf-8"?>
<!-- Generator: Adobe Illustrator 24.0.1, SVG Export Plug-In . SVG Version: 6.00 Build 0)  -->
<svg version="1.1" id="Layer_1" xmlns="http://www.w3.org/2000/svg" xmlns:xlink="http://www.w3.org/1999/xlink" x="0px" y="0px"
	 viewBox="0 0 212 212" style="enable-background:new 0 0 212 212;" xml:space="preserve">
<style type="text/css">
	.st0{fill:url(#SVGID_1_);}
</style>
<linearGradient id="SVGID_1_" gradientUnits="userSpaceOnUse" x1="182.1128" y1="173.8618" x2="17.5942" y2="9.3432">
	<stop  offset="0" style="stop-color:#06DAF7"/>
	<stop  offset="1" style="stop-color:#870094"/>
</linearGradient>
<path class="st0" d="M152.3,42.6c1,5.5,4.2,10.4,8.8,13.6c0.9,0.6,1.4,1.6,1.5,2.6v11.7c0,5.9,4.7,10.6,10.6,10.6
	s10.6-4.7,10.6-10.6V58.9c0.1-1.1,0.6-2.1,1.6-2.7c6.7-4.7,10.1-13,8.6-21.1c-2.1-11.5-13.1-19.2-24.6-17.1S150.2,31.1,152.3,42.6z
	 M173.1,74.2c-2,0-3.5-1.6-3.5-3.5h7.1C176.7,72.6,175.1,74.2,173.1,74.2z M161.4,30.9c4.4-6.4,13.2-8,19.7-3.6
	c6.5,4.4,8,13.2,3.6,19.7c-0.9,1.3-2.1,2.5-3.5,3.5c-2.8,1.9-4.5,5.1-4.6,8.5v4.7h-7.1V59c0-3.4-1.7-6.5-4.5-8.4
	C158.6,46.2,157,37.4,161.4,30.9z M169.6,10.6V3.5c0-2,1.6-3.5,3.5-3.5c1.9,0,3.5,1.6,3.5,3.5v7.1c0.1,2-1.5,3.5-3.5,3.5
	S169.6,12.5,169.6,10.6z M152.4,10c-1-1.7-0.4-3.8,1.3-4.8s3.8-0.4,4.8,1.3l3.5,6.1c1,1.7,0.4,3.9-1.3,4.8c-0.5,0.4-1.1,0.5-1.7,0.5
	c-1.3,0-2.4-0.7-3.1-1.8L152.4,10z M139.5,19.5c1-1.7,3.1-2.2,4.8-1.3l6.1,3.5c1.7,1,2.3,3.1,1.3,4.8c-0.6,1.1-1.8,1.8-3,1.8
	c-0.6,0-1.2-0.2-1.8-0.5l-6.1-3.5C139.1,23.3,138.6,21.1,139.5,19.5z M134.3,38.9c0-2,1.6-3.5,3.5-3.5h7.1c2,0,3.5,1.6,3.5,3.5
	c0,1.9-1.6,3.5-3.5,3.5h-7.1C135.8,42.4,134.3,40.8,134.3,38.9z M212,38.9c0,1.9-1.6,3.5-3.5,3.5h-7.1c-2,0-3.5-1.6-3.5-3.5
	c0-2,1.6-3.5,3.5-3.5h7.1C210.5,35.4,212,37,212,38.9z M194.1,24.8c0-1.3,0.7-2.4,1.8-3.1l6.1-3.5c1.7-1,3.8-0.4,4.8,1.3
	s0.4,3.8-1.3,4.8l-6.1,3.5c-0.6,0.3-1.2,0.5-1.8,0.5C195.6,28.3,194.1,26.7,194.1,24.8z M151.7,51.3c1,1.7,0.4,3.8-1.3,4.8l-6.1,3.5
	c-0.5,0.3-1.1,0.5-1.8,0.5c-2,0-3.5-1.6-3.5-3.5c0-1.3,0.7-2.4,1.8-3.1l6.1-3.5C148.6,49,150.8,49.6,151.7,51.3z M206.7,58.3
	c-0.5,1.1-1.7,1.8-3,1.8c-0.6,0-1.2-0.2-1.8-0.5l-6.1-3.5c-1.7-1-2.3-3.1-1.3-4.8s3.1-2.3,4.8-1.3l6.1,3.5
	C207.1,54.5,207.7,56.6,206.7,58.3z M183.8,14.4c0-0.6,0.2-1.2,0.5-1.8l3.5-6.1c1-1.7,3.2-2.2,4.8-1.3c1.7,1,2.2,3.1,1.3,4.8
	l-3.5,6.1c-0.7,1.1-1.9,1.8-3.1,1.8C185.3,17.9,183.8,16.3,183.8,14.4z M148.4,167.5c3.8-3.4,7.2-7.3,10.1-11.5
	c19.9-29,12.4-68.6-16.6-88.4c-2.6-1.7-5.8-2.3-8.8-1.5s-5.4,2.8-6.8,5.5c-2.4,4.7-0.9,10.4,3.4,13.4c13,8.7,20.1,23.9,18.5,39.5
	c-0.9,8.9-4.6,17.2-10.6,23.9c-15.6,17.4-42.4,18.9-59.8,3.3c-2.6-2.3-4.9-4.9-6.8-7.7c-13.2-19.3-8.3-45.6,11-58.9
	c4.5-2.9,6-8.8,3.6-13.6c-1.3-2.7-3.8-4.6-6.7-5.4c-3-0.8-6.1-0.2-8.7,1.5C55,78,45,94.5,42.8,112.7c-4.1,34.9,20.9,66.5,55.8,70.6
	c2.5,0.3,5,0.4,7.5,0.4C121.7,183.8,136.8,178,148.4,167.5z M59.3,152c-17.6-25.8-10.9-61,14.8-78.5c0.6-0.5,1.4-0.7,2.1-0.7
	c0.3,0,0.6,0,1,0.2c0.9,0.3,1.8,1,2.2,1.9c0.8,1.6,0.2,3.5-1.3,4.5c-5.2,3.6-9.6,8-13.1,13.2c-15.2,22.7-9.3,53.5,13.4,68.7
	c22.7,15.2,53.5,9.3,68.7-13.4c15.2-22.7,9.3-53.4-13.4-68.7c-1.4-1-1.8-2.9-1-4.4c0.5-0.9,1.3-1.6,2.3-1.8c1-0.3,2.1-0.1,3,0.5
	c5.8,3.9,10.8,9,14.8,14.8c17.6,25.8,10.9,61-14.9,78.6C112.1,184.5,76.9,177.8,59.3,152z M95.4,60.1v56.5c0,5.9,4.7,10.6,10.6,10.6
	s10.6-4.7,10.6-10.6V60.1c0-5.9-4.7-10.6-10.6-10.6S95.4,54.2,95.4,60.1z M109.5,60.1v56.4c0,1.9-1.6,3.5-3.5,3.5s-3.5-1.5-3.5-3.5
	V60c0-1.9,1.5-3.5,3.5-3.5S109.5,58.1,109.5,60.1z M31.8,49.5c-2,0-3.5-1.6-3.5-3.5c0-9.8,7.9-17.7,17.7-17.7c2,0,3.5,1.6,3.5,3.5
	c0,1.9-1.6,3.5-3.5,3.5c-5.9,0-10.6,4.7-10.6,10.6C35.3,47.9,33.8,49.5,31.8,49.5z M7.1,45.9c0,2-1.6,3.6-3.6,3.6S0,47.9,0,46
	C0,20.6,20.6,0,45.9,0c2,0,3.5,1.6,3.5,3.5S47.8,7,45.9,7C24.5,7.1,7.1,24.5,7.1,45.9z M49.5,17.7c0,1.9-1.6,3.5-3.5,3.5
	c-13.7,0-24.7,11.1-24.7,24.7c-0.1,2-1.7,3.6-3.6,3.6c-2,0-3.5-1.6-3.5-3.5c0-17.6,14.2-31.8,31.8-31.8C48,14.2,49.5,15.8,49.5,17.7
	z M105.9,28.2c2,0,3.5,1.6,3.5,3.5c0,1.9-1.6,3.5-3.5,3.5c-40.3,0.1-75,28.4-83.1,67.8c-0.2,1.8-1.7,3-3.4,3c-0.2,0-0.5,0-0.7-0.1
	c-1.9-0.4-3.1-2.3-2.8-4.2C24.7,59,62.3,28.3,105.9,28.2z M18,113.1c2,0.1,3.5,1.7,3.4,3.7c0,1.1-0.1,2.3-0.1,3.4
	c-0.1,1.9-1.7,3.5-3.6,3.5c-2,0-3.5-1.6-3.5-3.5c0-1.2,0-2.5,0.1-3.7C14.4,114.5,16,113,18,113.1z M196.1,138.6
	c-8.9,42.6-46.5,73.3-90.1,73.4c-2,0-3.5-1.6-3.5-3.5c0-2,1.6-3.5,3.5-3.5c40.3-0.1,75-28.4,83.1-67.8c0.4-1.9,2.3-3.1,4.2-2.8
	C195.2,134.8,196.4,136.7,196.1,138.6z M197.9,120.1c0,1.2,0,2.5-0.1,3.7c-0.1,1.9-1.6,3.4-3.5,3.4h-0.1c-1.9-0.1-3.5-1.7-3.4-3.7
	c0-1.1,0.1-2.3,0.1-3.4c0-2,1.6-3.5,3.5-3.5C196.4,116.6,197.9,118.2,197.9,120.1z M31.8,180.1h-7.1v7.1c0,1.9-1.6,3.5-3.5,3.5
	c-1.9,0-3.5-1.5-3.5-3.5v-7.1h-7.1c-1.9,0-3.5-1.5-3.5-3.5c0-1.9,1.5-3.5,3.5-3.5h7.1V166c0-1.9,1.6-3.5,3.5-3.5
	c1.9,0,3.5,1.5,3.5,3.5v7.1h7.1c2,0,3.5,1.6,3.5,3.5C35.3,178.5,33.8,180.1,31.8,180.1z M60,201.4c0.1,2-1.5,3.5-3.5,3.5H35.3
	c-2,0-3.5-1.6-3.5-3.5c0-2,1.6-3.5,3.5-3.5h21.2C58.5,197.9,60,199.5,60,201.4z"/>
</svg>
