<?xml version="1.0" encoding="utf-8"?>
<!-- Generator: Adobe Illustrator 24.0.1, SVG Export Plug-In . SVG Version: 6.00 Build 0)  -->
<svg version="1.1" id="Layer_1" xmlns="http://www.w3.org/2000/svg" xmlns:xlink="http://www.w3.org/1999/xlink" x="0px" y="0px"
	 viewBox="0 0 212 212" style="enable-background:new 0 0 212 212;" xml:space="preserve">
<style type="text/css">
	.st0{fill:url(#SVGID_1_);}
</style>
<linearGradient id="SVGID_1_" gradientUnits="userSpaceOnUse" x1="174.3719" y1="-2.1157" x2="36.3743" y2="135.8818" gradientTransform="matrix(1 0 0 -1 0 214)">
	<stop  offset="0" style="stop-color:#06DAF7"/>
	<stop  offset="1" style="stop-color:#FF6CA8"/>
</linearGradient>
<path class="st0" d="M183.5,105.1l0.1,83.2h-72.2H99.9H27.8v-83.5l77-78.2L183.5,105.1z M194.5,193.7V116l7.3,7.3
	c1.2,1.2,2.7,1.7,4.2,1.7c1.6,0,3.1-0.6,4.3-1.8c1.1-1.1,1.7-2.6,1.7-4.1v-0.3c0-1.5-0.6-3-1.8-4.2L109,13.8
	c-1.1-1.1-2.7-1.7-4.2-1.7c-1.6,0-3.1,0.6-4.2,1.8L1.1,114.8c-2.3,2.4-2.3,6.2,0,8.5c2.4,2.3,6.2,2.3,8.5,0l7.3-7.4v77.8
	c0,3,2.4,5.5,5.5,5.5H100h11.5H189C192,199.2,194.5,196.8,194.5,193.7z"/>
</svg>
