<?xml version="1.0" encoding="utf-8"?>
<!-- Generator: Adobe Illustrator 24.0.1, SVG Export Plug-In . SVG Version: 6.00 Build 0)  -->
<svg version="1.1" id="Layer_2_1_" xmlns="http://www.w3.org/2000/svg" xmlns:xlink="http://www.w3.org/1999/xlink" x="0px" y="0px"
	 viewBox="0 0 212 212" style="enable-background:new 0 0 212 212;" xml:space="preserve">
<style type="text/css">
	.st0{fill:url(#SVGID_1_);}
</style>
<title>AUTOMATION</title>
<linearGradient id="SVGID_1_" gradientUnits="userSpaceOnUse" x1="28.7802" y1="183.2198" x2="-8.7813" y2="220.7812" gradientTransform="matrix(4 0 0 -4 66 914)">
	<stop  offset="0" style="stop-color:#06DAF7"/>
	<stop  offset="1" style="stop-color:#FF6CA8"/>
</linearGradient>
<path class="st0" d="M184.9,131.4c1.5,0.5,2.3,2.2,1.7,3.7c-0.7,1.9-1.4,3.7-2.3,5.6c-0.7,1.5-2.4,2.1-3.8,1.5
	c-1.5-0.7-2.1-2.4-1.5-3.8l0,0c0.8-1.7,1.5-3.4,2.1-5.2C181.7,131.7,183.4,130.9,184.9,131.4z M209.1,89.6h-18.9
	c-2.2-11.3-6.6-22-13-31.6l13.5-13.5c1.1-1.1,1.1-3,0-4.1c0,0,0,0,0,0l-19.1-19.1c-1.1-1.1-3-1.1-4.1,0c0,0,0,0,0,0L154,34.7
	c-9.6-6.5-20.3-10.9-31.6-13.1V2.9c0-1.6-1.3-2.9-2.9-2.9H92.5c-1.6,0-2.9,1.3-2.9,2.9v18.7C78.3,23.8,67.5,28.3,58,34.7L44.5,21.3
	c-1.1-1.1-3-1.1-4.1,0c0,0,0,0,0,0L21.3,40.4c-1.1,1.1-1.1,3,0,4.1c0,0,0,0,0,0L34.8,58c-6.4,9.5-10.8,20.3-13,31.6H2.9
	c-1.6,0-2.9,1.3-2.9,2.9v27.1c0,1.6,1.3,2.9,2.9,2.9h19c2.2,11.2,6.7,21.9,13.1,31.4l-13.6,13.6c-1.1,1.1-1.1,3,0,4.1c0,0,0,0,0,0
	l19.1,19.1c1.1,1.1,3,1.1,4.1,0c0,0,0,0,0,0L58.2,177c9.5,6.4,20.1,10.8,31.3,13v19.1c0,1.6,1.3,2.9,2.9,2.9h27.1
	c1.6,0,2.9-1.3,2.9-2.9V190c11.2-2.2,21.9-6.6,31.3-13l13.7,13.7c1.1,1.1,3,1.1,4.1,0c0,0,0,0,0,0l19.1-19.1c1.1-1.1,1.1-3,0-4.1
	c0,0,0,0,0,0l-15.4-15.4c-1.1-1.1-3-1.1-4.1,0c-1.1,1.1-1.1,3,0,4.1l13.3,13.3l-15,15l-13.4-13.4c-1-1-2.6-1.1-3.7-0.3
	c-9.9,7.1-21.3,11.8-33.4,13.8c-1.4,0.2-2.4,1.4-2.4,2.9v18.7H95.4v-18.7c0-1.4-1-2.6-2.4-2.9c-12-2-23.4-6.7-33.4-13.8
	c-1.2-0.8-2.7-0.7-3.7,0.3l-13.4,13.4l-15-15l13.3-13.3c1-1,1.1-2.6,0.3-3.7c-7.1-9.9-11.9-21.4-13.9-33.4c-0.2-1.4-1.4-2.4-2.9-2.4
	H5.8V95.4h18.4c1.4,0,2.6-1,2.9-2.4c2-12.1,6.7-23.6,13.8-33.6c0.8-1.2,0.7-2.7-0.3-3.7L27.5,42.5l15-15l13.1,13.1
	c1,1,2.6,1.1,3.7,0.3c10-7.2,21.5-12,33.6-14c1.4-0.2,2.4-1.4,2.4-2.9V5.8h21.3V24c0,1.4,1,2.6,2.4,2.9c12.1,2,23.6,6.8,33.6,14
	c1.2,0.8,2.7,0.7,3.7-0.3l13.1-13.1l15,15l-13.1,13.1c-1,1-1.1,2.6-0.3,3.7c7.1,10,11.9,21.5,13.8,33.6c0.2,1.4,1.4,2.4,2.9,2.4
	h18.4v21.3h-18.5c-1.6,0-2.9,1.3-2.9,2.9c0,1.6,1.3,2.9,2.9,2.9l0,0h21.4c1.6,0,2.9-1.3,2.9-2.9V92.5
	C212,90.9,210.7,89.6,209.1,89.6z M133.9,103.4L88.5,80.7C87,80,85.3,80.6,84.6,82c-0.7,1.4-0.1,3.2,1.3,3.9l0,0l40.3,20.1l-36.1,18
	v-19.3c0-1.6-1.3-2.9-2.9-2.9c-1.6,0-2.9,1.3-2.9,2.9v24c0,1.6,1.3,2.9,2.9,2.9c0.5,0,0.9-0.1,1.3-0.3l45.4-22.7
	c1.4-0.7,2-2.5,1.3-3.9C134.9,104.1,134.5,103.7,133.9,103.4L133.9,103.4z M151.4,61.1c24.6,24.9,24.6,64.9,0,89.8
	c-0.1,0.2-0.3,0.4-0.6,0.6c-24.9,24.6-64.9,24.6-89.8,0c-0.2-0.1-0.4-0.3-0.5-0.5C35.9,126,35.9,86,60.6,61.1
	c0.1-0.2,0.3-0.4,0.5-0.5C86,36,126,36,150.9,60.6C151.1,60.7,151.3,60.9,151.4,61.1L151.4,61.1z M164,108.9h-10.5
	c-0.6,10.6-4.8,20.7-11.9,28.7l7.4,7.4C158.1,135,163.4,122.3,164,108.9z M62.9,145l7.4-7.4c-7.1-8-11.3-18.1-11.9-28.7H48
	C48.6,122.3,53.9,135,62.9,145z M48,103.1h10.5c0.6-10.6,4.8-20.7,11.9-28.7L62.9,67C53.9,77,48.6,89.7,48,103.1z M147.9,106
	c0-23.1-18.7-41.9-41.9-41.9c-23.1,0-41.9,18.7-41.9,41.9c0,23.1,18.7,41.9,41.9,41.9c0,0,0,0,0,0
	C129.1,147.9,147.9,129.1,147.9,106z M145,62.9c-9.9-9-22.7-14.3-36.1-15v10.5c10.6,0.6,20.7,4.8,28.7,11.9L145,62.9z M103.1,48
	c-13.4,0.7-26.1,6-36.1,15l7.4,7.4c8-7.1,18.1-11.3,28.7-11.9V48z M67,149.1c9.9,9,22.7,14.3,36.1,15v-10.5
	c-10.6-0.6-20.7-4.8-28.7-11.9L67,149.1z M108.9,164c13.4-0.7,26.1-6,36.1-15l-7.4-7.4c-8,7.1-18.1,11.3-28.7,11.9V164z M164,103.1
	c-0.7-13.4-6-26.1-15-36.1l-7.4,7.4c7.1,8,11.3,18.1,11.9,28.7H164z"/>
</svg>
