<?xml version="1.0" encoding="utf-8"?>
<!-- Generator: Adobe Illustrator 24.0.1, SVG Export Plug-In . SVG Version: 6.00 Build 0)  -->
<svg version="1.1" id="Layer_1" xmlns="http://www.w3.org/2000/svg" xmlns:xlink="http://www.w3.org/1999/xlink" x="0px" y="0px"
	 viewBox="0 0 212 212" style="enable-background:new 0 0 212 212;" xml:space="preserve">
<style type="text/css">
	.st0{clip-path:url(#SVGID_2_);}
	.st1{fill:#FFFFFF;}
</style>
<g>
	<defs>
		<rect id="SVGID_1_" y="27" width="211.1" height="158.3"/>
	</defs>
	<clipPath id="SVGID_2_">
		<use xlink:href="#SVGID_1_"  style="overflow:visible;"/>
	</clipPath>
	<g class="st0">
		<path class="st1" d="M105.5,32.7L5.6,54.1v105.7l99.5,19.7l100.3-19.7V54.1L105.5,32.7z"/>
		<path d="M105.1,185.2c-0.4,0-0.7,0-1.1-0.1L4.6,165.4c-2.6-0.5-4.6-2.9-4.6-5.6V54.1c0-2.7,1.9-5,4.5-5.6l99.9-21.4
			c0.8-0.2,1.6-0.2,2.3,0l99.9,21.4c2.6,0.5,4.5,2.9,4.5,5.6v105.7c0,2.7-1.9,5.1-4.6,5.6L106.2,185
			C105.9,185.1,105.5,185.2,105.1,185.2z M11.3,155.1l93.8,18.5l94.7-18.6V58.7l-94.3-20.2L11.3,58.7V155.1z"/>
		<path class="st1" d="M74.7,112.1l-37.8,8.1V80.4l37.8-8.1V112.1z"/>
		<path d="M36.9,123.6c-0.8,0-1.5-0.3-2.1-0.8c-0.8-0.6-1.3-1.6-1.3-2.7V80.4c0-1.6,1.1-3,2.7-3.4L74,68.9c1-0.2,2,0,2.8,0.7
			c0.8,0.6,1.3,1.6,1.3,2.7v39.8c0,1.6-1.1,3-2.7,3.4l-37.8,8.1C37.4,123.6,37.2,123.6,36.9,123.6z M40.3,83.1v32.8l31-6.6V76.5
			L40.3,83.1z"/>
		<path class="st1" d="M163.7,151.5v-76L134.3,69v76"/>
		<path d="M163.7,155c-1.9,0-3.4-1.5-3.4-3.4V78.3l-22.6-5.1v71.7c0,1.9-1.5,3.4-3.4,3.4c-1.9,0-3.4-1.5-3.4-3.4V69
			c0-1.1,0.5-2,1.3-2.7c0.8-0.7,1.9-0.9,2.8-0.7l29.3,6.6c1.6,0.3,2.6,1.7,2.6,3.3v76C167.1,153.4,165.6,155,163.7,155z"/>
		<path d="M105.1,36.6c-1.9,0-3.4-1.5-3.4-3.4v-0.6c0-1.9,1.5-3.4,3.4-3.4c1.9,0,3.4,1.5,3.4,3.4v0.6
			C108.5,35.1,107,36.6,105.1,36.6z"/>
		<path d="M105,127.2c-1.9,0-3.4-1.5-3.4-3.4v-1.2c0-1.9,1.5-3.4,3.4-3.4c1.9,0,3.4,1.5,3.4,3.4v1.2
			C108.4,125.7,106.9,127.2,105,127.2z M105.1,112.1c-1.9,0-3.4-1.5-3.4-3.4v-1.2c0-1.9,1.5-3.4,3.4-3.4c1.9,0,3.4,1.5,3.4,3.4v1.2
			C108.5,110.6,107,112.1,105.1,112.1z M105.1,97c-1.9,0-3.4-1.5-3.4-3.4v-1.2c0-1.9,1.5-3.4,3.4-3.4c1.9,0,3.4,1.5,3.4,3.4v1.2
			C108.5,95.5,107,97,105.1,97z M105.1,82c-1.9,0-3.4-1.5-3.4-3.4v-1.2c0-1.9,1.5-3.4,3.4-3.4c1.9,0,3.4,1.5,3.4,3.4v1.2
			C108.5,80.4,107,82,105.1,82z M105.1,66.9c-1.9,0-3.4-1.5-3.4-3.4v-1.2c0-1.9,1.5-3.4,3.4-3.4c1.9,0,3.4,1.5,3.4,3.4v1.2
			C108.5,65.3,107,66.9,105.1,66.9z M105.1,51.7c-1.9,0-3.4-1.5-3.4-3.4v-1.2c0-1.9,1.5-3.4,3.4-3.4c1.9,0,3.4,1.5,3.4,3.4v1.2
			C108.5,50.2,107,51.7,105.1,51.7z M108.4,138.1c0,1.9-1.5,3.4-3.4,3.4c-1.9,0-3.4-1.5-3.4-3.4s1.5-3.4,3.4-3.4
			C106.9,134.7,108.4,136.2,108.4,138.1z"/>
		<path d="M191.7,160.3c-0.2,0-0.5,0-0.7-0.1l-1.1-0.2c-1.8-0.4-3-2.2-2.6-4.1c0.4-1.9,2.2-3,4-2.7l1.1,0.2c1.8,0.4,3,2.2,2.6,4.1
			C194.7,159.2,193.2,160.3,191.7,160.3z M177.3,157.2c-0.2,0-0.5,0-0.7-0.1l-1.1-0.2c-1.8-0.4-3-2.2-2.6-4.1c0.4-1.9,2.2-3,4-2.7
			l1.1,0.2c1.8,0.4,3,2.2,2.6,4.1C180.3,156.1,178.9,157.2,177.3,157.2z M148.7,151.1c-0.2,0-0.5,0-0.7-0.1l-1.1-0.2
			c-1.8-0.4-3-2.2-2.6-4.1s2.2-3,4-2.7l1.1,0.2c1.8,0.4,3,2.2,2.6,4.1C151.7,150,150.3,151.1,148.7,151.1z M120,144.9
			c-0.2,0-0.5,0-0.7-0.1l-1.1-0.2c-1.8-0.4-3-2.2-2.6-4.1c0.4-1.9,2.2-3,4-2.7l1.1,0.2c1.8,0.4,3,2.2,2.6,4.1
			C123,143.8,121.6,144.9,120,144.9z"/>
		<path d="M205.4,163.2c-0.2,0-0.5,0-0.7-0.1l-0.5-0.1c-1.8-0.4-3-2.2-2.6-4.1c0.4-1.9,2.2-3,4-2.7l0.5,0.1c1.8,0.4,3,2.2,2.6,4.1
			C208.4,162.1,207,163.2,205.4,163.2z"/>
		<path d="M105.1,185.3c-2.6,0-5-1.9-5.5-4.6c-0.6-3.1,1.4-6.1,4.4-6.7l0.4-0.1c3-0.6,6,1.4,6.6,4.5c0.6,3.1-1.4,6.1-4.4,6.7
			l-0.4,0.1C105.9,185.3,105.5,185.3,105.1,185.3z"/>
		<path d="M19.3,160.3c-1.6,0-3-1.1-3.3-2.7c-0.4-1.9,0.8-3.7,2.6-4.1l1.1-0.2c1.8-0.4,3.6,0.8,4,2.7c0.4,1.9-0.8,3.7-2.6,4.1
			l-1.1,0.2C19.8,160.3,19.5,160.3,19.3,160.3z M33.5,157.3c-1.6,0-3-1.1-3.3-2.7c-0.4-1.9,0.8-3.7,2.6-4.1l1.1-0.2
			c1.8-0.4,3.6,0.8,4,2.7c0.4,1.9-0.8,3.7-2.6,4.1l-1.1,0.2C34,157.2,33.7,157.3,33.5,157.3z M47.7,154.2c-1.6,0-3-1.1-3.3-2.7
			c-0.4-1.9,0.8-3.7,2.6-4.1l1.1-0.2c1.8-0.4,3.6,0.8,4,2.7c0.4,1.9-0.8,3.7-2.6,4.1l-1.1,0.2C48.2,154.2,48,154.2,47.7,154.2z
			 M61.9,151.2c-1.6,0-3-1.1-3.3-2.7c-0.4-1.9,0.8-3.7,2.6-4.1l1.1-0.2c1.8-0.4,3.6,0.8,4,2.6c0.4,1.9-0.8,3.7-2.6,4.1l-1.1,0.2
			C62.4,151.2,62.2,151.2,61.9,151.2z M76.2,148.1c-1.6,0-3-1.1-3.3-2.7c-0.4-1.9,0.8-3.7,2.6-4.1l1.1-0.2c1.8-0.4,3.6,0.8,4,2.7
			c0.4,1.9-0.8,3.7-2.6,4.1l-1.1,0.2C76.6,148.1,76.4,148.1,76.2,148.1z M90.4,145.1c-1.6,0-3-1.1-3.3-2.7c-0.4-1.9,0.8-3.7,2.6-4.1
			l1.1-0.2c1.8-0.4,3.6,0.8,4,2.7c0.4,1.9-0.8,3.7-2.6,4.1l-1.1,0.2C90.8,145.1,90.6,145.1,90.4,145.1z"/>
		<path d="M5.6,163.2c-1.6,0-3-1.1-3.3-2.7c-0.4-1.9,0.8-3.7,2.6-4.1l0.6-0.1c1.8-0.4,3.6,0.8,4,2.7c0.4,1.9-0.8,3.7-2.6,4.1
			l-0.6,0.1C6.1,163.2,5.9,163.2,5.6,163.2z"/>
	</g>
</g>
</svg>
