<?xml version="1.0" encoding="utf-8"?>
<!-- Generator: Adobe Illustrator 24.0.1, SVG Export Plug-In . SVG Version: 6.00 Build 0)  -->
<svg version="1.1" id="Layer_1" xmlns="http://www.w3.org/2000/svg" xmlns:xlink="http://www.w3.org/1999/xlink" x="0px" y="0px"
	 viewBox="0 0 679 399.9" style="enable-background:new 0 0 679 399.9;" xml:space="preserve">
<style type="text/css">
	.st0{opacity:0.2;fill:#C4C4C4;enable-background:new    ;}
</style>
<g>
	<path class="st0" d="M34.2,34.5h610c0.7,0,1.2-0.6,1.2-1.2s-0.5-1.2-1.2-1.2h-610c-0.6,0-1.2,0.5-1.2,1.2
		C33,34,33.6,34.5,34.2,34.5z"/>
	<path class="st0" d="M604.2,92.3c0-0.6-0.5-1.2-1.2-1.2H389.5c-0.6,0-1.2,0.6-1.2,1.2s0.5,1.2,1.2,1.2H603
		C603.7,93.5,604.2,92.9,604.2,92.3z"/>
	<path class="st0" d="M287.9,92.3c0-0.6-0.5-1.2-1.2-1.2H76c-0.6,0-1.2,0.6-1.2,1.2s0.5,1.2,1.2,1.2h210.7
		C287.4,93.5,287.9,92.9,287.9,92.3z"/>
	<path class="st0" d="M353.6,60.1c-3.8-0.8-8.7-1.2-14-1.2s-10.3,0.4-14,1.2c-4.1,0.9-6.2,2-6.6,3.5l-23.1,35.5
		c-0.3,0.5-0.2,1.3,0.4,1.7c0.2,0.1,0.5,0.2,0.7,0.2c0.4,0,0.8-0.2,1-0.6l22.1-34c1.1,0.8,2.9,1.4,5.5,1.9c3.8,0.8,8.7,1.2,14,1.2
		s10.3-0.4,14-1.2c2.5-0.5,4.2-1.1,5.3-1.9l22.2,34c0.2,0.4,0.6,0.6,1,0.6c0.3,0,0.5-0.1,0.7-0.2c0.6-0.3,0.8-1.1,0.4-1.7L360.3,64
		C360.1,62.2,358,61,353.6,60.1z M339.7,67.1c-10.5,0-17-1.7-18.1-2.8c1.1-1.1,7.6-2.8,18.1-2.8s17,1.7,18.1,2.8
		C356.7,65.4,350.2,67.1,339.7,67.1z"/>
	<path class="st0" d="M484.6,256.5c-0.6,0.3-0.8,1.1-0.4,1.7l1.8,2.7c0.2,0.4,0.6,0.6,1,0.6c0.3,0,0.5,0,0.7-0.2
		c0.6-0.3,0.8-1.1,0.4-1.7l-1.8-2.7C486,256.3,485.2,256.1,484.6,256.5z"/>
	<path class="st0" d="M477.5,245.5c-0.6,0.3-0.8,1.1-0.4,1.7l4.2,6.4c0.2,0.4,0.6,0.6,1,0.6c0.2,0,0.4-0.1,0.7-0.2
		c0.6-0.3,0.8-1.1,0.4-1.7l-4.2-6.4C478.9,245.3,478.1,245.1,477.5,245.5z"/>
	<path class="st0" d="M467.5,230.6c-0.6,0.3-0.8,1.1-0.4,1.7l6.9,10.6c0.2,0.4,0.6,0.6,1,0.6c0.3,0,0.5,0,0.7-0.2
		c0.6-0.3,0.8-1.1,0.4-1.7l-6.9-10.6C468.9,230.4,468.1,230.2,467.5,230.6z"/>
	<path class="st0" d="M454.6,210.8c-0.6,0.3-0.8,1.1-0.4,1.7l9.1,14c0.2,0.4,0.6,0.6,1,0.6c0.2,0,0.5-0.1,0.7-0.2
		c0.6-0.3,0.8-1.1,0.4-1.7l-9.1-14C456,210.6,455.2,210.4,454.6,210.8z"/>
	<path class="st0" d="M437.1,183.8c-0.6,0.3-0.8,1.1-0.4,1.7l13.7,21.1c0.2,0.4,0.6,0.6,1,0.6c0.2,0,0.5,0,0.7-0.2
		c0.6-0.3,0.8-1.1,0.4-1.7l-13.7-21.1C438.5,183.6,437.7,183.4,437.1,183.8z"/>
	<path class="st0" d="M412.9,146.9c-0.6,0.3-0.8,1.1-0.4,1.7l20.1,30.8c0.2,0.4,0.6,0.6,1,0.6c0.3,0,0.5-0.1,0.7-0.2
		c0.6-0.3,0.8-1.1,0.4-1.7l-20.1-30.8C414.3,146.7,413.5,146.6,412.9,146.9z"/>
	<path class="st0" d="M386.7,106.6c-0.6,0.3-0.8,1.1-0.4,1.7l22.1,33.9c0.2,0.4,0.6,0.6,1,0.6c0.2,0,0.4-0.1,0.7-0.2
		c0.6-0.3,0.8-1.1,0.4-1.7L388.4,107C388.1,106.4,387.3,106.2,386.7,106.6z"/>
	<path class="st0" d="M192.7,256.9l-1.8,2.7c-0.3,0.5-0.2,1.3,0.4,1.7c0.2,0.1,0.5,0.2,0.7,0.2c0.4,0,0.8-0.2,1-0.6l1.8-2.7
		c0.3-0.5,0.2-1.3-0.4-1.7C193.9,256.2,193.1,256.3,192.7,256.9z"/>
	<path class="st0" d="M199.9,245.9l-4.2,6.4c-0.3,0.5-0.2,1.3,0.4,1.7c0.2,0.1,0.5,0.2,0.7,0.2c0.4,0,0.8-0.2,1-0.6l4.2-6.4
		c0.3-0.5,0.2-1.3-0.4-1.7C201.1,245.2,200.3,245.3,199.9,245.9z"/>
	<path class="st0" d="M209.8,231l-6.9,10.6c-0.3,0.5-0.2,1.3,0.4,1.7c0.2,0.1,0.5,0.2,0.7,0.2c0.4,0,0.8-0.2,1-0.6l6.9-10.6
		c0.3-0.5,0.2-1.3-0.4-1.7C211,230.3,210.2,230.4,209.8,231z"/>
	<path class="st0" d="M222.8,211.2l-9.1,14c-0.3,0.5-0.2,1.3,0.4,1.7c0.2,0.1,0.5,0.2,0.7,0.2c0.4,0,0.8-0.2,1-0.6l9.1-14
		c0.3-0.5,0.2-1.3-0.4-1.7C224,210.5,223.2,210.6,222.8,211.2z"/>
	<path class="st0" d="M240.3,184.2l-13.7,21.1c-0.3,0.5-0.2,1.3,0.4,1.7c0.2,0.1,0.5,0.2,0.7,0.2c0.4,0,0.8-0.2,1-0.6l13.7-21.1
		c0.3-0.5,0.2-1.3-0.4-1.7C241.5,183.5,240.7,183.6,240.3,184.2z"/>
	<path class="st0" d="M264.5,147.3l-20.1,30.8c-0.3,0.5-0.2,1.3,0.4,1.7c0.2,0.1,0.5,0.2,0.7,0.2c0.4,0,0.8-0.2,1-0.6l20.1-30.8
		c0.3-0.5,0.2-1.3-0.4-1.7C265.7,146.6,264.9,146.7,264.5,147.3z"/>
	<path class="st0" d="M269.7,142.8c0.4,0,0.8-0.2,1-0.6l22.1-33.9c0.3-0.5,0.2-1.3-0.4-1.7c-0.5-0.3-1.3-0.2-1.7,0.4l-22.1,33.9
		c-0.3,0.5-0.2,1.3,0.4,1.7C269.2,142.7,269.5,142.8,269.7,142.8z"/>
	<path class="st0" d="M644,366.1H394.8V154.3c0-0.6-0.5-1.2-1.2-1.2h-109c-0.6,0-1.2,0.5-1.2,1.2v211.8H34.2c-0.6,0-1.2,0.6-1.2,1.2
		s0.5,1.2,1.2,1.2h250.6c0.6,0,1.2-0.5,1.2-1.2V155.5h106.5v211.8c0,0.6,0.5,1.2,1.2,1.2h250.5c0.7,0,1-0.6,1-1.2
		S644.7,366.1,644,366.1z"/>
</g>
</svg>
