<?xml version="1.0" encoding="utf-8"?>
<!-- Generator: Adobe Illustrator 24.0.1, SVG Export Plug-In . SVG Version: 6.00 Build 0)  -->
<svg version="1.1" id="Layer_1" xmlns="http://www.w3.org/2000/svg" xmlns:xlink="http://www.w3.org/1999/xlink" x="0px" y="0px"
	 viewBox="0 0 683 413.6" style="enable-background:new 0 0 683 413.6;" xml:space="preserve">
<style type="text/css">
	.st0{opacity:0.2;fill:#C4C4C4;enable-background:new    ;}
</style>
<g>
	<path class="st0" d="M36.2,36.4h610c0.7,0,1.2-0.6,1.2-1.2c0-0.6-0.5-1.2-1.2-1.2h-610c-0.6,0-1.2,0.5-1.2,1.2
		C35,35.9,35.6,36.4,36.2,36.4z"/>
	<path class="st0" d="M646,378H501.8V141.2c0-0.6-0.5-1.2-1.2-1.2h-109c-0.6,0-1.2,0.5-1.2,1.2V378h-56.3c1-7,2.9-12.3,5.5-15.3
		c0.3-0.3,0.3-0.8,0-1.1c-0.3-0.3-0.7-0.4-1.1-0.2c-0.1,0.1-2.1,1.3-4.1,4.1c1.6-6.9,4-12.1,7-15.5c0.3-0.3,0.3-0.8,0-1.1
		c-0.3-0.3-0.7-0.4-1.1-0.2c-0.5,0.2-8.8,5.2-11.1,19.1c-2.6-10.6-9.1-14.5-9.5-14.7s-0.8-0.1-1.1,0.2s-0.3,0.8,0,1.1
		c2.7,3,4.8,7.6,6.2,13.6c-1.7-2.4-3.4-3.3-3.5-3.4c-0.4-0.2-0.8-0.1-1.1,0.2c-0.3,0.3-0.3,0.8,0,1.1c2.2,2.5,3.8,6.6,4.7,12.1
		h-22.4c1.1-8.3,3.3-14.5,6.4-18c0.3-0.4,0.3-0.9,0-1.3c-0.3-0.3-0.9-0.4-1.3-0.2c-0.1,0.1-2.4,1.4-4.7,4.7c1.9-8,4.6-14.1,8.1-18
		c0.3-0.4,0.3-0.9,0-1.3c-0.3-0.3-0.9-0.4-1.3-0.2c-0.5,0.3-10,6-12.8,21.8c-3.1-12.1-10.6-16.5-10.9-16.7c-0.5-0.3-1-0.2-1.3,0.2
		c-0.3,0.4-0.3,0.9,0,1.3c3.1,3.4,5.5,8.7,7.1,15.7c-2-2.7-3.9-3.8-4-3.9c-0.5-0.3-1-0.2-1.3,0.2c-0.3,0.4-0.3,0.9,0,1.3
		c2.6,2.8,4.5,7.8,5.6,14.4H265c1-7,2.9-12.3,5.5-15.3c0.3-0.3,0.3-0.8,0-1.1c-0.3-0.3-0.7-0.4-1.1-0.2c-0.1,0.1-2.1,1.3-4.1,4.1
		c1.6-6.9,4-12.1,7-15.5c0.3-0.3,0.3-0.8,0-1.1c-0.3-0.3-0.7-0.4-1.1-0.2c-0.5,0.2-8.8,5.2-11.1,19.1c-2.6-10.6-9.1-14.5-9.5-14.7
		s-0.8-0.1-1.1,0.2c-0.3,0.3-0.3,0.8,0,1.1c2.7,3,4.8,7.6,6.2,13.6c-1.7-2.4-3.4-3.3-3.5-3.4c-0.4-0.2-0.8-0.1-1.1,0.2
		c-0.3,0.3-0.3,0.8,0,1.1c2.2,2.5,3.8,6.6,4.7,12.1h-22.4c1.1-8.3,3.3-14.5,6.4-18c0.3-0.4,0.3-0.9,0-1.3c-0.3-0.3-0.9-0.4-1.3-0.2
		c-0.1,0.1-2.4,1.4-4.7,4.7c1.9-8,4.6-14.1,8.1-18c0.3-0.4,0.3-0.9,0-1.3c-0.3-0.3-0.9-0.4-1.3-0.2c-0.5,0.3-10,6-12.8,21.8
		c-3.1-12.1-10.6-16.5-10.9-16.7c-0.5-0.3-1-0.2-1.3,0.2c-0.3,0.4-0.3,0.9,0,1.3c3.1,3.4,5.5,8.7,7.1,15.7c-2-2.7-3.9-3.8-4-3.9
		c-0.5-0.3-1-0.2-1.3,0.2c-0.3,0.4-0.3,0.9,0,1.3c2.6,2.8,4.5,7.8,5.6,14.4h-28.1c1-7,2.9-12.3,5.5-15.3c0.3-0.3,0.3-0.8,0-1.1
		c-0.3-0.3-0.7-0.4-1.1-0.2c-0.1,0.1-2.1,1.3-4.1,4.1c1.6-6.9,4-12.1,7-15.5c0.3-0.3,0.3-0.8,0-1.1c-0.3-0.3-0.7-0.4-1.1-0.2
		c-0.5,0.2-8.8,5.2-11.1,19.1c-2.6-10.6-9.1-14.5-9.5-14.7s-0.8-0.1-1.1,0.2c-0.3,0.3-0.3,0.8,0,1.1c2.7,3,4.8,7.6,6.2,13.6
		c-1.7-2.4-3.4-3.3-3.5-3.4c-0.4-0.2-0.8-0.1-1.1,0.2c-0.3,0.3-0.3,0.8,0,1.1c2.2,2.5,3.8,6.6,4.7,12.1h-22.4
		c1.1-8.3,3.3-14.5,6.4-18c0.3-0.4,0.3-0.9,0-1.3c-0.3-0.3-0.9-0.4-1.3-0.2c-0.1,0.1-2.4,1.4-4.7,4.7c1.9-8,4.6-14.1,8.1-18
		c0.3-0.4,0.3-0.9,0-1.3c-0.3-0.3-0.9-0.4-1.3-0.2c-0.5,0.3-10,6-12.8,21.8c-3.1-12.1-10.6-16.5-10.9-16.7c-0.5-0.3-1-0.2-1.3,0.2
		c-0.3,0.4-0.3,0.9,0,1.3c3.1,3.4,5.5,8.7,7.1,15.7c-2-2.7-3.9-3.8-4-3.9c-0.5-0.3-1-0.2-1.3,0.2c-0.3,0.4-0.3,0.9,0,1.3
		c2.6,2.8,4.5,7.8,5.6,14.4h-26.8c1-7,2.9-12.3,5.5-15.3c0.3-0.3,0.3-0.8,0-1.1c-0.3-0.3-0.7-0.4-1.1-0.2c-0.1,0.1-2.1,1.3-4.1,4.1
		c1.6-6.9,4-12.1,7-15.5c0.3-0.3,0.3-0.8,0-1.1c-0.3-0.3-0.7-0.4-1.1-0.2c-0.5,0.2-8.8,5.2-11.1,19.1c-2.6-10.6-9.1-14.5-9.5-14.7
		s-0.8-0.1-1.1,0.2c-0.3,0.3-0.3,0.8,0,1.1c2.7,3,4.8,7.6,6.2,13.6c-1.7-2.4-3.4-3.3-3.5-3.4c-0.4-0.2-0.8-0.1-1.1,0.2
		c-0.3,0.3-0.3,0.8,0,1.1c2.2,2.5,3.8,6.6,4.7,12.1H94.6c1.1-8.3,3.3-14.5,6.4-18c0.3-0.4,0.3-0.9,0-1.3c-0.3-0.3-0.9-0.4-1.3-0.2
		c-0.1,0.1-2.4,1.4-4.7,4.7c1.9-8,4.6-14.1,8.1-18c0.3-0.4,0.3-0.9,0-1.3c-0.3-0.3-0.9-0.4-1.3-0.2c-0.5,0.3-10,6-12.8,21.8
		c-3.1-12.1-10.6-16.5-10.9-16.7c-0.5-0.3-1-0.2-1.3,0.2c-0.3,0.4-0.3,0.9,0,1.3c3.1,3.4,5.5,8.7,7.1,15.7c-2-2.7-3.9-3.8-4-3.9
		c-0.5-0.3-1-0.2-1.3,0.2c-0.3,0.4-0.3,0.9,0,1.3c2.6,2.8,4.5,7.8,5.6,14.4h-48c-0.6,0-1.2,0.6-1.2,1.2s0.5,1.2,1.2,1.2h355.6
		c0.6,0,1.2-0.5,1.2-1.2V142.4h106.5v236.8c0,0.6,0.5,1.2,1.2,1.2h145.5c0.7,0,1-0.6,1-1.2S646.7,378,646,378z M335.2,356.5
		c0.2-0.3,0.5-0.7,0.7-1c-2,4.3-3.5,9.7-4.4,16.2c0,0.5,0.3,0.9,0.7,1c0.4,0.1,0.9-0.2,1-0.6c0.3-0.8,0.6-1.6,0.9-2.3
		c-0.8,2.3-1.3,5.1-1.7,8.2h-1.9C329.9,367.3,332.7,360.4,335.2,356.5z M326,374c0.1,0.1,0.1,0.1,0.1,0.2c0.1,0.4,0.6,0.7,1,0.6
		c0.5-0.1,0.8-0.6,0.7-1c-0.8-5.4-2-9.9-3.5-13.6c2.2,3.7,4.5,9.4,4.3,17.8h-1.8C326.6,376.5,326.4,375.2,326,374z M303.8,352.8
		c0.3-0.4,0.5-0.8,0.8-1.2c-2.3,5-4,11.3-5.1,18.8c0,0.5,0.3,1,0.8,1.1s1-0.2,1.2-0.7c0.3-1,0.6-1.9,1-2.7c-0.9,2.8-1.6,6.1-2.1,9.9
		h-2.1c0-0.2,0-0.4,0-0.6c0-1.2,0-2.4-0.1-3.5C298.4,363.7,301.2,356.8,303.8,352.8z M293.2,373c0,0,0.1,0.1,0.1,0.2
		c0.2,0.5,0.7,0.8,1.2,0.7c0.5-0.1,0.9-0.6,0.8-1.1c-0.9-6.3-2.2-11.5-4-15.8c2.7,4.4,5.2,11.2,5,21h-2.1
		C294,376.2,293.6,374.5,293.2,373z M266.2,356.5c0.2-0.3,0.5-0.7,0.7-1c-2,4.3-3.5,9.7-4.4,16.2c0,0.5,0.3,0.9,0.7,1
		c0.4,0.1,0.9-0.2,1-0.6c0.3-0.8,0.6-1.6,0.9-2.3c-0.8,2.3-1.3,5.1-1.7,8.2h-1.9C260.9,367.3,263.7,360.4,266.2,356.5z M257,374
		c0.1,0.1,0.1,0.1,0.1,0.2c0.1,0.4,0.6,0.7,1,0.6c0.5-0.1,0.8-0.6,0.7-1c-0.8-5.4-2-9.9-3.5-13.6c2.2,3.7,4.5,9.4,4.3,17.8h-1.8
		C257.6,376.5,257.4,375.2,257,374z M234.8,352.8c0.3-0.4,0.5-0.8,0.8-1.2c-2.3,5-4,11.3-5.1,18.8c0,0.5,0.3,1,0.8,1.1
		s1-0.2,1.2-0.7c0.3-1,0.6-1.9,1-2.7c-0.9,2.8-1.6,6.1-2.1,9.9h-2.1c0-0.2,0-0.4,0-0.6c0-1.2,0-2.4-0.1-3.5
		C229.4,363.7,232.2,356.8,234.8,352.8z M224.2,373c0,0,0.1,0.1,0.1,0.2c0.2,0.5,0.7,0.8,1.2,0.7c0.5-0.1,0.9-0.6,0.8-1.1
		c-0.9-6.3-2.2-11.5-4-15.8c2.7,4.4,5.2,11.2,5,21h-2.1C225,376.2,224.6,374.5,224.2,373z M196.2,356.5c0.2-0.3,0.5-0.7,0.7-1
		c-2,4.3-3.5,9.7-4.4,16.2c0,0.5,0.3,0.9,0.7,1s0.9-0.2,1-0.6c0.3-0.8,0.6-1.6,0.9-2.3c-0.8,2.3-1.3,5.1-1.7,8.2h-1.9
		C190.9,367.3,193.7,360.4,196.2,356.5z M187,374c0.1,0.1,0.1,0.1,0.1,0.2c0.1,0.4,0.6,0.7,1,0.6c0.5-0.1,0.8-0.6,0.7-1
		c-0.8-5.4-2-9.9-3.5-13.6c2.2,3.7,4.5,9.4,4.3,17.8h-1.8C187.6,376.5,187.4,375.2,187,374z M164.8,352.8c0.3-0.4,0.5-0.8,0.8-1.2
		c-2.3,5-4,11.3-5.1,18.8c0,0.5,0.3,1,0.8,1.1s1-0.2,1.2-0.7c0.3-1,0.6-1.9,1-2.7c-0.9,2.8-1.6,6.1-2.1,9.9h-2.1c0-0.2,0-0.4,0-0.6
		c0-1.2,0-2.4-0.1-3.5C159.4,363.7,162.2,356.8,164.8,352.8z M154.2,373c0,0,0.1,0.1,0.1,0.2c0.2,0.5,0.7,0.8,1.2,0.7
		c0.5-0.1,0.9-0.6,0.8-1.1c-0.9-6.3-2.2-11.5-4-15.8c2.7,4.4,5.2,11.2,5,21h-2.1C155,376.2,154.6,374.5,154.2,373z M127.3,356.5
		c0.2-0.3,0.5-0.7,0.7-1c-2,4.3-3.5,9.7-4.4,16.2c0,0.5,0.3,0.9,0.7,1s0.9-0.2,1-0.6c0.2-0.8,0.5-1.6,0.8-2.3
		c-0.8,2.3-1.3,5.1-1.7,8.2h-1.9C121.9,367.3,124.7,360.4,127.3,356.5z M118,374c0.1,0.1,0.1,0.1,0.1,0.2c0.1,0.4,0.6,0.7,1,0.6
		c0.5-0.1,0.8-0.6,0.7-1c-0.8-5.4-2-9.9-3.5-13.6c2.2,3.7,4.5,9.4,4.3,17.8h-1.8C118.6,376.5,118.4,375.2,118,374z M95.8,352.8
		c0.3-0.4,0.5-0.8,0.8-1.2c-2.3,5-4,11.3-5.1,18.8c0,0.5,0.3,1,0.8,1.1s1-0.2,1.2-0.7c0.3-1,0.6-1.9,1-2.7c-0.9,2.8-1.6,6.1-2.1,9.9
		h-2.1c0-0.2,0-0.4,0-0.6c0-1.2,0-2.4-0.1-3.5C90.4,363.7,93.2,356.8,95.8,352.8z M85.2,373c0,0,0.1,0.1,0.1,0.2
		c0.2,0.5,0.7,0.8,1.2,0.7c0.5-0.1,0.9-0.6,0.8-1.1c-0.9-6.3-2.2-11.5-4-15.8c2.7,4.4,5.2,11.2,5,21h-2.1
		C86,376.2,85.6,374.5,85.2,373z"/>
</g>
</svg>
