<?xml version="1.0" encoding="utf-8"?>
<!-- Generator: Adobe Illustrator 24.0.1, SVG Export Plug-In . SVG Version: 6.00 Build 0)  -->
<svg version="1.1" id="Layer_1" xmlns="http://www.w3.org/2000/svg" xmlns:xlink="http://www.w3.org/1999/xlink" x="0px" y="0px"
	 viewBox="0 0 740 420" style="enable-background:new 0 0 740 420;" xml:space="preserve">
<style type="text/css">
	.st0{opacity:0.2;fill:#C4C4C4;enable-background:new    ;}
</style>
<g>
	<path class="st0" d="M565,255.8l0.6-16.3h0.6c0.8,0,1.5-0.7,1.5-1.5v-9.5c0-0.8-0.7-1.5-1.5-1.5h-9.5c-0.8,0-1.5,0.7-1.5,1.5v9.4
		c0,0.8,0.7,1.5,1.5,1.5h0.7l0.9,16.4c0,0.8,0.7,1.4,1.5,1.4h3.7C564.3,257.2,564.9,256.6,565,255.8z M562.6,237.9l-0.6,16.3h-0.8
		l-0.9-16.3c0-0.8-0.7-1.4-1.5-1.4h-0.6V230h6.5v6.5h-0.6C563.3,236.5,562.6,237.1,562.6,237.9z"/>
	<path class="st0" d="M680.6,251.3c-0.3-0.3-0.7-0.5-1.1-0.5c-39.3,0-63.9,4.7-92.4,10.2c-1.7,0.3-3.4,0.6-5.1,1v-24h9.5v0.8
		c0,0.8,0.7,1.5,1.5,1.5h5c0.8,0,1.5-0.7,1.5-1.5V238c0.7-0.1,1.2-0.8,1.2-1.5v-4.8c0-0.8-0.7-1.5-1.5-1.5h-17.3v-5.5
		c0-0.8-0.7-1.5-1.5-1.5H571c-0.8,0-1.5,0.7-1.5,1.5v39.5c-33.1,6-73.4,11.5-142.6,11.5c-0.8,0-1.5,0.7-1.5,1.5
		c0,40.9,39.4,66,67.6,66h120.8c19.4,0,35.9-9.1,48-26.2c11.2-16.1,17.8-38.4,19.2-64.6C681,252,680.9,251.6,680.6,251.3z
		 M572.5,226.2v-0.1h6.3v5.5c0,0.8,0.7,1.5,1.5,1.5h17.3v1.9c-0.7,0.1-1.2,0.8-1.2,1.5v0.8h-2v-0.8c0-0.8-0.7-1.5-1.5-1.5h-12.5
		c-0.8,0-1.5,0.7-1.5,1.5v25.9c-2.1,0.4-4.2,0.8-6.4,1.2L572.5,226.2L572.5,226.2z M659.1,315.2c-11.3,16.4-27,25-45.4,25H492.9
		c-26.6,0-63.7-23.3-64.6-61.5c69.5-0.1,109.7-5.7,142.8-11.8l0,0c0.1,0,0.2,0,0.3,0c3.2-0.6,6.3-1.2,9.4-1.8c0.1,0,0.1-0.1,0.2-0.1
		c2.1-0.4,4.3-0.8,6.4-1.2c28-5.3,52.2-10,90.3-10.1C676.2,278.6,669.8,299.9,659.1,315.2z"/>
	<path class="st0" d="M115.8,177.9h172.6c0.9,0,1.5-0.7,1.5-1.5V72.2c0-0.8-0.7-1.5-1.5-1.5H115.8c-0.8,0-1.5,0.7-1.5,1.5v104.2
		C114.3,177.2,115,177.9,115.8,177.9z M117.3,73.7h169.6v101.2H117.3V73.7z"/>
	<path class="st0" d="M281.4,77.4H121.1c-0.8,0-1.5,0.7-1.5,1.5V170c0,0.8,0.7,1.5,1.5,1.5h160.3c0.8,0,1.5-0.7,1.5-1.5V78.9
		C282.9,78.1,282.2,77.4,281.4,77.4z M279.9,168.5H122.6V80.4h157.3L279.9,168.5L279.9,168.5z"/>
	<path class="st0" d="M125.8,167h150.8c0.8,0,1.5-0.7,1.5-1.5V83.1c0-0.8-0.7-1.5-1.5-1.5H125.8c-0.8,0-1.5,0.7-1.5,1.5v82.4
		C124.3,166.3,125,167,125.8,167z M127.3,84.6h147.8V164H127.3V84.6z"/>
	<path class="st0" d="M63.8,224.3c-0.9,3.8-1.8,7.8-2.7,12.4c-0.1,0.8,0.3,1.5,1,1.7c4.5,1.4,14.1,2.6,20.8,2.6c1,0,2,0,2.8-0.1v-3
		c-0.8,0.1-1.7,0.1-2.8,0.1c-6.4,0-14.3-1-18.6-2.1c0.8-3.9,1.6-7.5,2.4-10.9c2.2-9.4,4.1-17.5,4.1-28.5c0-1.2,0.5-4.4,1.3-7.4
		c0.4-1.6,0.8-2.8,1.2-3.7c0.1-0.2,0.2-0.5,0.3-0.6c0.2-0.4,0.6-0.7,1.6-0.7c0.9,0,2,0.3,3,0.5c0.9,0.2,1.7,0.4,2.4,0.4
		c2.2,0,3.8-0.3,5.2-0.5c1.2-0.2,2.2-0.4,3.4-0.4c0.7,0.1,1.4,0.7,1.9,1.2c0.6,0.7,1.3,1.7,1.9,2.9c2.8,5.3,4.9,14,6.2,20.4
		c0.1,0.5,0.2,0.9,0.3,1.4h3c-0.1-0.7-0.2-1.4-0.3-2.1c-1.2-6.3-3.4-14.7-6.1-20.3c2.7-3.3,4.2-7.4,4.2-11.7c0-7.8-4.8-14.6-12-17.3
		V152c0-0.8-0.7-1.5-1.5-1.5h-9.9c-0.8,0-1.5,0.7-1.5,1.5v6.6c-7.2,2.7-12,9.5-12,17.3c0,5,2,9.8,5.6,13.3c-0.7,2.8-1.2,5.8-1.2,7.3
		C67.8,207.1,65.9,215.1,63.8,224.3z M89.4,181c-1.6,0-2.8,0.2-4,0.4c-1.3,0.2-2.7,0.5-4.7,0.5c-0.3,0-1-0.2-1.6-0.3
		c-1.1-0.3-2.5-0.6-3.8-0.6c-1.6,0-2.7,0.5-3.4,1.2c-1.2-1.8-1.8-4-1.8-6.3c0-4.1,2-7.8,5.3-9.9v3.2c0,0.8,0.7,1.5,1.5,1.5h9.9
		c0.8,0,1.5-0.7,1.5-1.5V166c3.3,2.2,5.3,5.8,5.3,9.9c0,2.2-0.6,4.2-1.6,6C91.2,181.4,90.3,181.1,89.4,181L89.4,181z M66.3,175.8
		c0-6.8,4.4-12.8,11-14.8c0.7-0.2,1.1-0.7,1.1-1.4v-6.1h7v5.9c0,0.6,0.5,1.2,1.1,1.4c6.4,2,10.9,8.1,10.9,14.8c0,3.2-1,6.3-2.8,8.9
		c-0.1-0.2-0.3-0.4-0.4-0.6c1.6-2.4,2.5-5.2,2.5-8.2c0-6.1-3.7-11.4-9.3-13.7c-0.5-0.2-1-0.2-1.4,0.1c-0.5,0.2-0.7,0.7-0.7,1.2v4.2
		h-6.9v-4.2c0-0.5-0.3-0.9-0.7-1.2c-0.4-0.2-0.9-0.3-1.4-0.1c-5.7,2.2-9.3,7.6-9.3,13.7c0,3.3,1,6.4,3,9c-0.1,0.3-0.2,0.5-0.3,0.8
		C67.5,182.8,66.3,179.4,66.3,175.8z"/>
	<path class="st0" d="M322.4,242.8h-7.6V227c0-0.8-0.7-1.5-1.5-1.5h-1.1l0.9-6.6l2.1,0.4c0.1,0,0.2,0,0.3,0c0.3,0,0.6-0.1,0.9-0.1
		c0.3-0.3,0.6-0.7,0.6-1.1l0.9-8.6c0-0.5-0.1-0.9-0.4-1.2s-0.7-0.5-1.1-0.5h-3c-0.1,0-0.2-0.1-0.4-0.1c-0.8-0.1-1.6,0.5-1.7,1.3
		l-2.1,16.5h-9.1l-2.5-16.6l0,0l0,0c0-0.2-0.1-0.3-0.1-0.5c-0.2-0.5-0.7-0.9-1.4-0.9h-3.5c-0.4,0-0.8,0.2-1.1,0.5
		c-0.3,0.4-0.4,0.8-0.4,1.2l0.8,8.6c0,0.5,0.3,0.8,0.6,1.1c0.3,0.2,0.6,0.3,0.9,0.3c0.1,0,0.2,0,0.3-0.1l2.3-0.5l1,6.9h-1.5
		c-0.8,0-1.5,0.7-1.5,1.5v15.8h-5.6l0.9-3.7c0.1-0.5,0-0.9-0.3-1.3c-0.3-0.4-0.7-0.6-1.2-0.6h-3.2c-0.5-1.8-2.2-3.1-4.2-3.1h-16.6
		c-1.2,0-2.3,0.4-3.2,1.3c-0.5,0.5-0.9,1.1-1.1,1.8h-3.2c-0.5,0-0.9,0.2-1.2,0.6c-0.3,0.4-0.4,0.9-0.3,1.3l1,3.7h-11.4
		c8.6-5.4,13.5-12.4,13.5-19.9c0-0.8-0.7-1.5-1.5-1.5H193v-21.3h9.4v0.8c0,0.8,0.7,1.5,1.5,1.5h5c0.8,0,1.5-0.7,1.5-1.5v-0.8
		c0.7-0.2,1.2-0.8,1.2-1.5v-4.8c0-0.8-0.7-1.5-1.5-1.5H193v-5.4c0-0.8-0.7-1.5-1.5-1.5h-9.3c-0.8,0-1.5,0.7-1.5,1.5v34.5h-24.3
		c-0.8,0-1.5,0.7-1.5,1.5c0,7.5,4.9,14.5,13.5,19.9h-16.5v-22.2c0-0.8-0.7-1.5-1.5-1.5h-14c-0.8,0-1.5,0.7-1.5,1.5v22.2h-4.1v-22.2
		c0-0.8-0.7-1.5-1.5-1.5h-2.6c0,0,0-0.1,0.1-0.1c0.4-0.6,0.5-1,0.4-1.6c0-0.1,0-0.2,0-0.2c0-0.1,0.1-0.1,0.1-0.2
		c0.2-0.4,0.2-0.9,0-1.3c-0.2-0.4-0.6-0.7-1-0.8s-0.7-0.3-1.1-0.5c-0.1,0-0.1,0-0.2-0.1c-0.3-0.2-0.7-0.5-1.2-0.6
		c-0.2-0.1-0.3-0.1-0.5-0.1c-0.6,0-1,0.2-1.3,0.4c0,0.1-0.4,0.1-0.9,0h-0.2c-0.1-0.1-0.2-0.1-0.3-0.1c-0.3,0-0.5-0.1-0.8-0.1
		c-0.5,0-1,0.1-1.5,0.6c-0.5-0.1-1.2-0.1-1.8-0.1c-0.3,0-0.6,0-0.9,0h-0.3c-0.5,0-0.8,0-1.4,0.3c-0.1,0-0.2,0.1-0.3,0.1
		c-0.4,0.2-1,0.4-1.5,1.1c-0.4,0.1-1.2,0.3-1.7,1c-0.4,0.5-0.3,1.3,0.1,1.8c0.1,0.2,0.2,0.3,0.4,0.5h-2.7c-0.8,0-1.5,0.7-1.5,1.5
		v22.2h-1.4v-18c0-2.2-0.9-4.3-2.4-5.8c-0.3-0.3-0.7-0.6-1.1-0.9v-1.9c0-0.5-0.1-0.8-0.4-1.1V214c0-1.1-0.9-2-2-2h-4.6
		c-1.1,0-2,0.9-2,2v1.1c-0.2,0.3-0.4,0.7-0.4,1.1v1.9c-2.2,1.5-3.5,4-3.5,6.7v18h-7c-0.8,0-1.5,0.7-1.5,1.5v12.2
		c0,0.8,0.7,1.5,1.5,1.5h2.3v106.3c0,0.8,0.7,1.5,1.5,1.5h6l3.7,24.3c0.1,0.8,0.8,1.3,1.5,1.3h7.7c0.7,0,1.3-0.5,1.3-1.3l3.6-24.3
		H295l3.6,24.3c0.1,0.8,0.8,1.3,1.5,1.3h7.7c0.7,0,1.3-0.5,1.4-1.3l3.6-24.3h6.8c0.8,0,1.5-0.7,1.5-1.6V258h1.3
		c0.8,0,1.5-0.6,1.5-1.5v-12.2C323.9,243.5,323.2,242.8,322.4,242.8z M314.1,216l-0.5-0.1l0.6-5.2h0.5L314.1,216z M294.7,215.9
		l-0.5-5.3h0.5l0.5,5.2L294.7,215.9z M297,228.5h1.8h0.2h11.3h0.2h1.3v14.3H297V228.5z M258.4,240.3h2.5c0.5,0,0.9-0.3,1.2-0.6
		c0.2-0.3,0.3-0.7,0.3-1.1c0-0.4,0.1-0.7,0.4-1c0.2-0.2,0.6-0.4,1-0.4h16.6c0.7,0,1.4,0.6,1.4,1.4c-0.1,0.4,0,0.8,0.3,1.1
		s0.8,0.5,1.2,0.5h2.5l-0.7,2.6h-26.2L258.4,240.3z M183.6,188.4h6.3v5.4c0,0.8,0.7,1.5,1.5,1.5h17.1v1.8c-0.7,0.2-1.2,0.8-1.2,1.5
		v0.8h-2v-0.8c0-0.8-0.7-1.5-1.5-1.5h-12.4c-0.8,0-1.5,0.7-1.5,1.5v22.8h-6.3l0,0L183.6,188.4L183.6,188.4z M157.9,224.4h96.9
		c-0.8,7-6.8,13.7-16.7,18.4h-63.6C164.5,238.1,158.6,231.5,157.9,224.4z M137.7,222.1h11v20.7h-11V222.1z M114,218
		c0.2-0.1,0.4-0.3,0.5-0.6c0.1,0,0.2-0.1,0.3-0.1c0.2,0,0.3-0.1,0.5-0.2h0.3c0.4,0,0.7,0,1.1,0c0.3,0,0.6,0,0.9,0
		c0,0,0.2,0.1,0.3,0.1c0.2,0,0.5,0.1,0.8,0.1c0.1,0,0.1,0,0.2,0c0.4,0,0.9-0.1,1.3-0.6c0.1,0,0.1,0,0.2,0h0.2c0.4,0,0.8,0.1,1.2,0.1
		c0.5,0,1-0.1,1.5-0.3c0.1,0.1,0.3,0.2,0.4,0.3c0.2,0.1,0.3,0.2,0.5,0.3c0,0.1,0,0.1,0,0.2c-0.4,0.5-0.6,1-0.8,1.8h-8.8
		C114.4,218.8,114.2,218.5,114,218z M109.6,222.1h4.3h10.8h3v20.7h-18.1V222.1z M91.9,224.8c0-1.9,1-3.7,2.7-4.6
		c0.6-0.3,0.9-1,0.8-1.6v-1.4c0.2-0.3,0.4-0.7,0.4-1.1V215h2.5v1.1c0,0.5,0.1,0.8,0.4,1.1v1.3c-0.1,0.7,0.2,1.4,0.8,1.7
		c0.4,0.2,0.8,0.5,1.2,0.9c1,1,1.5,2.3,1.5,3.7v18H91.9V224.8z M83.3,245.8h7.9h11.6h5.3h21.1h7.1h14h23.9h64.2h19.4h28.5h9.2h17.8
		h7.6v9.2h-1.3h-234h-2.3C83.3,255,83.3,245.8,83.3,245.8z M103.2,388.4h-5.1l-3.4-22.6h11.9L103.2,388.4z M306.5,388.4h-5.1
		l-3.4-22.6h11.9L306.5,388.4z M318.1,362.8h-6.5h-15.4h-188H92.8h-5.7V258h231V362.8z"/>
	<path class="st0" d="M128.6,271.9h47c0.9,0,1.5-0.7,1.5-1.5v-3.6c0-0.8-0.7-1.5-1.5-1.5h-47c-0.8,0-1.5,0.7-1.5,1.5v3.6
		C127.1,271.2,127.8,271.9,128.6,271.9z M130.1,268.3h44v0.6h-44V268.3z"/>
	<path class="st0" d="M228.5,332.7h3.6c0.9,0,1.5-0.7,1.5-1.5v-47c0-0.8-0.7-1.5-1.5-1.5h-3.6c-0.8,0-1.5,0.7-1.5,1.5v47
		C227,332,227.7,332.7,228.5,332.7z M230.1,285.7h0.6v44h-0.6V285.7z"/>
	<path class="st0" d="M175.6,319.8h-47c-0.8,0-1.5,0.7-1.5,1.5v3.6c0,0.8,0.7,1.5,1.5,1.5h47c0.9,0,1.5-0.6,1.5-1.5v-3.6
		C177.1,320.5,176.4,319.8,175.6,319.8z M174.1,323.4h-44v-0.6h44V323.4z"/>
	<path class="st0" d="M409.9,192.5h269.5c0.8,0,1.5-0.6,1.5-1.4V71.3c0-0.8-0.7-1.5-1.5-1.5H409.9c-0.8,0-1.5,0.7-1.5,1.5V191
		C408.4,191.8,409.1,192.5,409.9,192.5z M411.4,72.8h266.5v116.7H411.4V72.8z"/>
	<path class="st0" d="M671.4,77.8H417.9c-0.8,0-1.5,0.7-1.5,1.5V183c0,0.8,0.7,1.5,1.5,1.5h253.5c0.8,0,1.5-0.6,1.5-1.4V79.3
		C672.9,78.5,672.2,77.8,671.4,77.8z M669.9,181.5H419.4V80.8h250.5V181.5z"/>
	<path class="st0" d="M313.4,137.9h20.2c0.9,0,1.5-0.6,1.5-1.5v-25.7c0-0.8-0.7-1.5-1.5-1.5H331v-9.8h2.6c0.9,0,1.5-0.7,1.5-1.5
		V72.2c0-0.8-0.7-1.5-1.5-1.5h-20.2c-0.8,0-1.5,0.7-1.5,1.5v25.7c0,0.8,0.7,1.5,1.5,1.5h2.5v9.8h-2.5c-0.8,0-1.5,0.7-1.5,1.5v25.7
		C311.9,137.2,312.6,137.9,313.4,137.9z M314.9,73.7h17.2v22.7h-2.6h-12.1h-2.5V73.7z M319,99.4h9.1v9.8H319V99.4z M314.9,112.2h2.5
		h12.1h2.6v22.7h-17.2V112.2z"/>
	<path class="st0" d="M212.4,89c-0.6-0.6-1.5-0.6-2.1,0s-0.6,1.5,0,2.1l58.3,58.3c0.3,0.3,0.7,0.4,1.1,0.4s0.8-0.2,1-0.4
		c0.6-0.6,0.6-1.5,0-2.1L212.4,89z"/>
	<path class="st0" d="M267.7,106.5c0.3,0.3,0.7,0.4,1.1,0.4c0.3,0,0.7-0.2,1-0.4c0.6-0.6,0.6-1.5,0-2.1L254.4,89
		c-0.6-0.6-1.5-0.6-2.1,0s-0.6,1.5,0,2.1L267.7,106.5z"/>
	<path class="st0" d="M190.2,89c-0.6-0.6-1.5-0.6-2.1,0s-0.6,1.5,0,2.1l67.1,67.1c0.3,0.3,0.7,0.4,1.1,0.4s0.8-0.2,1-0.4
		c0.6-0.6,0.6-1.5,0-2.1L190.2,89z"/>
	<path class="st0" d="M135.3,115.9c-0.6-0.6-1.5-0.6-2.1,0s-0.6,1.5,0,2.1l38.8,38.8c0.3,0.3,0.7,0.4,1.1,0.4c0.4,0,0.7-0.2,1-0.4
		c0.6-0.6,0.6-1.5,0-2.1L135.3,115.9z"/>
	<path class="st0" d="M135.3,138.4c-0.6-0.6-1.5-0.6-2.1,0c-0.6,0.6-0.6,1.5,0,2.1l17.6,17.7c0.3,0.3,0.7,0.4,1.1,0.4
		c0.4,0,0.8-0.2,1-0.5c0.6-0.6,0.6-1.5,0-2.1L135.3,138.4z"/>
	<path class="st0" d="M560,259.4v3.7c0,0.8,0.7,1.5,1.5,1.5s1.5-0.7,1.5-1.5v-3.7c0-0.8-0.7-1.5-1.5-1.5S560,258.6,560,259.4z"/>
	<path class="st0" d="M328,93.4c0.9,0,1.5-0.7,1.5-1.5v-15c0-0.8-0.7-1.5-1.5-1.5s-1.5,0.7-1.5,1.5v15
		C326.5,92.7,327.2,93.4,328,93.4z"/>
	<path class="st0" d="M328,113.9c-0.8,0-1.5,0.7-1.5,1.5v16.2c0,0.8,0.7,1.5,1.5,1.5c0.9,0,1.5-0.6,1.5-1.5v-16.2
		C329.5,114.6,328.8,113.9,328,113.9z"/>
	<path class="st0" d="M69.7,137.9H90c0.8,0,1.5-0.6,1.5-1.5v-25.7c0-0.8-0.7-1.5-1.5-1.5h-2.6v-9.8H90c0.8,0,1.5-0.7,1.5-1.5V72.2
		c0-0.8-0.7-1.5-1.5-1.5H69.7c-0.8,0-1.5,0.7-1.5,1.5v25.7c0,0.8,0.7,1.5,1.5,1.5h2.6v9.8h-2.6c-0.8,0-1.5,0.7-1.5,1.5v25.7
		C68.2,137.2,68.9,137.9,69.7,137.9z M71.2,73.7h17.2v22.7h-2.5H73.8h-2.6C71.2,96.4,71.2,73.7,71.2,73.7z M75.3,99.4h9.1v9.8h-9.1
		C75.3,109.2,75.3,99.4,75.3,99.4z M71.2,112.2h2.6h12.1h2.5v22.7H71.2V112.2z"/>
	<path class="st0" d="M84.4,93.4c0.8,0,1.5-0.7,1.5-1.5v-15c0-0.8-0.7-1.5-1.5-1.5s-1.5,0.7-1.5,1.5v15
		C82.9,92.7,83.6,93.4,84.4,93.4z"/>
	<path class="st0" d="M84.4,113.9c-0.8,0-1.5,0.7-1.5,1.5v16.2c0,0.8,0.7,1.5,1.5,1.5s1.5-0.6,1.5-1.5v-16.2
		C85.9,114.6,85.2,113.9,84.4,113.9z"/>
	<path class="st0" d="M145.7,218.3c0.8,0,1.5-0.7,1.5-1.5v-6.1c0-0.8-0.7-1.5-1.5-1.5h-5c-0.8,0-1.5,0.7-1.5,1.5v1.4h-4.9
		c-0.8,0-1.5,0.7-1.5,1.5s0.7,1.5,1.5,1.5h6.4c0.8,0,1.5-0.7,1.5-1.5v-1.4h2v4.6C144.2,217.6,144.9,218.3,145.7,218.3z"/>
	<path class="st0" d="M216.8,358.9c0.8,0,1.5-0.7,1.5-1.5v-94.7c0-0.8-0.7-1.5-1.5-1.5s-1.5,0.7-1.5,1.5v94.7
		C215.3,358.2,216,358.9,216.8,358.9z"/>
	<path class="st0" d="M92.9,306.8h115.9c0.8,0,1.5-0.7,1.5-1.5s-0.7-1.5-1.5-1.5H92.9c-0.8,0-1.5,0.7-1.5,1.5S92.1,306.8,92.9,306.8
		z"/>
	<path class="st0" d="M702.1,323.5l-36.7-0.2c-0.8,0-1.5,0.7-1.5,1.5s0.7,1.5,1.5,1.5l36.7,0.2c0.8,0,1.5-0.6,1.5-1.5
		C703.6,324.2,702.9,323.5,702.1,323.5z"/>
	<path class="st0" d="M436.2,323.4h-57.8c-0.8,0-1.5,0.7-1.5,1.5s0.7,1.5,1.5,1.5h57.8c0.8,0,1.5-0.7,1.5-1.5S437,323.4,436.2,323.4
		z"/>
	<path class="st0" d="M367.9,35.4c-0.8,0-1.5,0.7-1.5,1.5v332.7H328c-0.8,0-1.5,0.7-1.5,1.5s0.7,1.5,1.5,1.5h39.9
		c0.9,0,1.5-0.6,1.5-1.4V36.9C369.4,36.1,368.7,35.4,367.9,35.4z"/>
	<path class="st0" d="M79.9,369.6H37.4c-0.8,0-1.5,0.7-1.5,1.5s0.7,1.5,1.5,1.5h42.5c0.8,0,1.5-0.6,1.5-1.5
		C81.4,370.3,80.7,369.6,79.9,369.6z"/>
	<path class="st0" d="M284.1,369.6H118.7c-0.8,0-1.5,0.7-1.5,1.5s0.7,1.5,1.5,1.5h165.4c0.8,0,1.5-0.6,1.5-1.5
		C285.6,370.3,284.9,369.6,284.1,369.6z"/>
	<path class="st0" d="M429.5,171.4h12c0.8,0,1.5-0.7,1.5-1.5V162h14.5c0.8,0,1.5-0.7,1.5-1.5V158h21v12c0,0.8,0.7,1.5,1.5,1.5h6
		c0.8,0,1.5-0.7,1.5-1.5v-25.8h31V170c0,0.8,0.7,1.5,1.5,1.5h9.3c0.8,0,1.5-0.7,1.5-1.5v-7.9H560v7.9c0,0.8,0.7,1.5,1.5,1.5h23.6
		c0.8,0,1.5-0.7,1.5-1.5v-30.5H620v21.1c0,0.8,0.7,1.5,1.5,1.5h10c0.8,0,1.5-0.7,1.5-1.5v-43.7h29.2c0.8,0,1.5-0.7,1.5-1.5
		s-0.7-1.5-1.5-1.5h-30.7c-0.8,0-1.5,0.7-1.5,1.5v43.7h-7V138c0-0.8-0.7-1.5-1.5-1.5h-36.4c-0.8,0-1.5,0.7-1.5,1.5v30.5H563v-7.9
		c0-0.8-0.7-1.5-1.5-1.5h-30.7c-0.8,0-1.5,0.7-1.5,1.5v7.9H523v-25.8c0-0.8-0.7-1.5-1.5-1.5h-34c-0.8,0-1.5,0.7-1.5,1.5v25.8h-3v-12
		c0-0.8-0.7-1.5-1.5-1.5h-24c-0.8,0-1.5,0.7-1.5,1.5v2.5h-14.5c-0.8,0-1.5,0.7-1.5,1.5v7.9h-10.5c-0.8,0-1.5,0.7-1.5,1.5
		S428.7,171.4,429.5,171.4z"/>
	<path class="st0" d="M642.7,120.2c-0.8,0-1.5,0.7-1.5,1.5v45c0,0.8,0.7,1.5,1.5,1.5c0.9,0,1.5-0.7,1.5-1.5v-45
		C644.2,120.9,643.5,120.2,642.7,120.2z"/>
	<path class="st0" d="M653.2,120.2c-0.8,0-1.5,0.7-1.5,1.5v45c0,0.8,0.7,1.5,1.5,1.5c0.9,0,1.5-0.7,1.5-1.5v-45
		C654.7,120.9,654,120.2,653.2,120.2z"/>
	<path class="st0" d="M614.7,144.6h-22.5c-0.8,0-1.5,0.7-1.5,1.5s0.7,1.5,1.5,1.5h22.5c0.8,0,1.5-0.6,1.5-1.5
		C616.2,145.3,615.5,144.6,614.7,144.6z"/>
	<path class="st0" d="M614.7,153.6h-22.5c-0.8,0-1.5,0.7-1.5,1.5s0.7,1.5,1.5,1.5h22.5c0.8,0,1.5-0.6,1.5-1.5
		C616.2,154.3,615.5,153.6,614.7,153.6z"/>
	<path class="st0" d="M513.8,148.7h-18.4c-0.8,0-1.5,0.7-1.5,1.5s0.7,1.5,1.5,1.5h18.4c0.9,0,1.5-0.7,1.5-1.5
		S514.6,148.7,513.8,148.7z"/>
	<path class="st0" d="M513.8,159.7h-18.4c-0.8,0-1.5,0.7-1.5,1.5s0.7,1.5,1.5,1.5h18.4c0.9,0,1.5-0.7,1.5-1.5
		S514.6,159.7,513.8,159.7z"/>
</g>
</svg>
