<?xml version="1.0" encoding="utf-8"?>
<!-- Generator: Adobe Illustrator 24.0.1, SVG Export Plug-In . SVG Version: 6.00 Build 0)  -->
<svg version="1.1" id="Layer_1" xmlns="http://www.w3.org/2000/svg" xmlns:xlink="http://www.w3.org/1999/xlink" x="0px" y="0px"
	 viewBox="0 0 746 395.3" style="enable-background:new 0 0 746 395.3;" xml:space="preserve">
<style type="text/css">
	.st0{opacity:0.2;fill:#C4C4C4;enable-background:new    ;}
</style>
<g>
	<path class="st0" d="M570.7,227.7c0-0.1,0-0.2,0-0.2v-6c0-0.6-0.5-1.2-1.2-1.2h-124c-0.6,0-1.2,0.5-1.2,1.2v6v115v19
		c0,0.6,0.5,1.2,1.2,1.2h124c0.7,0,1.3-0.6,1.2-1.2v-19V227.7z M446.8,222.7h121.5v3.5H446.8V222.7z M568.3,228.7v112.6H446.8V228.7
		H568.3z M568.3,360.2H446.8v-16.5h121.5V360.2z"/>
	<path class="st0" d="M507.5,335.7c22.8,0,41.2-18.5,41.2-41.2s-18.5-41.2-41.2-41.2s-41.2,18.5-41.2,41.2S484.8,335.7,507.5,335.7z
		 M507.5,255.7c21.4,0,38.8,17.3,38.8,38.7c0,21.4-17.4,38.8-38.8,38.8c-21.4,0-38.8-17.5-38.8-38.8
		C468.7,273.1,486.1,255.7,507.5,255.7z"/>
	<path class="st0" d="M507.5,325.7c17.3,0,31.2-14,31.2-31.2s-14-31.2-31.2-31.2s-31.2,14-31.2,31.2S490.3,325.7,507.5,325.7z
		 M507.5,265.7c15.9,0,28.8,12.8,28.8,28.7c0,15.9-12.9,28.8-28.8,28.8c-15.9,0-28.8-13-28.8-28.8
		C478.7,278.6,491.6,265.7,507.5,265.7z"/>
	<path class="st0" d="M489.5,248.7h36c0.7,0,1.3-0.6,1.2-1.2v-13c0-0.6-0.5-1.2-1.2-1.2h-36c-0.6,0-1.2,0.5-1.2,1.2v13
		C488.3,248.1,488.8,248.7,489.5,248.7z M490.8,235.7h33.5v10.5h-33.5V235.7z"/>
	<path class="st0" d="M536.7,247.7c2.9,0,5.2-2.4,5.2-5.2c0-2.8-2.4-5.2-5.2-5.2s-5.2,2.4-5.2,5.2
		C531.5,245.3,533.8,247.7,536.7,247.7z M536.7,239.7c1.5,0,2.8,1.2,2.8,2.8s-1.2,2.8-2.8,2.8s-2.8-1.2-2.8-2.8
		S535.2,239.7,536.7,239.7z"/>
	<path class="st0" d="M553.7,250.7c4.6,0,8.2-3.7,8.2-8.2s-3.7-8.2-8.2-8.2s-8.2,3.7-8.2,8.2S549.2,250.7,553.7,250.7z M553.7,236.7
		c3.2,0,5.8,2.6,5.8,5.8c0,3.2-2.6,5.8-5.8,5.8s-5.8-2.6-5.8-5.8C547.9,239.3,550.5,236.7,553.7,236.7z"/>
	<path class="st0" d="M420,290.7c0.6,0,1.2-0.6,1.3-1.1l0.3-9c0-0.3-0.2-0.6-0.4-0.9c-0.2-0.3-0.6-0.4-0.9-0.4h-61
		c-0.4,0-0.8,0.1-1,0.4c-0.3,0.3-0.4,0.6-0.3,1l1.6,9c0.1,0.6,0.6,1,1.2,1h0.7l5,70.3c0,0.7,0.5,1.2,1.2,1.2h45
		c0.7,0,1.2-0.5,1.2-1.2l4-70.3L420,290.7L420,290.7z M411.6,359.7h-42.7l-4.7-68h51.3L411.6,359.7z M360.7,281.7h58.2l-0.2,6.5
		h-56.9L360.7,281.7z"/>
	<path class="st0" d="M392.7,356.2c0.7,0,1.3-0.6,1.2-1.2v-44c0-0.6-0.6-1.2-1.2-1.2s-1.2,0.5-1.2,1.2v44
		C391.5,355.6,392,356.2,392.7,356.2z"/>
	<path class="st0" d="M399.7,356.2c0.7,0,1.2-0.6,1.2-1.2l1-44c0-0.7-0.5-1.3-1.2-1.3s-1.3,0.5-1.3,1.2l-1,44
		C398.4,355.6,399,356.2,399.7,356.2z"/>
	<path class="st0" d="M380.7,356.2c0.7,0,1.3-0.6,1.2-1.3l-1-44c0-0.7-0.5-1.2-1.2-1.2s-1.2,0.6-1.2,1.3l1,44
		C379.5,355.7,380,356.2,380.7,356.2z"/>
	<path class="st0" d="M374.7,356.2c0.7-0.1,1.2-0.6,1.3-1.3l-2-44c0-0.7-0.6-1.2-1.3-1.2s-1.2,0.6-1.2,1.3l2,44
		C373.5,355.7,374,356.2,374.7,356.2z"/>
	<path class="st0" d="M386.7,356.2c0.7,0,1.3-0.6,1.2-1.2v-44c0-0.6-0.6-1.2-1.2-1.2s-1.2,0.5-1.2,1.2v44
		C385.5,355.6,386,356.2,386.7,356.2z"/>
	<path class="st0" d="M405.7,356.2c0.6,0,1.2-0.5,1.3-1.2l2-44c0-0.7-0.5-1.3-1.2-1.3s-1.3,0.5-1.3,1.2l-2,44
		C404.4,355.6,405,356.2,405.7,356.2z"/>
	<path class="st0" d="M419.7,326.2c0.6,0,1.1-0.4,1-1c0.4-1.4,0.7-3.3,1-5.1c0.5-2.9,1.1-6.4,1.8-7.4c0.8-1.1,1.5-1.8,2-2.5
		c2.4-2.9,2.9-3.7,3.3-8.2c1-11.4,1.9-22.2-0.1-27.5c-1.3-3.5-5.2-4.1-7.3-4.4c-0.3-0.1-0.8-0.1-1-0.2c-4.1-5.1-9.9-6.7-15.5-8.2
		c-3.6-1-6.3-1.7-9.6-1c-1.8,0.4-2.7,0.9-3.7,1.5c-0.8,0.5-1.7,1-3.4,1.6c-2.5,0.8-4.2,0.9-5.7,1s-2.9,0.2-4.5,1.1
		c-0.2,0.1-0.4,0.2-0.6,0.3c-1.8,1-4.2,2.3-5,8.6c-0.1,0.7,0.4,1.3,1.1,1.4s1.3-0.4,1.4-1.1c0.7-5,2.1-5.8,3.8-6.7
		c0.2-0.1,0.4-0.2,0.6-0.3c1.1-0.6,2-0.6,3.4-0.7c1.6-0.1,3.5-0.2,6.4-1.2c1.9-0.7,3-1.3,3.9-1.8c1-0.5,1.6-0.9,3-1.2
		c2.6-0.5,4.7,0,8.4,1c5.2,1.5,10.7,3,14.3,7.6c0.4,0.6,1.2,0.7,2.4,0.9c1.9,0.3,4.6,0.7,5.4,2.8c1.8,4.8,0.8,15.9-0.1,26.5
		c-0.3,3.9-0.6,4.2-2.7,6.8c-0.5,0.7-1.2,1.5-2,2.5c-1.1,1.3-1.6,4.1-2.3,8.5c-0.3,1.7-0.6,3.5-0.9,4.9c-0.2,0.7,0.2,1.3,0.9,1.5
		C419.5,326.2,419.6,326.2,419.7,326.2z"/>
	<path class="st0" d="M218.7,76.2h168.8v89.6h-26.8c-0.6,0-1.2,0.5-1.2,1.2v73c0,0.6,0.5,1.2,1.2,1.2h55c0.7,0,1.3-0.6,1.2-1.2v-73
		c0-0.6-0.5-1.2-1.2-1.2h-25.9V74.9c0-0.6-0.5-1.2-1.2-1.2H219.9V45c0-0.6-0.6-1.2-1.2-1.2s-1.2,0.5-1.2,1.2v30
		C217.5,75.6,218,76.2,218.7,76.2z M414.5,238.7H362v-70.5h52.5V238.7z"/>
	<path class="st0" d="M366,234.2h44.4c0.7,0,1.3-0.6,1.3-1.2v-59c0-0.6-0.5-1.2-1.2-1.2H366c-0.6,0-1.2,0.5-1.2,1.2v59
		C364.8,233.6,365.3,234.2,366,234.2z M367.2,175.2h42v56.5h-42V175.2z"/>
	<path class="st0" d="M376.2,210.6c-2.7,0-4.8,2.1-4.8,4.8c0,2.7,2.2,4.8,4.8,4.8s4.8-2.1,4.8-4.8
		C381,212.7,378.9,210.6,376.2,210.6z M376.2,217.6c-1.2,0-2.2-1-2.2-2.2c0-1.2,1-2.2,2.2-2.2c1.3,0,2.2,1,2.2,2.2
		C378.4,216.6,377.4,217.6,376.2,217.6z"/>
	<path class="st0" d="M387.3,185.4c-0.5-0.8-1.8-0.8-2.2,0l-12.1,21c-0.2,0.3-0.2,0.8,0,1.2s0.7,0.6,1.1,0.6h24.2
		c0.5,0,0.9-0.3,1.1-0.6c0.2-0.3,0.2-0.8,0-1.2L387.3,185.4z M376.3,205.7l9.9-17.2l10,17.2H376.3z"/>
	<path class="st0" d="M470.4,127.4c0.2,0.1,0.3,0.2,0.6,0.3c2,0.7,17.3,5,30.7,5c14,0,30.2-4.9,31.1-5.1c0.6-0.2,1-0.9,0.8-1.6
		c-0.1-0.4-0.4-0.6-0.8-0.8l-29.9-21.5V46.2l10-10.4c0.3-0.4,0.4-0.9,0.2-1.4s-0.7-0.8-1.2-0.8h-20.2c-0.6,0-1,0.3-1.2,0.8
		s-0.1,1,0.2,1.4l9.8,10.2v57.8l-29.8,21.5c-0.3,0.1-0.6,0.4-0.7,0.8C469.8,126.6,470,127.1,470.4,127.4z M476.1,126.4
		c5.9-1.5,16.3-3.7,25.6-3.7c9.3,0,19.8,2.3,25.7,3.7c-5.9,1.5-16.3,3.7-25.6,3.7C492.5,130.1,482,127.8,476.1,126.4z M508.9,36.2
		l-7.2,7.4l-7.2-7.4H508.9z M501.7,106l24.3,17.5c-6.1-1.4-15.6-3.3-24.3-3.3s-18.2,1.8-24.3,3.3L501.7,106z"/>
	<path class="st0" d="M385.1,193.5l-1.7,5c-0.1,0.4,0,0.8,0.2,1.1c0.2,0.3,0.6,0.5,1,0.5h0.7l-1,2.5c-0.3,0.6,0.1,1.3,0.7,1.6
		c0.2,0.1,0.3,0.1,0.5,0.1c0.5,0,1-0.2,1.1-0.7l1.7-4.2c0.2-0.4,0.1-0.9-0.1-1.2c-0.2-0.3-0.6-0.5-1-0.5h-0.8l1.1-3.4
		c0.2-0.7-0.1-1.4-0.8-1.6C386,192.5,385.3,192.8,385.1,193.5z"/>
	<path class="st0" d="M676.5,132.5c0-0.6-0.5-1.2-1.2-1.2h-85c-0.6,0-1.2,0.5-1.2,1.2v229c0,0.6,0.5,1.2,1.2,1.2h85
		c0.7,0,1.3-0.6,1.2-1.2V132.5z M674.1,360.2h-82.5V133.7h82.5V360.2z"/>
	<path class="st0" d="M616.8,131.2h32c0.7,0,1.3-0.6,1.2-1.2v-8c0-0.6-0.5-1.2-1.2-1.2H646V86.2h2.8c0.7,0,1.3-0.6,1.2-1.2v-8
		c0-0.6-0.5-1.2-1.2-1.2h-2.9V35.9c0-0.6-0.6-1.2-1.2-1.2s-1.2,0.5-1.2,1.2v39.8H622V36c0-0.6-0.6-1.2-1.2-1.2s-1.2,0.5-1.2,1.2
		v39.8h-2.8c-0.6,0-1.2,0.5-1.2,1.2v8c0,0.6,0.5,1.2,1.2,1.2h2.8v34.6h-2.8c-0.6,0-1.2,0.5-1.2,1.2v8
		C615.6,130.6,616.1,131.2,616.8,131.2z M618.1,78.2h2.7h24h2.8v5.5h-29.5V78.2z M643.6,86.2v34.5h-21.5V86.2H643.6z M618.1,123.2
		h2.7h24h2.8v5.5h-29.5V123.2z"/>
	<path class="st0" d="M619.8,260.2h26c0.7,0,1.3-0.6,1.2-1.2v-9c0-0.6-0.5-1.2-1.2-1.2h-26c-0.6,0-1.2,0.5-1.2,1.2v9
		C618.6,259.6,619.1,260.2,619.8,260.2z M621.1,251.2h23.5v6.5h-23.5V251.2z"/>
	<path class="st0" d="M646.5,271c0-0.6-0.5-1.2-1.2-1.2h-25c-0.6,0-1.2,0.5-1.2,1.2v53c0,0.6,0.5,1.2,1.2,1.2h25
		c0.7,0,1.3-0.6,1.2-1.2V271z M644.1,322.7h-22.5v-50.5h22.5V322.7z"/>
	<path class="st0" d="M632.8,291.2c4.6,0,8.2-3.7,8.2-8.2s-3.7-8.2-8.2-8.2s-8.2,3.7-8.2,8.2S628.3,291.2,632.8,291.2z M632.8,277.2
		c3.2,0,5.8,2.6,5.8,5.8c0,3.2-2.6,5.8-5.8,5.8s-5.8-2.6-5.8-5.8S629.6,277.2,632.8,277.2z"/>
	<path class="st0" d="M632.8,294.6c-3.8,0-6.8,3-6.8,6.8s3.1,6.8,6.8,6.8s6.8-3,6.8-6.8S636.6,294.6,632.8,294.6z M632.8,305.6
		c-2.3,0-4.2-1.9-4.2-4.2c0-2.3,1.9-4.2,4.2-4.2c2.4,0,4.2,1.9,4.2,4.2S635.1,305.6,632.8,305.6z"/>
	<path class="st0" d="M632.8,310.6c-2.7,0-4.8,2.1-4.8,4.8c0,2.7,2.2,4.8,4.8,4.8s4.8-2.1,4.8-4.8S635.5,310.6,632.8,310.6z
		 M632.8,317.6c-1.2,0-2.2-1-2.2-2.2s1-2.2,2.2-2.2c1.3,0,2.2,1,2.2,2.2S634,317.6,632.8,317.6z"/>
	<path class="st0" d="M179.9,270.5c0-0.6-0.5-1.2-1.2-1.2h-71c-0.6,0-1.2,0.5-1.2,1.2v11.8c0,0.6,0.5,1.2,1.2,1.2h71
		c0.7,0,1.3-0.5,1.2-1.2V270.5z M177.5,281H109v-9.3h68.5V281z"/>
	<path class="st0" d="M179.9,314.2c0-0.6-0.5-1.2-1.2-1.2h-71c-0.6,0-1.2,0.5-1.2,1.2V326c0,0.6,0.5,1.2,1.2,1.2h71
		c0.7,0,1.3-0.6,1.2-1.2V314.2z M177.5,324.7H109v-9.3h68.5V324.7z"/>
	<path class="st0" d="M179.9,292.3c0-0.6-0.5-1.2-1.2-1.2h-71c-0.6,0-1.2,0.5-1.2,1.2v11.8c0,0.6,0.5,1.2,1.2,1.2h71
		c0.7,0,1.3-0.5,1.2-1.2V292.3z M177.5,302.8H109v-9.3h68.5V302.8z"/>
	<path class="st0" d="M179.9,117.6c0-0.6-0.5-1.2-1.2-1.2h-71c-0.6,0-1.2,0.5-1.2,1.2v11.9c0,0.6,0.5,1.2,1.2,1.2h71
		c0.7,0,1.3-0.6,1.2-1.3V117.6z M177.5,128.2H109v-9.3h68.5V128.2z"/>
	<path class="st0" d="M179.9,139.5c0-0.6-0.5-1.2-1.2-1.2h-71c-0.6,0-1.2,0.5-1.2,1.2v11.8c0,0.6,0.5,1.2,1.2,1.2h71
		c0.7,0,1.3-0.5,1.2-1.2V139.5z M177.5,150H109v-9.3h68.5V150z"/>
	<path class="st0" d="M179.9,95.8c0-0.6-0.5-1.2-1.2-1.2h-71c-0.6,0-1.2,0.5-1.2,1.2v11.8c0,0.6,0.5,1.2,1.2,1.2h71
		c0.7,0,1.3-0.5,1.2-1.2V95.8z M177.5,106.3H109V97h68.5V106.3z"/>
	<path class="st0" d="M179.9,73.9c0-0.6-0.5-1.2-1.2-1.2h-71c-0.6,0-1.2,0.5-1.2,1.2v11.9c0,0.6,0.5,1.2,1.2,1.2h71
		c0.7,0,1.3-0.5,1.2-1.3V73.9z M177.5,84.5H109v-9.3h68.5V84.5z"/>
	<path class="st0" d="M189.9,38.9c0-0.6-0.5-1.2-1.2-1.2h-10c-0.6,0-1.2,0.5-1.2,1.2v23.8H109V38.9c0-0.7-0.6-1.2-1.3-1.2h-10
		c-0.7,0-1.2,0.5-1.1,1.2V367c0,0.6,0.5,1.2,1.2,1.2h10c0.6,0,1.2-0.5,1.2-1.2v-29.8h68.5V367c0,0.6,0.5,1.2,1.2,1.2h10
		c0.7,0,1.3-0.6,1.2-1.3V38.9z M187.5,365.7H180h-0.1v-29.8c0-0.6-0.5-1.2-1.2-1.2h-71c-0.6,0-1.2,0.5-1.2,1.2v29.8H99V40.2h7.6V64
		c0,0.6,0.5,1.2,1.2,1.2h71c0.6,0,1.2-0.5,1.2-1.2V40.2h7.5L187.5,365.7L187.5,365.7z"/>
	<path class="st0" d="M179.9,161.3c0-0.6-0.5-1.2-1.2-1.2h-71c-0.6,0-1.2,0.5-1.2,1.2v11.8c0,0.6,0.5,1.2,1.2,1.2h71
		c0.7,0,1.3-0.5,1.2-1.2V161.3z M177.5,171.8H109v-9.3h68.5V171.8z"/>
	<path class="st0" d="M179.9,226.8c0-0.6-0.5-1.2-1.2-1.2h-71c-0.6,0-1.2,0.5-1.2,1.2v11.8c0,0.6,0.5,1.2,1.2,1.2h71
		c0.7,0,1.3-0.5,1.2-1.2V226.8z M177.5,237.3H109V228h68.5V237.3z"/>
	<path class="st0" d="M179.9,183.2c0-0.6-0.5-1.2-1.2-1.2h-71c-0.6,0-1.2,0.5-1.2,1.2V195c0,0.6,0.5,1.2,1.2,1.2h71
		c0.7,0,1.3-0.6,1.2-1.2V183.2z M177.5,193.7H109v-9.3h68.5V193.7z"/>
	<path class="st0" d="M179.9,205c0-0.6-0.5-1.2-1.2-1.2h-71c-0.6,0-1.2,0.5-1.2,1.2v11.8c0,0.6,0.5,1.2,1.2,1.2h71
		c0.7,0,1.3-0.5,1.2-1.2V205z M177.5,215.5H109v-9.3h68.5V215.5z"/>
	<path class="st0" d="M179.9,248.7c0-0.6-0.5-1.2-1.2-1.2h-71c-0.6,0-1.2,0.5-1.2,1.2v11.8c0,0.6,0.5,1.2,1.2,1.2h71
		c0.7,0,1.3-0.6,1.2-1.2V248.7z M177.5,259.2H109v-9.3h68.5V259.2z"/>
	<path class="st0" d="M295.1,247.3c0,0,0.1,0,0.3,0c0.7-0.2,1.1-0.8,1-1.5l-0.5-2.5c-0.2-0.7-0.8-1.1-1.5-1c-0.7,0.2-1.1,0.8-1,1.5
		l0.5,2.5C294,246.9,294.5,247.3,295.1,247.3z"/>
	<path class="st0" d="M240.4,199.2h11.3h20h5.3h24.3h23.2c0.7,0,1.2-0.6,1.2-1.2v-66c0-0.6-0.5-1.2-1.2-1.2h-84.1
		c-0.6,0-1.2,0.5-1.2,1.2v66C239.2,198.6,239.7,199.2,240.4,199.2z M252.9,196.7l-1.8-24.5h21.3l-1.8,24.5H252.9z M241.7,133.2h81.6
		v63.5h-20.7l2.9-35.1c0.1-0.3-0.1-0.6-0.3-0.9c-0.2-0.3-0.6-0.4-0.9-0.4h-35.5c-0.3,0-0.7,0.2-0.9,0.4c-0.2,0.2-0.3,0.6-0.3,0.9
		l0.4,5.1c0,0.6,0.6,1.2,1.3,1.1c0.6,0,1.2-0.6,1.1-1.3l-0.3-3.7h32.8l-2.8,33.9H273l1.9-25.7c0.1-0.3-0.1-0.6-0.3-0.9
		c-0.2-0.3-0.6-0.4-0.9-0.4h-24c-0.3,0-0.7,0.2-0.9,0.4c-0.2,0.2-0.3,0.6-0.3,0.9l1.9,25.7h-8.7L241.7,133.2L241.7,133.2z"/>
	<path class="st0" d="M240.4,271.7h84.1c0.7,0,1.2-0.6,1.2-1.2v-66c0-0.6-0.5-1.2-1.2-1.2h-84.1c-0.6,0-1.2,0.5-1.2,1.2v66
		C239.2,271.1,239.7,271.7,240.4,271.7z M311.6,234.4l1.2,2.9l-2-3.1c-0.3-0.4-0.8-0.6-1.3-0.5s-0.9,0.5-1,1l-0.8,5h-7.6v-2.9
		c0-0.5-0.3-0.9-0.7-1.1c-0.4-0.2-0.9-0.2-1.3,0.1l-4.8,3.2l6-6.9h15.2v0.5h-1.8c-0.4,0-0.8,0.2-1,0.6
		C311.5,233.6,311.4,234,311.6,234.4z M300.8,242.3h7.2l6.5,18.3l-5.6,8.6h-11l-3.7-8.5L300.8,242.3z M241.7,205.7h81.6v63.5h-11.4
		l5-7.8c0.2-0.3,0.2-0.7,0.1-1.1l-6.9-19.3l0.5-2.7l2.2,3.4c0.2,0.4,0.6,0.6,1,0.6h2c0.4,0,0.8-0.2,1-0.6c0.2-0.4,0.3-0.8,0.1-1.2
		l-2.3-5.3h1.1c0.6,0,1.2-0.5,1.2-1.2v-3c0-0.6-0.5-1.2-1.2-1.2h-17c-0.3,0-0.7,0.1-0.9,0.4l-7,8c-0.4,0.4-0.4,0.9-0.2,1.4l1,2
		c0.2,0.3,0.5,0.5,0.8,0.6c0.1,0,0.2,0,0.3,0c0.3,0,0.5-0.1,0.9-0.2l4.1-2.7v1.7c0,0.3,0.2,0.7,0.4,0.9l-6.6,18.4
		c-0.1,0.3-0.1,0.6,0,0.9l3.5,8h-0.9c0.2-0.5,0.1-1.1-0.4-1.5s-1.3-0.3-1.7,0.3l-0.7,1.2h-23v-0.1l-5.6-7.3l6.6-29.2h24
		c0.6,0,1.2-0.6,1.2-1.2s-0.5-1.2-1.2-1.2h-2l-0.7-3c-0.1-0.6-0.6-1-1.2-1h-11c-0.6,0-1.1,0.4-1.2,1l-0.8,3h-7.1l-1.4-4.6h29.6
		l-0.4,1.4c-0.2,0.7,0.1,1.4,0.8,1.6c0.7,0.2,1.4-0.1,1.6-0.8l1-3c0.1-0.4,0-0.8-0.2-1.1c-0.2-0.3-0.6-0.5-1-0.5h-33
		c-0.4,0-0.8,0.2-1,0.5c-0.2,0.3-0.3,0.7-0.2,1.1l2,6.5l-7,30.6c-0.1,0.3,0,0.7,0.2,1l4.8,6.3h-23.3L241.7,205.7L241.7,205.7z
		 M279,230.2l0.3-1.4h9l0.4,1.4H279z"/>
	<path class="st0" d="M240.4,343.7h20.1h40.7h23.3c0.7,0,1.2-0.6,1.2-1.2v-66c0-0.6-0.5-1.2-1.2-1.2h-84.1c-0.6,0-1.2,0.5-1.2,1.2
		v66C239.2,343.1,239.7,343.7,240.4,343.7z M261.1,341.2l-2.6-3v-28.9l2.6-2.6h39l3.8,2.9v28.6l-3.2,3H261.1z M241.7,277.7h81.6
		v63.5h-18.9l1.6-1.6c0.3-0.2,0.4-0.6,0.4-0.9v-29.8c0-0.4-0.2-0.8-0.5-1l-4.6-3.5c-0.3-0.2-0.5-0.3-0.8-0.3h-39.9
		c-0.3,0-0.7,0.2-0.9,0.4l-3.4,3.4c-0.3,0.3-0.4,0.6-0.4,0.9v29.9c0,0.3,0.1,0.6,0.3,0.8l1.5,1.7h-16L241.7,277.7L241.7,277.7z"/>
	<path class="st0" d="M333,123.3H232c-0.6,0-1.2,0.5-1.2,1.2v237c0,0.6,0.5,1.2,1.2,1.2h8.8c0.6,0,1.2-0.5,1.2-1.2v-12.8h82v12.8
		c0,0.6,0.5,1.2,1.2,1.2h7.8c0.6,0,1.2-0.6,1.2-1.2v-237C334.2,123.9,333.7,123.3,333,123.3z M331.7,360.2h-5.3h-0.1v-12.8
		c0-0.6-0.5-1.2-1.2-1.2h-84.5c-0.6,0-1.2,0.5-1.2,1.2v12.8h-6.2V125.7h98.5V360.2z"/>
	<path class="st0" d="M289.5,308.4c-0.2-0.1-4.4-0.9-8.7-0.9c-4.3,0-7.8,0.9-7.9,0.9c-0.5,0.1-0.9,0.6-0.9,1.2v3.4
		c0,0.6,0.5,1.2,1.2,1.2h16c0.7,0,1.2-0.5,1.3-1.2v-3.4C290.5,309,290.1,308.5,289.5,308.4z M287.9,311.7h-13.5v-1
		c1.2-0.2,3.6-0.6,6.3-0.6c2.9,0,5.7,0.4,7.2,0.6V311.7z"/>
	<path class="st0" d="M87.2,353.3h-57c-0.6,0-1.2,0.6-1.2,1.2s0.5,1.2,1.2,1.2h57c0.7,0,1.2-0.6,1.2-1.2S87.9,353.3,87.2,353.3z"/>
	<path class="st0" d="M223.2,353.3h-25c-0.6,0-1.2,0.6-1.2,1.2s0.5,1.2,1.2,1.2h25c0.7,0,1.2-0.6,1.2-1.2S223.9,353.3,223.2,353.3z"
		/>
	<path class="st0" d="M168.2,353.3h-51c-0.6,0-1.2,0.6-1.2,1.2s0.5,1.2,1.2,1.2h51c0.7,0,1.2-0.6,1.2-1.2S168.9,353.3,168.2,353.3z"
		/>
	<path class="st0" d="M312.2,353.3h-62c-0.6,0-1.2,0.6-1.2,1.2s0.5,1.2,1.2,1.2h62c0.7,0,1.2-0.6,1.2-1.2
		C313.4,353.9,312.9,353.3,312.2,353.3z"/>
	<path class="st0" d="M359.2,353.3h-17c-0.6,0-1.2,0.6-1.2,1.2s0.5,1.2,1.2,1.2h17c0.7,0,1.2-0.6,1.2-1.2
		C360.4,353.9,359.9,353.3,359.2,353.3z"/>
	<path class="st0" d="M438.2,353.3h-18c-0.6,0-1.2,0.6-1.2,1.2s0.5,1.2,1.2,1.2h18c0.7,0,1.2-0.6,1.2-1.2
		C439.4,353.9,438.9,353.3,438.2,353.3z"/>
	<path class="st0" d="M584.2,353.3h-9c-0.6,0-1.2,0.6-1.2,1.2s0.5,1.2,1.2,1.2h9c0.7,0,1.2-0.6,1.2-1.2S584.9,353.3,584.2,353.3z"/>
	<path class="st0" d="M715.2,353.3h-34c-0.6,0-1.2,0.6-1.2,1.2s0.5,1.2,1.2,1.2h34c0.7,0,1.2-0.6,1.2-1.2S715.9,353.3,715.2,353.3z"
		/>
</g>
</svg>
