<?xml version="1.0" encoding="utf-8"?>
<!-- Generator: Adobe Illustrator 24.0.1, SVG Export Plug-In . SVG Version: 6.00 Build 0)  -->
<svg version="1.1" id="Layer_1" xmlns="http://www.w3.org/2000/svg" xmlns:xlink="http://www.w3.org/1999/xlink" x="0px" y="0px"
	 viewBox="0 0 654 414" style="enable-background:new 0 0 654 414;" xml:space="preserve">
<style type="text/css">
	.st0{opacity:0.2;fill:#C4C4C4;enable-background:new    ;}
</style>
<g>
	<path class="st0" d="M246.2,99l12.2-9.4c0.5-0.5,0.6-1.3,0.2-1.8c-0.5-0.5-1.3-0.6-1.8-0.2L244.6,97c-0.5,0.5-0.6,1.3-0.2,1.8
		c0.3,0.3,0.6,0.5,1,0.5C245.7,99.3,246,99.3,246.2,99z"/>
	<path class="st0" d="M297.5,59.4L326,37.3l-0.1,9.3l-14.6,11.6c-0.5,0.5-0.6,1.3-0.2,1.8c0.3,0.3,0.6,0.5,1,0.5
		c0.2,0,0.5-0.1,0.6-0.2l14.5-11.5l13.3,10.6c0.6,0.4,1.4,0.3,1.8-0.2c0.4-0.6,0.3-1.4-0.2-1.8l-13.6-10.9v-9.2l28.5,22
		c0.3,0.2,0.5,0.3,0.8,0.3c0.4,0,0.8-0.1,1-0.4c0.4-0.6,0.3-1.4-0.2-1.8L328,33.8c-0.2-0.1-0.3-0.2-0.5-0.2l0,0c-0.1,0-0.2,0-0.2,0
		c-0.1,0-0.2,0-0.2,0l0,0c-0.2,0-0.4,0.1-0.5,0.2L296,57.4c-0.5,0.5-0.6,1.3-0.2,1.8C296.2,59.7,297,59.8,297.5,59.4z"/>
	<path class="st0" d="M263.2,99.8l11.7-9.3c0.5-0.5,0.6-1.3,0.2-1.8c-0.5-0.5-1.3-0.6-1.8-0.2l-11.7,9.3c-0.5,0.5-0.6,1.3-0.2,1.8
		c0.3,0.3,0.6,0.5,1,0.5C262.7,100.1,263,100,263.2,99.8z"/>
	<path class="st0" d="M31.8,264.5c0.3,0,0.6,0,0.8-0.2l180.6-139.5c0.5-0.5,0.6-1.3,0.2-1.8c-0.5-0.5-1.3-0.6-1.8-0.2L31,262.2
		c-0.5,0.5-0.6,1.3-0.2,1.8C31.1,264.3,31.4,264.5,31.8,264.5z"/>
	<path class="st0" d="M392.1,100c0.3,0,0.7-0.2,1-0.5c0.4-0.6,0.3-1.4-0.2-1.8l-10.7-8.5c-0.6-0.4-1.4-0.3-1.8,0.2
		c-0.4,0.6-0.3,1.4,0.2,1.8l10.7,8.5C391.6,99.9,391.8,100,392.1,100z"/>
	<path class="st0" d="M426.2,123.7c-0.6-0.4-1.4-0.3-1.8,0.2c-0.4,0.6-0.3,1.4,0.2,1.8l13.1,10.5H218.1l13.1-10.4
		c0.5-0.5,0.6-1.3,0.2-1.8c-0.5-0.5-1.3-0.6-1.8-0.2L31,281.6c-0.5,0.5-0.6,1.3-0.2,1.8c0.3,0.3,0.6,0.5,1,0.5
		c0.3,0,0.6-0.1,0.8-0.3l168.9-134.2c0.1,0,0.2,0.1,0.3,0.1h251c0.4,0,0.7-0.2,0.9-0.5l165.5,132.4c0.3,0.2,0.5,0.3,0.8,0.3
		c0.4,0,0.8-0.2,1-0.4c0.4-0.6,0.3-1.4-0.2-1.8L426.2,123.7z M204.4,147.1l10.7-8.5h224.2c0.4,0,0.7-0.2,0.9-0.5l11.2,9H204.4z"/>
	<path class="st0" d="M443.2,122.7c-0.6-0.4-1.4-0.3-1.8,0.2c-0.4,0.6-0.3,1.4,0.2,1.8l177.6,137.4c0.3,0.2,0.5,0.3,0.8,0.3
		c0.4,0,0.8-0.2,1.1-0.5c0.4-0.6,0.3-1.4-0.2-1.8L443.2,122.7z"/>
	<path class="st0" d="M409.8,99.8c0.4,0,0.8-0.1,1-0.4c0.4-0.6,0.3-1.4-0.2-1.8l-11.7-9.1c-0.6-0.4-1.4-0.3-1.8,0.2
		c-0.4,0.6-0.3,1.4,0.2,1.8l11.7,9C409.3,99.7,409.5,99.8,409.8,99.8z"/>
	<path class="st0" d="M420.6,56.7c0.2,0.1,0.4,0.2,0.7,0.2c0.4,0,0.7-0.2,1-0.6c0.4-0.5,0.3-1.3-0.3-1.7l-23.2-17.1
		c-0.5-0.4-1.3-0.3-1.7,0.3c-0.4,0.5-0.3,1.3,0.3,1.7L420.6,56.7z"/>
	<path class="st0" d="M619.9,184.7c0.4,0,0.8-0.2,1-0.6c0.4-0.5,0.3-1.3-0.3-1.7L495.7,90.2c-0.5-0.4-1.3-0.3-1.7,0.3
		c-0.4,0.5-0.3,1.3,0.3,1.7l124.9,92.3C619.4,184.6,619.6,184.7,619.9,184.7z"/>
	<path class="st0" d="M445.2,55.9c0.2,0.1,0.4,0.2,0.7,0.2c0.4,0,0.8-0.1,1-0.5c0.4-0.5,0.3-1.3-0.3-1.7l-22.1-16.3
		c-0.5-0.4-1.3-0.3-1.7,0.3c-0.4,0.5-0.3,1.3,0.3,1.7L445.2,55.9z"/>
	<path class="st0" d="M239.3,58.3c0.2,0.3,0.6,0.5,1,0.5c0.2,0,0.5-0.1,0.7-0.2l25.8-19.1c0.6-0.4,0.7-1.1,0.3-1.7
		c-0.4-0.6-1.1-0.7-1.7-0.3l-25.8,19.1C239,57,238.9,57.7,239.3,58.3z"/>
	<path class="st0" d="M196.1,90.2c-0.5-0.5-1.3-0.6-1.8-0.2L31.1,217.3c-0.5,0.5-0.6,1.3-0.2,1.8c0.3,0.3,0.6,0.5,1,0.5
		c0.3,0,0.5-0.1,0.8-0.3l127.9-99.8c0.1,0,0.2,0.1,0.4,0.1h342.3c0.1,0,0.2,0,0.3-0.1l115.6,90.2c0.3,0.2,0.5,0.3,0.8,0.3
		c0.4,0,0.8-0.2,1-0.5c0.4-0.6,0.3-1.4-0.2-1.8l-151-117.8c-0.6-0.4-1.4-0.3-1.8,0.2c-0.4,0.6-0.3,1.4,0.2,1.8l12.9,10.1h-298
		l12.8-10C196.4,91.5,196.5,90.7,196.1,90.2z M484.2,104.4l16.4,12.8h-337l16.4-12.8H484.2z"/>
	<path class="st0" d="M31.8,193.8c0.3,0,0.6,0,0.7-0.2l138.1-102c0.6-0.4,0.7-1.1,0.3-1.7s-1.1-0.7-1.7-0.3l-138.1,102
		c-0.6,0.4-0.7,1.1-0.3,1.7C31,193.6,31.4,193.8,31.8,193.8z"/>
	<path class="st0" d="M217.8,56.5c0.3,0,0.5-0.1,0.7-0.2L241,39.8c0.6-0.4,0.7-1.1,0.3-1.7s-1.1-0.7-1.7-0.3l-22.5,16.5
		c-0.6,0.4-0.7,1.1-0.3,1.7C217,56.3,217.4,56.5,217.8,56.5z"/>
	<path class="st0" d="M619.5,109.5c0.2,0.1,0.4,0.2,0.7,0.2s0.7-0.2,1-0.5c0.4-0.5,0.3-1.3-0.3-1.7l-97.2-71.8
		c-0.5-0.4-1.3-0.3-1.7,0.3c-0.4,0.5-0.3,1.3,0.3,1.7L619.5,109.5z"/>
	<path class="st0" d="M31.7,158c0.2,0.3,0.6,0.5,1,0.5c0.2,0,0.5-0.1,0.7-0.3L128,86.5h418.3c0.1,0,0.2,0,0.4-0.1l71.3,54.2
		c0.3,0.2,0.5,0.3,0.8,0.3c0.4,0,0.8-0.2,1.1-0.5c0.5-0.6,0.3-1.4-0.2-1.8L487,37.9c-0.6-0.5-1.4-0.4-1.8,0.2
		c-0.5,0.6-0.3,1.4,0.2,1.8l29.2,22.2H160.2l29.4-22.3c0.5-0.5,0.6-1.3,0.2-1.8c-0.5-0.5-1.3-0.6-1.8-0.2L31.9,156.2
		C31.4,156.7,31.3,157.5,31.7,158z M157.3,64.5h360c0.1,0,0.3,0,0.4-0.1l25.9,19.7H131.2l25.9-19.6
		C157.2,64.5,157.2,64.5,157.3,64.5z"/>
	<path class="st0" d="M32.3,126.8c0.3,0,0.5-0.1,0.7-0.2l117.5-86.9c0.6-0.4,0.7-1.1,0.3-1.7s-1.1-0.7-1.7-0.3L31.6,124.6
		c-0.6,0.4-0.7,1.1-0.3,1.7C31.5,126.6,31.9,126.8,32.3,126.8z"/>
</g>
</svg>
