<?xml version="1.0" encoding="utf-8"?>
<!-- Generator: Adobe Illustrator 24.0.1, SVG Export Plug-In . SVG Version: 6.00 Build 0)  -->
<svg version="1.1" id="Layer_1" xmlns="http://www.w3.org/2000/svg" xmlns:xlink="http://www.w3.org/1999/xlink" x="0px" y="0px"
	 viewBox="0 0 698.9 437" style="enable-background:new 0 0 698.9 437;" xml:space="preserve">
<style type="text/css">
	.st0{opacity:0.2;fill:#C4C4C4;enable-background:new    ;}
</style>
<g>
	<path class="st0" d="M321.8,263h168.3c0.6,0,1-0.5,1-1V160.8c0-0.6-0.4-1-1-1H321.8c-0.6,0-1,0.4-1,1V262
		C320.8,262.6,321.2,263,321.8,263z M322.8,161.8h166.3V261H322.8V161.8z"/>
	<path class="st0" d="M483.4,166.5H328.5c-0.6,0-1,0.4-1,1v87.8c0,0.6,0.4,1,1,1h154.9c0.6,0,1-0.5,1-1v-87.8
		C484.4,166.9,484,166.5,483.4,166.5z M482.4,254.3H329.5v-85.8h152.9V254.3z"/>
	<path class="st0" d="M163.8,270.8h-7.9c-0.1-0.5-0.1-1.1-0.2-1.5l-6.4-40.9c-0.4-2.8-3.1-5.1-5.9-5.1H75.2c-2.8,0-5.5,2.3-5.9,5.1
		l-6.4,40.9c-0.1,0.4-0.1,0.9-0.2,1.5h-7.6c-1.8,0-3.2,1.4-3.2,3.2v56.5c0,0.6,0.4,1,1,1h9.2L57,400.9c0,0.3,0.1,0.6,0.3,0.8
		c0.2,0.2,0.4,0.3,0.7,0.3h5.2c0.5,0,0.9-0.3,1-0.9l0.6-4.4c0.1,0.1,0.3,0.2,0.5,0.2h4.8c0.5,0,0.9-0.3,1-0.9l8.6-64.5h60.6
		l8.6,64.5c0.1,0.5,0.5,0.9,1,0.9h4.8c0.2,0,0.4-0.1,0.5-0.2l0.6,4.4c0.1,0.5,0.5,0.9,1,0.9h5.2l0,0c0.5,0,1-0.4,1-1
		c0-0.1,0-0.2,0-0.3l-5.1-69.2h8.2c0.5,0,1-0.5,1-1V274C167,272.2,165.6,270.8,163.8,270.8z M64.9,269.6l6.4-40.9
		c0.3-1.9,2.1-3.4,3.9-3.4h68.1c1.8,0,3.6,1.6,3.9,3.4l6.4,40.9c0.1,0.3,0.2,0.7,0.2,1.1h-6.2c-1.8,0-3.2,1.4-3.2,3.2v0.1v27.9H74.5
		V274v-0.1c0-1.8-1.4-3.2-3.2-3.2h-6.6C64.8,270.3,64.8,269.9,64.9,269.6z M62.3,400h-3.2l5-68.5h7.3L66,371.9v0.1L62.3,400z
		 M69.3,394.9h-2.9l1.7-22.8l5.4-40.6h4.2L69.3,394.9z M150.6,394.9l-8.4-63.4h4.2l5.4,40.6l1.7,22.8H150.6z M160.7,400h-3.2
		l-3.6-27.1l-0.1-0.9l-5.3-40.5h7.1L160.7,400z M165,329.5h-7.9c-0.1-0.1-0.3-0.1-0.4-0.1h-9.3c0,0,0,0-0.1,0l0,0h-6.2
		c-0.2,0-0.3,0-0.5,0.1H79.3c-0.1-0.1-0.3-0.1-0.5-0.1h-6.2l0,0c0,0,0,0-0.1,0h-9.3c-0.1,0-0.3,0-0.4,0.1h-8.9V274
		c0-0.7,0.5-1.2,1.2-1.2h16.2c0.7,0,1.2,0.5,1.2,1.2v28.9v0.1c0,0.6,0.4,1,1,1h71.9c0.5,0,0.8-0.3,0.9-0.6c0.1-0.1,0.1-0.3,0.2-0.5
		v-29c0-0.3,0.1-0.6,0.3-0.8c0.2-0.2,0.5-0.3,0.8-0.3h16.2c0.7,0,1.2,0.5,1.2,1.2V329.5L165,329.5z"/>
	<path class="st0" d="M163.9,59.1H48.5c-0.6,0-1,0.4-1,1v115.4c0,0.6,0.4,1,1,1h115.4c0.6,0,1-0.4,1-1V60.1
		C164.9,59.5,164.5,59.1,163.9,59.1z M162.9,174.5H49.5V61.1h113.4V174.5z"/>
	<path class="st0" d="M52.2,172.8h108c0.6,0,1-0.4,1-1v-108c0-0.6-0.4-1-1-1h-108c-0.6,0-1,0.4-1,1v108
		C51.2,172.4,51.6,172.8,52.2,172.8z M53.2,64.8h106v106h-106C53.2,170.8,53.2,64.8,53.2,64.8z"/>
	<path class="st0" d="M41.3,183.7h129.9c0.5,0,1-0.4,1-0.9v-0.1V52.9c0-0.6-0.4-1-1-1H41.3c-0.6,0-1,0.4-1,1v129.8
		C40.3,183.3,40.7,183.7,41.3,183.7z M42.3,53.9h127.9v127.8H42.3V53.9z"/>
	<path class="st0" d="M606.8,221.5c-0.2,0.1-0.5,0.3-0.6,0.5l-22.1,37.4c-0.1,0.3-0.2,0.5-0.1,0.8c0.1,0.2,0.3,0.5,0.5,0.6
		l22.5,13.3c0.1,0.1,0.3,0.1,0.5,0.1c0,0,0.1,0,0.2,0c0.2-0.1,0.5-0.3,0.6-0.5l22.1-37.4c0.2-0.5,0.1-1.1-0.4-1.4l-22.4-13.3
		C607.3,221.5,607.1,221.4,606.8,221.5z M607.1,271.8l-20.7-12.3l21.1-35.6l20.7,12.3L607.1,271.8z"/>
	<path class="st0" d="M660.2,398l-28.8-4.3h-0.1H631l-10.2-76.2l27.4-38.1c0.2-0.2,0.3-0.5,0.2-0.8l-13.5-60.2
		c-0.1-0.2-0.3-0.5-0.5-0.6s-0.5-0.2-0.8-0.1l-13.4,3.9c-0.4,0.1-0.7,0.4-0.7,0.8c0,0.4,0.2,0.8,0.5,1l5.2,3.1
		c0.2,0.1,0.5,0.2,0.8,0.1l3.9-1.1l11.6,52.2l-27.2,37.9c-0.2,0.2-0.2,0.4-0.2,0.7l10.5,77.4h-0.7h-0.1l-29.2,4.1
		c-0.5,0.1-0.9,0.5-0.9,1v3.2c0,0.6,0.4,1,1,1h65.4c0.5,0,1-0.4,1-0.9V399C661.1,398.5,660.7,398.1,660.2,398z M616.3,316.4
		l27.3-37.9c0.2-0.2,0.3-0.5,0.2-0.8l-12.1-53.6c-0.1-0.2-0.3-0.5-0.5-0.6s-0.5-0.2-0.8-0.1l-4.5,1.3L623,223l10.2-3l13.2,58.7
		L619,316.8c-0.2,0.2-0.2,0.4-0.2,0.7l10.2,76.2h-2.4L616.3,316.4z M659.1,401h-63.3v-1.3l28.3-4h1.6l0,0h4.5l0,0h1.1l27.8,4.1
		L659.1,401L659.1,401z"/>
	<path class="st0" d="M578.9,95.5L578.9,95.5V81.8c0-0.6-0.4-1-1-1h-18.2c-0.6,0-1,0.4-1,1v17.6c-0.1,0.1-0.1,0.3-0.1,0.4v3.8
		c0,0.1,0,0.3,0.1,0.4v4.4c0,0.6,0.4,1,1,1h18.2c0.5,0,1-0.5,1.2-0.9V104c0-0.2-0.1-0.4-0.2-0.6V95.5z M563.3,102.1
		c-0.8,0.1-1.7,0.3-2.5,0.4v-1.9c1.4-0.6,2.8-1.2,4.2-2c0.5-0.3,1.2-0.8,2.1-1.4c1.4-1,3.8-2.6,4.6-2.6c0.2,0.1,0.6,0.6,0.8,0.9
		c0.5,0.6,1,1.3,1.9,1.6c0.2,0.1,0.5,0.1,0.8,0.1c0.6,0,1.1-0.1,1.7-0.3v6.1c-2.4,0.4-4.4,0.4-5.9,0.1c-0.7-0.2-1.3-0.3-1.9-0.5
		c-1.3-0.4-2.5-0.7-4.1-0.7C564.4,101.9,563.9,101.9,563.3,102.1L563.3,102.1z M576.9,82.8v12c-0.7,0.3-1.2,0.4-1.7,0.4
		c-0.2,0-0.3,0-0.4,0c-0.2-0.1-0.6-0.6-0.8-0.9c-0.5-0.7-1.1-1.4-2-1.7c-1.4-0.3-3.5,1.1-6.2,2.9c-0.8,0.5-1.5,1-1.9,1.2
		c-1.1,0.6-2.2,1.1-3.2,1.6v-9.8c0,0.1,0.1,0.3,0.1,0.4c0.5,1.4,1.9,2.4,3.5,2.6c0.2,0,0.3,0,0.5,0c1.7,0,3.3-0.8,4.1-2
		c0.8-1.5,0.4-3.3-1-4.4c-1-0.8-2.3-1-3.5-0.7c-0.7-0.1-1.4,0.1-2,0.5c-0.9,0.6-1.5,1.4-1.7,2.3v-4.4
		C560.7,82.8,576.9,82.8,576.9,82.8z M563.5,86.5c0.2-0.1,0.4-0.2,0.6-0.2c0.1,0,0.1,0,0.2-0.1c0.1,0.1,0.3,0.1,0.5,0
		s0.5-0.1,0.7-0.1c0.3,0,0.7,0.1,1.1,0.4c0.5,0.4,0.9,1.1,0.5,1.8c-0.4,0.8-1.5,1.3-2.6,1.2c-0.7,0-1.6-0.4-1.8-1.2
		C562.4,87.4,563.2,86.7,563.5,86.5z M560.7,107.4v-2.9c0.5-0.1,0.9-0.2,1.4-0.3c0.1,0,0.1,0,0.2,0c0.4-0.1,0.8-0.1,1.3-0.2
		s0.9-0.1,1.4-0.1c1.3,0,2.4,0.2,3.5,0.6c0.6,0.2,1.3,0.3,2,0.5c0.8,0.2,1.7,0.3,2.8,0.3c0,0,0,0,0.1,0l0,0c0.1,0,0.2,0,0.4,0
		c1,0,2-0.1,3.1-0.2v2.3C576.9,107.4,560.7,107.4,560.7,107.4z"/>
	<path class="st0" d="M512.8,183.9h147.5c0.5,0,1-0.4,1-0.9v-70.1c0-0.6-0.4-1-1-1h-12.8c2.6-2,4.2-5.1,4.2-8.5
		c0-5.9-4.8-10.7-10.7-10.7s-10.7,4.8-10.7,10.7c0,3.4,1.6,6.5,4.2,8.5h-9c1.9-1.7,3.1-4.1,3.1-6.8c0-5-4.1-9-9-9c-5,0-9,4-9,9
		c0,2.6,1.2,5.1,3.2,6.8h-7.1c1.4-1.3,2.2-3.2,2.2-5.2c0-4-3.3-7.3-7.3-7.3s-7.3,3.3-7.3,7.3c0,2,0.8,3.9,2.2,5.2h-8.8l2.8-4.8
		c0.2-0.2,0.2-0.5,0.1-0.8l-7.3-20.1v-8.8c0-0.6-0.4-1-1-1h-27.2c-0.6,0-1,0.4-1,1v34.5h-11c-0.6,0-1,0.4-1,1v11.6c0,0.6,0.4,1,1,1
		h104.5v44.8h-4v-34.2c0-0.6-0.4-1-1-1h-6.7c-0.6,0-1,0.4-1,1v4.2h-6.5v-10.9c0-0.6-0.4-1-1-1h-5.3c-0.6,0-1,0.4-1,1v5.7h-4.8v-2.2
		c0-0.6-0.4-1-1-1h-6.9c-0.6,0-1,0.4-1,1v8.4l-6.7-2.2c-0.3,0-0.6,0-0.8,0.1s-0.4,0.3-0.5,0.6l-9.1,28.6c-0.2,0.6,0.1,1.1,0.6,1.3
		l1.9,0.6h-35.6v-1.5h1.2c0.6,0,1-0.4,1-1v-21.3c0-0.6-0.4-1-1-1h-2.2v-6.2c0-0.6-0.4-1-1-1s-1,0.4-1,1v6.2h-1.1v-9.9
		c0-0.6-0.4-1-1-1s-1,0.4-1,1v9.9h-1v-6.6c0-0.6-0.4-1-1-1s-1,0.4-1,1v6.6h-0.8v-10.4c0-0.6-0.4-1-1-1s-1,0.4-1,1v10.4h-1.1v-6.6
		c0-0.6-0.4-1-1-1s-1,0.4-1,1v6.6h-1.1V137c0-0.6-0.4-1-1-1s-1,0.4-1,1v8.5h-0.9v-4.6c0-0.6-0.4-1-1-1s-1,0.4-1,1v4.6h-0.8v-6.2
		c0-0.6-0.4-1-1-1s-1,0.4-1,1v6.2H531c-0.6,0-1,0.4-1,1v21.3c0,0.6,0.4,1,1,1h0.8v1.5h-19c-0.6,0-1,0.4-1,1v11.6
		C511.8,183.5,512.2,183.9,512.8,183.9z M632.4,103.4c0-4.8,3.9-8.7,8.7-8.7s8.7,3.9,8.7,8.7c0,3.8-2.5,7.2-6.1,8.3h-5.2
		C634.9,110.6,632.4,107.2,632.4,103.4z M612.6,105c0-3.9,3.2-7,7-7c3.9,0,7,3.2,7,7c0,3.1-2,5.8-4.9,6.7h-4.2
		C614.7,110.8,612.7,108.1,612.6,105z M601.5,101.4c2.9,0,5.3,2.4,5.3,5.3c0,2.2-1.5,4.3-3.7,5h-3.2c-2.1-0.7-3.6-2.7-3.7-5
		C596.2,103.8,598.6,101.4,601.5,101.4z M588.4,106.6l-2.8,4.8l-2.3-1.8v-17L588.4,106.6z M556.2,78.4h25.2v8.2v23.5v1.8h-25.2V78.4
		z M636.9,137.1h4.7v33.2h-4.7v-29V137.1z M634.9,142.3v28h-6.5v-28H634.9z M623,130.4h3.3v39.9H623v-34.2V130.4z M621,137.1v33.2
		h-4.7v-33.2H621z M609.4,133.8h4.9v2.3l0,0v34.2h-4.9v-27l0.1-0.3c0-0.3,0-0.6-0.1-0.8V133.8z M601,141.4l6.2,2l-8.5,26.7l-6.2-2
		L601,141.4z M607.4,149.6v20.7h-6.6L607.4,149.6z M532.7,166.8h-0.8v-19.3h25.4v19.3h-1.2c-0.6,0-1,0.4-1,1v2.5h-21.4v-2.5
		C533.7,167.2,533.3,166.8,532.7,166.8z M513.8,172.4h19h23.3h92.6c0.6,0,1-0.4,1-1v-46.9c0-0.6-0.4-1-1-1H544.1v-9.6h11h27.2h76.9
		v68H513.8V172.4z"/>
	<path class="st0" d="M227.4,130.9l-17.9,3.2l0.3,1.9l17.9-3.2c0.2,0.9,0.4,1.8,0.7,2.7l-17.1,6.2l0.7,1.8l17.1-6.2
		c0.4,0.9,0.8,1.7,1.2,2.5l-24.9,14.4l1,1.7l9.2-5.3l15.8-9.1c0.5,0.8,1,1.6,1.6,2.3l-14,11.7l1.3,1.5l13.9-11.7
		c0.6,0.7,1.3,1.4,2,2l-11.7,13.9l1.5,1.3l11.7-13.9c0.7,0.6,1.5,1.1,2.3,1.6l-14.4,24.9l1.7,1l5.3-9.2l9.1-15.8
		c0.8,0.4,1.7,0.8,2.5,1.2l-6.2,17.1l1.8,0.7L246,153c0.9,0.3,1.8,0.5,2.7,0.7l-3.2,17.9l1.9,0.3l3.2-17.9c0.9,0.1,1.9,0.2,2.8,0.2
		V183h2v-28.8c1,0,1.9-0.1,2.8-0.2l3.2,17.9l1.9-0.3l-3.2-17.9c0.9-0.2,1.8-0.4,2.7-0.7l6.2,17.1l1.8-0.7l-6.2-17.1
		c0.9-0.4,1.7-0.8,2.6-1.2l9.1,15.8l5.3,9.2l1.7-1l-14.4-24.9c0.8-0.5,1.6-1,2.3-1.6l11.7,13.9l1.5-1.3l-11.5-13.9
		c0.7-0.6,1.4-1.3,2-2l13.9,11.7l1.3-1.5l-14-11.7c0.6-0.7,1.1-1.5,1.6-2.3l15.8,9.1l9.2,5.3l1-1.7l-25-14.4
		c0.4-0.8,0.8-1.7,1.2-2.5l17.1,6.2l0.7-1.8l-17.1-6.2c0.3-0.9,0.5-1.8,0.7-2.7l17.9,3.2l0.3-1.9l-17.9-3.2c0.1-0.9,0.2-1.9,0.2-2.8
		h28.9v-0.2v-2h-28.8c0-1-0.1-1.9-0.2-2.8l17.9-3.2l-0.3-1.9l-17.9,3.1c-0.2-0.9-0.5-1.8-0.7-2.7l17.1-6.2l-0.7-1.9l-17.2,6.3
		c-0.4-0.9-0.8-1.7-1.2-2.6l15.8-9.1l9.2-5.3l-1-1.7l-25,14.4c-0.5-0.8-1-1.6-1.6-2.3l14-11.7l-1.3-1.5l-13.9,11.7
		c-0.6-0.7-1.3-1.4-2-2l11.7-13.9l-1.5-1.3l-11.7,14c-0.7-0.6-1.5-1.1-2.3-1.6l9.1-15.8l5.3-9.2l-1.7-1l-14.4,25
		c-0.8-0.4-1.7-0.8-2.6-1.2l6.2-17.1l-1.8-0.7l-6.2,17.1c-0.9-0.3-1.8-0.5-2.7-0.7l3.2-17.9l-1.9-0.3l-3.2,17.9
		c-0.9-0.1-1.9-0.2-2.8-0.2V70.7h-2v28.8c-1,0-1.9,0.1-2.8,0.2l-3.2-17.9l-1.9,0.3l3.2,17.9c-0.9,0.2-1.8,0.4-2.7,0.7L240,83.6
		l-1.8,0.7l6.2,17.1c-0.9,0.4-1.7,0.8-2.6,1.2l-9.1-15.8l-5.3-9.2l-1.7,1l14.4,25c-0.8,0.5-1.6,1-2.3,1.6l-11.7-14l-1.5,1.3
		l11.7,13.9c-0.7,0.6-1.4,1.3-2,2l-13.9-11.7l-1.3,1.5l13.8,11.9c-0.6,0.7-1.1,1.5-1.6,2.3l-10.2-5.9L206.4,98l-1,1.7l9.2,5.3
		l5.5,3.2l10.2,5.9c-0.4,0.8-0.8,1.7-1.2,2.6l-17.1-6.2l-0.7,1.9l17.1,6.2c-0.3,0.9-0.5,1.8-0.7,2.7l-17.9-3.1l-0.3,1.9l17.9,3.2
		c-0.1,0.9-0.2,1.9-0.2,2.8h-28.8v2h28.8C227.2,129.1,227.3,130,227.4,130.9z M254.5,101.8c13.9,0,25.1,11.2,25.1,25.1
		S268.4,152,254.5,152s-25.1-11.2-25.1-25.1S240.6,101.8,254.5,101.8z"/>
	<path class="st0" d="M254.5,150.1c12.8,0,23.2-10.4,23.2-23.2s-10.4-23.2-23.2-23.2s-23.2,10.4-23.2,23.2
		C231.3,139.7,241.7,150.1,254.5,150.1z M254.5,105.7c11.7,0,21.2,9.5,21.2,21.2s-9.5,21.2-21.2,21.2s-21.2-9.5-21.2-21.2
		C233.3,115.2,242.8,105.7,254.5,105.7z"/>
	<path class="st0" d="M243.1,124.8c0.3,0,0.5-0.1,0.7-0.3l10.5-10.5c0.4-0.4,0.4-1,0-1.4s-1-0.4-1.4,0l-10.5,10.5
		c-0.4,0.4-0.4,1,0,1.4C242.6,124.7,242.8,124.8,243.1,124.8z"/>
	<path class="st0" d="M242.6,135c0.2,0,0.5-0.1,0.7-0.3L263,115c0.4-0.4,0.4-1,0-1.4s-1-0.4-1.4,0l-19.7,19.7c-0.4,0.4-0.4,1,0,1.4
		C242.1,134.9,242.3,135,242.6,135z"/>
	<path class="st0" d="M250.4,136.8c0.2,0.2,0.4,0.3,0.7,0.3c0.2,0,0.5-0.1,0.7-0.3l15.2-15.2c0.4-0.4,0.4-1,0-1.4s-1-0.4-1.4,0
		l-15.2,15.2C250,135.8,250,136.4,250.4,136.8z"/>
	<path class="st0" d="M256.8,139.6c0.2,0.2,0.4,0.3,0.7,0.3c0.2,0,0.5-0.1,0.7-0.3l10.9-10.9c0.4-0.4,0.4-1,0-1.4s-1-0.4-1.4,0
		l-10.9,10.9C256.4,138.6,256.4,139.2,256.8,139.6z"/>
	<path class="st0" d="M483.4,257.3h-4.7c-0.6,0-1,0.4-1,1s0.4,1,1,1h4.7c0.6,0,1-0.4,1-1S484,257.3,483.4,257.3z"/>
	<path class="st0" d="M474,257.3h-4.7c-0.6,0-1,0.4-1,1s0.4,1,1,1h4.7c0.5,0,1-0.4,1-1S474.6,257.3,474,257.3z"/>
	<path class="st0" d="M332.1,217.6l33,16c0.1,0.1,0.3,0.1,0.4,0.1s0.2-0.1,0.4-0.1l37.2-13.9l8.7,2.6c0.2,0.1,0.4,0.1,0.6,0
		l31.8-12.2l19.1,12.1c0.3,0.2,0.6,0.2,0.9,0.1l7.1-2.7l6.6,5.4c0.4,0.4,1.1,0.3,1.4-0.1c0.4-0.4,0.3-1.1-0.1-1.4l-7.1-5.8
		c-0.3-0.3-0.7-0.3-1-0.2l-7.1,2.7l-19.1-12.1c-0.3-0.2-0.6-0.2-0.9-0.1l-31.9,12.3l-8.7-2.6c-0.2-0.1-0.4-0.1-0.6,0l-37.3,13.9
		l-32.6-15.8c-0.5-0.2-1.1,0-1.3,0.5S331.6,217.4,332.1,217.6z"/>
	<path class="st0" d="M442.7,213.3l-17.5,6.6c-0.5,0.2-0.8,0.8-0.6,1.3c0.1,0.4,0.5,0.6,0.9,0.6c0.1,0,0.2,0,0.4,0l17.5-6.6
		c0.5-0.2,0.8-0.8,0.6-1.3S443.2,213.1,442.7,213.3z"/>
	<path class="st0" d="M359.4,232.9l-16.5-7.9c-0.3-0.2-0.6-0.1-0.9,0l-4.2,2.2c-0.5,0.3-0.7,0.9-0.4,1.4s0.9,0.7,1.4,0.4l3.8-2
		l16,7.7c0.1,0.1,0.3,0.1,0.4,0.1c0.4,0,0.7-0.2,0.9-0.6C360.1,233.7,359.9,233.1,359.4,232.9z"/>
	<path class="st0" d="M365.2,203.3c5.9,0,10.6-4.8,10.6-10.6s-4.8-10.6-10.6-10.6c-5.8,0-10.6,4.8-10.6,10.6
		S359.3,203.3,365.2,203.3z M365.2,184.1c4.8,0,8.6,3.9,8.6,8.6s-3.8,8.6-8.6,8.6c-4.7,0-8.6-3.8-8.6-8.6
		C356.6,188,360.4,184.1,365.2,184.1z"/>
	<path class="st0" d="M125.6,101.7c0-0.6-0.4-1-1-1H111c-0.5,0-1,0.4-1,0.9l-1.4,19.3h-2.8c-0.6,0-1,0.4-1,1s0.4,1,1,1h3.6
		c0,0,0,0,0.1,0c0.3,0,0.5-0.1,0.7-0.3c0.2-0.2,0.3-0.4,0.3-0.7c0-0.1,0-0.3-0.1-0.4l1.5-18.8h12.7
		C125.2,102.7,125.6,102.3,125.6,101.7z"/>
	<path class="st0" d="M114,130.7H98.6c-0.6,0-1,0.4-1,1c0,0.6,0.4,1,1,1H114c0.6,0,1-0.4,1-1C115,131.1,114.6,130.7,114,130.7z"/>
	<path class="st0" d="M108.9,135.3h-6.3c-0.6,0-1,0.4-1,1s0.4,1,1,1h6.3c0.5,0,1-0.5,1-1C109.9,135.7,109.5,135.3,108.9,135.3z"/>
	<path class="st0" d="M154.9,160.2l-31-4.6l-2.8-14.4c8.2-7.3,13.4-20.2,13.4-34.2c0-20.7-11-34-28.1-34s-28.1,13.3-28.1,34
		c0,14.2,5.3,27.4,13.8,34.6l-2.7,14l-31,4.6c-0.5,0-0.9,0.6-0.8,1.1c0.1,0.5,0.5,0.9,1,0.9c0,0,0.1-0.1,0.2,0l31.7-4.7
		c0.4-0.1,0.7-0.4,0.8-0.8l2.6-13.7c0.2,0.1,0.3,0.3,0.5,0.4c3.8,2.5,7.8,3.8,12,3.8s8.3-1.3,12-3.8c0.3-0.2,0.6-0.5,0.9-0.7l2.7,14
		c0,0.4,0.4,0.7,0.8,0.8l31.7,4.7h0.1c0.5,0,0.9-0.4,1.1-0.9C155.8,160.8,155.4,160.3,154.9,160.2z M117.2,141.7
		c-3.4,2.3-7.1,3.5-10.9,3.5c-3.7,0-7.4-1.2-10.8-3.5c-0.5-0.3-1-0.7-1.5-1.1c-0.1-0.1-0.2-0.2-0.4-0.3
		c-8.1-6.7-13.3-19.4-13.3-33.3c0-19.4,10.3-32,26.1-32c15.9,0,26.1,12.5,26,32C132.4,121.8,126.4,135.5,117.2,141.7z"/>
	<path class="st0" d="M369.5,59.5h16.4v20H378v2h8.9c0.5,0,1-0.5,1-1v-22c0-0.6-0.4-1-1-1h-8.2V34.6c0-0.6-0.4-1-1-1s-1,0.4-1,1
		v22.9h-8.2c-0.5,0-1,0.5-1,1v15.9h2L369.5,59.5L369.5,59.5z"/>
	<path class="st0" d="M399.6,90H419c0.6,0,1-0.5,1-1V65.7c0-0.6-0.4-1-1-1h-8.7v-30c0-0.6-0.4-1-1-1s-1,0.4-1,1v30h-8.7
		c-0.6,0-1,0.4-1,1V89C398.6,89.6,399,90,399.6,90z M400.6,66.7H418V88h-17.4V66.7z"/>
	<path class="st0" d="M437.9,57.1h17.5v21.4h-7.9v2h8.9c0.5,0,1-0.5,1-1V56.1c0-0.5-0.5-1-1-1h-8.8V34.6c0-0.6-0.4-1-1-1s-1,0.4-1,1
		v20.5h-8.7c-0.5,0-1,0.5-1,1V72h2V57.1z"/>
	<path class="st0" d="M470.4,77.1h18.4v22.5h-14.2v2h15.2c0.6,0,1-0.5,1-1V76.1c0-0.5-0.4-1-1-1H481V34.6c0-0.6-0.4-1-1-1
		s-1,0.4-1,1v40.5h-9.6c-0.6,0-1,0.5-1,1v9.8h2V77.1z"/>
	<path class="st0" d="M353.5,104.2h21.6c0.5,0,1-0.4,1-1V77.3c0-0.6-0.4-1-1-1h-9.8V34.6c0-0.6-0.4-1-1-1s-1,0.4-1,1v41.7h-9.8
		c-0.6,0-1,0.4-1,1v25.9C352.5,103.8,352.9,104.2,353.5,104.2z M354.5,78.3h19.6v23.9h-19.6V78.3z"/>
	<path class="st0" d="M385.7,95.4c-0.6,0-1,0.4-1,1v25.3c0,0.6,0.4,1,1,1h21.1c0.5,0,1-0.4,1-0.9V96.4c0-0.6-0.4-1-1-1h-9.6V34.6
		c0-0.6-0.4-1-1-1s-1,0.4-1,1v60.8H385.7z M405.7,120.7h-19.1V97.4h19.1V120.7z"/>
	<path class="st0" d="M422.2,102.7h22.2c0.6,0,1-0.4,1-0.9V75.1c0-0.6-0.4-1-1-1h-10.1V34.6c0-0.6-0.4-1-1-1s-1,0.4-1,1v39.5h-10.1
		c-0.6,0-1,0.4-1,1v26.6C421.2,102.3,421.6,102.7,422.2,102.7z M423.2,76.1h20.2v24.6h-20.2V76.1z"/>
	<path class="st0" d="M450.3,87.9c-0.6,0-1,0.4-1,1v25.6c0,0.6,0.4,1,1,1h21.4c0.5,0,1-0.4,1-1V88.9c0-0.6-0.4-1-1-1H462V34.6
		c0-0.6-0.4-1-1-1s-1,0.4-1,1v53.3H450.3z M470.7,113.5h-19.4V89.9h19.4V113.5z"/>
	<path class="st0" d="M560.7,360.4h10c0.5,0,1-0.5,1-1v-49.2c0-0.6-0.4-1-1-1h-87.2c0,0,0,0-0.1,0l0,0H300.8c2.1-1.2,3.9-2.9,5.1-5
		c1.2-2.2,2-4.4,2.4-6.6c0.1-0.1,0.2-0.3,0.2-0.4c0.5-1.4,0.5-2.7,0.1-3.8c-0.2-2.5-1-4.8-2.4-6.8c-3.5-5.1-10.2-7.7-17.5-6.7
		c-2.4,0.1-4.8,1-6.7,2.5c-5,4.3-7.1,9.3-6.9,16.2c0.2,4.6,3,8.4,7.4,10.6H258c1.9-0.9,3.6-1.9,5-3.1c0.5-0.2,1-0.5,1.5-0.9
		c0.9-0.8,1.5-1.6,1.8-2.5c2.8-3.7,4-8.3,3.7-13.8c0-0.1,0-0.3,0-0.4c0.1-1,0-1.9-0.3-2.7c0-0.2-0.1-0.4-0.2-0.6
		c-0.9-3.7-3.1-7.1-6.1-9.6c-3.6-3.1-8.2-4.6-12.5-4.1c-3,0-6,0.6-8.9,1.9c-1.5,0.6-3,1.5-4.3,2.4c-0.2,0.1-0.4,0.2-0.6,0.3
		c-0.4,0.3-0.8,0.6-1.1,1.1c-2.8,2.5-4.9,5.7-5.9,9.2c-1.2,4.8-0.8,9.4,1.1,13.5c0.1,0.4,0.3,0.8,0.5,1.1c1.1,2,2.6,3.8,4.4,5.4
		c1.3,1.1,2.8,2.1,4.4,2.8H208c-0.6,0-1,0.4-1,1V349c0,0.6,0.4,1,1,1h4.8v9.4c0,0.6,0.4,1,1,1h11.3l-7,41.1c-0.1,0.3,0,0.6,0.2,0.8
		c0.2,0.3,0.5,0.4,0.8,0.4h5.4c0.4,0,0.8-0.2,0.9-0.7l3.4-9.5L228,397c-0.1,0.3,0,0.6,0.2,0.8c0.2,0.3,0.5,0.4,0.8,0.4h4.8
		c0.4,0,0.8-0.3,1-0.7l13-37.1H287l0,0h185h0.1h11.2l0,0c0,0,0,0,0.1,0h54.5l13.2,37.1c0.1,0.4,0.5,0.7,0.9,0.7h4.8
		c0.6,0,1-0.4,1-0.9c0-0.2-0.1-0.3-0.1-0.4l-0.8-4.9l3.5,10c0.1,0.4,0.5,0.7,0.9,0.7h5.4c0.6,0,1-0.4,1.1-1c0-0.2-0.1-0.3-0.1-0.4
		L560.7,360.4z M277.2,299.4c-0.1-0.2-0.1-0.5-0.1-0.7c0,0.1,0.1,0.2,0.2,0.4C277.2,299.2,277.2,299.3,277.2,299.4z M237.8,282.8
		c0-0.3-0.1-0.6-0.2-0.9c0.9,0.4,1.8,1.2,2.6,2.2C239.4,283.6,238.6,283.2,237.8,282.8z M240.8,286.8c-0.3,0-0.6,0-0.9,0
		c-0.2-0.3-0.4-0.6-0.6-1C239.8,286.1,240.3,286.4,240.8,286.8z M238.9,289.1c-0.2,0-0.5-0.1-0.7-0.2c0.2,0,0.3-0.1,0.5-0.1
		C238.8,288.9,238.8,289,238.9,289.1z M240.5,291.5c0.7,1.2,1.4,2.5,2,3.7c-0.2,0.9-0.4,1.8-0.8,2.6c-0.3-0.1-0.6-0.1-0.9-0.1
		c-0.2,0-0.4,0-0.6,0c-0.2-0.3-0.4-0.7-0.6-1.1c-1-1.6-1.9-3.2-3.1-4.9c-0.3-0.5-0.8-1.1-1.3-1.9
		C236.8,290.5,238.7,291.1,240.5,291.5z M241.1,288.9c0.1,0,0.3,0,0.4,0c0.3,0,0.6,0,0.9,0c0.1,0.4,0.2,0.7,0.2,1.1
		c-0.3-0.1-0.6-0.1-0.9-0.2C241.5,289.5,241.3,289.2,241.1,288.9z M243.8,300.3c0.1,0.8,0,1.6-0.3,2.4c-0.4-0.5-0.8-1-1.2-1.6
		C242.8,300.8,243.4,300.5,243.8,300.3z M243.9,306L243.9,306c-0.2,1-0.1,1.8,0.1,2.4c-0.7-0.2-1.5-0.5-2.2-0.8
		C242.6,307.3,243.3,306.7,243.9,306z M244.7,292.3c1.5,0.2,2.6,0.3,3,0.3h0.1c0.7,0.7,1.2,1.3,1.5,1.7c0.4,0.5,1,1.2,1.6,2.1
		c-1.8,0.1-3.6,0.3-5.5,1c-0.2-0.8-0.5-1.6-0.9-2.4C244.7,294.1,244.7,293.2,244.7,292.3z M244.6,289.7c0.3,0.2,0.5,0.5,0.8,0.7
		c-0.2,0-0.4-0.1-0.7-0.1C244.7,290.1,244.6,289.9,244.6,289.7z M252.5,305c-0.2-1.2-0.5-2.2-1-3c0.9-0.5,1.7-0.9,2.6-1.3
		c0.5,0.6,1.1,1.2,1.6,1.8c0.2,2.8-0.2,4.5-1.1,5.3c-0.5,0.5-1.4,0.6-2.5,0.4C252.5,307.3,252.7,306.3,252.5,305z M245,304.3
		c0.7-1.2,0.9-2.5,0.8-3.9c1.1,0.3,1.9,0.6,2.6,1.1C246.9,302.5,245.8,303.5,245,304.3z M246.6,305.7c0.7-0.8,1.7-1.7,3.2-2.6
		c0.3,0.6,0.6,1.3,0.7,2.2c0.2,1,0,1.8-0.3,2.3C248.8,307.1,247.6,306.4,246.6,305.7z M248,308.9c-0.9,0-1.8-0.4-2.1-1
		c-0.1-0.1-0.1-0.2-0.1-0.3C246.5,308,247.3,308.4,248,308.9z M250.3,300.5c-0.8-0.7-1.8-1.2-2.8-1.6c1.6-0.4,3.2-0.5,4.9-0.5
		c0.1,0.2,0.3,0.5,0.5,0.7C252.1,299.6,251.2,300,250.3,300.5z M251,293c-0.1-0.2-0.2-0.3-0.4-0.5c0.9-0.1,1.8-0.2,2.7-0.4
		c0.5,1.3,1,2.7,1.4,4.2c-0.1,0-0.1,0-0.2,0c-0.4,0-0.7,0-1.1,0c-0.2-0.2-0.4-0.5-0.5-0.7C252.2,294.5,251.5,293.6,251,293z
		 M255.2,291.6c0.9-0.4,1.7-0.8,2.6-1.5c0.3-0.2,0.6-0.4,0.8-0.7c0.4,0.7,1,1.4,1.6,2.2c0.5,0.7,1,1.4,1.5,2c-0.9,1.1-2,2-3.2,2.7
		c-0.6,0.1-1.1,0.1-1.7,0.1C256.3,294.7,255.8,293.1,255.2,291.6z M256.6,288.5c-0.7,0.5-1.4,0.9-2.2,1.2c-0.6-1.4-1.3-2.7-2.1-4
		c1.2-0.2,2.6-0.5,3.9-1.1c0.4,1.1,0.8,2.1,1.3,3C257.2,287.9,256.9,288.3,256.6,288.5z M252.4,290.3c-1.2,0.2-2.6,0.3-3.8,0.3
		c-0.6-0.6-1.3-1.2-2.1-1.9c1.7-0.2,3.1-0.7,4.1-1.8C251.3,288,251.9,289.1,252.4,290.3z M257.3,307.2c0.3-0.8,0.5-1.8,0.5-2.8
		c0.7,0.6,1.5,1.1,2.2,1.3C259.2,306.3,258.3,306.7,257.3,307.2z M264.8,301.7c-0.7,0.8-1.5,1.6-2.4,2.4c-0.3,0-0.5,0-0.7,0
		c-1.3-0.1-2.7-1.1-4-2.5c-0.1-0.8-0.2-1.6-0.3-2.5c0.6-0.3,1.1-0.6,1.7-0.9c1.6-0.2,3.3-0.5,4.9-1.1
		C264.9,298.8,265.2,300.4,264.8,301.7z M266.6,298.6c-0.2-0.7-0.5-1.5-0.9-2.3c0.9-0.5,1.6-1.2,2.3-2
		C267.7,295.8,267.2,297.3,266.6,298.6z M266.8,284.8c0.4,0.3,0.8,0.7,1,1.2c0.2,0.8,0.3,1.7,0.4,2.6c-0.2,2.2-1.4,4.6-3.5,6
		c-0.2-0.4-0.4-0.7-0.6-1c0.5-0.8,1-1.6,1.4-2.4C266.4,289,266.8,286.8,266.8,284.8z M264.8,283.9c0.1,2-0.3,4.1-1.2,6.3
		c-0.2,0.6-0.4,1.1-0.7,1.6c-0.4-0.5-0.8-1-1.1-1.4c-0.8-1-1.5-1.9-2-2.7c0.1-0.3,0.3-0.5,0.5-0.9c0.7-1.5,1.3-2.5,2.5-2.8
		C263.5,283.9,264.2,283.9,264.8,283.9z M260.8,281.4c0.7-1,1.2-2.4,0.7-4.3c1.5,1.3,2.4,3,2.9,4.9c-0.6,0-1.3,0.1-2.1,0.2
		c-1.9,0.4-2.9,1.9-3.6,3.3c-0.3-0.5-0.5-1.1-0.7-1.7C259.2,283.1,260.2,282.3,260.8,281.4z M258,275c0,0,0.4,0.1,1.1,1.3
		c0.8,1.4,0.9,2.7,0.1,3.8c-0.4,0.6-1.1,1.1-1.8,1.6c-0.2-0.9-0.3-1.8-0.4-2.7C256.9,277.1,257.6,275.1,258,275z M256.3,274.2
		c-0.9,1.3-1.2,3.6-1.1,5.1c0.1,1.1,0.3,2.3,0.6,3.5c-1.1,0.4-2.2,0.7-3.2,0.9c0-0.3,0.1-0.7,0.2-1c0.6-2.1,1-7.1-1.1-9.2
		C253.2,273.5,254.7,273.7,256.3,274.2z M248.5,274.7c0.5-0.3,0.9-0.3,1.4-0.1c1.7,0.7,1.7,5.3,1,7.6c-0.1,0.4-0.2,0.7-0.3,1
		c-0.9-1.2-1.9-2.4-3-3.5c-0.5-0.5-1.1-0.9-1.7-1.4C246.4,276.7,247.4,275.2,248.5,274.7z M248.5,283.8c-1.6-0.2-2.5-0.5-2.9-1
		c-0.3-0.4-0.4-1.2-0.2-2.4c0.2,0.2,0.5,0.4,0.7,0.6C246.9,281.9,247.7,282.8,248.5,283.8z M242.9,275.2c1-0.4,2-0.7,3-1
		c-0.7,0.8-1.3,1.9-1.7,2.9c-0.9-0.5-1.9-0.9-2.8-1.2C241.9,275.7,242.4,275.5,242.9,275.2z M237.6,278.5c0.3-0.3,0.6-0.5,1-0.8
		c1.2-0.3,3.1,0.3,4.9,1.4c-0.1,0.2-0.1,0.3-0.1,0.4c-0.4,2.2-0.2,3.6,0.5,4.6c0.9,1.3,2.6,1.6,4.6,1.9c0.1,0,0.1,0,0.2,0
		c-1,0.7-2.2,0.9-3.9,1c-0.2,0-0.4,0-0.6,0c-0.1-0.1-0.2-0.2-0.3-0.3c-0.9-2.5-2.9-5.8-5.7-6.6c-0.2-0.1-0.5-0.2-0.8-0.2
		C237.4,279.3,237.4,278.9,237.6,278.5z M233.6,284.8c0-0.2,0-0.3,0.1-0.5c0-0.1,0.1-0.2,0.2-0.3c0-0.1,0.2-0.2,0.8-0.2
		c0.5,0,1,0.2,1.6,0.4c0.3,0.9,0.8,1.8,1.3,2.7c-0.9,0.1-1.8,0.3-2.6,0.6c-0.6-0.3-1.1-0.6-1.4-1C233.5,286,233.4,285.4,233.6,284.8
		z M231.4,290.2c0-0.9,0.2-1.8,0.4-2.7c0.2,0.6,0.4,1.1,0.7,1.6C232.1,289.5,231.7,289.8,231.4,290.2z M233.5,290.9
		c0.5,0.9,1,1.6,1.5,2.1c1,1.5,1.9,3,2.8,4.5c-1.6-0.2-3-0.5-4.1-1.2c-1.2-0.7-1.7-1.5-1.7-2.5S232.6,291.8,233.5,290.9z M233.4,300
		c-0.4-0.7-0.7-1.4-0.9-2c0.1,0,0.1,0.1,0.2,0.1c1.7,1,4,1.4,6.4,1.6c0.1,0.3,0.3,0.6,0.5,0.9c-1.3,0.8-2.9,1.1-4.2,0.8
		C234.8,301.2,234,300.8,233.4,300z M237.1,304.6c-0.4-0.4-0.8-0.8-1.2-1.2c0.4,0.1,0.9,0.1,1.4,0
		C237.2,303.8,237.1,304.2,237.1,304.6z M239.7,306.1c-0.2,0-0.6,0-0.7-1c0-1.2,0.6-2.1,1.6-2.9c0.6,0.8,1.2,1.6,1.9,2.4
		C241.6,305.5,240.4,306.2,239.7,306.1z M287.1,358.4l-72.3-3.6v-1.9l85.8,2.7v1c-0.1,0.1-0.1,0.3-0.1,0.4s0,0.3,0.1,0.4v0.9h-13.5
		V358.4z M569.6,346.1l-7.9,0.2v-1.6l7.9,0.5V346.1z M561.7,342.7v-0.8l7.9-0.8v2.1L561.7,342.7z M561.7,339.9v-2.3l7.9-0.1v1.6
		L561.7,339.9z M561.7,335.6v-1.5l7.9,0.4v1.1H561.7z M569.6,332.5l-7.9-0.4v-3l7.9-0.7V332.5z M561.7,327.1v-1.7h7.9v1L561.7,327.1
		z M561.7,323.4v-0.7l7.9-0.8v1.5H561.7z M561.7,320.7v-0.9c0-0.6-0.4-1-1-1h-76.3v-1.1l85.2,0.5v1.7L561.7,320.7z M526.4,347
		l6-17.5l1.8,0.6l-6,17.5L526.4,347z M533,340.1l-1.2,7.9h-1.5L533,340.1z M553.8,347.8h-1.9v-18.5h1.9V347.8z M549.9,328.3v19.5
		h-1.1v-16.5v-5.9h1.1V328.3z M546.8,347.8h-3v-15.5h3V347.8z M541.8,331.3v16.5h-1.9v-18.5h1.9V331.3z M535,347.7l-1.1-0.2
		l3.3-22.2l1.1,0.2L535,347.7z M537.9,341.5v6.5h-1L537.9,341.5z M554.8,327.3h-2.9v-2.9c0-0.6-0.4-1-1-1h-3.1c-0.6,0-1,0.4-1,1v5.9
		h-3v-2c0-0.6-0.4-1-1-1H540l0.4-2.6c0.1-0.5-0.3-1-0.8-1.1l-3.1-0.5c-0.2,0-0.5,0-0.7,0.2s-0.4,0.4-0.4,0.7l-0.6,4.1l-2.6-0.9
		c-0.6-0.2-1.1,0.1-1.3,0.6l-6.6,19.4c-0.1,0.3-0.1,0.6,0,0.8h-39.9v-27.2h75.2V348h-3.8v-19.7C555.8,327.7,555.4,327.3,554.8,327.3
		z M484.4,350h76.3c0.5,0,1-0.5,1-1v-0.7l7.9-0.2v1.9l-85.2,1.3L484.4,350L484.4,350z M569.6,316.2l-85.2-0.5v-0.8l85.2-1.5V316.2z
		 M393.1,351.3l-90.5-0.2V350h90.5V351.3z M300.6,350v1.2l-26.3-1.2H300.6z M302.6,353.1l90.5,0.2v1.5l-90.5-0.8V353.1z M395.1,350
		h87.3v3.1l-87.3-1.8L395.1,350L395.1,350z M484.4,353.3l85.2-1.3v2l-85.2-0.2L484.4,353.3L484.4,353.3z M569.6,311.4l-85.2,1.5
		v-1.7h85.2V311.4z M284,303.2c0.8-0.7,1.3-1.4,1.6-2.1c0.7-0.4,1.4-0.9,2-1.4c0.9-0.6,1.6-1.2,2.5-1.5c0,1.5-0.3,3.1-1.2,4.4
		c-0.9-0.1-2.2,0.1-3.4,1.7c-0.3,0.5-0.6,0.9-0.8,1.3h-0.1c-0.3-0.1-0.5-0.7-0.6-1.5C284,303.8,284,303.5,284,303.2z M282.9,300
		c-0.1,0-0.2,0-0.3,0c-1.6,0-2.7-0.4-3.3-1.3c0.6-2,1.6-4.1,2.6-5.2c0.7-0.7,1.5-1.3,2.2-1.6c0.1,0.1,0.1,0.1,0.2,0.2
		c0.1,0.2,0.1,0.3,0.1,0.5c0.2,1.5,0.3,2.9,0.3,4.2C284.1,297.8,283.4,298.9,282.9,300z M286.7,297.5c0-0.1,0.1-0.2,0.2-0.3
		c0.7-1,1.3-1.9,1.8-2.9c0.3,0,0.5,0.1,0.7,0.1c0.2,0.5,0.5,1.1,0.6,1.7c-1.3,0.4-2.3,1.1-3.3,1.9
		C286.7,297.8,286.7,297.7,286.7,297.5z M286.5,294c0-0.1,0-0.3,0-0.4c0.1,0,0.2,0,0.2,0.1C286.6,293.8,286.6,293.9,286.5,294z
		 M288.3,290.3c-0.7-0.4-1.4-0.6-2.2-0.7c0-0.7,0-1.4,0-2c0.7-0.1,1.7,0,2.6,0.2C288.8,288.5,288.6,289.4,288.3,290.3z M289.6,305
		c0.4,0.5,0.8,1.2,1,1.9c-0.3,0.2-0.6,0.3-0.8,0.4c-1.5,0.5-3,0.3-3.3-0.1C287.6,306.7,288.7,305.8,289.6,305z M289.9,291.7
		c0.5-1.1,0.9-2.3,0.9-3.4c0.6,0.1,1.2,0.2,1.6,0.3c0.6,0.1,1.5,0.2,2.5,0.4c0.1,0,0.2,0,0.3,0c0,1-0.4,2.3-2.1,3.1
		c-0.6,0.3-1.5,0.5-2.5,0.4C290.4,292.2,290.2,291.9,289.9,291.7z M295.4,296c-0.3,0.3-0.5,0.5-0.8,0.8c-0.6-0.3-1.2-0.5-1.7-0.6
		c-0.3-0.1-0.6-0.2-0.9-0.2c-0.1-0.5-0.3-1-0.4-1.4c0.9-0.1,1.7-0.3,2.4-0.6c0.5-0.2,0.9-0.5,1.3-0.8c-0.1,0.2-0.2,0.4-0.3,0.6
		C294.8,294.5,295,295.2,295.4,296z M298.6,299.3c-0.1,0-0.1,0.1-0.2,0.2c-0.7-0.7-1.4-1.2-2.1-1.7c0.1-0.1,0.2-0.1,0.2-0.1
		C297.2,298.4,298,298.9,298.6,299.3z M296.8,294.4c0,0,0.1-0.1,0.5-0.1c-0.2,0.1-0.3,0.2-0.4,0.4
		C296.8,294.6,296.8,294.5,296.8,294.4z M298.6,302.6c0.8,0.9,1.3,1.9,1.4,2.8c0,0.4,0.2,1.6-1.5,2.6c-0.6,0.2-1.3,0.4-1.9,0.6
		c-0.5,0-0.8-0.2-0.9-0.3c-0.5-0.4-0.9-1.1-1.2-1.9C295.8,305.3,297.3,303.9,298.6,302.6z M298.1,296.2c0.5-0.4,1.1-0.9,1.6-1.5
		c0.4,0.3,0.5,0.6,0.5,0.8c0.1,0.5-0.1,1.2-0.5,2C299.2,297.2,298.6,296.7,298.1,296.2z M299.1,292.4c-0.3,0-0.5-0.1-0.7-0.1
		c-1.3-0.2-2.2,0.1-2.7,0.4c0.9-0.9,1.4-2,1.5-3.3c0.8,0.1,1.6,0.3,2.5,0.5C299.8,290.9,299.6,291.7,299.1,292.4z M297.3,301
		c-1,1.1-2.1,2.2-3.2,3.2c-0.1-0.7-0.1-1.4,0-2.1c0.1-1.1,0.5-1.9,1-2.7C295.8,299.8,296.5,300.4,297.3,301z M292.7,307.8
		c0.4,0.4,0.6,0.9,0.9,1.3c-0.3,0.1-0.6,0.1-0.9,0.1C292.7,308.8,292.8,308.3,292.7,307.8z M292.2,298.1c0.1,0,0.1,0,0.2,0
		c0.3,0.1,0.6,0.2,0.9,0.3c-0.5,1-1,2.1-1.2,3.4c-0.2,1-0.2,2.4,0.1,3.8c-0.4-0.8-0.8-1.6-1.4-2.1
		C291.8,301.8,292.3,299.9,292.2,298.1z M304.2,303c-0.6,1.1-1.4,2-2.3,2.8c0-0.2,0-0.5,0-0.7c-0.2-1.4-1-2.9-2.1-4.2
		c0.3-0.3,0.5-0.5,0.6-0.8c1.7,0.6,3.5,0.7,4.9,0.2c0.1-0.1,0.1-0.1,0.2-0.1C305.2,301.1,304.7,302.1,304.2,303z M306.5,293.3
		c0.1,0.1,0.1,0.3,0.2,0.4c0,0.9,0,1.9-0.2,2.9c-0.4,0.9-1,1.4-1.8,1.7c-0.9,0.4-2.1,0.3-3.2,0c0.5-1.1,0.8-2.1,0.8-3
		c-0.1-0.8-0.4-1.6-1.3-2.2c0.4-0.8,0.7-1.7,0.7-2.7C303.8,291,305.7,292,306.5,293.3z M304.6,287.6c0.5,0.8,1,1.7,1.3,2.6
		c-1.2-0.8-2.8-1.4-4.5-1.9c-0.2-0.7-0.5-1.5-0.8-2.2c-0.7-1.3-1.6-2.5-2.8-3.5C300.6,283.6,303,285.3,304.6,287.6z M298.7,286.9
		c0.2,0.3,0.3,0.5,0.4,0.8c-0.7-0.2-1.4-0.3-2.1-0.4c-0.4-1.8-1.6-3.6-3.2-4.8C296,283.4,297.7,284.9,298.7,286.9z M291.9,283.6
		c1.3,0.7,2.4,2,3,3.4c-0.8-0.2-1.5-0.3-2.1-0.4c-0.4,0-1-0.2-1.6-0.3c-0.3-0.1-0.6-0.1-0.9-0.2c-0.5-0.9-1.4-1.6-2.4-2
		C289.4,282.8,290.9,283.1,291.9,283.6z M287.3,282c-0.3,0.2-0.5,0.3-0.8,0.5c-0.4,0.4-0.7,0.7-1,1.1c-0.7,0-1.4,0-2,0.1
		C284.6,282.9,285.9,282.3,287.3,282z M279.9,290.4c1.4-3,2.4-4.7,4.6-4.8c0,0.1-0.1,0.3-0.2,0.4s-0.3,0.2-0.4,0.3
		c-0.5,0.4-1.1,1.2-1,2.6c0,0.4,0.1,0.8,0.2,1.2c-0.9,0.5-1.8,1.1-2.6,2c-0.6,0.7-1.3,1.8-1.9,3
		C278.8,293.5,279.2,291.8,279.9,290.4z M279.2,303.2c-0.3-0.4-0.4-1.2-0.3-2.2c0.7,0.6,1.8,1,3.3,1v0.1l-0.1,0.1
		C280.5,303.3,279.5,303.5,279.2,303.2z M282.1,304.6c0.3,2,1.2,2.7,2,2.9c0.1,0,0.3,0.1,0.4,0.1c0,0.1,0,0.3,0.1,0.4
		c-1.7-0.7-3.1-1.6-4.3-2.7C280.8,305.2,281.4,304.9,282.1,304.6z M290.6,309L290.6,309l0.3,0.2h-0.5l0,0
		C290.5,309.1,290.6,309.1,290.6,309z M209,311.2h273.4v36.6H213.8c-0.2,0-0.4,0.1-0.6,0.2H209V311.2L209,311.2z M228.8,350
		l71.8,3.2v0.5l-85.8-2.7v-0.9h14V350L228.8,350z M214.8,356.8l29.5,1.5h-4.9c-0.1,0-0.3,0-0.4,0.1h-24.2L214.8,356.8L214.8,356.8z
		 M223.8,400.7h-3.5l6.8-40.3H238l-7.3,20.5c0,0.1,0,0.1,0,0.2l-0.1,0.3L223.8,400.7z M233.1,396.2h-2.9l2.5-14.6l7.5-21.2h5.6
		L233.1,396.2z M302.6,358.4v-0.3l5.9,0.3H302.6z M354.9,358.4l-52.3-2.3V356l91.5,0.8c0.5,0,0.9-0.5,1-0.9l43.2,2.5H354.9z
		 M472.4,358.4l-77.3-4.6v-0.5l87.3,1.8v3.3L472.4,358.4L472.4,358.4z M484.4,355.8l85.2,0.2v2.4h-85.2L484.4,355.8L484.4,355.8z
		 M552.7,396.2L540,360.4h5.6l7.5,21.2l2.5,14.6H552.7L552.7,396.2z M562,400.7l-7-19.6V381l-7.3-20.6h10.9l6.9,40.3L562,400.7
		L562,400.7z"/>
	<path class="st0" d="M301.6,346.7c0.5,0,1-0.4,1-1v-32.1c0-0.6-0.4-1-1-1s-1,0.4-1,1v32.1C300.6,346.3,301,346.7,301.6,346.7z"/>
	<path class="st0" d="M394.1,346.7c0.5,0,1-0.4,1-1v-32.1c0-0.6-0.4-1-1-1s-1,0.4-1,1v32.1C393.1,346.3,393.5,346.7,394.1,346.7z"/>
	<path class="st0" d="M629.5,230.6l-17.1-10.3c-0.5-0.3-1.1-0.2-1.4,0.3s-0.2,1.1,0.3,1.4l17.1,10.3c0.1,0.1,0.3,0.1,0.5,0.1
		c0.3,0,0.7-0.2,0.9-0.4C630.1,231.5,630,230.9,629.5,230.6z"/>
	<path class="st0" d="M51.9,383.8H38.6c-0.6,0-1,0.4-1,1s0.4,1,1,1h13.3c0.6,0,1-0.4,1-1C52.9,384.2,52.5,383.8,51.9,383.8z"/>
	<path class="st0" d="M140.1,383.8H79.8c-0.6,0-1,0.4-1,1s0.4,1,1,1h60.3c0.5,0,1-0.4,1-1C141.1,384.2,140.7,383.8,140.1,383.8z"/>
	<path class="st0" d="M212.8,383.8h-42.9c-0.6,0-1,0.4-1,1s0.4,1,1,1h42.9c0.6,0,1-0.4,1-1C213.8,384.2,213.4,383.8,212.8,383.8z"/>
	<path class="st0" d="M540.4,383.8H244.6c-0.6,0-1,0.4-1,1s0.4,1,1,1h295.8c0.6,0,1-0.4,1-1C541.4,384.2,541,383.8,540.4,383.8z"/>
	<path class="st0" d="M615.2,384.8c0-0.6-0.4-1-1-1h-43.3c-0.6,0-1,0.4-1,1s0.4,1,1,1h43.3C614.7,385.8,615.2,385.4,615.2,384.8z"/>
	<path class="st0" d="M661,383.8h-25.1c-0.6,0-1,0.4-1,1s0.4,1,1,1h25.2c0.5,0,1-0.4,0.9-1C662,384.2,661.6,383.8,661,383.8z"/>
</g>
</svg>
