<?xml version="1.0" encoding="utf-8"?>
<!-- Generator: Adobe Illustrator 24.0.1, SVG Export Plug-In . SVG Version: 6.00 Build 0)  -->
<svg version="1.1" id="Layer_1" xmlns="http://www.w3.org/2000/svg" xmlns:xlink="http://www.w3.org/1999/xlink" x="0px" y="0px"
	 viewBox="0 0 658 406.4" style="enable-background:new 0 0 658 406.4;" xml:space="preserve">
<style type="text/css">
	.st0{opacity:0.2;fill:#C4C4C4;enable-background:new    ;}
</style>
<g>
	<path class="st0" d="M221.4,168.7c0,0.6,0.4,1,1,1h10.4c0.5,0,1-0.4,1-1s-0.4-1-1-1h-10.4C221.8,167.7,221.4,168.1,221.4,168.7z"/>
	<path class="st0" d="M263.9,101.5c0.2,0.2,0.4,0.3,0.7,0.3h1.6c0.6,0,1-0.4,1-1c0-0.6-0.4-1-1-1H265l-4.1-4.1
		c-0.2-0.2-0.4-0.3-0.7-0.3c-0.3,0-0.5,0.1-0.7,0.3l-6.2,6.2c-0.4,0.4-0.4,1,0,1.4c0.2,0.2,0.4,0.3,0.7,0.3c0.2,0,0.5-0.1,0.7-0.3
		l5.5-5.5L263.9,101.5z"/>
	<path class="st0" d="M201,167.7H42.4V61h225.9v106.7h-12.2c-0.6,0-1,0.4-1,1s0.4,1,1,1h13.2c0.6,0,1-0.4,1-0.9V60c0-0.6-0.4-1-1-1
		H41.4c-0.6,0-1,0.4-1,1v108.8c0,0.6,0.4,1,1,1c0.2,0,0.3,0,0.5-0.1h159.2c0.5,0,0.9-0.4,0.9-1C202,168.1,201.6,167.7,201,167.7z"/>
	<path class="st0" d="M234.1,91h-1.7l-9-3.8v-2.8c0-0.6-0.4-1-1-1h-1.1V72.6c0-0.6-0.4-1-1-1h-1.2c-0.6,0-1,0.4-1,1v10.7h-0.8
		c-0.6,0-1,0.4-1,1v1.8L202.2,90c-0.4,0.2-0.7,0.5-0.7,1v7.8h-0.2c-0.4,0-0.7,0.2-0.9,0.6l-3.6,3.6c-0.2,0.2-0.3,0.4-0.3,0.7v32.4
		h-1.9v-27.7c0-0.3-0.1-0.5-0.3-0.7l-3.7-3.7c-0.2-0.2-0.4-0.3-0.7-0.3H189v-9.9c0-0.6-0.4-1-1-1h-1.2c-0.6,0-1,0.4-1,1v9.1h-1.1
		V101c0-0.6-0.4-1-1-1h-6.9c-0.5,0-0.9,0.4-1,0.9h-2.2c-0.6,0-1,0.4-1,1v0.5h-5.3c-0.6,0-1,0.4-1,1v36.5h-1.6v-17.3c0-0.6-0.4-1-1-1
		h-3.8v-2.3c0-0.6-0.4-1-1-1h-36.7c-0.3,0-0.6,0.2-0.8,0.5l-2.4,3.9c-0.1,0.1-0.2,0.3-0.2,0.5v22.2h-1.4l-5.7-9.4
		c-0.2-0.3-0.5-0.5-0.9-0.5h-7.3c-0.6,0-1,0.4-1,1v0.7h-3c-0.6,0-1,0.4-1,1v7.8h-1.8c-0.6,0-1,0.4-1,1v2.2H80.5v-10c0-0.6-0.4-1-1-1
		h-2V135c0-0.3-0.2-0.6-0.4-0.8c-0.2-0.2-0.5-0.2-0.8-0.2l-3.8,0.6v-31.2c0-0.6-0.4-1-1-1h-5.3v-0.5c0-0.6-0.4-1-1-1H63
		c-0.1-0.5-0.5-0.9-1-0.9h-6.9c-0.6,0-1,0.4-1,1v1.9H53v-9.1c0-0.6-0.4-1-1-1h-1.3c-0.6,0-1,0.4-1,1v9.9h-0.9
		c-0.3,0-0.5,0.1-0.7,0.3l-3.7,3.7c-0.4,0.4-0.4,1,0,1.4c0.4,0.4,1,0.4,1.4,0l3.4-3.4h1.5c0.5,0,0.9-0.3,1-0.8c0.1,0,0.2,0,0.3,0
		h3.1c0.6,0,1-0.4,1-1V102H61c0.1,0.5,0.5,0.9,1,0.9h2.1v0.5c0,0.6,0.4,1,1,1h5.3v31.4c0,0.3,0.2,0.6,0.4,0.8
		c0.2,0.2,0.5,0.2,0.8,0.2l3.8-0.6v3.1c0,0.6,0.4,1,1,1h2v10c0,0.6,0.4,1,1,1h17.2c0.6,0,1-0.5,1.1-0.9v-2.2h1.8c0.6,0,1-0.4,1-1
		v-7.9h3c0.6,0,1-0.4,1-1v-0.7h5.7l5.7,9.4c0.2,0.3,0.5,0.5,0.9,0.5h3c0.6,0,1-0.4,1-1v-23l2-3.2h35.1v2.3c0,0.6,0.4,1,1,1h3.8v17.3
		c0,0.6,0.4,1,1,1h3.6c0.6,0,1-0.4,1-1v-36.5h5.3c0.6,0,1-0.4,1-1v-0.5h2.1c0.5,0,0.9-0.4,1-0.9h4.9v1.9c0,0.6,0.4,1,1,1h3.1
		c0.1,0,0.2,0,0.3,0c0.1,0.4,0.5,0.8,1,0.8h1.5l3.1,3.1v28.5c0,0.6,0.4,1,1,1h3.9c0.6,0,1-0.4,1-1v-33l3.3-3.4h0.7c0.6,0,1-0.4,1-1
		v-8l14.1-3.9c0.4-0.2,0.7-0.5,0.7-1v-1.6h0.8c0.2,0,0.4-0.1,0.6-0.2c0.2,0.1,0.4,0.2,0.6,0.2h1.1v2.5c0,0.4,0.2,0.7,0.6,0.9
		l9.8,4.1c0.1,0.1,0.3,0.1,0.4,0.1h0.9v10c0,0.6,0.4,1,1,1s1-0.4,1-1V92C235.1,91.4,234.7,91,234.1,91z"/>
	<path class="st0" d="M32.1,185.6h246.5c0.5,0,1-0.4,0.9-1v-7V173c0-0.6-0.4-1-1-1h-3.6V55.7c0-0.6-0.4-1-1-1H36.8c-0.6,0-1,0.4-1,1
		V172h-3.7c-0.6,0-1,0.4-1,1v4.6v7C31.1,185.2,31.5,185.6,32.1,185.6z M33.1,183.6v-5h244.4v5H33.1z M37.8,56.7h235.1V172h-19.2
		l2.7-15.2h2.1c0.6,0,1-0.5,1-1v-5.2c0-0.6-0.4-1-1-1h-12.7v-6c2.1,0,6.7-0.3,9.7-3.3c3.8-3.9,3.2-10.5,3.2-10.8
		c0-0.5-0.4-0.9-0.9-0.9c-0.2,0-6.9-0.6-10.7,3.2c-0.5,0.5-0.9,1-1.2,1.5v-4c1.9,0,5.5-0.4,7.8-2.7c3.2-3.2,2.7-8.8,2.7-9
		c0-0.5-0.4-0.9-0.9-0.9c-0.2,0-5.8-0.5-9,2.7c-0.2,0.2-0.4,0.4-0.6,0.6v-2.8c1.5-0.1,3.8-0.5,5.4-2.1c2.4-2.5,2-6.6,2-6.8
		c0-0.5-0.4-0.9-0.9-0.9c-0.1,0-4-0.4-6.5,1.8v-0.9c1-0.2,2.3-0.5,3.3-1.5c1.9-1.8,1.6-5,1.6-5.1c0-0.5-0.4-0.9-0.9-0.9
		c-0.1,0-3.2-0.3-5.1,1.6c-0.2,0.2-0.4,0.5-0.6,0.7c-0.2-0.2-0.4-0.5-0.6-0.7c-1.8-1.9-5-1.6-5.1-1.6c-0.5,0-0.9,0.4-0.9,0.9
		c0,0.1-0.3,3.2,1.6,5.1c1,1,2.3,1.4,3.3,1.5v0.9c-2.4-2.2-6.3-1.8-6.5-1.8c-0.5,0-0.9,0.4-0.9,0.9c-0.1,0.2-0.4,4.4,2,6.8
		c1.6,1.6,3.9,2,5.4,2.1v2.7c-0.2-0.2-0.4-0.4-0.6-0.6c-3.2-3.2-8.8-2.7-9-2.7c-0.5,0-0.9,0.4-0.9,0.9c0,0.2-0.5,5.8,2.7,9
		c2.4,2.3,5.9,2.7,7.8,2.7v4c-0.3-0.5-0.7-1-1.2-1.5c-3.8-3.8-10.4-3.2-10.7-3.2c-0.5,0-0.9,0.4-0.9,0.9c0,0.3-0.6,7,3.2,10.8
		c3,3,7.6,3.3,9.7,3.3v6.1h-12.5c-0.6,0-1,0.4-1,1v5.2c0,0.6,0.4,1,1,1h2.4l2.7,15.2H220l2.1-11.6h1.6c0.5,0,1-0.5,1-1.1v-4.1
		c0-0.6-0.4-1-1-1h-4.9c0.4-1,0.8-2,1.1-3c1-3.1,1.7-6.1,2-8.5c0.4-3.1,0.1-4.6-1.1-5c-0.6-0.2-1.1,0.1-1.3,0.6l-4.3,13.4
		c0.1-2.1,0.2-4.4,0.1-6.8c-0.2-4.5-0.6-8.7-1.4-11.9c-0.9-3.9-2.1-5.6-3.6-5.6c-0.6,0-1,0.4-1,1l0.7,22.8
		c-1.3-3.9-3.9-10.3-6.3-9.6c-0.3,0.1-0.5,0.3-0.6,0.5c-0.1,0.3-0.2,0.5-0.1,0.8l3.4,11.3h-5.1c-0.6,0-1,0.4-1,1v4.2
		c0,0.6,0.4,1,1,1h1.6L205,172H37.8V56.7z M243.7,113.9c0.2,0,0.4-0.1,0.6-0.3c0.2,0.2,0.4,0.3,0.6,0.3c0.5,0.1,1-0.2,1.1-0.7
		c0.2-1,0.7-1.8,1.2-2.3c1.2-1.2,3.2-1.5,4.3-1.5c-0.1,1.2-0.3,3.1-1.5,4.3c-1.5,1.5-4.1,1.5-4.9,1.5c-0.2,0-0.5,0.1-0.7,0.3
		c-0.2-0.2-0.4-0.3-0.7-0.3c-0.8,0.1-3.5,0-5.1-1.5c-1.2-1.2-1.5-3.2-1.5-4.3c1.2,0.1,3.1,0.3,4.3,1.5c0.5,0.6,0.9,1.3,1.2,2.3
		C242.7,113.6,243.2,114,243.7,113.9z M240.8,105.5c-0.7-0.7-0.9-1.8-1-2.6c0.8,0,1.9,0.3,2.6,1c0.7,0.7,0.9,1.9,1,2.6
		C242.6,106.4,241.5,106.2,240.8,105.5z M245.4,106.5c0.1-0.7,0.3-1.9,1-2.6s1.8-0.9,2.6-1c0,0.8-0.3,1.9-1,2.6
		S246.2,106.4,245.4,106.5z M243.8,126.1c0.2,0,0.4-0.1,0.6-0.3c0.1,0.2,0.3,0.3,0.6,0.3c0.6,0.1,1-0.3,1.1-0.8c0.3-1.9,1-3.5,2-4.5
		c1.9-1.8,5-2.1,6.5-2.1c0,1.5-0.2,4.6-2.1,6.5c-2.4,2.4-6.8,2.1-7.3,2.1c-0.3,0-0.6,0.1-0.8,0.3c-0.2-0.2-0.4-0.3-0.7-0.3
		c-0.5,0-4.9,0.3-7.4-2.1c-1.8-1.9-2.1-5-2.1-6.5c1.5,0,4.6,0.2,6.5,2.1c1,1,1.7,2.5,2,4.5C242.8,125.8,243.3,126.1,243.8,126.1z
		 M243.7,141.1c0.3,0,0.5-0.1,0.7-0.3c0.2,0.2,0.4,0.3,0.7,0.3c0.5,0.1,1-0.4,1-0.9c0.1-2.1,0.7-5,2.6-6.9c2.5-2.5,6.5-2.7,8.3-2.7
		c0,1.8-0.3,5.9-2.7,8.3c-3.1,3.1-9,2.6-9.1,2.6c-0.3,0-0.6,0.1-0.8,0.3c-0.2-0.2-0.5-0.3-0.7-0.3c-0.1,0-6.1,0.5-9.2-2.6
		c-2.5-2.5-2.7-6.5-2.7-8.3c1.8,0,5.9,0.3,8.3,2.7c1.9,1.9,2.5,4.8,2.6,6.9C242.7,140.7,243.2,141.1,243.7,141.1z M257.6,151.6v3.2
		h-2h-22.1h-2.3v-3.2H257.6z M254.3,156.8l-2.8,15.2h-14.2l-2.7-15.2H254.3z M206.7,148.1c0.6,1.6,1.3,3.4,2,5.7
		c0,0.2,0.1,0.3,0.1,0.4h-0.3L206.7,148.1z M211.5,131.5c0.9,2.4,1.7,7,1.9,13.4c0,3.4-0.1,6.6-0.4,9.3h-0.9L211.5,131.5z
		 M216.6,154.2h-0.2l3.1-9.5c-0.4,1.6-0.9,3.6-1.6,5.8C217.5,151.8,217.1,153,216.6,154.2z M207.8,156.2h2.4h0.9h2.7h1.3h2.2h5.5
		v2.2h-1.5h-17.5h-1.5v-2.2H207.8z M220.1,160.4L218,172h-10.9l-2.1-11.6H220.1z M33.1,174h3.7h169.5h12.5h17.8h15.8h21.5h3.6v2.6
		H33.1V174z"/>
	<path class="st0" d="M528.7,60.8h-52.5c-0.6,0-1,0.4-1,1v52c0,0.6,0.4,1,1,1h5.2h15.4h4.5h3.3h24.1c0.6,0,1-0.4,1-1v-52
		C529.7,61.2,529.3,60.8,528.7,60.8z M482.4,112.8L482.4,112.8V92.3c0-2,1.7-3.7,3.7-3.7h2.1h1.8h2.1c2,0,3.7,1.7,3.7,3.7v20.5
		H482.4z M527.8,112.8h-18.5c1.1-1.2,1.8-2.7,1.8-4.5v-1.8c0-3.5-2.8-6.4-6.3-6.5v-2.1c0-0.6-0.4-1-1-1H502c-0.6,0-1,0.4-1,1v2.1
		c-0.8,0-1.6,0.2-2.4,0.6c-0.5,0.2-0.7,0.8-0.5,1.3s0.8,0.7,1.3,0.5c0.6-0.3,1.3-0.4,1.9-0.4h0.7h1.8h0.8c2.5,0,4.5,2,4.5,4.5v1.8
		c0,2.5-2,4.5-4.5,4.5h-3.3c-0.7,0-1.3-0.1-1.9-0.4c-0.5-0.2-1,0-1.2,0.4h-0.4V92.3c0-3.2-2.6-5.7-5.7-5.7H491v-3.3c0-0.6-0.4-1-1-1
		h-1.8c-0.6,0-1,0.4-1,1v3.3h-1.1c-3.2,0-5.7,2.6-5.7,5.7v20.5h-3.1v-50h50.5V112.8z"/>
	<path class="st0" d="M469.7,121h156c0.6,0,1-0.4,1-0.9V55.7c0-0.6-0.4-1-1-1h-156c-0.6,0-1,0.4-1,1V120
		C468.7,120.6,469.1,121,469.7,121z M470.7,56.7h154V119h-154V56.7z"/>
	<path class="st0" d="M619.2,60.8H537c-0.6,0-1,0.4-1,1v52c0,0.6,0.4,1,1,1h62.8h7.5h11.9c0.5,0,1-0.4,1-1v-52
		C620.2,61.2,619.8,60.8,619.2,60.8z M551.2,88.9h31.3c1.2,0,2.3,0.4,3.2,1h-34.3v-0.5C551.4,89.2,551.3,89.1,551.2,88.9z
		 M587.5,91.9c0.2,0.4,0.3,0.8,0.5,1.2h-36.5v-1.2H587.5z M551.4,95.1h36.7c-0.1,0.6-0.2,1.2-0.5,1.7h-36.2V95.1z M551.2,100.1
		c0.1-0.2,0.1-0.4,0.2-0.5v-0.8h34.7c-1,0.8-2.2,1.3-3.6,1.3h-28.4H551.2z M549.1,109.4c-0.2-0.4-0.3-0.9-0.4-1.4h36.7v1.4H549.1z
		 M549.2,104.9h36.2v1.1h-36.6C548.9,105.6,549,105.2,549.2,104.9z M585.5,102.2c-0.1,0.1-0.1,0.2-0.1,0.4v0.3h-34.2
		c0.9-0.5,1.9-0.8,3-0.8v0.1H585.5z M585.4,111.4v0.7c0,0.1,0,0.3,0.1,0.4h-31.3c-1.3,0-2.5-0.4-3.5-1.1H585.4z M600.5,112.8
		c-1.4-3.8-2.2-9.5-2.2-15.5c0-6.6,1-12.8,2.6-16.5c0.1-0.1,0.1-0.3,0.1-0.4v-10h5.1v10c0,0.1,0,0.3,0.1,0.4
		c1.6,3.7,2.6,9.9,2.6,16.5c0,6-0.8,11.7-2.2,15.5H600.5z M618.2,112.8h-9.5c1.4-4,2.1-9.5,2.1-15.5c0-6.7-1-13.1-2.7-17.1V69.4
		c0-0.6-0.4-1-1-1H600c-0.6,0-1,0.4-1,1v10.8c-1.7,4-2.7,10.3-2.7,17.1c0,6,0.8,11.5,2.1,15.5h-10.2l-0.9-1.1V103l1-1.2
		c0.3-0.3,0.4-0.7,0.2-1.1c-0.1-0.4-0.5-0.6-0.9-0.6h-0.1c1.6-1.4,2.6-3.5,2.6-5.8c0-4.2-3.4-7.6-7.6-7.6H549
		c-0.4,0-0.7,0.2-0.9,0.6c-0.2,0.4-0.2,0.8,0.1,1.1l1.1,1.3v9.4l-1.1,1.3c-0.2,0.3-0.3,0.7-0.1,1.1c0.2,0.4,0.4,0.5,0.8,0.6
		c-1.5,1.3-2.4,3.2-2.4,5.2c0,2.2,1,4.2,2.7,5.5H538v-50h80.2V112.8z"/>
	<path class="st0" d="M320,100.3h17.6c1.3,4,5,6.7,9.3,6.7s8-2.8,9.3-6.7h17.6c0.4,0,0.7-0.2,1.1-0.6c0.1-0.4,0.1-0.8-0.2-1.1
		l-19.1-21.7v-5.7c0-0.6-0.4-1-1-1h-4.7V34.6c0-0.6-0.4-1-1-1h-4c-0.6,0-1,0.4-1,1v35.6h-4.8c-0.6,0-1,0.4-1,1v6.1l-18.8,21.3
		c-0.3,0.3-0.4,0.7-0.2,1.1C319.2,100.1,319.6,100.3,320,100.3z M346.9,104.9c-3.1,0-5.9-1.8-7.1-4.6H354
		C352.8,103,350,104.9,346.9,104.9z M345.9,35.6h2v34.6h-2V35.6z M340.1,72.2h4.8h4h4.7v4.3h-13.5V72.2z M339.7,78.5h14.4l17.5,19.8
		h-16.2h-17h-16.2L339.7,78.5z"/>
	<path class="st0" d="M518.7,147.5c-0.6,0-1,0.4-1,1v34.1c0,0.6,0.4,1,1,1h28.2c0.6,0,1-0.5,1-1v-34.1c0-0.6-0.4-1-1-1H518.7z
		 M546,181.6h-26.2v-32.1H546V181.6z"/>
	<path class="st0" d="M521.7,180H544c0.6,0,1-0.4,1-1v-27c0-0.6-0.4-1-1-1h-22.3c-0.6,0-1,0.4-1,1v27
		C520.7,179.6,521.1,180,521.7,180z M522.7,153H543v25h-20.3V153z"/>
	<path class="st0" d="M540.2,155.7h-14.7c-0.6,0-1,0.4-1,1v17.7c0,0.6,0.4,1,1,1h14.7c0.5,0,1-0.4,1-1v-17.7
		C541.2,156.1,540.8,155.7,540.2,155.7z M526.5,173.4v-15.7h12.7v15.7H526.5z"/>
	<path class="st0" d="M553.8,130.5c-0.6,0-1,0.4-1,1v34c0,0.6,0.4,1,1,1H582c0.5,0,1-0.4,1-0.9v-34.1c0-0.6-0.4-1-1-1L553.8,130.5
		L553.8,130.5z M581,164.5h-26.2v-32H581V164.5z"/>
	<path class="st0" d="M556.7,163H579c0.6,0,1-0.5,1-1v-27c0-0.6-0.4-1-1-1h-22.3c-0.6,0-1,0.4-1,1v27
		C555.7,162.6,556.1,163,556.7,163z M557.7,136H578v25h-20.3V136z"/>
	<path class="st0" d="M575.2,138.7h-14.7c-0.6,0-1,0.4-1,1v17.7c0,0.6,0.4,1,1,1h14.7c0.6,0,1-0.4,1-1v-17.7
		C576.2,139.1,575.8,138.7,575.2,138.7z M561.6,156.4v-15.7h12.7v15.7H561.6z"/>
	<path class="st0" d="M221.3,311.3c3.6,0,6.4-2.6,6.8-6h11.3h5.5c0.6,0,1-0.4,0.9-1.1c0-3.6-3.1-6.6-6.8-6.2
		c-11.3,1.1-38.5,2.7-49.3-7c-2.9-2.7-4.4-6.1-4.4-10.1c0-14.9-1.8-29.4-5-39.9c-4-13.3-10.2-20.3-17.9-20.3c-0.6,0-1,0.4-1,1v70
		c0,6.5,4.6,11.9,10.6,13.3c0.3,3.6,3.4,6.3,7,6.3h0.9l-8.2,60.4c-0.1,0.3,0,0.6,0.2,0.8s0.5,0.3,0.8,0.3h4.2c0.5,0,0.9-0.3,1-0.8
		l2.4-14.1h39.9l2.4,14.1c0.1,0.4,0.5,0.8,1,0.8h4.2c0.3,0,0.6-0.1,0.8-0.3c0.2-0.2,0.2-0.5,0.2-0.8l-8.3-60.4L221.3,311.3
		L221.3,311.3z M163.5,291.7v-64.3c10.5,6.8,15.3,32.9,15.3,56.5c0,4.7,1.7,8.5,5.1,11.6c5.1,4.6,13.5,6.9,22.3,7.8H175
		C168.6,303.3,163.5,298.1,163.5,291.7z M231.7,303.3c1.1-0.1,2.1-0.2,2.9-0.3c0.7,0,1.4,0.1,2,0.3H231.7z M183.4,281
		c0,4.7,1.7,8.5,5.1,11.6c11.4,10.3,39.3,8.7,50.8,7.5c2.1-0.2,4,1.2,4.5,3.2h-3.9c-1.3-1.6-3.3-2.4-5.4-2.2
		c-11.2,1.1-38.5,2.7-49.3-7c-2.9-2.7-4.4-6.1-4.4-10.1c0-23.3-4.5-52.4-17.3-58.9v-2.3C177.2,224.2,183.4,253.6,183.4,281z
		 M174.1,305.3h0.8h0.1h51.2c-0.5,2.3-2.5,4-4.9,4h-2h-6.4h-25.5H181h-2C176.6,309.3,174.6,307.6,174.1,305.3z M212,311.3l7,40.1
		h-37.7l7-40.1H212z M226.7,370.8h-2.3l-2.4-14.1c-0.1-0.4-0.5-0.8-1-0.8h-41.5c-0.5,0-0.9,0.3-1,0.8l-2.4,14.1h-2.3l8.2-59.5h4.3
		l-7.1,40.9c-0.1,0.3,0,0.6,0.2,0.8c0.2,0.3,0.5,0.4,0.8,0.4h40.1c0.3,0,0.6-0.2,0.8-0.4c0.2-0.2,0.2-0.5,0.2-0.8l-7.1-40.9h4.3
		L226.7,370.8z"/>
	<path class="st0" d="M511.3,311.3c3.6,0,6.5-2.7,6.9-6.3c6-1.3,10.6-6.8,10.7-13.3v-66c0-0.2-0.1-0.4-0.2-0.5v-3.5c0-0.6-0.4-1-1-1
		c-7.7,0-13.9,7-17.9,20.3c-3.2,10.5-5,25-5,39.9c0,4-1.4,7.4-4.4,10.1c-10.8,9.8-38.1,8.1-49.3,7c-0.2,0-0.4,0-0.6,0
		c-3.4,0-6.2,2.9-6.2,6.3c0,0.6,0.4,1,1,1h5.6h11.2c0.5,3.4,3.5,6,6.9,6h0.9l-8.2,60.4c-0.1,0.3,0,0.6,0.2,0.8
		c0.2,0.2,0.5,0.3,0.8,0.3h4.2c0.5,0,0.9-0.3,1-0.8l2.4-14.1h39.9l2.4,14.1c0.1,0.4,0.5,0.8,1,0.8h4.2c0.3,0,0.5-0.1,0.8-0.3
		c0.2-0.2,0.2-0.5,0.2-0.8l-8.3-60.4L511.3,311.3L511.3,311.3z M526.7,291.7c0,6.4-5.2,11.6-11.5,11.6h-31.1
		c8.8-0.9,17.2-3.1,22.4-7.7c3.4-3.1,5.1-7,5.1-11.6c0-23.7,4.7-49.7,15.1-56.5L526.7,291.7L526.7,291.7z M450.5,300.1
		c0.1,0,0.3,0,0.4,0c11.5,1.2,39.4,2.8,50.8-7.5c3.4-3.1,5.1-7,5.1-11.6c0-27.4,6.3-56.8,19.9-58.2v2.4
		c-12.6,6.7-17.1,35.7-17.1,58.8c0,4-1.4,7.4-4.4,10.1c-10.8,9.8-38.1,8.1-49.3,7c-2.1-0.2-4.1,0.6-5.4,2.2h-4.1
		C446.9,301.4,448.6,300.1,450.5,300.1z M453.6,303.3c0.6-0.2,1.3-0.3,2-0.3c0.9,0.1,1.8,0.2,2.9,0.3H453.6z M464.1,305.3h51.2h0.9
		c-0.5,2.3-2.5,4-4.9,4h-2h-6.4h-25.5H471h-2C466.6,309.3,464.6,307.6,464.1,305.3z M502,311.3l7,40.1h-37.7l7-40.1H502z
		 M516.7,370.8h-2.3l-2.3-14.1c-0.1-0.4-0.5-0.8-1-0.8h-41.6c-0.5,0-0.9,0.3-1,0.8l-2.4,14.1h-2.3l8.2-59.5h4.3l-7.1,40.9
		c-0.1,0.3,0,0.6,0.2,0.8c0.2,0.3,0.5,0.4,0.8,0.4h40.1c0.3,0,0.6-0.2,0.8-0.4s0.2-0.5,0.2-0.8l-7.1-40.9h4.3L516.7,370.8z"/>
	<path class="st0" d="M461.8,267.5c0.5,0,1-0.4,1-1v-7.7v-7.7V251c0-0.6-0.4-1-1-1h-40.3c0.5-0.7,0.8-1.5,0.8-2.4c0-0.6-0.4-1-1-1
		h-1.5c2.1-0.3,4-1.5,5.1-3.4c0.7-1.2,1.1-2.6,1.1-3.9c-0.1-3.9-3.2-7-7-7.3l0.3-2.1h-19.7l1.4,11c-0.1,0.1-0.1,0.3-0.1,0.5l0.1,0.9
		c0.2,1.6,1,3.1,2,4.3h-5.2c-0.6,0-1,0.4-1,1c0,0.9,0.3,1.7,0.7,2.4h-17.7l-5.5-30.6c-0.1-0.5-0.5-0.8-1-0.8h-16.2
		c-0.5,0-0.9,0.3-1,0.8l-6,30.6h-12.7v-3.1c3.6-3.1,5.7-8.2,5.7-13.7c0-4.1-1.1-8-3.2-11c-1.9-2.7-2.6-6.2-2.1-9.7l0.7-4.7
		c0.1-0.3,0-0.6-0.2-0.8s-0.5-0.3-0.8-0.3h-2.6c1.1-8.5,3.3-14.8,6.5-18.4c0.3-0.4,0.3-0.9,0-1.3c-0.3-0.3-0.9-0.4-1.3-0.2
		c-0.1,0.1-2.4,1.4-4.7,4.7c1.9-8,4.6-14.1,8.1-18c0.3-0.4,0.3-0.9,0-1.3c-0.3-0.3-0.9-0.4-1.3-0.2c-0.5,0.3-10.1,6.1-12.8,22.1
		c-3.1-12.3-10.6-16.7-11-17c-0.5-0.3-1-0.2-1.3,0.2s-0.3,0.9,0,1.3c3.1,3.4,5.5,8.7,7.1,15.7c-2-2.7-3.9-3.8-4-3.9
		c-0.5-0.3-1-0.2-1.3,0.2s-0.3,0.9,0,1.3c2.7,2.9,4.6,8,5.7,14.8h-1.5c-0.3,0-0.6,0.1-0.8,0.3s-0.2,0.5-0.2,0.8l0.7,4.7
		c0.5,3.5-0.2,6.9-2.1,9.7c-2.1,3.1-3.2,7-3.2,11c0,5.5,2.1,10.6,5.6,13.6v3.2h-24.2c0.5-0.7,0.8-1.5,0.8-2.4c0-0.6-0.4-1-1-1h-1.6
		c2.1-0.3,4-1.5,5.1-3.4c0.7-1.2,1.1-2.6,1.1-3.9c0-3.8-3.1-7-6.9-7.3l0.3-2.1h-19.8l1.4,11.4v0.1l0.1,0.9c0,0.3,0.1,0.5,0.2,0.8
		c0.3,1.3,0.9,2.5,1.8,3.5h-5.1c-0.6,0-1,0.4-1,1c0,0.9,0.3,1.7,0.7,2.4h-43c-0.6,0-1,0.4-1,1v0.1v7.7v7.7c0,0.6,0.4,1,1,1h26.3
		l-14.4,104.2c-0.1,0.3,0,0.6,0.2,0.8c0.2,0.2,0.5,0.3,0.8,0.3h5.6c0.5,0,0.9-0.3,1-0.8l18.2-104.5h154.5L442.3,372
		c0.1,0.5,0.5,0.8,1,0.8h5.6c0.3,0,0.6-0.1,0.9-0.3c0.2-0.2,0.2-0.5,0.2-0.8l-14.4-104.2L461.8,267.5L461.8,267.5z M415.9,246.4
		c0.2,0.1,0.4,0.1,0.6,0.2h-0.8C415.8,246.5,415.8,246.5,415.9,246.4z M416.9,231.9l-0.3,2.1h1.9c2.9,0,5.4,2.4,5.5,5.3
		c0,0.9-0.3,2-0.9,2.9c-1,1.6-2.7,2.5-4.5,2.5c-1,0-1.8-0.2-2.5-0.6l-0.8-0.5l-0.5,0.8c-0.5,0.8-1.2,1.5-2.1,2H406
		c-1.6-0.9-2.7-2.6-3-4.5l-1.3-10.1h15.2L416.9,231.9L416.9,231.9z M405.8,248.6h7.1h7.1c-0.4,0.8-1.2,1.3-2.1,1.3h-16.8
		c-0.9,0-1.7-0.5-2.1-1.3H405.8z M293.3,246.4c0.2,0.1,0.4,0.1,0.6,0.2h-0.8C293.2,246.5,293.2,246.5,293.3,246.4z M294.3,231.9
		L294,234h1.9c2.9,0,5.4,2.4,5.4,5.3c0,0.9-0.3,2-0.9,2.9c-1,1.6-2.7,2.5-4.5,2.5c-1,0-1.8-0.2-2.5-0.6l-0.8-0.5l-0.5,0.8
		c-0.5,0.8-1.2,1.5-2.1,2h-6.6c-1.6-0.9-2.7-2.6-3-4.5l-0.1-0.4v-0.4l0,0l-1.2-9.3L294.3,231.9L294.3,231.9z M283.2,248.6h7.1h7.1
		c-0.4,0.8-1.2,1.3-2.1,1.3h-16.8c-0.9,0-1.7-0.5-2.1-1.3H283.2z M360.4,250h-8.3l4.8-24.4L360.4,250z M233,252.1h227.8v5.7H233
		V252.1z M377.8,250h-15.3l-4.2-29.4h14.1L377.8,250z M336.2,181.1c0.3-0.4,0.5-0.8,0.8-1.2c-2.3,5-4,11.3-5.1,18.8
		c0,0.5,0.3,1,0.8,1.1s1-0.2,1.2-0.7c0.3-1,0.6-1.9,1-2.7c-0.9,2.9-1.6,6.3-2.1,10.2h-2C329.9,194,333.3,185.8,336.2,181.1z
		 M323.6,185.3c2.7,4.4,5.3,11.3,5,21.3h-2c-0.3-1.9-0.6-3.6-1.1-5.3c0,0,0.1,0.1,0.1,0.2c0.2,0.5,0.7,0.8,1.2,0.7s0.9-0.6,0.8-1.1
		C326.7,194.8,325.4,189.6,323.6,185.3z M319.4,233.2c0-3.6,1-7.1,2.8-9.8c2.2-3.1,3.1-7.1,2.5-11.1l-0.5-3.6h12.1l-0.5,3.6
		c-0.5,4,0.3,7.9,2.5,11.1c1.8,2.7,2.8,6.2,2.8,9.8c0,4.9-2,9.6-5.1,12.3h-11.5C321.4,242.9,319.4,238.2,319.4,233.2z M325.1,247.6
		h10.3v2.4h-10.3V247.6z M233,259.8h227.8v5.7h-26.5H425H233V259.8z M249.7,370.8h-3.6l14.4-103.3h7.2L249.7,370.8z M447.7,370.8
		h-3.6l-18-103.3h7.2L447.7,370.8z"/>
	<path class="st0" d="M625.8,363.8H523.7c-0.6,0-1,0.4-1,1s0.4,1,1,1h102.1c0.5,0,1-0.4,1-1S626.4,363.8,625.8,363.8z"/>
	<path class="st0" d="M505.9,363.8h-32.1c-0.6,0-1,0.4-1,1s0.4,1,1,1h32.1c0.6,0,1-0.4,1-1S506.5,363.8,505.9,363.8z"/>
	<path class="st0" d="M458.7,363.8h-6.9c-0.6,0-1,0.4-1,1s0.4,1,1,1h6.9c0.6,0,1-0.4,1-1S459.3,363.8,458.7,363.8z"/>
	<path class="st0" d="M435.9,363.8H258.3c-0.6,0-1,0.4-1,1s0.4,1,1,1h177.6c0.5,0,1-0.4,1-1S436.5,363.8,435.9,363.8z"/>
	<path class="st0" d="M241.8,363.8H232c-0.6,0-1,0.4-1,1s0.4,1,1,1h9.8c0.5,0,1-0.4,1-1S242.4,363.8,241.8,363.8z"/>
	<path class="st0" d="M216.4,363.8h-33.6c-0.6,0-1,0.4-1,1s0.4,1,1,1h33.6c0.6,0,1-0.4,1-1S217,363.8,216.4,363.8z"/>
	<path class="st0" d="M166.7,363.8H31.8c-0.6,0-1,0.4-1,1s0.4,1,1,1h134.8c0.6,0,1.1-0.4,1.1-1C167.7,364.2,167.3,363.8,166.7,363.8
		z"/>
	<path class="st0" d="M416.6,243.3c0.5,0.2,1.3,0.5,2.1,0.5c1.9,0,3.5-1.1,4.1-2.9c0.1-0.4,0.2-0.9,0.2-1.4c0-2.5-1.9-4.4-4.4-4.4
		c-0.3,0-0.7,0-1.1,0.2l-0.6,0.2l-0.8,5.9v0.3c0,0.1,0,0.2,0,0.3l-0.5,1L416.6,243.3z M418.1,241.7l0.6-4.6c1.3,0,2.3,1.1,2.3,2.4
		c0,0.3-0.1,0.6-0.1,0.9C420.5,241.4,419.3,242,418.1,241.7L418.1,241.7z"/>
	<path class="st0" d="M294.3,243c0.4,0.2,1.1,0.5,1.9,0.5c1.8,0,3.3-1.1,3.9-2.9v-0.2c0.1-0.3,0.2-0.7,0.2-1.2
		c0-2.3-1.8-4.1-4.1-4.1c-0.4,0-0.8,0-1.2,0.2l-0.5,0.2l-0.7,5.4v0.3c0,0.1,0,0.2,0,0.3l-0.4,0.9L294.3,243z M295.8,241.4l0.5-4.2
		c1.1,0.1,2,1,2,2.1c0,0.2,0,0.4-0.1,0.7v0.2c-0.3,0.8-1,1.4-1.9,1.4C296.1,241.5,295.9,241.5,295.8,241.4L295.8,241.4z"/>
	<path class="st0" d="M361.4,239.5c0.1,0.5,0.5,0.9,1,0.9h11.9c0.3,0,0.6-0.2,0.8-0.4c0.2-0.2,0.2-0.5,0.2-0.8l-2.8-16.3
		c-0.1-0.4-0.5-0.8-1-0.8H360c-0.3,0-0.6,0.1-0.8,0.3c-0.2,0.2-0.2,0.5-0.2,0.8L361.4,239.5z M370.8,224.1l2.4,14.3h-9.9l-2-14.3
		H370.8z"/>
</g>
</svg>
