<?xml version="1.0" encoding="utf-8"?>
<!-- Generator: Adobe Illustrator 24.0.1, SVG Export Plug-In . SVG Version: 6.00 Build 0)  -->
<svg version="1.1" id="Layer_1" xmlns="http://www.w3.org/2000/svg" xmlns:xlink="http://www.w3.org/1999/xlink" x="0px" y="0px"
	 viewBox="0 0 590.6 345" style="enable-background:new 0 0 590.6 345;" xml:space="preserve">
<style type="text/css">
	.st0{opacity:0.2;fill:#C4C4C4;enable-background:new    ;}
</style>
<g>
	<path class="st0" d="M553.6,246h-63v-1.5c0-0.5-0.3-1-0.7-1.1c-9-4-7.5-25.6-7-30.7h18.2c0.6,0,1.2-0.6,1.2-1.2v-29
		c0-0.6-0.6-1.2-1.2-1.2h-45.8c-0.6,0-1.2,0.6-1.2,1.2v29c0,0.6,0.6,1.2,1.2,1.2h11.8V225c0,0.6,0.6,1.2,1.2,1.2s1.2-0.5,1.2-1.2
		v-12.3h4.2c0.5,5.1,1.9,26.7-7.1,30.7c-0.5,0.2-0.7,0.6-0.7,1.1v1.5H445c-0.6,0-1.2,0.6-1.2,1.2v16.4c-1.1-4.3-1.8-7.4-2.2-8.5
		c-1.8-6.2-7.3-7.3-9.7-7.4V205c0-0.6-0.6-1.2-1.2-1.2H162.2c-0.6,0-1.2,0.6-1.2,1.2v42.8c-9.3,0.6-10.6,8-10.8,8.9l-1.5,7v-16.5
		c0-0.6-0.6-1.2-1.2-1.2h-22.3v-1.5c0-0.5-0.3-1-0.7-1.1c-9-4-7.5-25.6-7-30.7h4V225c0,0.6,0.6,1.2,1.2,1.2c0.7,0,1.2-0.5,1.2-1.2
		v-12.3h11.7c0.6,0,1.2-0.6,1.1-1.2v-29c0-0.6-0.6-1.2-1.2-1.2H89.7c-0.6,0-1.2,0.6-1.2,1.2v29c0,0.6,0.6,1.2,1.2,1.2H108
		c0.5,5.1,1.9,26.7-7.1,30.7c-0.5,0.2-0.7,0.6-0.7,1.1v1.5H78.3l-1.8-41.9c0-0.6-0.6-1.1-1.2-1.1h-3.5l7.1-34.1c2.7,1,5.1,1.4,7,1.4
		c1.7,0,2.7-0.2,2.7-0.2c0.4-0.1,0.8-0.5,0.9-0.9s2.1-8.9-6.1-17.3c-0.2-0.2-0.2-0.2-0.3-0.3c-1.6-1.6-3.8-2.5-6-2.5s-4.4,0.9-6,2.5
		c-1.5,1.4-2.3,3.4-2.5,5.4c-1.1-0.2-2.3-0.2-3.4,0.1c-0.2-2-1-3.9-2.5-5.4c-1.6-1.6-3.8-2.5-6-2.5s-4.4,0.9-6,2.5
		c-0.1,0.2-0.2,0.2-0.2,0.3c-8.2,8.4-6.2,17-6.1,17.3c0.1,0.4,0.5,0.8,0.9,0.9c0.2,0,1.1,0.2,2.8,0.2c1.9,0,4.5-0.3,7.3-1.5
		l7.1,34.1h-3.4c-0.6,0-1.2,0.5-1.2,1.1l-2,41.9H38.7c-0.6,0-1.2,0.6-1.2,1.2v64.2c0,0.6,0.6,1.2,1.2,1.2h6c0.6,0,1.2-0.6,1.2-1.2
		v-12h94.4v12c0,0.6,0.6,1.2,1.2,1.2h6c0.6,0,1.2-0.5,1.3-1.2v-9.3c1.1,0.2,2.1,0.2,3,0c1.9-0.4,2.4-1.3,2.7-2.2
		c0.2-0.4,0.2-0.6,0.8-1c0.1,0,0.1-0.1,0.2-0.1c0.1-0.1,0.5-0.2,1.5-0.2c0.8,0,1.5,0.2,1.7,0.2h0.1c0.7,0.1,1.4,0.2,2.2,0.2v5.5
		c0,0.6,0.6,1.2,1.2,1.2h5.9l1.8,11.8c0.1,0.6,0.6,1,1.2,1h12c0.6,0,1.1-0.4,1-1l1.9-11.8h220.5l1.8,11.8c0.1,0.6,0.6,1,1.2,1h12
		c0.6,0,1.1-0.4,1-1l1.9-11.8h6.2c0.7,0,1.2-0.6,1.2-1.2V303c1,0.1,2.1,0.2,3.1,0.2c3.4,0,5.6-0.6,7-1.9c0.2-0.2,0.4-0.6,0.4-0.9
		s-0.2-0.6-0.4-0.9c-0.2-0.2-0.3-0.4-0.4-0.5c0.2-0.2,0.7-0.4,2-0.7v13.2c0,0.6,0.6,1.2,1.2,1.2h6c0.6,0,1.2-0.6,1.2-1.2v-12h94.4
		v12c0,0.6,0.6,1.2,1.2,1.2h6c0.6,0,1.2-0.5,1.3-1.2v-64.2C554.8,246.6,554.3,246,553.6,246z M456.4,183.7h43.4v26.6h-17.7
		c-0.2-0.1-0.2-0.1-0.4-0.1h-7.1c-0.2,0-0.2,0-0.4,0.1h-5.6c-0.2-0.1-0.2-0.1-0.4-0.1s-0.2,0-0.4,0.1h-11.4V183.7L456.4,183.7z
		 M90.9,183.7h43.4v26.6h-11.4c-0.2-0.1-0.2-0.1-0.4-0.1c-0.2,0-0.2,0-0.4,0.1h-5.5c-0.2-0.1-0.2-0.1-0.4-0.1H109
		c-0.2,0-0.2,0-0.4,0.1H90.9V183.7z M467.9,245.3c9.7-5.4,8.4-27,7.8-32.6h4.6c-0.6,5.8-1.8,27.3,7.8,32.6v0.7h-20.2L467.9,245.3
		L467.9,245.3z M546.3,274.2h-94.4v-19.4h94.4V274.2z M429.4,206.2v41.5h-20.6v-15c0-4.9-4-8.9-8.9-8.9h-77.1c-4.9,0-8.9,4-8.9,8.9
		v15h-35.4v-15c0-4.9-4-8.9-8.9-8.9h-77.1c-4.9,0-8.9,4-8.9,8.9v15h-20.2v-41.5H429.4L429.4,206.2z M276.1,247.7H186v-15
		c0-3.6,2.9-6.5,6.5-6.5h77.1c3.6,0,6.5,2.9,6.5,6.5V247.7z M406.3,247.7h-90.1v-15c0-3.6,2.9-6.5,6.5-6.5h77.1
		c3.6,0,6.5,2.9,6.5,6.5V247.7z M102.5,245.3c9.7-5.4,8.4-27,7.8-32.6h4.6c-0.6,5.8-1.8,27.3,7.8,32.6v0.7h-20.2
		C102.5,246,102.5,245.3,102.5,245.3z M69.2,203h-1v-21.3c1.8-1.4,6.6-5.8,7.1-14.6c0.4,0.2,0.8,0.5,1.2,0.6L69.2,203z M77.1,151.5
		c1.6,0,3.2,0.6,4.3,1.8c0.1,0.1,0.2,0.2,0.2,0.2c5.9,6.1,5.8,12.2,5.6,14.2c-0.4,0.1-0.9,0.1-1.4,0.1c-1.8,0-4.3-0.3-7.1-1.7
		c-0.2-0.1-0.3-0.2-0.5-0.2l0,0c-0.9-0.5-1.8-1-2.7-1.7c-0.3-2.2-1.5-4.2-3.2-5.6l-0.1-0.1c-0.2-0.2-0.4-0.3-0.6-0.4
		c-0.2-0.2-0.4-0.2-0.6-0.3c-0.1-1.7,0.6-3.4,1.8-4.6C73.9,152.2,75.5,151.5,77.1,151.5z M67.1,159.3c0.7,0,1.4,0.1,2.1,0.3
		c0.1,0,0.1,0.1,0.2,0.1c2.2,0.9,3.6,3,3.8,5.3c0,0.1,0,0.2,0.1,0.3v0.1c0,0.2,0,0.2,0,0.4c-0.1,8.6-4.4,12.8-6.1,14.1
		c-1.6-1.3-6-5.6-6.1-14.1c0-0.1,0-0.2,0-0.3c0-0.2,0-0.3,0-0.4c0.2-2.2,1.5-4.2,3.6-5.2C65.3,159.4,66.2,159.3,67.1,159.3z
		 M46.6,167.9c-0.2-2.1-0.3-8.1,5.7-14.2c0.1-0.1,0.2-0.2,0.2-0.2c1.1-1.1,2.7-1.8,4.3-1.8s3.2,0.6,4.3,1.8c1.2,1.2,1.8,2.8,1.8,4.5
		c-2.1,1.1-3.5,3-4.1,5.3c0,0.1,0,0.1-0.1,0.2c-0.1,0.3-0.2,0.6-0.2,1c-4.1,3.1-8,3.8-10.6,3.8C47.5,168,47,168,46.6,167.9z
		 M57.5,167.8c0.3-0.2,0.7-0.4,1-0.6c0.6,9.1,5.6,13.6,7.3,14.9v21h-1L57.5,167.8z M60.1,205.4h3.8h0.2h5.8h0.2H74l1.8,40.6H58.2
		L60.1,205.4z M43.5,310.2h-3.6v-61.8h16.6c0.2,0.1,0.2,0.1,0.4,0.1h20.2c0.2,0,0.3,0,0.4-0.1h23.4c0.2,0.1,0.2,0.1,0.4,0.1h22.6
		c0.2,0,0.2,0,0.4-0.1h21.9v26.4l-2.6,11.8l-1,5v-16.2v-21.8c0-0.6-0.6-1.2-1.2-1.2H44.7c-0.6,0-1.2,0.6-1.2,1.2v21.8v22.8
		C43.5,298.2,43.5,310.2,43.5,310.2z M140.3,274.2H45.9v-19.4h94.4V274.2z M45.9,297v-20.4h94.4V297H45.9z M146.3,310.2h-3.6v-9.8
		c1.3,0.6,2.5,1,3.6,1.3V310.2z M159.1,258.2h273.8c0.1,0,0.2,0,0.2,0.1s0.1,0.1,0.1,0.2v29.4c0,0.2-0.1,0.2-0.2,0.2h-2.4H162.2h-3
		c-0.2,0-0.2-0.1-0.2-0.2v-29.4C158.9,258.2,159,258.2,159.1,258.2z M182.1,316.2h-9.9l-1.6-10.4h13.2L182.1,316.2z M420.4,316.2
		h-9.9l-1.6-10.4h13.2L420.4,316.2z M423.5,303.4h-16H185.1h-16h-5.7V298v-7.6h266v13H423.5z M439.1,298.4c-0.2,0.6-0.1,1.1,0.2,1.7
		c-1,0.5-2.6,0.7-4.5,0.7c-1,0-2.2-0.1-3.1-0.2v-10.2h1.3c1.4,0,2.6-1.2,2.6-2.6l0,0v-29.4l0,0c0-1.4-1.2-2.6-2.6-2.6H159.1
		c-1.4,0-2.6,1.2-2.6,2.6l0,0v29.4l0,0c0,1.4,1.2,2.6,2.6,2.6h1.8v6.2c-0.7-0.2-1.4-0.2-2-0.2c-0.4-0.1-1.2-0.2-2.1-0.2
		c-1.4,0-2.3,0.2-3,0.7c-1.3,0.7-1.5,1.6-1.8,2.2c-0.2,0.3-0.2,0.4-0.9,0.6c-0.9,0.2-2.2,0.1-3.4-0.2h-0.1c-1.3-0.2-2.6-0.7-4.1-1.4
		l5-23c0-0.1,0-0.2,0-0.2l0,0l3.8-17.8V257c0-0.2,0.9-6.9,9.7-6.9h22.6h92.5h37.8h92.5h23h0.1c0.1,0,0.2,0,0.5,0
		c1.9,0,6.6,0.6,8,5.7c0.5,1.8,2.1,8.2,4.4,17.4c1.8,7.4,3.9,15.5,5.4,21.4c-0.6,0.2-1.2,0.3-1.8,0.4c-0.9,0.2-1.8,0.3-2.6,0.5
		c-0.1,0-0.2,0.1-0.2,0.2C441.4,296.2,439.5,296.9,439.1,298.4z M449.5,310.2h-3.6v-12.6c0.5-0.1,1-0.2,1.5-0.3
		c0.7-0.2,1.4-0.3,2.1-0.4v1.3V310.2z M451.9,297v-20.4h94.4V297H451.9z M552.3,310.2h-3.6v-12v-22.8v-21.8c0-0.6-0.6-1.2-1.2-1.2
		h-96.8c-0.6,0-1.2,0.6-1.2,1.2v21.8V287c-0.5-2-1-4-1.5-6.1c-0.7-2.8-1.4-5.6-2.1-8.3v-24.2h20.6c0.2,0.1,0.2,0.1,0.4,0.1h22.6
		c0.2,0,0.2,0,0.4-0.1h62.5v61.8H552.3z"/>
	<path class="st0" d="M487.4,263.8h23.5c0.6,0,1.2-0.5,1.2-1.2v-3.5c0-0.6-0.6-1.2-1.2-1.2h-23.5c-0.6,0-1.2,0.6-1.2,1.2v3.5
		C486.2,263.3,486.7,263.8,487.4,263.8z M488.6,260.3h21.1v1.1h-21.1V260.3z"/>
	<path class="st0" d="M510.9,281h-23.5c-0.6,0-1.2,0.6-1.2,1.2v3.5c0,0.6,0.6,1.2,1.2,1.2h23.5c0.6,0,1.2-0.6,1.2-1.2v-3.5
		C512.1,281.6,511.5,281,510.9,281z M509.7,284.6h-21.1v-1.1h21.1V284.6z"/>
	<path class="st0" d="M517.3,240.9H531c1.7,0,3-1.3,3-3v-2.7c2.5-0.6,4.3-2.7,4.3-5.4c0-2.6-1.8-4.8-4.3-5.4v-0.6
		c0-0.6-0.6-1.2-1.2-1.2h-17.2c-0.6,0-1.2,0.6-1.2,1.2v14C514.3,239.5,515.7,240.9,517.3,240.9z M516.8,225.1h14.8v0.4
		c0,0.6,0.6,1.2,1.2,1.2c1.8,0,3.1,1.4,3.1,3.1c0,1.8-1.4,3.1-3.1,3.1c-0.6,0-1.2,0.6-1.2,1.2v3.8c0,0.3-0.2,0.6-0.6,0.6h-13.7
		c-0.3,0-0.6-0.2-0.6-0.6L516.8,225.1L516.8,225.1z"/>
	<path class="st0" d="M507.9,244.5h33.7c0.7,0,1.2-0.6,1.2-1.2c0-0.6-0.6-1.2-1.2-1.2h-33.7c-0.6,0-1.2,0.6-1.2,1.2
		C506.7,243.9,507.3,244.5,507.9,244.5z"/>
	<path class="st0" d="M525.3,219.2c0.2,0.4,0.6,0.6,1,0.6c0.2,0,0.4-0.1,0.6-0.2c0.6-0.3,0.8-1,0.5-1.6c-3.7-6.4-1.5-10.2,0.8-14.1
		c2.2-3.8,4.7-8.2,0.6-14.4c-0.4-0.6-1.1-0.7-1.7-0.3c-0.6,0.4-0.7,1.1-0.3,1.7c3.4,5,1.6,8-0.6,11.8
		C523.7,206.9,520.9,211.5,525.3,219.2z"/>
	<path class="st0" d="M520.9,217.9c0.2,0.5,0.6,0.7,1.1,0.7c0.2,0,0.3,0,0.4,0c0.6-0.3,0.9-1,0.6-1.6c-2-4.6-1-7.6,0-10.7
		c1.1-3.3,2.2-6.6-0.4-11.3c-0.3-0.6-1-0.8-1.6-0.5s-0.8,1-0.5,1.6c2.1,3.8,1.3,6.2,0.2,9.4C519.8,208.7,518.6,212.5,520.9,217.9z"
		/>
	<path class="st0" d="M81.3,263.8h23.5c0.6,0,1.2-0.5,1.2-1.2v-3.5c0-0.6-0.6-1.2-1.2-1.2H81.3c-0.6,0-1.2,0.6-1.2,1.2v3.5
		C80.1,263.3,80.7,263.8,81.3,263.8z M82.5,260.3h21.1v1.1H82.5V260.3z"/>
	<path class="st0" d="M104.8,281H81.3c-0.6,0-1.2,0.6-1.2,1.2v3.5c0,0.6,0.6,1.2,1.2,1.2h23.5c0.6,0,1.2-0.6,1.2-1.2v-3.5
		C106,281.6,105.5,281,104.8,281z M103.6,284.6H82.5v-1.1h21.1V284.6z"/>
	<path class="st0" d="M67.1,170.2c0.6,0,1.2-0.6,1.2-1.2v-5.9c0-0.6-0.6-1.2-1.2-1.2s-1.2,0.6-1.2,1.2v5.9
		C65.9,169.7,66.4,170.2,67.1,170.2z"/>
	<path class="st0" d="M78.7,161c0.2,0.2,0.6,0.3,0.9,0.3s0.6-0.1,0.8-0.3c0.5-0.5,0.5-1.2,0-1.7l-4.2-4.2c-0.5-0.5-1.2-0.5-1.7,0
		s-0.5,1.2,0,1.7L78.7,161z"/>
	<path class="st0" d="M59.2,157c0.5-0.5,0.5-1.2,0-1.7s-1.2-0.5-1.7,0l-4.2,4.2c-0.5,0.5-0.5,1.2,0,1.7c0.2,0.2,0.6,0.3,0.9,0.3
		c0.3,0,0.6-0.1,0.8-0.3L59.2,157z"/>
	<path class="st0" d="M62.7,207.3c-0.7-0.1-1.3,0.5-1.3,1.1L60,242.6c0,0.7,0.5,1.3,1.2,1.3c0.6,0,1.2-0.5,1.2-1.1l1.4-34.2
		C63.9,207.8,63.4,207.3,62.7,207.3z"/>
	<path class="st0" d="M208.1,149.1h171.4c0.6,0,1.2-0.6,1.2-1.2V54.8c0-0.6-0.6-1.2-1.2-1.2H208.1c-0.6,0-1.2,0.6-1.2,1.2v93.1
		C206.9,148.6,207.5,149.1,208.1,149.1z M209.3,56h169v90.7h-169L209.3,56L209.3,56z"/>
	<path class="st0" d="M370.8,101V64.6c0-0.6-0.6-1.2-1.2-1.2H218c-0.6,0-1.2,0.6-1.2,1.2v54.8c0,0.1-0.1,0.1-0.1,0.2
		c-0.2,0.3-0.1,0.6,0.1,1V138c0,0.6,0.6,1.2,1.2,1.2h151.6c0.7,0,1.2-0.6,1.2-1.2v-36.2C370.9,101.5,370.9,101.3,370.8,101z
		 M368.4,119.9l-5,2.9l-2.6-3c-0.2-0.4-0.7-0.6-1.2-0.4l-9.8,2.7l-1.7-2.2c-0.3-0.5-1-0.6-1.6-0.2l-2.6,1.8l-3.7-1.8
		c-0.3-0.2-0.7-0.2-1,0l-3.6,1.6l-5-2.9c-0.5-0.2-1-0.2-1.4,0.1l-5.8,4.5l-3.3-3c-0.3-0.3-0.8-0.4-1.3-0.2l-7.5,3.4l-3.4-3.2
		c-0.3-0.3-0.9-0.4-1.3-0.2c-2.3,1-5.1,2-5.7,2.1c-0.7-0.2-3.4-1.4-5.7-2.4c-0.4-0.2-1-0.1-1.3,0.2l-4.8,3.8l-4.7-1.7
		c-0.2-0.1-0.6-0.1-0.8,0l-4.8,1.6l-3.2-3.9c-0.4-0.4-1-0.6-1.4-0.3l-6.2,2.7l-2.7-1.1c-0.2-0.1-0.5-0.2-0.7-0.1l-6.7,1.3l-6-3.8
		c-0.4-0.3-1-0.2-1.4,0.2l-3.7,3.5l-4.3-1.8c-0.2-0.1-0.3-0.1-0.5-0.1h-7.7l-1.4-0.6c-0.3-0.2-0.6-0.2-1-0.1l-3.4,1.4l-1.8-1.3
		c-0.3-0.2-0.7-0.2-1.1-0.1l-3.6,1.4l-2.8-1v-4l39.8-10.6l6.1,4.5c0.3,0.2,0.7,0.3,1.1,0.2l33.3-11.5l9,5.8c0.4,0.2,0.9,0.2,1.3,0
		l32.4-20.8l7,4c0.3,0.2,0.6,0.2,1,0.1l6.6-2.2l11.8,17L368.4,119.9L368.4,119.9z M266.1,106.8l-6.1-4.6c-0.3-0.2-0.7-0.2-1-0.2
		l-39.8,10.6V94.1l30.6-9.4l21,9.6c0.3,0.2,0.6,0.2,0.9,0.1l10.6-3.4l10.2,6.8L266.1,106.8z M219.2,121.8l2.4,1
		c0.3,0.1,0.6,0.1,0.9,0l3.4-1.4l1.8,1.3c0.3,0.2,0.7,0.2,1.1,0.1l3.5-1.4l1.1,0.6c0.2,0.1,0.4,0.2,0.6,0.2h7.8l4.9,2
		c0.4,0.2,1,0.1,1.3-0.2l3.6-3.4l5.6,3.6c0.2,0.2,0.6,0.2,0.9,0.2l6.9-1.3l2.9,1.2c0.3,0.2,0.6,0.2,1,0l5.8-2.6l3.1,3.8
		c0.2,0.2,0.6,0.4,1,0.4c0.2,0,0.2-0.1,0.5-0.2l5.2-1.8l5,1.8c0.4,0.2,0.8,0.1,1.1-0.2l4.7-3.7c3.4,1.5,5.4,2.3,6,2.3
		c0.7,0,3.4-1,5.8-1.9l3.4,3.2c0.3,0.3,0.8,0.4,1.3,0.2l7.5-3.4l3.4,3.2c0.4,0.4,1,0.4,1.5,0.1l6-4.6l4.8,2.8
		c0.3,0.2,0.8,0.2,1.1,0.1l3.6-1.6l3.8,1.8c0.4,0.2,0.9,0.2,1.2-0.1l2.2-1.5l1.5,2c0.3,0.3,0.8,0.6,1.3,0.4l9.8-2.7l2.7,3.1
		c0.4,0.4,1,0.6,1.5,0.2l4.6-2.6v8H219.2V121.8z M368.4,65.8v31.7l-10.3-14.9c-0.3-0.5-0.9-0.6-1.4-0.5l-7,2.2l-7.1-4.2
		c-0.4-0.2-0.9-0.2-1.3,0L309.1,101l-8.7-5.6c-0.3-0.2-0.7-0.2-1-0.2l-4.1,1.4l-12.1-8.1c-0.3-0.2-0.7-0.2-1-0.2l-10.7,3.4l-21-9.6
		c-0.3-0.2-0.6-0.2-0.9-0.1l-30.3,9.3V65.8H368.4z M219.2,136.8v-3.6h149.2v3.6H219.2z"/>
	<path class="st0" d="M350.5,93l-5.4,6.6l-8.6-6.8c-0.5-0.4-1.3-0.3-1.7,0.2c-0.4,0.5-0.3,1.3,0.2,1.7l9.6,7.5
		c0.2,0.2,0.5,0.2,0.7,0.2c0.3,0,0.6-0.2,0.9-0.5l5.6-6.8l11,5.6c0.6,0.2,1.3,0,1.6-0.6c0.2-0.6,0-1.3-0.6-1.6l-11.8-6
		C351.5,92.5,350.8,92.6,350.5,93z"/>
	<path class="st0" d="M282.1,78.2h20.2c-0.1,0.5-0.2,1-0.2,1.5c0,0.1,0,0.2,0,0.2h-5.9c-0.6,0-1.2,0.6-1.2,1.2s0.6,1.2,1.2,1.2h6.4
		c1.1,3.2,4.2,5.5,7.7,5.5c4.6,0,8.2-3.8,8.2-8.2c0-4.5-3.7-8.2-8.2-8.2c-3,0-5.8,1.8-7.1,4.3h-21.1c-0.6,0-1.2,0.6-1.2,1.2
		S281.5,78.2,282.1,78.2z M310.3,73.9c3.2,0,5.8,2.6,5.8,5.8c0,3.2-2.6,5.8-5.8,5.8c-2.2,0-4.1-1.2-5.1-3h1.8c0.6,0,1.2-0.6,1.2-1.2
		s-0.6-1.2-1.2-1.2h-2.4c0-0.1,0-0.2,0-0.3c0-0.5,0.1-1,0.2-1.4h3.4c0.6,0,1.2-0.6,1.2-1.2s-0.6-1.2-1.2-1.2h-2.1
		C307.1,74.6,308.7,73.9,310.3,73.9z"/>
	<path class="st0" d="M328.7,74.4c0,0.6,0.6,1.2,1.2,1.2h22.4c0.6,0,1.2-0.6,1.2-1.2s-0.6-1.2-1.2-1.2h-22.4
		C329.2,73.2,328.7,73.8,328.7,74.4z"/>
	<path class="st0" d="M323.5,71.4h14.8c0.6,0,1.2-0.6,1.2-1.2s-0.6-1.2-1.2-1.2h-14.8c-0.6,0-1.2,0.6-1.2,1.2S322.8,71.4,323.5,71.4
		z"/>
	<path class="st0" d="M233.3,71.4h31.4c0.6,0,1.2-0.6,1.2-1.2s-0.6-1.2-1.2-1.2h-31.4c-0.6,0-1.2,0.6-1.2,1.2
		C232.1,70.8,232.7,71.4,233.3,71.4z"/>
	<path class="st0" d="M169.2,196.7c0.6,0,1.2-0.5,1.2-1.1V34.8c0-0.6-0.6-1.2-1.2-1.2c-0.6,0-1.2,0.6-1.2,1.2v160.7
		C168,196.2,168.6,196.7,169.2,196.7z"/>
	<path class="st0" d="M422.7,196.7c0.6,0,1.2-0.5,1.2-1.1V34.8c0-0.6-0.6-1.2-1.2-1.2s-1.2,0.6-1.2,1.2v160.7
		C421.5,196.2,422,196.7,422.7,196.7z"/>
	<path class="st0" d="M30.3,303.4h-7.2c-0.6,0-1.2,0.6-1.2,1.2s0.6,1.2,1.2,1.2h7.2c0.6,0,1.2-0.6,1.2-1.2S30.9,303.4,30.3,303.4z"
		/>
	<path class="st0" d="M132.3,303.4h-80c-0.6,0-1.2,0.6-1.2,1.2s0.6,1.2,1.2,1.2h80c0.6,0,1.2-0.6,1.2-1.2S132.9,303.4,132.3,303.4z"
		/>
	<path class="st0" d="M537.3,303.4h-77c-0.6,0-1.2,0.6-1.2,1.2s0.6,1.2,1.2,1.2h77c0.6,0,1.2-0.6,1.2-1.2S537.9,303.4,537.3,303.4z"
		/>
	<path class="st0" d="M567.5,303.4h-6.2c-0.6,0-1.2,0.6-1.2,1.2s0.6,1.2,1.2,1.2h6.2c0.6,0,1.2-0.6,1.2-1.2S568.2,303.4,567.5,303.4
		z"/>
</g>
</svg>
