<?xml version="1.0" encoding="utf-8"?>
<!-- Generator: Adobe Illustrator 24.0.1, SVG Export Plug-In . SVG Version: 6.00 Build 0)  -->
<svg version="1.1" id="Layer_1" xmlns="http://www.w3.org/2000/svg" xmlns:xlink="http://www.w3.org/1999/xlink" x="0px" y="0px"
	 viewBox="0 0 691 413.6" style="enable-background:new 0 0 691 413.6;" xml:space="preserve">
<style type="text/css">
	.st0{opacity:0.2;fill:#C4C4C4;enable-background:new    ;}
</style>
<g>
	<path class="st0" d="M40.2,36.4h610c0.7,0,1.2-0.6,1.2-1.2c0-0.6-0.5-1.2-1.2-1.2h-610c-0.6-0.1-1.2,0.5-1.2,1.2
		C39,35.9,39.6,36.4,40.2,36.4z"/>
	<path class="st0" d="M650.1,378H505.8V141.2c0-0.6-0.5-1.2-1.2-1.2h-109c-0.6,0-1.2,0.5-1.2,1.2V378H296V141.2
		c0-0.7-0.6-1.2-1.2-1.2h-109c-0.7,0-1.2,0.6-1.2,1.2V378H40.2l0,0c-0.7,0-1.2,0.6-1.2,1.2l0,0l0,0l0,0l0,0c0,0.6,0.5,1.2,1.2,1.2
		h145.5h108.9h101.2h108.9h145.4h0.1c0.4,0,0.6-0.2,0.8-0.4c0.2-0.2,0.3-0.5,0.3-0.8C651.3,378.6,650.7,378,650.1,378z M186.9,142.4
		h106.5V378H186.9V142.4z M397,142.4h106.5V378H397V142.4z"/>
</g>
</svg>
