<?xml version="1.0" encoding="utf-8"?>
<!-- Generator: Adobe Illustrator 24.0.1, SVG Export Plug-In . SVG Version: 6.00 Build 0)  -->
<svg version="1.1" id="Layer_1" xmlns="http://www.w3.org/2000/svg" xmlns:xlink="http://www.w3.org/1999/xlink" x="0px" y="0px"
	 viewBox="0 0 687 404.7" style="enable-background:new 0 0 687 404.7;" xml:space="preserve">
<style type="text/css">
	.st0{opacity:0.2;fill:#C4C4C4;enable-background:new    ;}
</style>
<g>
	<path class="st0" d="M94.3,218.8v2.2H138h0.1H158h0.1h19.4c0.6,0,1.1-0.5,1.1-1.1v-85.6V42.7c0-0.6-0.5-1.1-1.1-1.1H47.4h-0.1
		c-0.1,0-0.2,0-0.3,0.1c-0.1,0-0.2,0.1-0.2,0.2c0,0-0.1,0-0.1,0.1c-0.3,0.1-0.4,0.4-0.4,0.7v176.1h2.2v-83.4h127.8v83.4h-17.1
		l2.2-18h0.5c0.6,0,1.1-0.5,1.1-1.1v-6.9c0-0.6-0.5-1.1-1.1-1.1h-4.7v-7.1c2,0,3.9-0.8,5.3-2.2c1.7-1.7,2.5-4.1,2.1-6.5
		c-0.1-0.5-0.5-0.9-0.9-0.9c-2.4-0.4-4.8,0.4-6.5,2.1v-6c0.1,0,0.2,0,0.3,0c2.7,0,5.2-1,7-2.9c2.2-2.2,3.3-5.4,2.8-8.6
		c-0.1-0.5-0.5-0.9-0.9-0.9c-3.1-0.5-6.3,0.6-8.6,2.8c-2.1,2.1-3.1,5.1-2.9,8c0,0.1,0,0.2,0,0.2v1.8c-1.2-0.9-2.6-1.2-4.1-1
		c-0.5,0.1-0.9,0.5-0.9,0.9c-0.3,1.7,0.3,3.5,1.5,4.7c0.9,0.9,2.2,1.5,3.5,1.6v14H149v-23.5c0,0,0,0,0-0.1c0.1-0.8,0.1-1.6,0-2.3
		v-9.7h0.1c2.3,0,4.4-0.9,6-2.5c1.9-1.9,2.8-4.6,2.4-7.3c-0.1-0.5-0.5-0.9-0.9-0.9c-2.7-0.4-5.4,0.5-7.3,2.4
		c-0.4,0.4-0.8,0.9-1.2,1.5c-0.5-1-1.1-2-2-2.8c-1.9-1.9-4.4-3-7.1-3c-0.5,0-1,0-1.6,0.1c-0.5,0.1-0.9,0.5-0.9,0.9
		c-0.5,3.2,0.6,6.4,2.8,8.7c1.9,1.9,4.4,2.9,7.1,2.9c0.1,0,0.2,0,0.3,0v5.4c-1.7-1.6-4-2.3-6.3-2c-0.5,0.1-0.9,0.5-0.9,0.9
		c-0.4,2.4,0.4,4.8,2.1,6.5c1.4,1.4,3.2,2.2,5.1,2.2v22.5h-6.1v-6c0-0.3,0-0.6,0-0.9V172c0-0.1,0-0.1,0-0.2c0.2-2.4-0.7-4.7-2.4-6.4
		c-1.9-1.9-4.5-2.7-7.2-2.3c-0.5,0.1-0.9,0.5-0.9,0.9c-0.4,2.6,0.5,5.3,2.3,7.2c1.6,1.6,3.7,2.4,5.9,2.4c0,0,0,0,0.1,0v4.9
		c-0.3-0.3-0.5-0.6-0.8-0.9c-2-2-4.6-3.1-7.5-3.1c-0.5,0-1.1,0-1.6,0.1s-0.9,0.5-0.9,0.9c-0.5,3.3,0.6,6.7,3,9.1
		c2,2,4.6,3.1,7.5,3.1c0.1,0,0.3,0,0.4,0v3.9H134c-0.6,0-1.1,0.5-1.1,1.1v6.9c0,0.6,0.5,1.1,1.1,1.1h0.7l2.2,18L94.3,218.8
		L94.3,218.8z M48.5,133.2L48.5,133.2V43.8h127.8v89.4H48.5z M159.5,163c1.5-1.5,3.6-2.4,5.8-2.3c0.1,2.2-0.7,4.3-2.3,5.8
		c-1.5,1.5-3.6,2.4-5.8,2.3C157.2,166.7,158,164.6,159.5,163z M158.8,178.7c1-1,2.3-1.5,3.7-1.6c0,1.4-0.6,2.7-1.6,3.7
		s-2.3,1.5-3.7,1.6C157.3,181,157.9,179.7,158.8,178.7z M149.2,153c0.1-1.3,0.8-2.6,1.8-3.6c1.2-1.2,2.8-1.8,4.5-1.8
		c0,1.7-0.6,3.3-1.8,4.5s-2.8,1.8-4.5,1.8C149.2,153.6,149.2,153.3,149.2,153z M157,218.8h-17.9l-2.2-18h22.3L157,218.8z
		 M153.1,174.6c-0.5-0.5-0.8-1.2-0.9-1.8c0.7,0.1,1.3,0.4,1.8,0.9s0.8,1.2,0.9,1.8C154.3,175.4,153.6,175.1,153.1,174.6z
		 M141.1,151.6c-1.6-1.6-2.4-3.7-2.3-5.9c2.2-0.1,4.3,0.7,5.9,2.3c1.3,1.3,2.1,3.1,2.3,4.9c0,0.3,0,0.6,0,1
		C144.7,154,142.6,153.2,141.1,151.6z M143.3,165.4c-1-1-1.5-2.3-1.5-3.7c1.4,0,2.7,0.6,3.7,1.5c0.7,0.7,1.2,1.7,1.4,2.7v1
		C145.5,166.9,144.3,166.4,143.3,165.4z M134.2,169.7c-1.2-1.2-1.8-2.7-1.8-4.4c1.7,0,3.2,0.6,4.4,1.8c1.1,1.1,1.8,2.7,1.7,4.4
		C136.9,171.5,135.4,170.9,134.2,169.7z M132.2,183.1c-1.7-1.7-2.5-4-2.4-6.3c2.4-0.1,4.6,0.8,6.3,2.4c1.4,1.4,2.3,3.3,2.4,5.3v1
		C136.2,185.7,133.9,184.8,132.2,183.1z M135.1,198.5v-4.6h25.8v4.6H135.1z"/>
	<path class="st0" d="M39.8,228.7h6.5v-2.2h-5.4V36.2H184v190.3H94.3v2.2h90.8c0.6,0,1.1-0.5,1.1-1.1V35c0-0.6-0.5-1.1-1.1-1.1H39.8
		c-0.6,0-1.1,0.5-1.1,1.1v192.5C38.6,228.2,39.1,228.7,39.8,228.7z"/>
	<path class="st0" d="M172.4,46.6H52.5c-0.6,0-1.1,0.5-1.1,1.1v81.4c0,0.6,0.5,1.1,1.1,1.1h119.9c0.6,0,1.1-0.5,1.1-1.1V47.8
		C173.5,47.1,173,46.6,172.4,46.6z M171.3,128.1H53.6V48.9h117.7L171.3,128.1L171.3,128.1z"/>
	<path class="st0" d="M549.4,185.4v49.5c0,0.6,0.5,1.1,1.1,1.1h78.8c0.6,0,1.1-0.5,1.1-1.1v-49.5c0-0.6-0.5-1.1-1.1-1.1h-78.8
		C549.9,184.3,549.4,184.8,549.4,185.4z M551.7,186.5h76.5v47.3h-76.5V186.5z"/>
	<path class="st0" d="M607.4,190.4h-50.8c-0.6,0-1.1,0.5-1.1,1.1v37.1c0,0.6,0.5,1.1,1.1,1.1h50.8c0.6,0,1.1-0.5,1.1-1.1v-37.1
		C608.6,190.9,608.1,190.4,607.4,190.4z M606.3,227.5h-48.5v-34.8h48.5V227.5z"/>
	<path class="st0" d="M623.8,190.4H611c-0.6,0-1.1,0.5-1.1,1.1v37.1c0,0.6,0.5,1.1,1.1,1.1h12.9c0.6,0,1.1-0.5,1.1-1.1v-37.1
		C624.9,190.9,624.4,190.4,623.8,190.4z M622.7,227.5h-10.6v-34.8h10.6V227.5z"/>
	<path class="st0" d="M561,223.8h42.1c0.6,0,1.1-0.5,1.1-1.1s-0.5-1.1-1.1-1.1h-5.5l0.7-0.3c0.4-0.2,0.7-0.6,0.7-1v-0.6
		c0-0.6-0.5-1.1-1.1-1.1h-6.7c-0.4-0.6-1.1-1.1-2-1.1h-0.1c-0.2-0.4-0.6-0.8-1.4-0.9c-0.2,0-0.4-0.1-0.5-0.1c-0.5-0.1-1-0.1-1.5,0.1
		l-0.2,0.1c-0.2-0.4-0.5-0.9-1.2-1.2c-0.2-0.1-0.5-0.2-0.7-0.2c-0.7,0-1.2,0.4-1.5,0.7c-0.1,0-0.1,0.1-0.2,0.1c-0.1,0-0.1,0-0.3-0.1
		c-0.4-0.2-1.1-0.4-1.9,0c-0.5,0.2-0.8,0.6-1,0.9c-0.1-0.1-0.2-0.1-0.3-0.2c-0.4-0.3-0.9-0.8-2.2-0.5c-1,0.2-1.4,0.7-1.6,1.1
		c-0.6-0.1-1.2,0.1-1.6,0.5c-0.3,0.3-0.4,0.6-0.5,0.9h-6.4c-0.6,0-1.1,0.5-1.1,1.1v0.6c0,0.5,0.3,0.9,0.7,1l0.7,0.3H561
		c-0.6,0-1.1,0.5-1.1,1.1C559.9,223.3,560.4,223.8,561,223.8z M573.5,220.7L573.5,220.7c0.3,0.1,0.6,0,0.8-0.2s0.3-0.5,0.3-0.8
		c0-0.1,0-0.2,0-0.3c1,0.1,1.6-0.6,1.8-0.9c0.1-0.2,0.1-0.2,0.3-0.2c0.1,0,0.1,0,0.2,0c0.1,0,0.1,0.1,0.2,0.1
		c0.2,0.2,0.6,0.5,1.2,0.7c0.3,0.1,0.5,0.1,0.8,0.1c1,0,1.4-0.8,1.6-1.1c0-0.1,0.1-0.1,0-0.2c0,0,0.1,0,0.1,0.1
		c0.2,0.1,0.6,0.2,1.1,0.2c0.1,0,0.2,0,0.3,0c0.7,0,1.1-0.4,1.4-0.7c0.2,0.4,0.7,1.3,1.7,1.3c0.2,0,0.5,0,0.7-0.1l0.5-0.2h0.1
		c0,0,0,0,0.1,0s0.3,0.1,0.5,0.1c0.3,0.8,0.9,1.2,2,1c0.1,0,0.2,0.2,0.3,0.4c0.2,0.4,0.6,0.7,1.1,0.7h2.6l-2,0.7h-18.3l-2-0.7
		L573.5,220.7L573.5,220.7z"/>
	<path class="st0" d="M617.4,211.3c2.6,0,4.7-2.1,4.7-4.7s-2.1-4.7-4.7-4.7c-2.6,0-4.7,2.1-4.7,4.7S614.8,211.3,617.4,211.3z
		 M617.4,204.1c1.4,0,2.5,1.1,2.5,2.5s-1.1,2.5-2.5,2.5s-2.5-1.1-2.5-2.5S616,204.1,617.4,204.1z"/>
	<path class="st0" d="M618.6,206.9c0.5,0,0.9-0.4,0.9-0.9s-0.4-0.9-0.9-0.9s-0.9,0.4-0.9,0.9C617.7,206.5,618.1,206.9,618.6,206.9z"
		/>
	<path class="st0" d="M615,199.8h4.8c1,0,1.9-0.8,1.9-1.9v-1.6c0-1-0.8-1.9-1.9-1.9H615c-1,0-1.9,0.8-1.9,1.9v1.6
		C613.1,199,614,199.8,615,199.8z M615.4,196.8h4v0.8h-4V196.8z"/>
	<path class="st0" d="M488.9,138.1h78.8c0.6,0,1.1-0.5,1.1-1.1V86.9c0-0.6-0.5-1.1-1.1-1.1h-78.8c-0.6,0-1.1,0.5-1.1,1.1V137
		C487.8,137.6,488.3,138.1,488.9,138.1z M490,88h76.5v47.8H490V88z"/>
	<path class="st0" d="M437.6,277.9c0.6,0,1.1-0.5,1.1-1.1v-2.9c0-0.6-0.5-1.1-1.1-1.1h-30.2c-0.6,0-1.1,0.5-1.1,1.1v2.9
		c0,0.6,0.5,1.1,1.1,1.1H437.6z M408.5,275h27.9v0.7h-27.9V275z"/>
	<path class="st0" d="M469.1,282.9h-93.2c-0.6,0-1.1,0.5-1.1,1.1v58.1c0,0.6,0.5,1.1,1.1,1.1h93.2c0.6,0,1.1-0.5,1.1-1.1V284
		C470.2,283.4,469.7,282.9,469.1,282.9z M467.9,341H377v-55.9h90.9V341z"/>
	<polygon class="st0" points="194.2,203 194.2,233.2 195.1,233.2 196.8,224.8 196.8,211.4 195.1,203 	"/>
	<polygon class="st0" points="201.6,233.2 202.5,233.2 204.2,224.8 204.2,211.4 202.5,203 201.6,203 	"/>
	<polygon class="st0" points="209.2,233.2 210.1,233.2 211.8,224.8 211.8,211.4 210.1,203 209.2,203 	"/>
	<polygon class="st0" points="216.6,233.2 217.5,233.2 219.3,224.8 219.3,211.4 217.5,203 216.6,203 	"/>
	<polygon class="st0" points="224,233.2 224.9,233.2 226.7,224 226.7,209.1 224.9,199.9 224,199.9 	"/>
	<polygon class="st0" points="231.5,233.2 232.4,233.2 234.1,224 234.1,209.1 232.4,199.9 231.5,199.9 	"/>
	<polygon class="st0" points="239.2,233.2 240.1,233.2 241.9,223.3 241.9,207.4 240.1,197.5 239.2,197.5 	"/>
	<polygon class="st0" points="247,233.2 247.9,233.2 249.6,223.3 249.6,207.4 247.9,197.5 247,197.5 	"/>
	<path class="st0" d="M506.7,252.7h38.2c0.6,0,1.1-0.5,1.1-1.1v-3.4c0-0.6-0.5-1.1-1.1-1.1h-38.2c-0.6,0-1.1,0.5-1.1,1.1v3.4
		C505.6,252.2,506.1,252.7,506.7,252.7z M507.8,249.3h36v1.2h-36V249.3z"/>
	<path class="st0" d="M565.2,237.3h-76c-0.6,0-1.1,0.5-1.1,1.1v131.2c0,0.6,0.5,1.1,1.1,1.1h76c0.6,0,1.1-0.5,1.1-1.1V238.4
		C566.3,237.8,565.8,237.3,565.2,237.3z M564.1,368.6h-73.8v-129h73.8V368.6z"/>
	<path class="st0" d="M585.5,252.7h38.2c0.6,0,1.1-0.5,1.1-1.1v-3.4c0-0.6-0.5-1.1-1.1-1.1h-38.2c-0.6,0-1.1,0.5-1.1,1.1v3.4
		C584.4,252.2,584.9,252.7,585.5,252.7z M586.6,249.3h36v1.2h-36V249.3z"/>
	<path class="st0" d="M644,237.3h-76c-0.6,0-1.1,0.5-1.1,1.1v131.2c0,0.6,0.5,1.1,1.1,1.1h76c0.6,0,1.1-0.5,1.1-1.1V238.5
		C645.1,237.8,644.6,237.3,644,237.3z M642.9,368.6h-73.8v-129h73.8V368.6z"/>
	<path class="st0" d="M623.7,313.7h-38.2c-0.6,0-1.1,0.5-1.1,1.1v3.4c0,0.6,0.5,1.1,1.1,1.1h38.2c0.6,0,1.1-0.5,1.1-1.1v-3.4
		C624.8,314.2,624.3,313.7,623.7,313.7z M622.6,317.1h-36v-1.2h36V317.1z"/>
	<path class="st0" d="M337.9,247h-38.2c-0.6,0-1.1,0.5-1.1,1.1v3.4c0,0.6,0.5,1.1,1.1,1.1h38.2c0.6,0,1.1-0.5,1.1-1.1v-3.4
		C339,247.5,338.5,247,337.9,247z M336.8,250.4h-36v-1.1h36V250.4z"/>
	<path class="st0" d="M355.4,237.3h-14.3c0-0.1,0-0.3,0-0.4l-2.3-16.1c-0.1-0.8-0.6-1.4-1.2-1.8v-2.2c0.1,0.1,0.2,0.2,0.3,0.3
		c0.5,0.5,1.1,0.8,1.8,0.8h1.6c0,0,0.1,0,0.2,0c0.2,0,0.3,0,0.4-0.1c0.1,0,0.2,0,0.3-0.1c0.1,0,0.1-0.1,0.2-0.1l0.1-0.1
		c0.1,0,0.1-0.1,0.2-0.1c0.1-0.1,0.3-0.2,0.4-0.4l0.2-0.2c0,0,0.1-0.1,0.1-0.2c0.1-0.2,0.2-0.4,0.3-0.8l2.6-11.5c0-0.1,0-0.1,0-0.2
		c0-0.1,0-0.1,0-0.2v-0.3c0-0.1,0-0.2,0-0.2c0-0.1,0-0.2-0.1-0.3V203c-0.1-0.2-0.2-0.4-0.3-0.7c0-0.1-0.1-0.1-0.1-0.2l-2.9-3.4
		c-0.1-0.1-0.2-0.2-0.4-0.4c-0.4-0.3-1-0.5-1.5-0.5h-1.4c-1.4-1.4-5.3-1.9-9.1-2.1v-1.4c0-1.1-0.9-2-2-2h-1.2c-1.1,0-2,0.9-2,2v1.5
		c-3.2,0.2-5.8,0.7-7,1l-5.7,1.1h-0.4c-0.6,0-1.1,0.5-1.1,1.1v0.1c-0.8,0.4-1.6,1.2-1.6,2.6c0,0.6,0.4,1,1,1.1c0,0,0.7,0.1,1.1,0.6
		c0.1,0.1,0.3,0.4,0.5,0.8c1.1,1.7,3,4.7,5.3,6.1l0.9,5.7v2.9c-0.6,0.4-1.1,1.1-1.2,1.8l-2.4,16.2c0,0.1,0,0.3,0,0.4h-11.3
		c0-0.1,0-0.2,0-0.3v-2.1c2-0.5,3.5-2.3,3.5-4.5c0-2.1-1.5-4-3.5-4.5v-0.3c0-0.6-0.5-1.1-1.1-1.1h-13.8c-0.6,0-1.1,0.5-1.1,1.1v11.3
		c0,0.1,0,0.2,0,0.3h-0.5c0-0.1,0-0.2,0-0.3v-11.3c0-0.6-0.5-1.1-1.1-1.1h-13.9c-0.6,0-1.1,0.5-1.1,1.1v0.3c-2,0.5-3.5,2.3-3.5,4.5
		c0,2.1,1.5,3.9,3.5,4.5v2.1c0,0.1,0,0.2,0,0.3h-18.2v-33c0-0.4-0.4-0.8-0.8-0.8s-0.8,0.3-0.8,0.8v30h-6v-30c0-0.4-0.3-0.8-0.8-0.8
		c-0.4,0-0.8,0.3-0.8,0.8v30h-6v-30c0-0.4-0.3-0.8-0.8-0.8c-0.4,0-0.8,0.3-0.8,0.8v30H230v-30c0-0.4-0.3-0.8-0.8-0.8
		c-0.4,0-0.8,0.3-0.8,0.8v30h-6v-30c0-0.4-0.3-0.8-0.8-0.8c-0.4,0-0.8,0.3-0.8,0.8v30h-6v-30c0-0.4-0.3-0.8-0.8-0.8
		c-0.4,0-0.8,0.3-0.8,0.8v30h-6v-30c0-0.4-0.3-0.8-0.8-0.8c-0.4,0-0.8,0.3-0.8,0.8v30h-6v-30c0-0.4-0.3-0.8-0.8-0.8
		c-0.4,0-0.8,0.3-0.8,0.8v30h-5.9v-30c0-0.4-0.3-0.8-0.8-0.8c-0.4,0-0.8,0.3-0.8,0.8v33.3h-70.8c-0.6,0-1,0.5-1,1v131.1
		c0,0.6,0.5,1,1,1h77.4c0.6,0,1-0.5,1-1V238.6c0-0.6-0.5-1-1-1h-4.5V236h5.9v1.8c0,0.4,0.3,0.8,0.8,0.8c0.1,0,0.2,0,0.3-0.1v131.2
		c0,0.6,0.5,1.1,1.1,1.1h76c0.6,0,1.1-0.5,1.1-1.1V239.6h0.5v130.1c0,0.6,0.5,1.1,1.1,1.1h76c0.6,0,1.1-0.5,1.1-1.1V238.4
		C356.5,237.8,356,237.3,355.4,237.3z M339.8,199.8h1.1c0.1,0.4,0.2,0.4,0.3,0.4l2.9,3.3l0.1,0.1v0.1l-2.6,11.6c0,0,0,0.1-0.1,0.1
		c0,0,0,0-0.1,0c0,0,0,0-0.1,0c0,0-0.1,0-0.2,0h-1.5c-0.1,0-0.1,0-0.2-0.1c0,0-0.1-0.1-0.1-0.2c0-0.1,0.1-0.3,0.3-0.3h0.5
		c0.5,0,1-0.4,1.1-0.9l2.2-9.8c0.1-0.3,0-0.7-0.2-1l-0.8-0.9c-0.2-0.2-0.5-0.4-0.9-0.4h-2L339.8,199.8z M339.3,204.4h1.8l0.1,0.1
		l-1.9,8.4c-0.5,0.1-0.9,0.3-1.3,0.6L339.3,204.4z M196,239.6v129h-75.2v-129H196L196,239.6z M313.9,203.1c-0.3-0.5-0.5-0.8-0.7-1
		c-0.4-0.4-0.8-0.8-1.2-1c0.1,0,0.1,0,0.2,0c0.2,0,0.3,0,0.4-0.1l0.1-0.1c0.1,0,0.2-0.1,0.2-0.2l0.1-0.1c0.1-0.1,0.1-0.1,0.1-0.2
		s0-0.1,0-0.2c0-0.1,0-0.1,0.1-0.2l5.3-1c1.3-0.3,4.1-0.9,7.7-1c0.4,0,0.7-0.1,0.9-0.4s0.3-0.6,0.1-1v-2.1h0.8v2
		c-0.1,0.3-0.1,0.7,0.1,1s0.5,0.5,0.9,0.5c5,0.1,7.7,0.8,8.5,1.2l-2.2,15.6H320l-0.8-5.4c-0.1-0.4-0.5-0.8-0.8-0.9
		C316.9,207.7,314.9,204.6,313.9,203.1z M335.4,217.1v1.3h-15v-1.3H335.4z M319.2,221c0-0.2,0.3-0.4,0.5-0.4h16.4
		c0.2,0,0.4,0.2,0.5,0.4l2.3,16.2c0,0,0,0-0.1,0h-22L319.2,221z M289.5,226.9h11.6v0.2c0,0.6,0.5,1.1,1.1,1.1c1.3,0,2.4,1.1,2.4,2.3
		c0,1.3-1.1,2.4-2.4,2.4c-0.6,0-1.1,0.5-1.1,1.1v3.1c0,0.2-0.1,0.3-0.3,0.3h-11c-0.2,0-0.3-0.1-0.3-0.3L289.5,226.9L289.5,226.9z
		 M245,235.9h6v1.4h-6V235.9z M237.5,235.9h6v1.4h-6V235.9z M230,235.9h5.9v1.4H230V235.9z M222.4,235.9h6v1.4h-6V235.9z
		 M214.9,235.9h6v1.4h-6V235.9z M207.4,235.9h6v1.4h-6V235.9z M200,237.5v-1.6h6v1.4h-5.3C200.4,237.3,200.2,237.4,200,237.5z
		 M275.5,368.6h-73.8v-129h73.8V368.6z M273.3,237.4c-0.2,0-0.3-0.1-0.3-0.3V234c0-0.6-0.5-1.1-1.1-1.1c-1.4-0.1-2.4-1.1-2.4-2.4
		c0-1.3,1.1-2.3,2.4-2.3c0.6,0,1.1-0.5,1.1-1.1v-0.2h11.6v10.2c0,0.2-0.1,0.3-0.3,0.3L273.3,237.4L273.3,237.4z M354.3,368.6h-73.8
		v-129h36.4h21.9h15.5V368.6z"/>
	<path class="st0" d="M259.1,313.7h-38.2c-0.6,0-1.1,0.5-1.1,1.1v3.4c0,0.6,0.5,1.1,1.1,1.1h38.2c0.6,0,1.1-0.5,1.1-1.1v-3.4
		C260.2,314.2,259.7,313.7,259.1,313.7z M258,317.1h-36v-1.2h36V317.1z"/>
	<path class="st0" d="M220.9,252.7h38.2c0.6,0,1.1-0.5,1.1-1.1v-3.4c0-0.6-0.5-1.1-1.1-1.1h-38.2c-0.6,0-1.1,0.5-1.1,1.1v3.4
		C219.8,252.2,220.3,252.7,220.9,252.7z M222,249.3h36v1.2h-36V249.3z"/>
	<path class="st0" d="M107,282.7h-3.4c-0.6,0-1.1,0.5-1.1,1.1V322c0,0.6,0.5,1.1,1.1,1.1h3.4c0.6,0,1.1-0.5,1.1-1.1v-38.2
		C108.1,283.2,107.6,282.7,107,282.7z M105.9,320.9h-1.2v-36h1.2V320.9z"/>
	<path class="st0" d="M126.4,323.2h3.4c0.6,0,1.1-0.5,1.1-1.1v-38.2c0-0.6-0.5-1.1-1.1-1.1h-3.4c-0.6,0-1.1,0.5-1.1,1.1v38.2
		C125.3,322.7,125.8,323.2,126.4,323.2z M127.5,284.9h1.2v36h-1.2V284.9z"/>
	<path class="st0" d="M520.6,183.9v-15h5.7c0.6,0,1.1-0.5,1.1-1.1v-6.6c0-0.6-0.5-1.1-1.1-1.1h-52.6c-0.6,0-1.1,0.5-1.1,1.1v6.6
		c0,0.6,0.5,1.1,1.1,1.1h5.1v15c0,0.6,0.3,1.1,0.7,1.4v17.3c-2.8,0.6-4.8,3-4.8,5.9v9.6c0,3.3,2.7,6,6,6h4.2c3.3,0,6-2.7,6-6v-9.6
		c0-2.9-2-5.3-4.8-5.9v-17.3c0.4-0.3,0.7-0.9,0.7-1.4v-15h9.1v15c0,0.6,0.3,1.1,0.7,1.4v18.1c-2.8,1.7-4.6,5.4-4.6,9.5
		c0,2.5,0.7,4.9,1.9,6.8c0,0.1,0.1,0.1,0.1,0.2c1.5,2.2,3.7,3.5,6,3.5s4.5-1.3,6-3.5c0,0,0,0,0-0.1c1.3-1.9,2-4.3,2-6.8
		c0-4.1-1.8-7.8-4.6-9.5v-18.1c0.4-0.3,0.7-0.9,0.7-1.4v-15h8.5v15c0,0.6,0.3,1.1,0.7,1.4v18.1c-2.3,1.4-3.9,4-4.4,7.2
		c0,0.2,0,0.4,0,0.5l4.7,14.7c0.2,0.5,0.7,0.8,1.2,0.8c0.5-0.1,0.9-0.6,0.9-1.1V212h1.7v13.6c0,0.6,0.4,1,0.9,1.1c0.1,0,0.1,0,0.2,0
		c0.5,0,0.9-0.3,1.1-0.8l4.7-14.7c0.1-0.2,0.1-0.3,0-0.5c-0.5-3.2-2.2-5.9-4.4-7.2v-18.2C520.4,185,520.6,184.5,520.6,183.9z
		 M518.3,205.2c1.8,0.9,3.3,3,3.8,5.7l-2.5,7.6v-7.6c0-0.6-0.5-1.1-1.1-1.1h-3.9c-0.6,0-1.1,0.5-1.1,1.1v7.6l-2.5-7.7
		c0.5-2.6,1.9-4.8,3.8-5.7c0.4-0.2,0.6-0.6,0.6-1v-19.6c0-0.5-0.3-0.9-0.7-1v-15.8c0-0.6-0.5-1.1-1.1-1.1h-10.8
		c-0.6,0-1.1,0.5-1.1,1.1v15.8c-0.4,0.2-0.7,0.6-0.7,1v19.6c0,0.4,0.3,0.8,0.6,1c2.4,1.1,4,4.2,4,7.8c0,2.1-0.6,4.1-1.6,5.6
		c0,0,0,0,0,0.1c-1.1,1.6-2.6,2.5-4.1,2.5s-3-0.9-4.1-2.4c0,0,0-0.1-0.1-0.1c-1-1.5-1.6-3.5-1.6-5.6c0-3.6,1.6-6.7,4-7.8
		c0.4-0.2,0.6-0.6,0.6-1v-19.6c0-0.5-0.3-0.9-0.7-1v-15.8c0-0.6-0.5-1.1-1.1-1.1h-11.3c-0.6,0-1.1,0.5-1.1,1.1v15.8
		c-0.4,0.2-0.7,0.6-0.7,1v19c0,0.6,0.5,1.1,1.1,1.1c2.1,0.1,3.7,1.7,3.7,3.8v9.6c0,2.1-1.7,3.8-3.8,3.8h-4.2c-2.1,0-3.8-1.7-3.8-3.8
		v-9.6c0-2.1,1.6-3.7,3.7-3.8c0.6,0,1.1-0.5,1.1-1.1v-19c0-0.5-0.3-0.9-0.7-1v-15.8c0-0.6-0.5-1.1-1.1-1.1h-5.1v-4.3h50.4v4.3h-5.7
		c-0.6,0-1.1,0.5-1.1,1.1v15.8c-0.4,0.2-0.7,0.6-0.7,1v19.6C517.7,204.6,518,205,518.3,205.2z"/>
	<path class="st0" d="M386.9,129.6h69.2c0.6,0,1.1-0.5,1.1-1.1v-16.7c0-0.6-0.5-1.1-1.1-1.1h-69.2c-0.6,0-1.1,0.5-1.1,1.1v16.6
		C385.7,129.1,386.2,129.6,386.9,129.6z M388,112.9h67v14.4h-67V112.9z"/>
	<path class="st0" d="M488.9,85.3h78.8c0.6,0,1.1-0.5,1.1-1.1V34.7c0-0.6-0.5-1.1-1.1-1.1h-78.8c-0.6,0-1.1,0.5-1.1,1.1v49.5
		C487.8,84.8,488.3,85.3,488.9,85.3z M490,35.8h76.5v47.3H490V35.8z"/>
	<path class="st0" d="M275.6,85.3h78.8c0.6,0,1.1-0.5,1.1-1.1V34.7c0-0.6-0.5-1.1-1.1-1.1h-78.8c-0.6,0-1.1,0.5-1.1,1.1v49.5
		C274.4,84.8,274.9,85.3,275.6,85.3z M276.7,35.8h76.5v47.3h-76.5V35.8L276.7,35.8z"/>
	<path class="st0" d="M648.1,33.6h-76.3c-0.6,0-1.1,0.5-1.1,1.1V137c0,0.6,0.5,1.1,1.1,1.1h76.3c0.6,0,1.1-0.5,1.1-1.1V34.7
		C649.2,34.1,648.8,33.6,648.1,33.6z M647,135.8h-74.1v-100H647V135.8z"/>
	<path class="st0" d="M561,91.4h-65.4c-0.6,0-1.1,0.5-1.1,1.1v38.6c0,0.6,0.5,1.1,1.1,1.1H561c0.6,0,1.1-0.5,1.1-1.1V92.5
		C562.1,91.9,561.6,91.4,561,91.4z M559.9,129.9h-63.2V93.6h63.2V129.9z"/>
	<path class="st0" d="M275.6,138.4h78.8c0.6,0,1.1-0.5,1.1-1.1V87.2c0-0.6-0.5-1.1-1.1-1.1h-78.8c-0.6,0-1.1,0.5-1.1,1.1v50.1
		C274.4,137.9,274.9,138.4,275.6,138.4z M276.7,88.3h76.5v47.8h-76.5V88.3L276.7,88.3z"/>
	<path class="st0" d="M195.1,138.4h76.3c0.6,0,1.1-0.5,1.1-1.1V35c0-0.6-0.5-1.1-1.1-1.1h-76.3c-0.6,0-1.1,0.5-1.1,1.1v102.3
		C194,137.9,194.5,138.4,195.1,138.4z M196.2,36.2h74.1v100h-74.1L196.2,36.2L196.2,36.2z"/>
	<path class="st0" d="M347.7,91.7h-65.4c-0.6,0-1.1,0.5-1.1,1.1v38.6c0,0.6,0.5,1.1,1.1,1.1h65.4c0.6,0,1.1-0.5,1.1-1.1V92.8
		C348.8,92.2,348.3,91.7,347.7,91.7z M346.5,130.3h-63.2V94h63.2V130.3z"/>
	<path class="st0" d="M275.4,222.4c0.6,0,1.1-0.5,1.1-1.1v-16.5c0-0.6-0.5-1.1-1.1-1.1s-1.1,0.5-1.1,1.1v16.5
		C274.2,221.9,274.7,222.4,275.4,222.4z"/>
	<path class="st0" d="M279.2,195.8v25.7c0,0.6,0.5,1.1,1.1,1.1s1.1-0.5,1.1-1.1v-25.7c0-0.6-0.5-1.1-1.1-1.1
		C279.7,194.6,279.2,195.1,279.2,195.8z"/>
	<path class="st0" d="M293,221.9c0.6,0,1.1-0.5,1.1-1.1v-7.7c0-0.6-0.5-1.1-1.1-1.1s-1.1,0.5-1.1,1.1v7.7
		C291.8,221.4,292.3,221.9,293,221.9z"/>
	<path class="st0" d="M296.7,202.8v17.9c0,0.6,0.5,1.1,1.1,1.1s1.1-0.5,1.1-1.1v-17.9c0-0.6-0.5-1.1-1.1-1.1
		S296.7,202.2,296.7,202.8z"/>
	<path class="st0" d="M292.8,204.2v-6.6c0-0.6-0.5-1.1-1.1-1.1s-1.1,0.5-1.1,1.1v6.6c0,0.6,0.5,1.1,1.1,1.1
		C292.3,205.4,292.8,204.9,292.8,204.2z"/>
	<path class="st0" d="M271.6,196.1v4.7c0,0.6,0.5,1.1,1.1,1.1s1.1-0.5,1.1-1.1v-4.7c0-0.6-0.5-1.1-1.1-1.1S271.6,195.5,271.6,196.1z
		"/>
	<path class="st0" d="M479.2,209.6c-0.6,0-1.1,0.5-1.1,1.1v7.3c0,0.6,0.5,1.1,1.1,1.1s1.1-0.5,1.1-1.1v-7.3
		C480.4,210.2,479.9,209.6,479.2,209.6z"/>
	<path class="st0" d="M482.8,209.6c-0.6,0-1.1,0.5-1.1,1.1v8.4c0,0.6,0.5,1.1,1.1,1.1s1.1-0.5,1.1-1.1v-8.4
		C484,210.2,483.5,209.6,482.8,209.6z"/>
	<path class="st0" d="M486.4,219.2c0.6,0,1.1-0.5,1.1-1.1v-7.3c0-0.6-0.5-1.1-1.1-1.1s-1.1,0.5-1.1,1.1v7.3
		C485.3,218.7,485.8,219.2,486.4,219.2z"/>
	<path class="st0" d="M265.9,102.3c-0.6,0-1.1,0.5-1.1,1.1v28.7c0,0.6,0.5,1.1,1.1,1.1s1.1-0.5,1.1-1.1v-28.7
		C267,102.8,266.5,102.3,265.9,102.3z"/>
	<path class="st0" d="M577.1,133.2c0.6,0,1.1-0.5,1.1-1.1v-28.7c0-0.6-0.5-1.1-1.1-1.1s-1.1,0.5-1.1,1.1v28.7
		C575.9,132.7,576.4,133.2,577.1,133.2z"/>
	<path class="st0" d="M542.6,78.1H514c-0.6,0-1.1,0.5-1.1,1.1s0.5,1.1,1.1,1.1h28.7c0.6,0,1.1-0.5,1.1-1.1
		C543.7,78.6,543.2,78.1,542.6,78.1z"/>
	<path class="st0" d="M329.3,78.1h-28.7c-0.6,0-1.1,0.5-1.1,1.1s0.5,1.1,1.1,1.1h28.7c0.6,0,1.1-0.5,1.1-1.1S329.9,78.1,329.3,78.1z
		"/>
	<path class="st0" d="M383.4,139.2c-0.6,0-1.1,0.5-1.1,1.1s0.5,1.1,1.1,1.1h7.9c0.6,0,1.1-0.5,1.1-1.1s-0.5-1.1-1.1-1.1H383.4z"/>
	<path class="st0" d="M451.1,139.2c-0.6,0-1.1,0.5-1.1,1.1s0.5,1.1,1.1,1.1h7.9c0.6,0,1.1-0.5,1.1-1.1s-0.5-1.1-1.1-1.1H451.1z"/>
	<path class="st0" d="M209.2,302.9h58.4c0.6,0,1.1-0.5,1.1-1.1s-0.5-1.1-1.1-1.1h-58.4c-0.6,0-1.1,0.5-1.1,1.1
		S208.6,302.9,209.2,302.9z"/>
	<path class="st0" d="M576.8,302.9h58.4c0.6,0,1.1-0.5,1.1-1.1s-0.5-1.1-1.1-1.1h-58.4c-0.6,0-1.1,0.5-1.1,1.1
		S576.2,302.9,576.8,302.9z"/>
	<path class="st0" d="M80.8,177.5c0.2,0.2,0.4,0.2,0.7,0.2c0.2,0,0.4,0,0.5-0.1l30.1-15.7l3.5,2.1c0.3,0.2,0.8,0.2,1.1,0l18.7-10.4
		c0.5-0.3,0.7-1,0.4-1.5s-1-0.7-1.5-0.4l-18.2,10l-3.5-2.1c-0.3-0.2-0.7-0.2-1.1,0l-29.9,15.7l-27.7-21.2c-0.5-0.4-1.2-0.3-1.6,0.2
		c-0.4,0.5-0.3,1.2,0.2,1.6L80.8,177.5z"/>
	<path class="st0" d="M172.7,159.4c0.4,0,0.7-0.2,0.9-0.5c0.3-0.5,0.2-1.2-0.3-1.5l-12.8-8.4c-0.5-0.3-1.2-0.2-1.5,0.3
		s-0.2,1.2,0.3,1.6l12.8,8.3C172.3,159.3,172.5,159.4,172.7,159.4z"/>
	<path class="st0" d="M57.5,87.7c0.2,0,0.3,0,0.5-0.1C75.8,85.2,90,71,92.4,53.1c0-0.1,0-0.1,0-0.2v-0.1c0-0.6-0.5-1.1-1.1-1.1
		c-0.5,0-0.9,0.3-1.1,0.7c0,0.2,0,0.4-0.1,0.6c-2.3,16.8-15.6,30.1-32.4,32.5c-0.2,0-0.5,0.1-0.7,0.1c-0.4,0.2-0.7,0.6-0.7,1
		C56.4,87.2,56.9,87.7,57.5,87.7z"/>
	<path class="st0" d="M86.5,80.2c-0.4-0.4-1.1-0.4-1.6,0c-0.4,0.4-0.4,1.1,0,1.6l29.3,29.3c0.2,0.2,0.5,0.3,0.8,0.3s0.6-0.1,0.8-0.3
		c0.4-0.4,0.4-1.1,0-1.6L86.5,80.2z"/>
	<path class="st0" d="M140.9,110.8c0.2,0.2,0.5,0.3,0.8,0.3s0.6-0.1,0.8-0.3c0.4-0.4,0.4-1.1,0-1.6L96.9,63.7
		c-0.4-0.4-1.1-0.4-1.6,0c-0.4,0.4-0.4,1.1,0,1.6L140.9,110.8z"/>
	<path class="st0" d="M69.7,90.2c-0.4-0.4-1.1-0.4-1.6,0c-0.4,0.4-0.4,1.1,0,1.6l19.3,19.3c0.2,0.2,0.5,0.3,0.8,0.3s0.6-0.1,0.8-0.3
		c0.4-0.4,0.4-1.1,0-1.6L69.7,90.2z"/>
	<path class="st0" d="M486.4,237.4h-19.6l-1.5-5.6c-0.1-0.5-0.6-0.8-1.1-0.8h-13.9c-0.3,0-0.7,0.2-0.9,0.4c-0.2,0.3-0.3,0.6-0.2,1
		l0.5,2.2c0.1,0.5,0.5,0.8,1,0.8l8.8,0.9v1.1h-23.8v-1.1l8.8-0.9c0.5,0,0.9-0.4,1-0.8l0.5-2.2c0.1-0.3,0-0.7-0.2-1s-0.5-0.4-0.9-0.4
		H431c-0.5,0-1,0.3-1.1,0.8l-1.5,5.6h-18l-0.9-4.2h1.2c2.5,0,4.5-2,4.5-4.5v-16.9h3.6c1.5,0,2.8-1.2,2.8-2.8c0-1.5-1.2-2.8-2.8-2.8
		h-2.4v-1.1c0-0.6-0.5-1.1-1.1-1.1h-0.1c0-2.5-2-4.5-4.5-4.5h-12.5V197c0-0.6-0.5-1.1-1.1-1.1h-4.9c-0.6,0-1.1,0.5-1.1,1.1v2.5
		h-12.5c-2.5,0-4.5,2-4.5,4.5h-0.2c-0.6,0-1.1,0.5-1.1,1.1v1.1H370c-1.5,0-2.8,1.2-2.8,2.8c0,1.5,1.2,2.8,2.8,2.8h4.2v16.9
		c0,2.5,2,4.5,4.5,4.5h1.3l-0.9,4.2h-20.8c-0.6,0-1,0.5-1,1v131.2c0,0.6,0.5,1,1,1h128.1c0.6,0,1-0.5,1-1V238.5
		C487.5,237.9,487,237.4,486.4,237.4z M451.9,233.2h11.6l1.1,4.2H462l-0.1-2.1c0-0.6-0.4-1-1-1.1L451.9,233.2z M432.1,233.2h11.6
		l-9,1c-0.6,0.1-1,0.5-1,1.1l-0.1,2.1H431L432.1,233.2z M378.7,230.9c-1.2,0-2.2-1-2.2-2.2v-18c0-0.6-0.5-1.1-1.1-1.1h-5.3
		c-0.3,0-0.5-0.2-0.5-0.5s0.2-0.5,0.5-0.5h3.9c0.6,0,1.1-0.5,1.1-1.1v-1.1h0.2c0.6,0,1.1-0.5,1.1-1.1v-1.1c0-1.2,1-2.2,2.2-2.2h13.7
		c0.6,0,1.1-0.5,1.1-1.1v-2.5h2.7v2.5c0,0.6,0.5,1.1,1.1,1.1H411c1.2,0,2.2,1,2.2,2.2v1.1c0,0.6,0.5,1.1,1.1,1.1h0.1v1.1
		c0,0.6,0.5,1.1,1.1,1.1h3.5c0.3,0,0.5,0.2,0.5,0.5s-0.2,0.5-0.5,0.5h-4.7c-0.6,0-1.1,0.5-1.1,1.1v18c0,1.2-1,2.2-2.2,2.2H378.7z
		 M405.7,234.1l-7.2-0.9h9l0.9,4.2h-1.7v-2.1C406.6,234.7,406.2,234.2,405.7,234.1z M392.4,235.3c0.5-0.1,0.9-0.4,1-0.9l0.3-1.3h2.5
		l0.3,1.3c0.1,0.5,0.5,0.8,1,0.9l7,0.9v1.2h-19l-0.1-1.2L392.4,235.3z M384.2,234.2c-0.5,0.1-1,0.5-1,1.1v2.1h-1.7l0.9-4.2h9
		L384.2,234.2z M359.4,368.6V239.5h20.4c0.1,0,0.2,0.1,0.3,0.1h4.2c0.1,0,0.2,0,0.3-0.1h20.6c0.1,0,0.2,0.1,0.3,0.1h4.2
		c0.1,0,0.2,0,0.3-0.1h19.1c0.1,0,0.2,0.1,0.4,0.1h5.2c0.1,0,0.2,0,0.3-0.1h25.4c0.1,0,0.2,0.1,0.3,0.1h5.2c0.1,0,0.2,0,0.4-0.1h19
		v129.1H359.4z"/>
	<path class="st0" d="M115.6,237.5h-3.9v-1.8c0-0.6-0.5-1.1-1.1-1.1h-1.7c0.7-0.6,1.2-1.5,1.2-2.4c0-1.7-1.4-3.1-3.1-3.1
		c-0.8,0-1.5,0.3-2,0.8h-0.3c-1.1-1-2.9-1-4.1,0h-0.3c-0.5-0.5-1.3-0.8-2-0.8c-1.7,0-3.1,1.4-3.1,3.1c0,1,0.5,1.9,1.2,2.4h-3.8
		c-0.1-0.3-0.3-0.5-0.5-0.6v-24.1c0-5.7-4.6-10.4-10.4-10.4c-5.7,0-10.4,4.6-10.4,10.4v2.6c0,0.6,0.5,1.1,1.1,1.1H76
		c0.6,0,1.1-0.5,1.1-1.1v-2.6c0-2.6,2.1-4.8,4.8-4.8c2.6,0,4.8,2.1,4.8,4.8v24.2c-0.2,0.1-0.3,0.3-0.3,0.5h-3.9
		c0.7-0.6,1.2-1.5,1.2-2.4c0-1.7-1.4-3.1-3.1-3.1c-0.8,0-1.5,0.3-2,0.8h-0.3c-1.1-1-2.9-1-4.1,0h-0.3c-0.5-0.5-1.3-0.8-2-0.8
		c-1.7,0-3.1,1.4-3.1,3.1c0,1,0.5,1.9,1.2,2.4h-1.7c-0.6,0-1.1,0.5-1.1,1.1v1.8h-0.4c0-0.1,0.1-0.2,0.1-0.3v-15.6
		c0-5.4-3.7-8.4-5.3-9.5v-2.7c0-0.6-0.5-1.1-1.1-1.1h-0.1c0.3-0.4,0.4-0.8,0.3-1.2c-0.3-1.1-2-1.7-2.8-1.7s-2.5,0.6-2.8,1.7
		c-0.1,0.5,0,0.9,0.3,1.2h-0.1c-0.6,0-1.1,0.5-1.1,1.1v2.7c-1.6,1.1-5.3,4-5.3,9.5v15.6c0,0.1,0,0.2,0.1,0.3H38.3c-0.6,0-1,0.5-1,1
		v131.1c0,0.6,0.5,1,1,1h77.4c0.6,0,1-0.5,1-1v-131C116.7,238,116.2,237.5,115.6,237.5z M69.3,236.9h5.4c0.6,0,1.1-0.5,1.1-1.1v-2.2
		c0-0.3-0.1-0.6-0.3-0.8c-0.2-0.3-0.5-0.5-0.9-0.5h-1.3c-0.4,0-0.7,0.2-0.9,0.5c-0.1,0.2-0.3,0.3-0.6,0.3c-0.5,0-0.8-0.4-0.8-0.9
		s0.4-0.8,0.8-0.8c0.3,0,0.5,0.1,0.6,0.3c0.2,0.3,0.5,0.5,0.9,0.5h1.2c0.3,0,0.7-0.2,0.9-0.4c0.3-0.4,1-0.4,1.3,0
		c0.2,0.3,0.5,0.4,0.9,0.4h1.2c0.4,0,0.7-0.2,0.9-0.5c0.1-0.2,0.4-0.3,0.6-0.3c0.5,0,0.8,0.4,0.8,0.8c0,0.5-0.4,0.9-0.8,0.9
		c-0.3,0-0.5-0.1-0.6-0.3c-0.2-0.3-0.5-0.5-0.9-0.5h-1.2c-0.4,0-0.7,0.2-0.9,0.5c-0.2,0.2-0.3,0.5-0.3,0.7v2.2
		c0,0.6,0.5,1.1,1.1,1.1h9.7c0.6,0,1.1-0.5,1.1-1.1c0.2-0.2,0.4-0.5,0.4-0.8v-25.1c0-3.9-3.1-7-7-7s-7,3.1-7,7v1.5h-1.1v-1.5
		c0-4.5,3.6-8.1,8.1-8.1s8.1,3.6,8.1,8.1v25.1c0,0.4,0.2,0.8,0.5,1c0.1,0.5,0.5,1,1.1,1h9.6c0.6,0,1.1-0.5,1.1-1.1v-2.2
		c0-0.3-0.1-0.6-0.3-0.8c-0.2-0.3-0.5-0.4-0.9-0.4h-1.2c-0.4,0-0.7,0.2-0.9,0.5c-0.2,0.2-0.4,0.3-0.6,0.3c-0.5,0-0.8-0.4-0.8-0.9
		c0-0.4,0.4-0.8,0.8-0.8c0.3,0,0.5,0.1,0.6,0.3c0.2,0.3,0.5,0.5,0.9,0.5h1.2c0.3,0,0.7-0.2,0.9-0.4c0.3-0.4,1-0.4,1.3,0
		c0.2,0.3,0.5,0.4,0.9,0.4h1.2c0.4,0,0.7-0.2,0.9-0.5c0.2-0.2,0.4-0.3,0.6-0.3c0.5,0,0.9,0.4,0.9,0.8c0,0.5-0.4,0.9-0.9,0.9
		c-0.3,0-0.5-0.1-0.6-0.3c-0.2-0.3-0.5-0.4-0.9-0.4H104c-0.3,0-0.7,0.3-0.9,0.5c-0.2,0.2-0.3,0.5-0.3,0.7v2.2c0,0.6,0.5,1.1,1.1,1.1
		h5.3v0.6H69.3V236.9z M50.9,221.7L50.9,221.7c0.1-5,4-7.4,4.8-7.9c0.4-0.2,0.6-0.6,0.6-1v-2.2H57c0.3,0,0.5-0.1,0.7-0.3
		c0.2,0.2,0.5,0.3,0.7,0.3h0.7v2.2c0,0.4,0.2,0.8,0.6,1c0.8,0.4,4.7,2.9,4.7,7.9V237c-0.1,0.2-0.2,0.4-0.3,0.5H51.3
		c-0.1,0-0.3-0.3-0.4-0.5C50.9,237,50.9,221.7,50.9,221.7z M114.6,368.6H39.3v-129h11.4c0.2,0,0.3,0.1,0.5,0.1h12.9
		c0.2,0,0.4,0,0.5-0.1h3.2c0.1,0,0.2,0.1,0.4,0.1h42.4c0.1,0,0.2,0,0.4-0.1h3.6V368.6z"/>
	<path class="st0" d="M358.2,137.3c0,0.6,0.5,1,1,1h125.1c0.6,0,1-0.5,1-1V90.9c0-0.1,0.1-0.2,0.1-0.3v-9c0-0.6-0.5-1.1-1.1-1.1
		h-39.8V34.7c0-0.6-0.5-1.1-1.1-1.1h-43.2c-0.6,0-1.1,0.5-1.1,1.1v45.8h-39.8c-0.6,0-1.1,0.5-1.1,1.1v9c0,0.1,0,0.2,0.1,0.3v46.4
		C358.3,137.3,358.2,137.3,358.2,137.3z M401.3,35.8h41v44.7h-41V35.8z M360.3,82.7h39.8h43.2h39.8v6.7H360.3V82.7z M360.3,91.7h123
		v44.5h-123V91.7z"/>
	<path class="st0" d="M459,93.6h-75.7c-0.6,0-1,0.5-1,1v37c0,0.6,0.5,1,1,1H459c0.6,0,1-0.5,1-1v-37C460.1,94,459.6,93.6,459,93.6z
		 M458,130.6h-73.6V95.7H458V130.6z"/>
	<path class="st0" d="M476.5,248.8h-108c-0.6,0-1,0.5-1,1V268c0,0.6,0.5,1,1,1h108c0.6,0,1-0.5,1-1v-18.2
		C477.5,249.2,477,248.8,476.5,248.8z M475.4,267H369.5v-16.1h105.9V267z"/>
	<path class="st0" d="M381.8,265.6c3.7,0,6.6-3,6.6-6.6c0-3.7-3-6.6-6.6-6.6c-3.7,0-6.6,3-6.6,6.6
		C375.2,262.6,378.1,265.6,381.8,265.6z M381.8,254.4c2.5,0,4.5,2,4.5,4.5s-2,4.5-4.5,4.5s-4.5-2-4.5-4.5
		C377.3,256.5,379.3,254.4,381.8,254.4z"/>
	<path class="st0" d="M400.7,265.6c3.7,0,6.6-3,6.6-6.6c0-3.7-3-6.6-6.6-6.6c-3.7,0-6.6,3-6.6,6.6S397,265.6,400.7,265.6z
		 M400.7,254.4c2.5,0,4.5,2,4.5,4.5s-2,4.5-4.5,4.5s-4.5-2-4.5-4.5C396.2,256.5,398.2,254.4,400.7,254.4z"/>
	<path class="st0" d="M419.6,265.6c3.7,0,6.6-3,6.6-6.6c0-3.7-3-6.6-6.6-6.6c-3.7,0-6.6,3-6.6,6.6S415.9,265.6,419.6,265.6z
		 M419.6,254.4c2.5,0,4.5,2,4.5,4.5s-2,4.5-4.5,4.5s-4.5-2-4.5-4.5C415,256.5,417.1,254.4,419.6,254.4z"/>
	<path class="st0" d="M438.5,265.6c3.7,0,6.6-3,6.6-6.6c0-3.7-3-6.6-6.6-6.6c-3.7,0-6.6,3-6.6,6.6S434.8,265.6,438.5,265.6z
		 M438.5,254.4c2.5,0,4.5,2,4.5,4.5s-2,4.5-4.5,4.5s-4.5-2-4.5-4.5C433.9,256.5,436,254.4,438.5,254.4z"/>
	<path class="st0" d="M464.5,265.6c3.7,0,6.6-3,6.6-6.6c0-3.7-3-6.6-6.6-6.6c-3.7,0-6.6,3-6.6,6.6
		C457.8,262.6,460.8,265.6,464.5,265.6z M464.5,254.4c2.5,0,4.5,2,4.5,4.5s-2,4.5-4.5,4.5s-4.5-2-4.5-4.5
		C459.9,256.5,461.9,254.4,464.5,254.4z"/>
</g>
</svg>
