<?xml version="1.0" encoding="utf-8"?>
<!-- Generator: Adobe Illustrator 24.0.1, SVG Export Plug-In . SVG Version: 6.00 Build 0)  -->
<svg version="1.1" id="Layer_1" xmlns="http://www.w3.org/2000/svg" xmlns:xlink="http://www.w3.org/1999/xlink" x="0px" y="0px"
	 viewBox="0 0 651 403.1" style="enable-background:new 0 0 651 403.1;" xml:space="preserve">
<style type="text/css">
	.st0{opacity:0.2;fill:#C4C4C4;enable-background:new    ;}
</style>
<g>
	<path class="st0" d="M630.2,33.6h-610c-0.6,0-1.2,0.5-1.2,1.2s0.6,1.3,1.2,1.3h610c0.7,0,1.2-0.7,1.2-1.3S630.9,33.6,630.2,33.6z"
		/>
	<path class="st0" d="M590.2,93.9c0-0.6-0.5-1.2-1.2-1.2H375.5c-0.6,0-1.2,0.6-1.2,1.2c0,0.6,0.5,1.2,1.2,1.2H589
		C589.7,95.1,590.2,94.5,590.2,93.9z"/>
	<path class="st0" d="M272.7,92.7H62c-0.6,0-1.2,0.6-1.2,1.2c0,0.6,0.5,1.2,1.2,1.2h210.7c0.7,0,1.2-0.6,1.2-1.2
		C273.9,93.3,273.4,92.7,272.7,92.7z"/>
	<path class="st0" d="M470.6,258.1c-0.6,0.3-0.8,1.1-0.4,1.7l1.8,2.7c0.2,0.4,0.6,0.6,1,0.6c0.3,0,0.5-0.1,0.7-0.2
		c0.6-0.3,0.8-1.1,0.4-1.7l-1.8-2.7C472,257.9,471.2,257.7,470.6,258.1z"/>
	<path class="st0" d="M463.5,247.1c-0.6,0.3-0.8,1.1-0.4,1.7l4.2,6.4c0.2,0.4,0.6,0.6,1,0.6c0.2,0,0.4-0.1,0.7-0.2
		c0.6-0.3,0.8-1.1,0.4-1.7l-4.2-6.4C464.9,246.9,464.1,246.7,463.5,247.1z"/>
	<path class="st0" d="M453.5,232.2c-0.6,0.3-0.8,1.1-0.4,1.7l6.9,10.6c0.2,0.4,0.6,0.6,1,0.6c0.3,0,0.5-0.1,0.7-0.2
		c0.6-0.3,0.8-1.1,0.4-1.7l-6.9-10.6C454.9,232,454.1,231.8,453.5,232.2z"/>
	<path class="st0" d="M440.6,212.3c-0.6,0.3-0.8,1.1-0.4,1.7l9.1,14c0.2,0.4,0.6,0.6,1,0.6c0.2,0,0.5-0.1,0.7-0.2
		c0.6-0.3,0.8-1.1,0.4-1.7l-9.1-14C442,212.1,441.2,211.9,440.6,212.3z"/>
	<path class="st0" d="M423.1,185.4c-0.6,0.3-0.8,1.1-0.4,1.7l13.7,21.1c0.2,0.4,0.6,0.6,1,0.6c0.2,0,0.5-0.1,0.7-0.2
		c0.6-0.3,0.8-1.1,0.4-1.7l-13.7-21.1C424.5,185.2,423.7,185,423.1,185.4z"/>
	<path class="st0" d="M398.9,148.4c-0.6,0.3-0.8,1.1-0.4,1.7l20.1,30.8c0.2,0.4,0.6,0.6,1,0.6c0.3,0,0.5,0,0.7-0.2
		c0.6-0.3,0.8-1.1,0.4-1.7l-20.1-30.8C400.3,148.2,399.5,148.1,398.9,148.4z"/>
	<path class="st0" d="M372.7,108.1c-0.6,0.3-0.8,1.1-0.4,1.7l22.1,33.9c0.2,0.4,0.6,0.6,1,0.6c0.2,0,0.4,0,0.7-0.2
		c0.6-0.3,0.8-1.1,0.4-1.7l-22.1-33.9C374.1,107.9,373.3,107.7,372.7,108.1z"/>
	<path class="st0" d="M178.7,258.5l-1.8,2.7c-0.3,0.5-0.2,1.3,0.4,1.7c0.2,0.1,0.5,0.2,0.7,0.2c0.4,0,0.8-0.2,1-0.6l1.8-2.7
		c0.3-0.5,0.2-1.3-0.4-1.7C179.9,257.8,179.1,257.9,178.7,258.5z"/>
	<path class="st0" d="M185.9,247.5l-4.2,6.4c-0.3,0.5-0.2,1.3,0.4,1.7c0.2,0.1,0.5,0.2,0.7,0.2c0.4,0,0.8-0.2,1-0.6l4.2-6.4
		c0.3-0.5,0.2-1.3-0.4-1.7C187.1,246.8,186.3,246.9,185.9,247.5z"/>
	<path class="st0" d="M195.8,232.6l-6.9,10.6c-0.3,0.5-0.2,1.3,0.4,1.7c0.2,0.1,0.5,0.2,0.7,0.2c0.4,0,0.8-0.2,1-0.6l6.9-10.6
		c0.3-0.5,0.2-1.3-0.4-1.7C197,231.9,196.2,232,195.8,232.6z"/>
	<path class="st0" d="M208.8,212.7l-9.1,14c-0.3,0.5-0.2,1.3,0.4,1.7c0.2,0.1,0.5,0.2,0.7,0.2c0.4,0,0.8-0.2,1-0.6l9.1-14
		c0.3-0.5,0.2-1.3-0.4-1.7C210,212,209.2,212.1,208.8,212.7z"/>
	<path class="st0" d="M226.3,185.8l-13.7,21.1c-0.3,0.5-0.2,1.3,0.4,1.7c0.2,0.1,0.5,0.2,0.7,0.2c0.4,0,0.8-0.2,1-0.6l13.7-21.1
		c0.3-0.5,0.2-1.3-0.4-1.7C227.5,185.1,226.7,185.2,226.3,185.8z"/>
	<path class="st0" d="M250.5,148.8l-20.1,30.8c-0.3,0.5-0.2,1.3,0.4,1.7c0.2,0.1,0.5,0.2,0.7,0.2c0.4,0,0.8-0.2,1-0.6l20.1-30.8
		c0.3-0.5,0.2-1.3-0.4-1.7C251.7,148.1,250.9,148.2,250.5,148.8z"/>
	<path class="st0" d="M255,144.1c0.2,0.1,0.5,0.2,0.7,0.2c0.4,0,0.8-0.2,1-0.6l22.1-33.9c0.3-0.5,0.2-1.3-0.4-1.7
		c-0.5-0.3-1.3-0.2-1.7,0.4l-22.1,33.9C254.3,142.9,254.4,143.7,255,144.1z"/>
	<path class="st0" d="M284,101.9L306.1,68c1.1,0.8,2.9,1.4,5.5,1.9c3.8,0.8,8.7,1.2,14,1.2s10.3-0.4,14-1.2c2.5-0.5,4.3-1.2,5.4-1.9
		l22.1,33.9c0.2,0.4,0.6,0.6,1,0.6c0.3,0,0.5-0.1,0.7-0.2c0.6-0.3,0.8-1.1,0.4-1.7l-22.9-35.1c-0.2-1.7-2.3-2.9-6.7-3.8
		c-3.8-0.8-8.7-1.2-14-1.2s-10.3,0.4-14,1.2c-4.1,0.9-6.2,2-6.6,3.5l-23.1,35.4c-0.3,0.5-0.2,1.3,0.4,1.7c0.2,0.1,0.5,0.2,0.7,0.2
		C283.4,102.5,283.8,102.3,284,101.9z M325.7,63.1c10.5,0,17,1.6,18.1,2.7c-1.1,1.1-7.6,2.8-18.1,2.8s-17-1.7-18.1-2.8
		C308.7,64.8,315.2,63.1,325.7,63.1z"/>
	<path class="st0" d="M281.5,316.1c3.6,0,6.4-2.7,6.8-6h11.3h5.6c0.5,0,1-0.5,0.9-1.1c0-3.6-3.1-6.6-6.8-6.2
		c-11.3,1.1-38.5,2.7-49.3-7c-2.9-2.7-4.4-6.1-4.4-10.1c0-14.9-1.8-29.4-5-39.9c-4-13.3-10.2-20.3-17.9-20.3c-0.6,0-1,0.4-1,1v4v66
		c0,6.5,4.5,11.9,10.5,13.3c0.3,3.6,3.4,6.3,7,6.3h1l-8.3,60.4c-0.1,0.3,0,0.6,0.2,0.8c0.2,0.2,0.5,0.3,0.8,0.3h4.2
		c0.5,0,0.9-0.3,1-0.8l2.4-14.1h39.9l2.4,14.1c0.1,0.4,0.5,0.8,1,0.8h4.2c0.3,0,0.6-0.1,1-0.3c0.2-0.2,0.2-0.5,0.2-0.8l-8.3-60.4
		L281.5,316.1L281.5,316.1z M272.4,316.1l7,40.1h-37.7l7-40.1H272.4z M292,308.1c1-0.1,2-0.2,2.9-0.3c0.7,0,1.4,0.1,2,0.3H292z
		 M243.6,285.8c0,4.7,1.7,8.5,5.1,11.6c11.4,10.3,39.3,8.7,50.8,7.5c2.1-0.2,4,1.2,4.5,3.2h-3.9c-1.3-1.6-3.3-2.4-5.4-2.2
		c-11.2,1.1-38.5,2.7-49.3-7c-2.9-2.7-4.4-6.1-4.4-10.1c0-23.3-4.5-52.4-17.3-58.9v-2.3C237.4,229,243.6,258.4,243.6,285.8z
		 M223.7,296.5v-64.3c10.5,6.7,15.3,32.8,15.3,56.5c0,4.7,1.7,8.5,5.1,11.6c5.1,4.6,13.5,6.9,22.3,7.8h-31.2
		C228.8,308.1,223.7,302.9,223.7,296.5z M234.3,310.1h0.9h51.2c-0.5,2.3-2.5,4-4.9,4h-42.3C236.8,314.1,234.8,312.4,234.3,310.1z
		 M286.9,375.6h-2.3l-2.3-14.1c-0.1-0.4-0.5-0.8-1-0.8h-41.6c-0.5,0-0.9,0.3-1,0.8l-2.4,14.1H234l8.2-59.5h4.3l-7.1,40.9
		c-0.1,0.3,0,0.6,0.2,0.8c0.2,0.3,0.5,0.4,0.8,0.4h40.1c0.3,0,0.6-0.2,0.8-0.4s0.2-0.5,0.2-0.8l-7.1-40.9h4.3L286.9,375.6z"/>
	<path class="st0" d="M435,272.3c0.6,0,1-0.5,1-1v-7.8v-7.7c0-0.6-0.4-1-1-1H292.2c-0.6,0-1,0.4-1,1v7.7v7.8c0,0.6,0.4,1,1,1h26.4
		l-14.4,104.2c-0.1,0.3,0,0.6,0.2,0.8c0.2,0.2,0.5,0.3,0.8,0.3h5.6c0.4,0,0.9-0.4,1-0.8L330,272.3h67.4l18.2,104.5
		c0.1,0.5,0.5,0.8,1,0.8h5.6c0.2,0,0.5-0.1,0.7-0.4c0.2-0.2,0.2-0.5,0.2-0.8l-14.3-104.1H435z M293.2,256.8H434v5.7H293.2V256.8z
		 M293.2,264.5H434v5.8h-26.5h-9.3h-105V264.5z M309.9,375.6h-3.6l14.4-103.3h7.2L309.9,375.6z M420.9,375.6h-3.6l-18-103.3h7.2
		L420.9,375.6z"/>
	<path class="st0" d="M622,368.6H427.9c-0.6,0-1,0.4-1,1s0.4,1,1,1H622c0.5,0,1-0.4,1-1S622.6,368.6,622,368.6z"/>
	<path class="st0" d="M410.1,368.6h-91.6c-0.6,0-1,0.4-1,1s0.4,1,1,1h91.6c0.6,0,1-0.4,1-1S410.7,368.6,410.1,368.6z"/>
	<path class="st0" d="M302,368.6h-9.8c-0.6,0-1,0.4-1,1s0.4,1,1,1h9.8c0.5,0,1-0.4,1-1S302.6,368.6,302,368.6z"/>
	<path class="st0" d="M276.6,368.6H243c-0.6,0-1,0.4-1,1s0.4,1,1,1h33.6c0.6,0,1-0.4,1-1S277.2,368.6,276.6,368.6z"/>
	<path class="st0" d="M226.9,368.6H28c-0.6,0-1,0.4-1,1s0.4,1,1,1h198.8c0.6,0,1.1-0.4,1.1-1C227.9,369,227.5,368.6,226.9,368.6z"/>
</g>
</svg>
