<?xml version="1.0" encoding="utf-8"?>
<!-- Generator: Adobe Illustrator 24.0.1, SVG Export Plug-In . SVG Version: 6.00 Build 0)  -->
<svg version="1.1" id="Layer_1" xmlns="http://www.w3.org/2000/svg" xmlns:xlink="http://www.w3.org/1999/xlink" x="0px" y="0px"
	 viewBox="0 0 675 412" style="enable-background:new 0 0 675 412;" xml:space="preserve">
<style type="text/css">
	.st0{opacity:0.2;fill:#C4C4C4;enable-background:new    ;}
</style>
<g>
	<path class="st0" d="M32.2,35.6h610c0.7,0,1.2-0.6,1.2-1.2c0-0.6-0.5-1.2-1.2-1.2h-610c-0.6,0-1.2,0.5-1.2,1.2
		C31,35.1,31.6,35.6,32.2,35.6z"/>
	<path class="st0" d="M642,377.2H497.8V140.4c0-0.6-0.5-1.2-1.2-1.2h-109c-0.6,0-1.2,0.5-1.2,1.2v236.8H32.2c-0.6,0-1.2,0.6-1.2,1.2
		s0.5,1.2,1.2,1.2h355.6c0.6,0,1.2-0.5,1.2-1.2V141.6h106.5v236.8c0,0.6,0.5,1.2,1.2,1.2h145.5c0.7,0,1-0.6,1-1.2
		C643.2,377.8,642.7,377.2,642,377.2z"/>
	<path class="st0" d="M306.6,138.6l-214.4,0.2c-0.6,0.1-1.2,0.6-1.2,1.3l0.1,126.1c0,0.3,0.1,0.6,0.4,0.9s0.6,0.4,0.9,0.4l214.4-0.2
		c0.6-0.1,1.2-0.6,1.2-1.3l-0.1-126.1c0-0.3-0.1-0.6-0.4-0.9C307.2,138.7,306.9,138.6,306.6,138.6z M93.6,265l-0.1-123.6l211.9-0.2
		l0.1,123.6L93.6,265z"/>
	<path class="st0" d="M194.2,206.2l-91.5,0.1c-0.3,0-0.7,0.2-0.9,0.4c-0.3,0.3-0.4,0.6-0.4,0.9l0.1,48.1c0,0.3,0.1,0.6,0.4,0.9
		s0.6,0.4,0.9,0.4l91.4-0.3c0.6-0.1,1.2-0.6,1.2-1.3v-48C195.4,206.8,194.9,206.2,194.2,206.2z M193.1,254.4l-89,0.1l-0.1-45.6h89.1
		V254.4z"/>
	<path class="st0" d="M295.4,206.2l-92.1,0.1c-0.3,0-0.7,0.2-0.9,0.4c-0.3,0.3-0.4,0.6-0.4,0.9v48c0,0.3,0.2,0.7,0.4,0.9
		c0.3,0.3,0.6,0.4,0.9,0.4l92.1-0.2c0.3,0,0.6-0.1,0.9-0.4s0.4-0.6,0.4-0.9l-0.1-48C296.6,206.8,296.1,206.2,295.4,206.2z
		 M204.5,254.3v-45.5l89.6-0.1l0.1,45.5L204.5,254.3z"/>
	<path class="st0" d="M194.2,149.2l-91.5,0.1c-0.6,0.1-1.2,0.6-1.2,1.3l0.1,48c0,0.6,0.5,1.2,1.2,1.2h91.4c0.3,0,0.7-0.2,0.9-0.4
		c0.3-0.3,0.4-0.6,0.4-0.9v-48c0-0.3-0.2-0.7-0.4-0.9C194.8,149.3,194.5,149.2,194.2,149.2z M193,197.2l-89,0.1l-0.1-45.5l89.1-0.1
		V197.2z"/>
	<path class="st0" d="M295.4,149.1l-92.1,0.1c-0.6,0.1-1.2,0.6-1.2,1.3v48c0,0.6,0.5,1.2,1.2,1.2h92.1c0.3,0,0.7-0.2,0.9-0.4
		c0.3-0.3,0.4-0.6,0.4-0.9l-0.1-48.1C296.6,149.7,296.1,149.1,295.4,149.1z M204.5,197.2v-45.5l89.5-0.2l0.1,45.6L204.5,197.2z"/>
</g>
</svg>
